<?xml version="1.0" encoding="UTF-8"?>
<svg xmlns="http://www.w3.org/2000/svg" width="32" height="32">
  <path d="M 9.3309091,7.484932 7.04,5.196347 5.2454545,6.999087
           7.5236364,9.287671 9.3309091,7.484932 Z m -3.5127273,7.236529
           -3.8181818,0 0,2.557078 3.8181818,0 0,-2.557078 z M 17.272727,2 l
           -2.545454,0 0,3.771689 2.545454,0 0,-3.771689 z M 26.754545,6.999087
           24.96,5.196347 22.681818,7.484932 24.476364,9.287671
           26.754545,6.999087 Z m -4.085454,17.515981 2.278182,2.30137
           1.794545,-1.802739 -2.290909,-2.288585 -1.781818,1.789954 z m
           3.512727,-9.793607 0,2.557078 3.818182,0 0,-2.557078 -3.818182,0 z M
           16,8.328767 c -4.212727,0 -7.6363636,3.439269 -7.6363636,7.671233
           0,4.231963 3.4236366,7.671233 7.6363636,7.671233 4.212727,0
           7.636364,-3.43927 7.636364,-7.671233 0,-4.231964 -3.423637,-7.671233
           -7.636364,-7.671233 z M 14.727273,30 l 2.545454,0 0,-3.771689
           -2.545454,0 0,3.771689 z M 5.2454545,25.000913 7.04,26.803653 l
           2.2781818,-2.30137 -1.7945454,-1.80274 -2.2781819,2.30137 z"
        fill="white" />
</svg>
