<?xml version="1.0" encoding="UTF-8"?>
<svg xmlns="http://www.w3.org/2000/svg" width="32" height="32">
  <path d="M 12,6 C 9.238576,6 7,8.2385756 7,11 7,11.379696 7.04481,11.738285
           7.125,12.09375 4.786686,12.512364 3,14.541271 3,17 c 0,2.761424
           2.238576,5 5,5 l 16,0 c 2.761424,0 5,-1.790861 5,-4 0,-2.209139
           -2.238576,-4 -5,-4 -0.38046,0 -0.737627,0.0606 -1.09375,0.125 C
           22.487636,11.786686 20.458729,10 18,10 c -0.379696,0
           -0.738285,0.044814 -1.09375,0.1250004 C 16.487636,7.7866857
           14.458729,6 12,6 z"
        fill="white" />
</svg>
