<?xml version="1.0" encoding="UTF-8"?>
<svg xmlns="http://www.w3.org/2000/svg" width="32" height="32">
  <path d="m 16.625,2 c -1.874798,0 -3.444758,1.2846828 -4,3.03125
           2.346878,0.2433763 4.2825,1.8416738 5.03125,4 C 17.768818,9.02496
           17.885859,9 18,9 c 2.624648,0 4.841887,1.683789 5.65625,4.03125 C
           23.768818,13.02601 23.885859,13 24,13 c 2.169617,0 4.071189,0.96853
           5.125,2.40625 C 30.250392,14.777275 31,13.708123 31,12.5 31,10.567003
           29.117839,9 26.78125,9 26.459322,9 26.145084,9.068645 25.84375,9.125
           25.489538,7.0789753 23.767963,5.5 21.6875,5.5 21.366218,5.5
           21.082028,5.554834 20.78125,5.625 20.427038,3.5789753 18.705463,2
           16.625,2 z"
        fill="white" />
  <path d="M 12,6 C 9.238576,6 7,8.2385756 7,11 7,11.379696 7.04481,11.738285
           7.125,12.09375 4.786686,12.512364 3,14.541271 3,17 c 0,2.761424
           2.238576,5 5,5 l 16,0 c 2.761424,0 5,-1.790861 5,-4 0,-2.209139
           -2.238576,-4 -5,-4 -0.38046,0 -0.737627,0.0606 -1.09375,0.125 C
           22.487636,11.786686 20.458729,10 18,10 c -0.379696,0
           -0.738285,0.044814 -1.09375,0.1250004 C 16.487636,7.7866857
           14.458729,6 12,6 z"
        fill="white" />
</svg>
