<?xml version="1.0" encoding="UTF-8"?>
<svg xmlns="http://www.w3.org/2000/svg" width="32" height="32">
  <path d="m 30,14.6 -5.838,0 4.536,-4.536 -1.974,-1.988 -6.524,6.524 -2.8,0
           0,-2.8 L 23.924,5.276 21.936,3.302 17.4,7.838 17.4,2 14.6,2
           14.6,7.838 10.064,3.302 8.076,5.276 14.6,11.8 l 0,2.8 -2.8,0 L
           5.276,8.076 3.302,10.064 7.838,14.6 2,14.6 l 0,2.8 5.838,0
           -4.536,4.536 1.974,1.988 6.524,-6.524 2.8,0 0,2.8 -6.524,6.524
           1.988,1.974 4.536,-4.536 0,5.838 2.8,0 0,-5.838 4.536,4.536
           1.988,-1.974 -6.524,-6.524 0,-2.8 2.8,0 6.524,6.524 1.974,-1.988
           -4.536,-4.536 5.838,0 z"
        fill="white" />
</svg>
