<?xml version="1.0" encoding="UTF-8" standalone="no"?>
<!-- Created with Inkscape (http://www.inkscape.org/) -->

<svg
   xmlns:dc="http://purl.org/dc/elements/1.1/"
   xmlns:cc="http://creativecommons.org/ns#"
   xmlns:rdf="http://www.w3.org/1999/02/22-rdf-syntax-ns#"
   xmlns:svg="http://www.w3.org/2000/svg"
   xmlns="http://www.w3.org/2000/svg"
   xmlns:sodipodi="http://sodipodi.sourceforge.net/DTD/sodipodi-0.dtd"
   xmlns:inkscape="http://www.inkscape.org/namespaces/inkscape"
   version="1.0"
   width="100"
   height="100"
   viewBox="0 0 100 99.999996"
   id="Layer_1"
   xml:space="preserve"
   inkscape:version="0.48.4 r9939"
   sodipodi:docname="icon.svg"><metadata
     id="metadata14"><rdf:RDF><cc:Work
         rdf:about=""><dc:format>image/svg+xml</dc:format><dc:type
           rdf:resource="http://purl.org/dc/dcmitype/StillImage" /></cc:Work></rdf:RDF></metadata><sodipodi:namedview
     pagecolor="#ffffff"
     bordercolor="#666666"
     borderopacity="1"
     objecttolerance="10"
     gridtolerance="10"
     guidetolerance="10"
     inkscape:pageopacity="0"
     inkscape:pageshadow="2"
     inkscape:window-width="1680"
     inkscape:window-height="998"
     id="namedview12"
     showgrid="false"
     inkscape:zoom="1.995"
     inkscape:cx="22.884371"
     inkscape:cy="25.832774"
     inkscape:window-x="-8"
     inkscape:window-y="-8"
     inkscape:window-maximized="1"
     inkscape:current-layer="text3750" /><defs
     id="defs20" /><g
     transform="scale(1.0172426,0.98304965)"
     style="font-size:148.80807495px;font-style:normal;font-variant:normal;font-weight:bold;font-stretch:normal;line-height:125%;letter-spacing:0px;word-spacing:0px;fill:#000000;fill-opacity:1;stroke:none;font-family:Courier New;-inkscape-font-specification:Courier New Bold"
     id="text3750"><path
       d="m 65.864328,20.126869 c -6.3e-5,2.80958 -0.993085,5.158924 -2.979068,7.048038 -1.986103,1.889212 -4.722968,2.833794 -8.210602,2.833748 -3.439297,4.6e-5 -6.151942,-0.956646 -8.137942,-2.870078 -1.986086,-1.913334 -2.979108,-4.274788 -2.979068,-7.084368 -4e-5,-2.761029 0.980872,-5.098263 2.942738,-7.011709 1.96178,-1.913321 4.686535,-2.870012 8.174272,-2.870078 3.487634,6.6e-5 6.224499,0.944647 8.210602,2.833748 1.985983,1.889226 2.979005,4.26279 2.979068,7.120699 z m -23.033281,33.93231 18.96431,0 -20.998796,34.07763 c -1.35636,2.276672 -2.688462,3.415013 -3.99631,3.415029 -1.211036,-1.6e-5 -2.240388,-0.363316 -3.088059,-1.089903 -0.847732,-0.726616 -1.271582,-1.501657 -1.271553,-2.325126 -2.9e-5,-0.629733 0.169511,-1.477435 0.508621,-2.543107 z"
       style="font-family:Courier New;-inkscape-font-specification:Courier New Bold;fill:#000000;fill-opacity:0.19607843000000000;stroke:none"
       id="path3755" /></g></svg>