<?xml version="1.0" encoding="UTF-8" standalone="no"?>
<!-- Created with Inkscape (http://www.inkscape.org/) -->

<svg
   xmlns:dc="http://purl.org/dc/elements/1.1/"
   xmlns:cc="http://creativecommons.org/ns#"
   xmlns:rdf="http://www.w3.org/1999/02/22-rdf-syntax-ns#"
   xmlns:svg="http://www.w3.org/2000/svg"
   xmlns="http://www.w3.org/2000/svg"
   version="1.1"
   width="100"
   height="100"
   id="svg3007">
  <defs
     id="defs3009" />
  <metadata
     id="metadata3012">
    <rdf:RDF>
      <cc:Work
         rdf:about="">
        <dc:format>image/svg+xml</dc:format>
        <dc:type
           rdf:resource="http://purl.org/dc/dcmitype/StillImage" />
        <dc:title></dc:title>
      </cc:Work>
    </rdf:RDF>
  </metadata>
  <g
     transform="translate(0,-952.35858)"
     id="layer1">
    <path
       d="m 51.678178,962.35859 c -0.513046,-9.4e-4 -1.048185,0.0206 -1.606235,0.0652 -14.104137,1.13739 -10.363622,16.05738 -10.572955,21.05361 -0.257568,3.6537 -0.997391,6.53307 -3.506947,10.10501 -2.948352,3.51075 -7.099297,9.19289 -9.065709,15.10799 -0.928055,2.7915 -1.369682,5.6369 -0.96183,8.3299 -0.12776,0.1145 -0.24939,0.2346 -0.365043,0.3582 -0.865635,0.9254 -1.505242,2.0466 -2.217926,2.8015 -0.665835,0.6651 -1.614483,0.9181 -2.656968,1.2925 -1.042884,0.3747 -2.187891,0.9271 -2.882917,2.2626 0,0 0,5e-4 -4.65e-4,7e-4 -0.0011,0 -0.0024,0 -0.0036,0.01 l 0,0 c -0.629173,1.1766 -0.44213,2.5317 -0.249977,3.7872 0.192159,1.2553 0.386691,2.4417 0.128476,3.2466 -0.825371,2.259 -0.930748,3.8215 -0.349713,4.955 0.582273,1.1357 1.779477,1.637 3.132576,1.92 2.706205,0.566 6.371118,0.4253 9.259493,1.9582 l 0.248259,-0.4691 -0.24569,0.4705 c 3.092146,1.6188 6.226973,2.1938 8.728015,1.6217 1.813295,-0.4146 3.285261,-1.4958 4.041212,-3.1594 1.956213,-0.01 4.102814,-0.8392 7.541403,-1.0288 2.33274,-0.1882 5.246745,0.8295 8.598571,0.6431 0.08762,0.3642 0.214418,0.7144 0.387993,1.0471 0.0018,0 0.0035,0.01 0.0053,0.01 1.299342,2.6017 3.713614,3.7918 6.286489,3.5884 2.576267,-0.2036 5.31536,-1.7246 7.529496,-4.3631 l -0.405905,-0.3415 0.409009,0.3378 c 2.110403,-2.5623 5.613327,-3.6249 7.936047,-5.0276 1.161361,-0.7014 2.103727,-1.5797 2.176538,-2.8553 0.0728,-1.275 -0.674771,-2.7038 -2.3937,-4.6144 0,0 -4.67e-4,-4e-4 -4.67e-4,-4e-4 -6.52e-4,-9e-4 -0.0013,0 -0.002,0 -0.564784,-0.6392 -0.834219,-1.8236 -1.123768,-3.085 -0.28935,-1.2606 -0.612333,-2.6205 -1.645908,-3.5018 l 0,0 c -0.0021,0 -0.0042,0 -0.0062,0 0,0 0,0 0,0 -0.411349,-0.3588 -0.83881,-0.6024 -1.269288,-0.7661 1.436996,-4.2673 0.873183,-8.5167 -0.577374,-12.3565 -1.780243,-4.7126 -4.88828,-8.81897 -7.261939,-11.62804 -2.656924,-3.35574 -5.255631,-6.54174 -5.204439,-11.24735 0.07914,-7.18179 0.788928,-20.5002 -11.83217,-20.51745 z m 1.708648,11.06424 c 0.716178,0 1.327841,0.2102 1.956154,0.66685 0.638291,0.46389 1.098133,1.04459 1.468754,1.85554 0.363754,0.79033 0.53877,1.56347 0.55593,2.48094 0,0.0241 0,0.0447 0.0069,0.0687 0.0069,0.94151 -0.154422,1.74215 -0.511319,2.55996 -0.203645,0.46666 -0.437511,0.85832 -0.717429,1.19742 -0.09503,-0.0457 -0.193728,-0.0896 -0.296091,-0.13177 l 0,0 c -0.70953,-0.30429 -1.253825,-0.49794 -1.707465,-0.65555 0.164441,-0.19793 0.301368,-0.43267 0.421773,-0.72612 0.181878,-0.44326 0.271102,-0.87624 0.288259,-1.39166 0,-0.0206 0.0069,-0.0378 0.0069,-0.0619 0.01029,-0.49481 -0.0549,-0.91747 -0.199037,-1.35044 -0.150993,-0.45357 -0.343168,-0.78001 -0.62113,-1.05147 -0.277966,-0.27147 -0.555929,-0.39516 -0.888805,-0.40548 -0.01561,-9.4e-4 -0.03117,-9.4e-4 -0.04654,-9.4e-4 -0.313112,9.4e-4 -0.584993,0.10845 -0.866281,0.34427 -0.295123,0.24741 -0.514748,0.56352 -0.696631,1.00336 -0.181877,0.43984 -0.271102,0.87623 -0.288255,1.3951 -0.0035,0.0206 -0.0035,0.0378 -0.0035,0.0584 -0.0059,0.2852 0.01216,0.54648 0.05608,0.8002 -0.640672,-0.31966 -1.244426,-0.53759 -1.811057,-0.67264 -0.0323,-0.24535 -0.05098,-0.49853 -0.05695,-0.76326 l 0,-0.0722 c -0.0103,-0.93808 0.14413,-1.74214 0.504456,-2.55995 0.360327,-0.81783 0.806442,-1.40543 1.434436,-1.88305 0.627994,-0.47763 1.245691,-0.69755 1.976638,-0.70442 0.01142,0 0.02285,0 0.03421,0 z m -9.802336,0.77712 c 0.475098,0.001 0.900221,0.16006 1.339958,0.51168 0.477001,0.38141 0.837326,0.86935 1.139312,1.55659 0.301986,0.68725 0.463275,1.37448 0.507885,2.18543 l 0,0.007 c 0.02162,0.34059 0.01899,0.66118 -0.0078,0.97168 -0.09396,0.0267 -0.186046,0.0557 -0.276248,0.0868 -0.512274,0.17657 -0.963739,0.4172 -1.357223,0.67737 0.03848,-0.27216 0.0442,-0.54829 0.01469,-0.85617 -0.0035,-0.0172 -0.0035,-0.0309 -0.0035,-0.0481 -0.04118,-0.40892 -0.126972,-0.75253 -0.271102,-1.09959 -0.154421,-0.3608 -0.326008,-0.61508 -0.5525,-0.81095 -0.205252,-0.17749 -0.399187,-0.259 -0.61255,-0.25739 -0.02207,0 -0.0444,0.001 -0.06692,0.003 -0.240218,0.0206 -0.439253,0.13743 -0.627997,0.36767 -0.18874,0.23022 -0.312278,0.51543 -0.401501,0.8934 -0.08923,0.37799 -0.113247,0.74909 -0.0755,1.17517 0,0.0172 0.0035,0.0309 0.0035,0.0481 0.04117,0.41236 0.123537,0.75597 0.2711,1.10304 0.150993,0.35735 0.326008,0.61163 0.5525,0.8075 0.03793,0.0328 0.07546,0.0623 0.112812,0.0886 -0.235585,0.18155 -0.348077,0.26526 -0.541127,0.40731 -0.123819,0.091 -0.271284,0.19929 -0.442683,0.32579 -0.373784,-0.35062 -0.66538,-0.79128 -0.920334,-1.37147 -0.301986,-0.68723 -0.463275,-1.37449 -0.511319,-2.18543 l 0,-0.007 c -0.04461,-0.81094 0.03431,-1.50849 0.257377,-2.23009 0.223058,-0.7216 0.521616,-1.2439 0.954001,-1.67344 0.43239,-0.42952 0.868216,-0.646 1.39326,-0.67348 0.04101,-0.002 0.08167,-0.003 0.121928,-0.003 z m 4.458056,5.62602 c 1.104242,-0.004 2.433049,0.35824 4.04175,1.39393 0.988136,0.64343 1.757025,0.69721 3.527536,1.45652 l 0.0021,9.4e-4 0.0022,8.4e-4 c 0.851867,0.34997 1.351868,0.80616 1.596155,1.28653 0.244282,0.48038 0.250256,1.0013 0.04579,1.54929 -0.408922,1.09602 -1.714201,2.24946 -3.545875,2.8222 l -0.0017,7.5e-4 -0.0016,7.5e-4 c -0.893116,0.29055 -1.671905,0.93219 -2.590047,1.45791 -0.918116,0.52569 -1.957033,0.94968 -3.369677,0.86786 0,-10e-6 0,0 0,0 -1.20261,-0.0702 -1.921486,-0.47899 -2.571497,-1.00208 -0.650029,-0.52311 -1.21647,-1.18028 -2.045917,-1.66797 l -0.0021,-10e-4 -0.0022,-10e-4 c -1.336046,-0.75616 -2.065464,-1.63073 -2.294387,-2.38891 -0.22893,-0.75819 -0.01409,-1.40536 0.648798,-1.9028 0.74527,-0.55927 1.262977,-0.93969 1.607836,-1.1931 0.342589,-0.25173 0.485122,-0.34612 0.594219,-0.45102 5.58e-4,-8.4e-4 0.0011,-10e-4 0.0017,-0.002 0,0 4.66e-4,-8.4e-4 4.66e-4,-8.4e-4 0.559977,-0.53075 1.452626,-1.49774 2.798196,-1.96153 0.463118,-0.15963 0.979888,-0.26263 1.558299,-0.26492 z m 7.72167,4.57285 c -0.476517,0.0285 -0.975584,0.27411 -1.556684,0.59898 -0.581105,0.32484 -1.234577,0.7404 -1.942756,1.14961 -1.416353,0.81845 -3.046756,1.60116 -4.667059,1.60116 -1.62282,0 -2.919362,-0.75048 -3.891829,-1.52212 -0.486236,-0.38583 -0.887546,-0.77446 -1.208161,-1.0751 -0.160307,-0.15033 -0.299336,-0.27845 -0.429065,-0.37853 -0.129706,-0.10006 -0.235284,-0.1993 -0.452338,-0.1993 l -0.01041,0.45669 c -0.01554,0.15282 -0.03151,0.14811 -0.0252,0.15228 0.01013,0.007 0.06049,0.024 0.119251,0.0694 0.09537,0.0736 0.227759,0.19349 0.38488,0.34082 0.314245,0.29467 0.731811,0.69981 1.245913,1.10775 1.028191,0.81586 2.458108,1.65292 4.26695,1.65292 1.811357,0 3.525113,-0.84776 4.969052,-1.68213 0.721962,-0.4172 1.377669,-0.83363 1.935245,-1.14533 0.557547,-0.3117 1.026653,-0.50717 1.298237,-0.52337 l -0.03603,-0.6037 z m 1.610096,2.17049 c 1.203069,4.74873 4.001258,11.60769 5.799729,14.95489 0.95595,1.776 2.857806,5.5492 3.679498,10.0952 0.520658,-0.016 1.093957,0.06 1.707896,0.217 2.148371,-5.5769 -1.821793,-11.584 -3.637247,-13.25691 -0.732951,-0.71216 -0.768181,-1.03124 -0.404826,-1.01615 1.969693,1.74416 4.555468,5.25226 5.496238,9.21186 0.428975,1.8056 0.520434,3.7037 0.06016,5.577 0.22519,0.094 0.453897,0.1955 0.685687,0.3054 3.448534,1.6814 4.72392,3.1437 4.110704,5.1393 -0.201972,-0.01 -0.400644,-0.01 -0.594425,0 -0.01808,4e-4 -0.03603,9e-4 -0.05406,0 0.499385,-1.5819 -0.606921,-2.7486 -3.554878,-4.0841 -3.057615,-1.3471 -5.494095,-1.2131 -5.905893,1.5187 -0.02635,0.1432 -0.04756,0.289 -0.0637,0.4369 -0.228437,0.079 -0.458116,0.1808 -0.688371,0.307 -1.435754,0.7866 -2.219404,2.214 -2.655254,3.9646 -0.435498,1.7492 -0.560348,3.8639 -0.68054,6.2411 0,5e-4 0,9e-4 0,10e-4 -0.07344,1.1953 -0.564227,2.812 -1.061993,4.5244 -5.008845,3.5776 -11.960643,5.1277 -17.862985,1.0942 -0.400002,-0.6335 -0.858857,-1.2614 -1.331169,-1.8805 -0.301612,-0.3955 -0.611442,-0.7885 -0.919472,-1.1759 0.605906,4e-4 1.120929,-0.099 1.537173,-0.2878 0.517623,-0.2351 0.881315,-0.6126 1.061243,-1.0972 0.359852,-0.9693 -0.0016,-2.3365 -1.153576,-3.8978 -1.151931,-1.5613 -3.102891,-3.3233 -5.969705,-5.0837 0,0 -4.65e-4,0 -4.65e-4,-5e-4 -2.106121,-1.3121 -3.283989,-2.9202 -3.835309,-4.6662 -0.551372,-1.7463 -0.474061,-3.6345 -0.04911,-5.4987 0.815642,-3.5784 2.911335,-7.0586 4.248504,-9.24269 0.360006,-0.26524 0.128624,0.49235 -1.353683,3.24859 -1.328477,2.52 -3.812067,8.3356 -0.411586,12.8752 0.09088,-3.2306 0.861378,-6.5254 2.154869,-9.6073 1.884071,-4.2764 5.824865,-11.69232 6.137857,-17.60285 0.161375,0.11733 0.715917,0.492 0.963011,0.6327 4.65e-4,7.4e-4 0.0011,7.4e-4 0.0016,8.4e-4 0.722946,0.4263 1.265909,1.04944 1.969134,1.61535 0.704618,0.56703 1.584876,1.05678 2.914769,1.13437 l 0,0 c 1.552258,0.0899 2.735308,-0.39148 3.704587,-0.94646 0.96782,-0.55415 1.740986,-1.16742 2.473483,-1.40681 0.0011,-7.4e-4 0.0022,-7.4e-4 0.0033,-10e-4 1.54783,-0.48467 2.778517,-1.34252 3.478847,-2.34307 z m 9.831077,27.18639 c 0.626936,0 1.38639,0.2063 2.217713,0.5787 2.237442,1.0344 2.937502,1.9209 2.326668,3.2232 -0.514748,0.9828 -2.717878,2.5462 -4.227811,2.1339 -1.540814,-0.3986 -2.292351,-2.6219 -2.041842,-4.3021 0.134189,-1.1411 0.778719,-1.6293 1.725272,-1.6337 z m -2.531496,3.0705 c 0.126477,2.0548 1.141752,4.1505 2.937289,4.604 1.964882,0.5184 4.797836,-1.1697 5.99394,-2.5467 0.2385,-0.01 0.471676,-0.021 0.698128,-0.027 1.04921,-0.025 1.929212,0.035 2.828338,0.822 l 0.0031,0 0.0032,0 c 0.690956,0.5862 1.01939,1.6939 1.304248,2.9349 0.284842,1.2409 0.512626,2.5925 1.366874,3.5553 l 0.0013,0 0.0012,10e-4 c 1.642313,1.8249 2.170201,3.0583 2.125272,3.8456 -0.04494,0.7874 -0.614222,1.3718 -1.665427,2.0066 -2.101499,1.2693 -5.825057,2.3729 -8.203394,5.2576 -2.065148,2.4608 -4.583366,3.8125 -6.801131,3.9876 -2.217763,0.1753 -4.131169,-0.7463 -5.259242,-3.0135 l -0.0026,-0.01 -0.0027,0 c -0.69982,-1.333 -0.408294,-3.4367 0.181232,-5.6556 0.589541,-2.219 1.436553,-4.4974 1.549935,-6.3493 l 0,0 0,0 c 0.119946,-2.3728 0.252577,-4.4449 0.650626,-6.0436 0.398043,-1.5988 1.024813,-2.6816 2.135354,-3.2901 0.05172,-0.028 0.103052,-0.055 0.154101,-0.08 z m -36.063575,0.1551 c 0.165755,6e-4 0.341165,0.014 0.528049,0.043 1.257083,0.1907 2.353304,1.0708 3.409461,2.5052 1.056166,1.4345 2.038905,3.3926 3.049146,5.5646 l 0.0013,0 0.0012,0 c 0.811828,1.6966 2.524919,3.5623 3.976658,5.4654 1.451732,1.9032 2.575281,3.8135 2.428969,5.2757 l -6.52e-4,0.01 -4.65e-4,0.01 c -0.189267,2.4937 -1.59412,3.8512 -3.750708,4.3445 -2.155945,0.4931 -5.078655,0 -7.997918,-1.5262 -8.38e-4,-5e-4 -0.0017,-8e-4 -0.0026,0 -3.229755,-1.7128 -7.071949,-1.5427 -9.536599,-2.0581 -1.23266,-0.2579 -2.036976,-0.6453 -2.406133,-1.3655 -0.369181,-0.7201 -0.377421,-1.9764 0.407076,-4.1184 l 0.0035,-0.01 0.0031,-0.01 c 0.387964,-1.1984 0.100853,-2.5095 -0.08751,-3.7402 -0.188359,-1.2306 -0.280474,-2.35 0.139198,-3.1303 l 0.0019,0 0.0019,0 c 0.537318,-1.037 1.325452,-1.4077 2.303613,-1.7592 0.978156,-0.3514 2.138041,-0.6274 3.053965,-1.5464 l 0.0047,0 0.0047,0 c 0.846737,-0.8945 1.482767,-2.0157 2.227149,-2.8114 0.628072,-0.6714 1.256604,-1.1164 2.203989,-1.123 0.01096,0 0.02198,0 0.03303,0 z"
       id="path154"
       style="font-size:medium;font-style:normal;font-variant:normal;font-weight:normal;font-stretch:normal;text-indent:0;text-align:start;text-decoration:none;line-height:normal;letter-spacing:normal;word-spacing:normal;text-transform:none;direction:ltr;block-progression:tb;writing-mode:lr-tb;text-anchor:start;baseline-shift:baseline;color:#000000;fill:#000000;fill-opacity:0.19607843;stroke:none;stroke-width:309;marker:none;visibility:visible;display:inline;overflow:visible;enable-background:accumulate;font-family:Bitstream Vera Sans;-inkscape-font-specification:Bitstream Vera Sans" />
    <g
       transform="matrix(0.08489949,0,0,0.08501175,0.57077185,1070.0874)"
       id="text2999"
       style="font-size:429.75283813px;font-style:normal;font-weight:normal;line-height:125%;letter-spacing:0px;word-spacing:0px;fill:#000000;fill-opacity:0.19607843;stroke:none;font-family:Sans" />
  </g>
</svg>
