<?xml version="1.0" encoding="UTF-8"?>
<svg xmlns="http://www.w3.org/2000/svg" width="100" height="100">
  <path d="M 81,83.7026 C 76.464079,87.9009 72.130513,90 67.970166,90 c
           -3.582518,0 -6.616045,-1.1953 -9.071743,-3.6152 -2.42686,-2.4198
           -3.640291,-5.3935 -3.640291,-8.9212 0,-4.7231 2.455797,-12.3324
           7.367192,-22.8572 l 3.755838,-8.0758 c 2.889143,-6.2391
           4.333665,-11.3119 4.333665,-15.1895 0,-4.9563 -1.415685,-8.9213
           -4.275893,-11.9242 -2.860207,-3.0321 -6.644881,-4.5189
           -11.354121,-4.5189 -4.420275,0 -7.973957,1.3411 -10.718519,3.9941
           -2.715825,2.7114 -4.073638,6.2099 -4.073638,10.554 0,4.0233
           1.271203,8.7172 3.81361,14.0816 l 1.531231,3.207 c 2.542407,5.3061
           3.81361,9.1837 3.81361,11.7201 0,3.9942 -1.531231,7.5219
           -4.53592,10.4956 -3.00469,2.9738 -6.587109,4.4607 -10.689683,4.4607
           -4.218021,0 -7.829376,-1.4869 -10.776292,-4.4898 C 20.473458,65.9184
           19,62.2741 19,57.9592 c 0,-4.14 1.444522,-7.726 4.391439,-10.7289
           2.91798,-3.0029 6.413789,-4.5189 10.458491,-4.5189 1.473459,0
           3.091399,0.2624 4.853722,0.8163 -2.802435,-5.4519 -4.21812,-10.2624
           -4.21812,-14.4606 0,-5.4519 1.935741,-10 5.835961,-13.6152 C
           44.250649,11.8076 49.162143,10 55.055877,10 c 6.471662,0
           11.672021,1.9242 15.601177,5.7434 3.90022,3.8484 5.864798,8.9505
           5.864798,15.3062 0,3.1487 -0.317801,5.8892 -0.982239,8.1632
           -0.635602,2.3032 -2.19567,6.0933 -4.622531,11.3703 l -2.686888,5.9184
           c -4.79585,10.4956 -7.222711,17.2594 -7.222711,20.3498 0,2.2741
           0.664439,4.14 2.022351,5.5977 1.328977,1.4869 3.062463,2.2157
           5.142587,2.2157 2.744661,0 5.893734,-1.5743 9.418479,-4.723 L
           81,83.7026 Z M 23.333666,58.0175 c 0,3.0904 1.040012,5.7143
           3.091299,7.8426 2.051287,2.0991 4.564758,3.1778 7.569447,3.1778
           2.946917,0 5.431451,-1.0787 7.511674,-3.207 2.080124,-2.1283
           3.120236,-4.723 3.120236,-7.7551 0,-3.0904 -1.040112,-5.6851
           -3.091399,-7.8134 -2.080124,-2.0991 -4.593594,-3.1779
           -7.598284,-3.1779 -2.946916,0 -5.43155,1.0788 -7.511674,3.207
           -2.051287,2.1283 -3.091299,4.6939 -3.091299,7.726 z"
        fill="white" />
</svg>
