<?xml version="1.0" encoding="UTF-8" standalone="no"?>
<!-- Created with Inkscape (http://www.inkscape.org/) -->

<svg
   xmlns:dc="http://purl.org/dc/elements/1.1/"
   xmlns:cc="http://creativecommons.org/ns#"
   xmlns:rdf="http://www.w3.org/1999/02/22-rdf-syntax-ns#"
   xmlns:svg="http://www.w3.org/2000/svg"
   xmlns="http://www.w3.org/2000/svg"
   version="1.1"
   width="100"
   height="100"
   viewBox="0 0 4499.5918 4975.3191"
   id="svg632"
   xml:space="preserve"
   style="fill-rule:evenodd"><metadata
     id="metadata8"><rdf:RDF><cc:Work
         rdf:about=""><dc:format>image/svg+xml</dc:format><dc:type
           rdf:resource="http://purl.org/dc/dcmitype/StillImage" /><dc:title></dc:title></cc:Work></rdf:RDF></metadata><defs
     id="defs633"><style
       type="text/css"
       id="style634" /></defs><g
     transform="matrix(1.4374174,0,0,1.4505303,-3202.3283,-5760.0557)"
     id="Layer 1"
     style="fill:#ffffff;fill-opacity:1"><path
       d="m 4866,6842 c -157,144 -307,216 -451,216 -124,0 -229,-41 -314,-124 -84,-83 -126,-185 -126,-306 0,-162 85,-423 255,-784 l 130,-277 c 100,-214 150,-388 150,-521 0,-170 -49,-306 -148,-409 -99,-104 -230,-155 -393,-155 -153,0 -276,46 -371,137 -94,93 -141,213 -141,362 0,138 44,299 132,483 l 53,110 c 88,182 132,315 132,402 0,137 -53,258 -157,360 -104,102 -228,153 -370,153 -146,0 -271,-51 -373,-154 -103,-103 -154,-228 -154,-376 0,-142 50,-265 152,-368 101,-103 222,-155 362,-155 51,0 107,9 168,28 -97,-187 -146,-352 -146,-496 0,-187 67,-343 202,-467 136,-125 306,-187 510,-187 224,0 404,66 540,197 135,132 203,307 203,525 0,108 -11,202 -34,280 -22,79 -76,209 -160,390 l -93,203 c -166,360 -250,592 -250,698 0,78 23,142 70,192 46,51 106,76 178,76 95,0 204,-54 326,-162 l 118,129 z M 2870,5961 c 0,106 36,196 107,269 71,72 158,109 262,109 102,0 188,-37 260,-110 72,-73 108,-162 108,-266 0,-106 -36,-195 -107,-268 -72,-72 -159,-109 -263,-109 -102,0 -188,37 -260,110 -71,73 -107,161 -107,265 z"
       id="path636"
       style="fill:#ffffff;fill-opacity:1" /></g></svg>