<?xml version="1.0" encoding="UTF-8" standalone="no"?>
<!-- Created with Inkscape (http://www.inkscape.org/) -->

<svg
   xmlns:dc="http://purl.org/dc/elements/1.1/"
   xmlns:cc="http://creativecommons.org/ns#"
   xmlns:rdf="http://www.w3.org/1999/02/22-rdf-syntax-ns#"
   xmlns:svg="http://www.w3.org/2000/svg"
   xmlns="http://www.w3.org/2000/svg"
   version="1.1"
   width="100"
   height="100"
   viewBox="0 0 4365.9406 4975.3191"
   id="svg674"
   xml:space="preserve"
   style="fill-rule:evenodd"><metadata
     id="metadata8"><rdf:RDF><cc:Work
         rdf:about=""><dc:format>image/svg+xml</dc:format><dc:type
           rdf:resource="http://purl.org/dc/dcmitype/StillImage" /><dc:title></dc:title></cc:Work></rdf:RDF></metadata><defs
     id="defs675"><style
       type="text/css"
       id="style676" /></defs><g
     transform="matrix(1.8752675,0,0,1.8890628,-4509.8594,-7874.7945)"
     id="Layer 1"
     style="fill:#ffffff"><path
       d="m 3362,5518 c 0,165 -39,340 -115,524 -77,184 -179,350 -308,497 l -219,0 c 295,-311 442,-651 442,-1021 l -427,0 0,-150 427,0 c -18,-322 -165,-634 -442,-936 l 207,0 c 254,271 399,583 435,936 l 414,0 c 37,-353 182,-665 435,-936 l 207,0 c -277,302 -424,614 -442,936 l 427,0 0,150 -427,0 c 0,370 147,710 442,1021 l -218,0 c -130,-147 -232,-313 -309,-497 -76,-184 -115,-359 -115,-524 l -414,0 z"
       id="path678"
       style="fill:#ffffff" /></g></svg>