<?xml version="1.0" encoding="UTF-8" standalone="no"?>
<!-- Created with Inkscape (http://www.inkscape.org/) -->

<svg
   xmlns:dc="http://purl.org/dc/elements/1.1/"
   xmlns:cc="http://creativecommons.org/ns#"
   xmlns:rdf="http://www.w3.org/1999/02/22-rdf-syntax-ns#"
   xmlns:svg="http://www.w3.org/2000/svg"
   xmlns="http://www.w3.org/2000/svg"
   version="1.1"
   width="100"
   height="100"
   viewBox="0 0 3868.0702 4975.3191"
   id="svg650"
   xml:space="preserve"
   style="fill-rule:evenodd"><metadata
     id="metadata8"><rdf:RDF><cc:Work
         rdf:about=""><dc:format>image/svg+xml</dc:format><dc:type
           rdf:resource="http://purl.org/dc/dcmitype/StillImage" /><dc:title></dc:title></cc:Work></rdf:RDF></metadata><defs
     id="defs651"><style
       type="text/css"
       id="style652" /></defs><g
     transform="matrix(1.5064044,0,0,1.5255865,-3954.4997,-6280.6488)"
     id="Layer 1"
     style="fill:#ffffff"><path
       d="m 2889,6489 0,-1432 c 0,-238 -56,-431 -169,-575 l 216,0 c 76,116 127,247 154,395 64,-158 143,-289 236,-395 l 194,-39 c 91,106 148,258 173,455 49,-141 130,-280 242,-416 l 198,-39 c 108,146 162,319 162,519 l 0,1250 c 0,131 5,220 13,266 10,47 30,87 62,122 57,60 153,90 287,90 l 123,0 0,-201 318,287 -318,276 0,-195 -184,0 c -176,0 -303,-46 -382,-138 -80,-93 -120,-240 -120,-443 l 0,-1209 c 0,-204 -29,-350 -88,-439 -150,173 -255,389 -313,649 l 0,1212 -201,0 0,-1351 c 0,-243 -29,-413 -88,-510 -144,162 -248,364 -314,604 l 0,1257 -201,0 z"
       id="path654"
       style="fill:#ffffff" /></g></svg>