<?xml version="1.0" encoding="utf-8"?>
<svg xmlns="http://www.w3.org/2000/svg" width="100" height="100">
  <g opacity="0.2">
    <path d="M 18.887,79 49.885,56.641 80.904,79" fill="none" stroke="black"
          stroke-width="2" />
    <path d="m 18.887,79 62.017,0" fill="none" stroke="black"
          stroke-width="2" />
    <path d="m 16.554,21 66.882,0" fill="none" stroke="black"
          stroke-width="2" />
    <path d="M 83.4358,20 83.4338,20 49.88547,45.619061 16.554,20 C 12.94951,20
             10,23.058157 10,26.794291 l 0,46.411418 C 10,76.94288 12.94928,80
             16.55377,80 L 18.887,80 18.88692,35.280417 49.885,57.641
             80.88403,35.504337 l 0.002,0 L 80.904,80 c 6.87515,-0.08293
             8.94002,-1.847334 9.09627,-6.787035 l -0.0106,-44.45005 0.002,0
             -0.002,0 0,-1.96966 C 89.98967,23.05712 87.04048,20 83.436,20 z" />
  </g>
</svg>
