<?xml version="1.0" encoding="UTF-8"?>
<svg xmlns="http://www.w3.org/2000/svg" width="100" height="100">
  <path d="m 73.299072,25.007129 -0.209838,0.145691 0,1.428347 c 0,0.169208
           0.08153,0.308418 0.232514,0.414531 0.153887,0.114718 0.313627,0.17351
           0.482031,0.17351 l 1.372368,0.06711 c 1.695657,0.06883
           2.156592,0.404207 2.812788,0.963454 0.653293,0.576455
           0.734954,1.558408 0.226852,2.940753 L 63.579084,65.443727
           63.017658,65.292587 53.722982,46.510966 c 0.0078,-0.01721
           0.215499,-0.436901 0.215499,-0.436901 l 7.604736,-14.042789 c
           0.885575,-1.485619 1.739347,-2.803148 2.171972,-3.416886
           0.792662,-1.127099 1.236538,-1.344804 3.402566,-1.445182 0.441336,0
           0.663499,-0.189571 0.663499,-0.582534 l 0,-1.422783
           -0.164456,-0.151141 c 0,0 -9.299714,-0.02868 -13.440138,0 l
           -0.209809,0.145691 0,1.422755 c 0,0.174944 0.07587,0.31401
           0.226853,0.420123 0.153886,0.111849 0.313624,0.168062
           0.482028,0.168062 l 0.663501,0.07285 c 1.692754,0.06596
           2.47276,0.506162 2.705042,0.778616 0.403589,0.487548
           0.604202,1.017658 -0.374285,3.12559 L 51.823247,42.668592
           46.532258,31.981058 c -1.736306,-3.415711 -2.165165,-4.470852
           0.448005,-4.671607 l 1.037783,-0.145691 c 0.50231,0
           0.748564,-0.174084 0.748564,-0.51534 l 0,-1.495571
           -0.379953,-0.123321 c 0,0 -9.840359,-1.43e-4 -14.262425,0.0057 l
           -0.204146,0.145691 0,1.501192 c 0,0.335548 0.352551,0.420812
           1.037783,0.509747 2.44767,0.321209 2.398763,0.572325
           4.820301,5.310154 0.36294,0.711248 1.429076,2.851129
           1.429076,2.851129 l 5.506488,10.698747 c 0,0 1.193197,2.594047
           1.610547,3.506481 L 40.305569,65.354477 39.84622,65.236892 c 0,0
           -12.431388,-25.899551 -16.031756,-34.566451 -0.374555,-0.894796
           -0.544411,-1.567212 -0.544411,-1.977327 0,-0.880456
           0.801599,-1.356791 2.410151,-1.422753 l 1.877084,-0.07285 c
           0.496502,0 0.748563,-0.189571 0.748563,-0.582564 l 0,-1.422754
           -0.164456,-0.145691 c 0,0 -14.899153,-0.01721 -17.976887,0 L
           10,25.191967 l 0,1.489979 c 0,0.269586 0.343841,0.440773
           1.037783,0.51534 1.890194,0.100377 3.133354,0.394483 3.73148,0.890637
           0.595222,0.501859 1.222337,1.771351 2.058552,3.747358
           4.520785,10.726079 14.127274,29.866221 18.80485,40.767243
           1.347235,2.976917 3.042483,3.440806 5.098177,-0.08948
           2.302822,-4.217098 6.34813,-12.419938 9.487488,-18.832039
           2.940047,6.402034 6.706425,14.565871 8.784293,18.792835
           1.52435,3.105973 3.256345,3.410548 5.018783,0.09522
           4.604988,-10.11521 18.067629,-40.53758 18.067629,-40.53758
           0.583608,-1.497062 1.396139,-2.64395 2.438503,-3.478519 C
           85.567,27.724125 87.17047,27.258458 89.336499,27.163817
           89.777834,27.163817 90,26.96851 90,26.581253 l 0,-1.428347
           -0.164456,-0.145691 -16.53647,0 z"
        fill="white" />
</svg>
