<?xml version="1.0" encoding="UTF-8"?>
<svg xmlns="http://www.w3.org/2000/svg" width="100" height="100">
  <path d="m 44.012424,12 c -3.660943,0.562476 -7.17539,1.623451
           -10.43723,3.097441 6e-6,0 3.802876,7.354855 5.729696,12.286533
           2.791587,7.140371 3.497831,13.891571 3.497831,13.891571
           1.835061,-0.968887 4.249084,-1.716922 6.42363,-1.896006 -6e-6,0
           0.08145,-6.867224 -1.434766,-13.947892 C 46.018447,17.159377
           44.012424,12 44.012424,12 Z m 11.984527,0 c 0,0 -2.017704,5.159377
           -3.788536,13.431647 -1.516221,7.080668 -1.378494,13.947892
           -1.3785,13.947892 2.176857,0.179114 4.536895,0.927119
           6.367364,1.896006 0,0 0.706244,-6.7512 3.497831,-13.891571
           1.926795,-4.931678 5.739065,-12.286533 5.739071,-12.286533 C
           63.174652,13.623451 59.6579,12.5625 55.996951,12 Z m
           -30.392685,7.921949 c -2.940664,2.270684 -5.59318,4.8878
           -7.80213,7.865634 -6e-6,-6e-6 6.15033,2.693837 10.662288,7.058415
           6.170369,5.978624 8.374163,11.995559 8.374163,11.995559
           1.140051,-1.834449 2.681619,-3.427025 4.473096,-4.646164 0,0
           -2.308982,-7.25552 -6.020393,-12.577506 -3.713705,-5.321986
           -9.687024,-9.695938 -9.687024,-9.695938 z m 48.857108,0 c 0,0
           -6.036648,4.373952 -9.752664,9.695938 -3.715979,5.321986
           -6.020393,12.577506 -6.020399,12.577506 1.791459,1.219139
           3.333064,2.811715 4.473102,4.646164 0,0 2.196872,-6.016935
           8.374163,-11.995559 4.505073,-4.364578 10.662288,-7.058421
           10.662288,-7.058415 -2.206681,-2.977834 -4.800369,-5.59495
           -7.73649,-7.865634 z M 13.619738,34.90232 c -1.529979,3.322223
           -2.598249,6.878004 -3.160236,10.615792 0,0 5.492909,-0.59085
           13.363028,2.412245 6.468607,2.47273 10.727934,6.542182
           10.727934,6.542182 0.04831,-1.99517 0.565044,-3.999237
           1.31286,-5.734964 -7e-6,6e-6 -2.080635,-3.905613 -8.195992,-8.100286
           C 21.100117,36.130355 13.619738,34.90232 13.619738,34.90232 Z m
           72.769898,0 c 0,0 -7.478049,1.228035 -14.047593,5.734969
           -6.110734,4.194673 -8.205367,8.100292 -8.205367,8.100286
           0.750084,1.735727 1.276358,3.739794 1.322235,5.734964 0,0
           4.243078,-4.069452 10.718559,-6.542182 7.870137,-3.003083
           13.363028,-2.412245 13.363028,-2.412245 C 88.976187,41.780324
           87.921927,38.224543 86.389636,34.90232 Z M 16.433011,51.722381 C
           12.298568,51.802184 10,52.576527 10,52.576527 c 0.09864,3.779121
           0.753025,7.40424 1.838002,10.850444 0,0 5.117026,-2.571412
           11.356228,-2.872176 7.865532,-0.378837 13.241121,1.727062
           13.241121,1.727062 -0.974878,-1.760983 -1.559051,-3.765385
           -1.772355,-5.856991 0,0 -6.280975,-3.527444 -12.040794,-4.298876
           -1.992759,-0.267479 -3.779437,-0.396693 -5.335834,-0.403603
           -0.291817,-0.0013 -0.577703,-0.0053 -0.853357,0 z m 66.280621,0 c
           -1.556501,0.0067 -3.334269,0.136124 -5.32646,0.403603
           -5.757501,0.771432 -11.984527,4.298876 -11.984527,4.298876
           -0.215622,2.091606 -0.858537,4.096008 -1.838002,5.85699 0,0
           5.384975,-2.105892 13.250502,-1.727061 6.23922,0.300745
           11.346847,2.872176 11.346847,2.872176 C 89.246993,59.980761
           89.899087,56.355642 90,52.576521 c 0,0 -2.616858,-0.87481
           -7.286368,-0.854146 z M 31.22143,63.896276 c -0.506583,0.0073
           -1.025262,0.01957 -1.547298,0.04709 -1.392106,0.07265
           -2.803164,0.249317 -4.126132,0.516245 -8.014633,1.618633
           -11.5344,4.420905 -11.5344,4.420905 1.626318,3.347473
           3.683342,6.440847 6.1423,9.189086 0,0 3.30003,-3.138602
           9.002464,-5.856986 7.714163,-3.678092 15.538626,-2.928497
           15.538626,-2.928497 -2.76177,-1.028583 -5.180056,-2.774503
           -6.939398,-5.049774 -6e-6,0 -2.990075,-0.387275 -6.536162,-0.337926 z
           m 36.075483,0.02813 c -0.317134,0.0044 -0.620515,0.0098
           -0.918998,0.01896 -2.387875,0.0732 -4.135507,0.290961
           -4.135507,0.290961 -1.761678,2.275271 -4.121343,4.021191
           -6.883132,5.049774 0,0 7.779883,-0.749595 15.491735,2.928496
           5.700159,2.718384 9.002463,5.856986 9.002463,5.856986
           2.465844,-2.748238 4.560574,-5.841612 6.189192,-9.189085 0,0
           -3.566665,-2.802273 -11.581292,-4.420905 -2.316192,-0.467079
           -4.944638,-0.566084 -7.164461,-0.535019 z m -17.26409,6.044705 c
           -16.311378,0 -25.863323,11.995565 -25.863323,11.995565
           2.892531,2.44287 6.123514,4.474082 9.630758,6.035324 6e-6,0
           4.976774,-9.761652 16.232565,-9.761652 11.255822,0 16.166919,9.761652
           16.166919,9.761652 3.509549,-1.561242 6.754481,-3.592448
           9.640133,-6.035324 6e-6,-6e-6 -9.493343,-11.995565
           -25.807052,-11.995565 z"
        fill="white" />
</svg>
