<?xml version="1.0" encoding="UTF-8" standalone="no"?>
<!-- Created with Inkscape (http://www.inkscape.org/) by Marsupilami -->

<svg
   xmlns:dc="http://purl.org/dc/elements/1.1/"
   xmlns:cc="http://creativecommons.org/ns#"
   xmlns:rdf="http://www.w3.org/1999/02/22-rdf-syntax-ns#"
   xmlns:svg="http://www.w3.org/2000/svg"
   xmlns="http://www.w3.org/2000/svg"
   xmlns:sodipodi="http://sodipodi.sourceforge.net/DTD/sodipodi-0.dtd"
   xmlns:inkscape="http://www.inkscape.org/namespaces/inkscape"
   version="1.0"
   width="100"
   height="100"
   viewBox="0 0 16.349729 16.352701"
   id="svg4896"
   inkscape:version="0.48.4 r9939"
   sodipodi:docname="icon.svg">
  <metadata
     id="metadata9">
    <rdf:RDF>
      <cc:Work
         rdf:about="">
        <dc:format>image/svg+xml</dc:format>
        <dc:type
           rdf:resource="http://purl.org/dc/dcmitype/StillImage" />
      </cc:Work>
    </rdf:RDF>
  </metadata>
  <sodipodi:namedview
     pagecolor="#ffffff"
     bordercolor="#666666"
     borderopacity="1"
     objecttolerance="10"
     gridtolerance="10"
     guidetolerance="10"
     inkscape:pageopacity="0"
     inkscape:pageshadow="2"
     inkscape:window-width="1600"
     inkscape:window-height="851"
     id="namedview7"
     showgrid="false"
     inkscape:zoom="1.5585937"
     inkscape:cx="326.02506"
     inkscape:cy="49.173504"
     inkscape:window-x="0"
     inkscape:window-y="25"
     inkscape:window-maximized="1"
     inkscape:current-layer="svg4896" />
  <defs
     id="defs4898" />
  <path
     style="fill:#ffffff;fill-opacity:1;fill-rule:nonzero;stroke:none"
     d="m 7.1957341,1.9623303 c -0.598663,0.09198 -1.17337,0.265478 -1.706769,0.506515 1e-6,0 0.621873,1.202717 0.93696,2.009179 0.4565,1.167643 0.57199,2.271646 0.57199,2.271646 0.300082,-0.158439 0.69484,-0.280763 1.050437,-0.310048 -1e-6,0 0.01332,-1.122976 -0.234623,-2.280856 -0.289956,-1.352739 -0.617995,-2.196436 -0.617995,-2.196436 z m 1.9597939,0 c 0,0 -0.329949,0.843697 -0.619528,2.196436 -0.247943,1.15788 -0.225421,2.280856 -0.225422,2.280856 0.355975,0.02929 0.741905,0.151609 1.041236,0.310048 0,0 0.11549,-1.104003 0.57199,-2.271646 0.315083,-0.806462 0.938492,-2.009179 0.938493,-2.009179 -0.533021,-0.241037 -1.108105,-0.414531 -1.706769,-0.506515 z m -4.9700249,1.295452 c -0.480878,0.371318 -0.914636,0.799287 -1.275859,1.286243 -1e-6,-1e-6 1.005745,0.440515 1.743572,1.154241 1.009022,0.977666 1.369402,1.961597 1.369402,1.961597 0.186429,-0.299982 0.438517,-0.560411 0.731472,-0.759773 0,0 -0.377581,-1.186473 -0.984497,-2.056761 -0.607291,-0.870288 -1.58409,-1.585547 -1.58409,-1.585547 z m 7.9894569,0 c 0,0 -0.987155,0.715259 -1.594824,1.585547 -0.607663,0.870288 -0.984497,2.056761 -0.984498,2.056761 0.292952,0.199362 0.545046,0.459791 0.731473,0.759773 0,0 0.359248,-0.983931 1.369402,-1.961597 0.736701,-0.713726 1.743572,-1.154242 1.743572,-1.154241 -0.360852,-0.486956 -0.78499,-0.914925 -1.265125,-1.286243 z m -9.9492509,2.449694 c -0.250193,0.543273 -0.424884,1.124739 -0.516784,1.735968 0,0 0.898239,-0.09662 2.185216,0.394467 1.057792,0.404358 1.754307,1.069823 1.754307,1.069823 0.0079,-0.326264 0.0924,-0.653983 0.214688,-0.937821 -1e-6,1e-6 -0.34024,-0.638673 -1.340266,-1.324615 -1.073917,-0.737005 -2.297161,-0.937822 -2.297161,-0.937822 z m 11.8998439,0 c 0,0 -1.222863,0.200817 -2.297161,0.937822 -0.99927,0.685942 -1.341799,1.324616 -1.341799,1.324615 0.122659,0.283838 0.208719,0.611557 0.216221,0.937821 0,0 0.693858,-0.665465 1.752774,-1.069823 1.28698,-0.491085 2.185216,-0.394467 2.185216,-0.394467 -0.09228,-0.611229 -0.26468,-1.192695 -0.515251,-1.735968 z M 2.6857551,8.4580093 c -0.676093,0.01305 -1.051971,0.139676 -1.051971,0.139676 0.01613,0.617988 0.12314,1.2107926 0.300563,1.7743397 0,0 0.836772,-0.4204951 1.85705,-0.4696781 1.286227,-0.06195 2.165281,0.2824211 2.165281,0.2824211 -0.159419,-0.2879681 -0.254947,-0.6157417 -0.289828,-0.9577757 0,0 -1.027109,-0.576832 -1.968995,-0.702982 -0.32587,-0.04374 -0.61804,-0.06487 -0.872553,-0.066 -0.04772,-2.11e-4 -0.09447,-8.7e-4 -0.139547,0 z m 10.8386719,0 c -0.25453,0.0011 -0.545243,0.02226 -0.87102,0.066 -0.941507,0.12615 -1.959794,0.702982 -1.959794,0.702982 -0.03526,0.342034 -0.140394,0.6698076 -0.300563,0.9577757 0,0 0.880589,-0.3443701 2.166815,-0.2824211 1.020281,0.04918 1.855516,0.4696781 1.855516,0.4696781 0.177427,-0.5635471 0.284062,-1.1563517 0.300564,-1.7743397 0,0 -0.427927,-0.143055 -1.191518,-0.139676 z M 5.1040611,10.448769 c -0.08284,0.0012 -0.167658,0.0032 -0.253025,0.0077 -0.227647,0.01188 -0.458393,0.04077 -0.674734,0.08442 -1.310609,0.26469 -1.886186,0.722937 -1.886186,0.722937 0.265947,0.547402 0.602326,1.053252 1.004432,1.502663 0,0 0.539644,-0.513246 1.472146,-0.957775 1.261474,-0.601467 2.540985,-0.478888 2.540985,-0.478888 -0.451624,-0.168201 -0.847079,-0.453706 -1.134779,-0.825774 -10e-7,0 -0.488958,-0.06333 -1.068839,-0.05526 z m 5.8993159,0.0046 c -0.05186,7.24e-4 -0.101471,0.0016 -0.150281,0.0031 -0.390482,0.01197 -0.676267,0.04758 -0.676267,0.04758 -0.288082,0.372068 -0.673951,0.657573 -1.125578,0.825774 0,0 1.272221,-0.122579 2.533317,0.478888 0.93213,0.444529 1.472146,0.957775 1.472146,0.957775 0.403232,-0.449411 0.745777,-0.955261 1.0121,-1.502663 0,0 -0.583246,-0.458247 -1.893854,-0.722937 -0.37876,-0.07638 -0.808582,-0.09257 -1.171583,-0.08749 z m -2.823145,0.988472 c -2.6673509,0 -4.2293519,1.961598 -4.2293519,1.961598 0.473007,0.399475 1.00136,0.731633 1.574889,0.986938 1e-6,0 0.813837,-1.596293 2.6544629,-1.596293 1.840631,0 2.643728,1.596293 2.643728,1.596293 0.573906,-0.255305 1.10454,-0.587462 1.576422,-0.986938 10e-7,-1e-6 -1.552418,-1.961598 -4.22015,-1.961598 z"
     id="path4850"
     inkscape:connector-curvature="0" />
</svg>
