<?xml version="1.0" encoding="UTF-8" standalone="no"?>
<!-- Created with Inkscape (http://www.inkscape.org/) -->

<svg
   xmlns:dc="http://purl.org/dc/elements/1.1/"
   xmlns:cc="http://creativecommons.org/ns#"
   xmlns:rdf="http://www.w3.org/1999/02/22-rdf-syntax-ns#"
   xmlns:svg="http://www.w3.org/2000/svg"
   xmlns="http://www.w3.org/2000/svg"
   version="1.1"
   width="24"
   height="24"
   id="svg2">
  <defs
     id="defs14" />
  <metadata
     id="metadata4">
    <rdf:RDF>
      <cc:Work
         rdf:about="">
        <dc:format>image/svg+xml</dc:format>
        <dc:type
           rdf:resource="http://purl.org/dc/dcmitype/StillImage" />
        <dc:title></dc:title>
      </cc:Work>
    </rdf:RDF>
  </metadata>
  <rect
     width="24"
     height="24"
     rx="3"
     ry="3"
     x="-0.0017936621"
     y="0.0029007031"
     id="rect8"
     style="fill:#4d90fe;fill-rule:evenodd;stroke:none" />
  <path
     d="m 12.82821,2.98293 c -0.21316,-8e-5 -0.71335,0.0115 -1.3097,0.11985 -1.4095,0.25496 -3.3582,1.1855 -3.9096,3.1238 -0.85279,2.9976 1.3431,4.1883 1.3431,4.1883 0,0 0.76917,0.45195 1.0868,0.5406 0.95457,0.26646 1.9702,0.14221 1.9702,0.14221 0,0 -0.40496,1.3407 0.40684,2.2878 0.19381,0.22611 0.053,0.23407 0.053,0.23407 0,0 -3.548,-0.0915 -5.2277,1.6915 -1.6797,1.7831 -0.76911,3.4248 -0.76911,3.4248 0,0 0.88014,2.1459 4.6787,2.2544 3.8155,0.10887 6.1752,-2.1509 6.3814,-3.8567 0.10367,-0.85737 -0.0135,-1.6606 -0.44308,-2.363 -0.41775,-0.68321 -1.1356,-1.2714 -1.8364,-1.8447 -0.43543,-0.35627 -0.7383,-0.53917 -0.93352,-0.74404 -0.18439,-0.19351 -0.21551,-0.44276 -0.20898,-0.62977 0.01,-0.26115 0.14664,-0.5814 0.6047,-1.1119 0.8355,-0.96768 1.0473,-0.84724 1.5521,-1.5716 0.15126,-0.21715 0.26264,-0.53399 0.41799,-1.006 0.0936,-0.28434 0.078,-0.57864 0.078,-0.85272 2e-5,-0.59253 -0.1422,-1.157 -0.37897,-1.6329 -0.43989,-0.88445 -1.1949,-1.4586 -1.2094,-1.502 h 1.3236 l 1.4992,-0.87779 -5.0577,-0.0135 c 0,0 -0.0405,3e-5 -0.11157,0 z m -1.0868,0.82206 c 0.77146,0.006 1.9305,0.40495 2.625,2.4884 1.1918,3.5754 -1.3041,4.1214 -1.3041,4.1214 0,0 -2.86,0.44041 -3.3857,-2.7393 -0.53555,-3.239 0.76874,-3.4142 1.279,-3.734 0,0 0.32295,-0.13971 0.78584,-0.13662 z m 1.58,10.533 c 0,0 2.2771,1.3957 2.4912,2.4188 0.23993,1.1462 0.25608,1.981 -1.4825,2.8953 -0.51324,0.2699 -1.414,0.30132 -1.9813,0.30373 -1.3942,0.006 -2.4473,-0.53074 -2.9677,-0.79975 -0.27045,-0.13989 -1.7726,-1.8266 -0.66041,-3.3356 0.27974,-0.37958 0.58973,-0.54786 0.87778,-0.74125 0.613,-0.41157 1.2147,-0.6033 2.3491,-0.70223 0.37732,-0.033 0.8801,-0.006 1.3738,-0.0391 z"
     id="path10"
     style="fill:#ffffff;stroke:none" />
</svg>
