<?xml version="1.0" encoding="UTF-8" standalone="no"?>
<!-- Generator: Adobe Illustrator 16.0.4, SVG Export Plug-In . SVG Version: 6.00 Build 0)  -->

<svg
   xmlns:dc="http://purl.org/dc/elements/1.1/"
   xmlns:cc="http://creativecommons.org/ns#"
   xmlns:rdf="http://www.w3.org/1999/02/22-rdf-syntax-ns#"
   xmlns:svg="http://www.w3.org/2000/svg"
   xmlns="http://www.w3.org/2000/svg"
   xmlns:sodipodi="http://sodipodi.sourceforge.net/DTD/sodipodi-0.dtd"
   xmlns:inkscape="http://www.inkscape.org/namespaces/inkscape"
   version="1.1"
   id="Calque_1"
   x="0px"
   y="0px"
   width="100"
   height="100"
   viewBox="0 0 100 100"
   enable-background="new 0 0 256 256"
   xml:space="preserve"
   inkscape:version="0.48.4 r9939"
   sodipodi:docname="iconPlumeFigaro.svg"><metadata
     id="metadata43"><rdf:RDF><cc:Work
         rdf:about=""><dc:format>image/svg+xml</dc:format><dc:type
           rdf:resource="http://purl.org/dc/dcmitype/StillImage" /><dc:title></dc:title></cc:Work></rdf:RDF></metadata><defs
     id="defs41" /><sodipodi:namedview
     pagecolor="#ffffff"
     bordercolor="#666666"
     borderopacity="1"
     objecttolerance="10"
     gridtolerance="10"
     guidetolerance="10"
     inkscape:pageopacity="0"
     inkscape:pageshadow="2"
     inkscape:window-width="1600"
     inkscape:window-height="851"
     id="namedview39"
     showgrid="false"
     inkscape:zoom="3.6875"
     inkscape:cx="62.399864"
     inkscape:cy="52.618551"
     inkscape:window-x="0"
     inkscape:window-y="25"
     inkscape:window-maximized="1"
     inkscape:current-layer="Calque_1" /><symbol
     id="fond-carre"
     viewBox="-256 -256 512 512"
     transform="translate(0,-156)"><path
       d="M -256,-256 H 256 V 256 H -256 V -256 z"
       id="path4"
       inkscape:connector-curvature="0"
       style="fill:#005396" /></symbol><symbol
     id="logoMiniature"
     viewBox="-194.3 -175.1 388.5 350.1"
     transform="translate(0,-156)"><g
       id="plume_x5F_interieur_4_"><path
         d="m 143.1,-137.3 c -17.4,18.9 -68,62.8 -79.2,77.5 H 40.3 l 0,0 h 6.3 c 0,0 23.7,-19.7 27.9,-24.4 0,0 -18.8,11.9 -34.2,24.4 v -19.3 c 1.8,-0.3 3.8,-0.7 6,-1.4 -0.1,0 -0.3,0.1 -0.4,0.2 42.8,-12.8 97.2,-57 97.2,-57 z"
         id="path8"
         inkscape:connector-curvature="0"
         style="fill:#d4dce6" /></g><path
       d="M 74.7,-84.2 C 70.7,-79.8 49,-61.6 47,-59.9 H 40.6 C 56,-72.3 74.7,-84.2 74.7,-84.2 z"
       id="path10"
       inkscape:connector-curvature="0"
       style="fill:#0071ce" /><path
       d="m 143.3,-137.2 c 0,0 -56.4,45.2 -97.1,56.8 0.1,0 0.3,-0.1 0.4,-0.2 44.7,-17.6 111.9,-70.8 111.9,-70.8 0,0 -32.4,39 -85.4,89.4 -0.7,0.7 -1.4,1.4 -2.1,2 h -6.7 c 11.4,-14.9 61.7,-58.4 79,-77.2 z"
       id="path12"
       inkscape:connector-curvature="0"
       style="fill:#0071ce" /><path
       d="m 194.3,14.1 v 89.5 H -101.1 V 44.3 c 0,0 11.7,0 23.3,0 11.6,0 13,-6.2 13,-14.6 0,-8.4 0,-126.9 0,-133.9 0,-7 -4.9,-11.8 -11.9,-11.8 -7,0 -24.3,0 -24.3,0 v -59.1 H 82.8 v 59.1 c 0,0 -11.7,0 -22.9,0 -14.5,0 -19.3,4.6 -19.3,15.6 0,14.3 0,40.3 0,40.3 h 0.1 6.4 17.2 6.7 30.2 v 54 H 40.6 v 50.2 c 0,0 51.4,0 65.4,0 11.1,0 16,-6.9 16,-15 0,-9.1 0,-15.2 0,-15.2 h 72.3 v 0.2 z"
       id="path14"
       inkscape:connector-curvature="0"
       style="fill:#ffffff" /><g
       id="plume_x5F_interieur_3_"><path
         d="m -187.8,162.8 c -0.5,-20.1 5.7,-49.1 5.7,-49.1 0,0 -4.1,2.6 -9.4,9.9 7.1,-39.5 21.7,-60.5 52.8,-83.2 l 10.9,-7.5 c -11.4,-2.2 -30.1,4.3 -30.1,4.3 11.2,-12.1 38.9,-34 69.6,-43.4 l 10.6,-3 c -4.5,-5 -12.8,-6.2 -24.4,-5.9 5.1,-5.6 21.1,-15 37.5,-22.4 v 65.3 c 0,9.5 -0.6,16.6 -12.8,16.7 -11.8,0 -23.6,0 -23.6,0 0,17.7 0,54.1 0,58.9 -20.3,8.2 -45,23.1 -65.7,39.9 0,-0.1 -14.6,11.8 -21.1,19.5 z"
         id="path17"
         inkscape:connector-curvature="0"
         style="fill:#d4dce6" /></g><path
       id="plume_contour_2_"
       d="m -2.6,35.1 c -0.3,0.6 -4.3,6.9 -7.7,12.1 -3.5,5.6 -15.7,21.4 -23.6,29.4 -9,9.1 -22.5,19.8 -26.7,22.5 -3.9,2.6 -22.5,13.1 -26.8,14.1 -0.2,0 -0.3,0 -0.3,0 l 3.7,-8.9 c -60.1,15.3 -109.7,72.4 -108.4,70.7 0.6,-0.8 2.8,-49.6 6.3,-54 l -8.1,10.4 c 0,0 -1.5,-59.8 54.5,-94.9 0,0 -11.1,0.3 -27.5,6.7 0,0 30.6,-39.2 81.3,-53.5 0,0 -7,-3.2 -24.7,-1 0,0 26.1,-29.8 103,-48.2 0,0 -80.3,29.4 -93.8,44.3 11.6,-0.3 19.5,1.1 24,6.1 l -10.7,3 c -30.7,9.4 -57.8,30.8 -69,42.9 0,0 18.3,-6.1 29.7,-3.9 l -11.1,7.7 c -31,22.7 -45.5,43 -52.6,82.5 5.3,-7.3 9.3,-9.7 9.3,-9.7 0,0 -6.2,28.8 -5.7,48.9 4.8,-5.7 13.9,-13.4 18.4,-17.1 v -21.9 c -10.1,17.2 -15.8,32.8 -18.3,38.9 0.5,-1.9 3.1,-21.2 15.3,-43 15,-26.7 25.8,-38.8 70.4,-64.8 33.4,-19.5 67.5,-39 99.7,-70.5 -0.2,6.7 0.6,19.3 0.6,27.8 0,5.6 -0.7,22.4 -1.2,23.4 z m -151.8,66.8 c -5.1,6.3 -9.6,12.8 -13.5,19.1 v 23.1 c 0.8,-0.6 1.2,-1 1.2,-1 3.8,-3.1 7.9,-6.2 11.9,-9.2 0.3,-7.2 0.3,-16.3 0.3,-24.1 0.1,-3.4 0.1,-5.9 0.1,-7.9 z m 14.8,-15.5 c -4.8,4.3 -9.2,8.8 -13.2,13.5 0,2.1 0,5.2 0,9.9 0,7.4 -0.1,15.8 -0.3,22.9 4.2,-3 8.6,-6 13,-8.8 0.5,-7.5 0.6,-16.3 0.6,-23.9 0,-5.5 -0.1,-10.3 -0.1,-13.6 z m 14.7,-11 c -2.6,1.7 -5.2,3.5 -7.9,5.4 -1.8,1.3 -3.4,2.7 -5,4.1 0.1,3.1 0.2,8.7 0.2,15.2 0,7.2 -0.1,15.4 -0.5,22.7 4.2,-2.6 8.4,-5.2 12.6,-7.5 0.7,-8 1,-17.2 0.9,-25 0,-6.3 -0.2,-11.6 -0.3,-14.9 z M -110,66 c -4.1,2.5 -8.3,5.1 -12.8,8 0.1,3 0.3,9 0.3,16.2 0,7.5 -0.2,16.1 -0.8,23.8 4.1,-2.3 8.2,-4.3 12.1,-6.2 1.1,-8.8 1.4,-18.9 1.4,-27.4 0.1,-5.9 -0.1,-11.1 -0.2,-14.4 z m 14.8,-8.7 c -4.1,2.3 -8.3,4.7 -12.5,7.3 0.1,3.2 0.3,9 0.3,15.8 0,8.1 -0.2,17.6 -1.2,26.1 4,-1.8 7.8,-3.4 11.5,-4.8 1.7,-9.8 2.2,-21.6 2.2,-31.2 0,-5.2 -0.1,-9.9 -0.3,-13.2 z m 15,-8.5 c -4.2,2.4 -8.3,4.7 -12.4,7 0.2,3.4 0.4,8.6 0.4,14.7 0,9.2 -0.4,20.3 -2,30.1 3.1,-1.1 5.9,-1.9 8.7,-2.6 l 1.8,-0.4 C -80.8,86.3 -80,72 -80,60.7 c 0,-4.9 -0.1,-8.9 -0.2,-11.9 z M -65.3,40 c -4.2,2.6 -8.2,5 -12.1,7.2 0.2,3.1 0.3,7.7 0.3,13.6 0,11 -0.6,24.7 -3.4,36.2 l 4.3,-1.1 -2.4,6.3 c 1.6,-0.9 3.5,-1.6 5.6,-2.8 6.4,-12.9 7.9,-33.6 7.9,-48.4 0,-4.6 -0.1,-8.3 -0.2,-11 z m 14.8,-9.6 c -4.1,2.7 -8,5.3 -11.7,7.6 0.1,2.9 0.3,7.2 0.3,12.9 0,13.6 -1.2,33 -6.6,46.6 2.9,-2 5.2,-3.3 9.6,-7 7,-14.1 8.8,-34.5 8.7,-49.4 0,-4.6 -0.2,-8.1 -0.3,-10.7 z m 14.8,-10.2 c -3.5,2.5 -7.4,5.2 -11.6,8.1 0.2,2.7 0.5,6.9 0.5,12.9 0,13.5 -1.2,31.5 -6.9,45.9 3.7,-2.7 7.4,-5.9 10.9,-9.2 6,-14.7 7.5,-32.8 7.5,-46.4 0,-4.9 -0.2,-8.5 -0.4,-11.3 z m 14.8,-11 c -3.2,2.5 -7,5.3 -11.3,8.4 0.3,3 0.5,7.5 0.5,13.7 0,11.6 -1,26.6 -5.1,40.3 4.3,-4.6 8.4,-9.5 12.2,-14.2 3.3,-12.5 4.2,-25.5 4.1,-35.9 0,-4.8 -0.1,-9 -0.4,-12.3 z M -6.2,-2.9 c -2.3,2.2 -5.8,5.2 -11,9.3 0.3,3.6 0.6,8.9 0.6,15.2 0,8.3 -0.6,18.4 -2.4,28.6 4.4,-5.8 8.9,-13.1 12,-17.3 0.2,-0.3 0.2,-0.3 0.5,-0.8 0.5,-1.3 1,-16.9 1,-19.3 0,-6.1 -0.3,-12.2 -0.7,-15.7 z"
       inkscape:connector-curvature="0"
       style="fill:#0071ce" /></symbol><path
     style="fill:#000000;fill-opacity:0.19607843"
     d="m 10.359562,14.006291 c 0.11875,0.158228 0.58635,10.215591 1.29889,11.125402 l -1.65763,-2.13855 c 0,0 -0.3117401,12.294805 11.20755,19.494176 0,0 -2.30089,-0.07911 -5.66563,-1.384494 0,0 6.29899,8.074569 16.74948,11.001785 0,0 -1.43001,0.672469 -5.07185,0.197785 0,0 2.59514,2.955421 9.46333,6.032441 l 0,13.115611 c 0,1.424052 -0.99705,2.410504 -2.4617,2.410504 l -4.98526,0 0,12.139049 37.84096,0 0,-12.139049 -4.70074,0 c -2.96889,0 -3.95852,-0.946895 -3.95852,-3.201643 l 0,-4.610861 c 9.3868,4.275409 24.22118,15.130546 24.22118,15.130546 0,0 -6.65278,-8.030068 -17.57829,-18.393998 -0.0905,-0.09044 -0.29032,-0.263073 -0.48244,-0.432653 l 0.0866,0 6.22229,0 0,-11.11304 -12.46933,0 0,-10.334262 13.45896,0 c 2.29594,0 3.27815,1.428996 3.27815,3.090389 l 0,3.127474 14.84444,0 0,-18.393997 -54.00903,0 c -1.44728,-0.821409 -3.38901,-1.84289 -3.98326,-1.977849 l -0.0742,0 0.75459,1.817148 C 20.337532,25.403647 10.122082,13.689835 10.359592,14.006291 z"
     id="path31"
     inkscape:connector-curvature="0" /></svg>