<?xml version="1.0" encoding="UTF-8" standalone="no"?>
<!-- Created with Inkscape (http://www.inkscape.org/) -->

<svg
   xmlns:dc="http://purl.org/dc/elements/1.1/"
   xmlns:cc="http://creativecommons.org/ns#"
   xmlns:rdf="http://www.w3.org/1999/02/22-rdf-syntax-ns#"
   xmlns:svg="http://www.w3.org/2000/svg"
   xmlns="http://www.w3.org/2000/svg"
   xmlns:sodipodi="http://sodipodi.sourceforge.net/DTD/sodipodi-0.dtd"
   xmlns:inkscape="http://www.inkscape.org/namespaces/inkscape"
   id="svg2"
   version="1.1"
   inkscape:version="0.48.4 r9939"
   width="60"
   height="10"
   sodipodi:docname="bein1_canal.svg">
  <metadata
     id="metadata8">
    <rdf:RDF>
      <cc:Work
         rdf:about="">
        <dc:format>image/svg+xml</dc:format>
        <dc:type
           rdf:resource="http://purl.org/dc/dcmitype/StillImage" />
        <dc:title />
      </cc:Work>
    </rdf:RDF>
  </metadata>
  <defs
     id="defs6" />
  <sodipodi:namedview
     pagecolor="#ffffff"
     bordercolor="#666666"
     borderopacity="1"
     objecttolerance="10"
     gridtolerance="10"
     guidetolerance="10"
     inkscape:pageopacity="0"
     inkscape:pageshadow="2"
     inkscape:window-width="1680"
     inkscape:window-height="994"
     id="namedview4"
     showgrid="false"
     inkscape:zoom="25.035294"
     inkscape:cx="24.229828"
     inkscape:cy="1.9113695"
     inkscape:window-x="-4"
     inkscape:window-y="-4"
     inkscape:window-maximized="1"
     inkscape:current-layer="svg2" />
  <path
     style="fill:#ffffff;fill-rule:nonzero;stroke:none"
     d="m 30.5,1 0,8 29,0 0,-8 -29,0 z m 3.75369,1.19601 c 0.52977,-0.0115 0.91941,0.12505 1.10018,0.192 0,0 0.24365,0.083 0.42594,0.21999 0.0925,0.068 0.10513,0.096 0.10513,0.096 0,0 0.007,0.013 -0.0181,0.118 l -0.17219,0.992 c -0.006,0.0412 -0.029,0.0619 -0.029,0.0619 0,0 -0.0127,0.007 -0.0997,-0.056 -0.5497,-0.42945 -1.19263,-0.378 -1.19263,-0.378 -0.48893,0.034 -1.06054,0.31728 -1.23069,1.032 -0.15145,0.63441 0.006,1.16584 0.348,1.482 0.23278,0.22555 0.59464,0.33757 0.97512,0.318 0.41415,-0.034 0.74569,-0.21338 0.72138,-0.2 0,0 0.0166,-0.008 0.0362,-0.014 0.086,-0.0473 0.10512,-0.042 0.10512,-0.042 0,0 0.0185,0.0202 0.006,0.082 l -0.17219,1.084 c -0.006,0.0535 -0.0308,0.096 -0.0308,0.096 0,0 -0.0259,0.0266 -0.0652,0.0399 -0.59083,0.26261 -1.24337,0.174 -1.24337,0.174 C 32.76276,7.36815 32.09133,6.65255 31.87444,5.72978 31.55566,4.34669 32.18782,3.36492 32.34207,3.15378 32.7132,2.66255 33.29425,2.31218 33.86639,2.2298 34.00275,2.2087 34.132,2.1985 34.25426,2.1957 z m 21.20625,0.094 1.21981,0 c 0.0243,0 0.0309,0.008 0.0309,0.008 0,0 0.0127,0.0132 0.0127,0.0399 l 0,1.618 1.59319,0 c 0.0402,0 0.0507,0.008 0.0507,0.008 0,0 0.0199,0.008 0.0199,0.048 l 0,1.36 c 0,0.0135 -0.0199,0.0341 -0.0199,0.0341 0,0 -0.006,0.014 -0.0254,0.014 l -1.56237,0 c -0.0252,0 -0.0381,0.012 -0.0381,0.012 0,0 -0.0181,0.008 -0.0181,0.042 l 0,1.84 c 0,0.0278 -0.0127,0.0341 -0.0127,0.0341 0,0 -0.006,0.0139 -0.0254,0.0139 l -1.24338,0 c -0.0178,0 -0.0308,-0.0139 -0.0308,-0.0139 0,0 -0.007,-0.008 -0.007,-0.0421 l 0,-1.84 c 0,-0.0195 -0.0145,-0.034 -0.0145,-0.034 0,0 -0.01,-0.012 -0.0254,-0.012 l -1.60406,0 c -0.0309,0 -0.0381,-0.008 -0.0381,-0.008 0,0 -0.0109,-0.0128 -0.0109,-0.054 l 0,-1.34601 c 0,-0.0166 0.0109,-0.034 0.0109,-0.034 0,0 0.006,-0.007 0.0199,-0.007 l 1.6385,0 c 0.0131,0 0.0126,-0.008 0.0126,-0.008 0,0 0.0109,-0.007 0.0109,-0.02 l 0,-1.612 c 0,-0.0195 0.007,-0.0341 0.007,-0.0341 0,0 0.0125,-0.008 0.0489,-0.008 z m -17.71538,0.10394 0.0435,0 1.40106,0 c 0.0252,0 0.0417,0.02 0.0417,0.02 0,0 0.008,0.007 0.0145,0.026 l 0.9425,4.88 c 0,0.0205 -0.0127,0.028 -0.0127,0.028 0,0 -0.006,0.007 -0.0199,0.007 l -1.0875,0.008 c -0.0252,0 -0.0435,-0.0139 -0.0435,-0.0139 0,0 -0.006,-0.007 -0.0127,-0.054 l -0.17037,-0.778 c 0,-0.0166 -0.0109,-0.0239 -0.0109,-0.0239 l -0.0199,0 -1.537,0 c -0.0308,0 -0.0489,0.0239 -0.0489,0.0239 0,0 -0.0248,0.0206 -0.0435,0.068 l -0.30632,0.722 c -0.0122,0.0278 -0.0181,0.034 -0.0181,0.034 0,0 -0.0185,0.014 -0.0344,0.014 l -1.26694,0 c -0.0374,0.007 -0.0435,-0.014 -0.0435,-0.014 0,0 -0.008,-0.0193 0.006,-0.046 l 2.19857,-4.86599 c 0.009,-0.0278 0.029,-0.034 0.029,-0.034 z m 10.21888,0 1.3775,0 c 0.0308,0 0.0471,0.02 0.0471,0.02 0,0 0.008,0.007 0.0145,0.026 l 0.92438,4.908 c 0,0.0145 -0.007,0.02 -0.007,0.02 0,0 -4.1e-4,0.007 -0.0181,0.007 l -1.12012,0 c -0.0243,0.0135 -0.0435,-0.012 -0.0435,-0.012 0,0 -0.006,-0.007 -0.0126,-0.048 l -0.14862,-0.764 c -0.0122,-0.0371 -0.0236,-0.058 -0.0236,-0.058 0,0 -0.0315,-0.02 -0.0689,-0.02 l -1.45544,0 c -0.028,0 -0.0471,0.02 -0.0471,0.02 0,0 -0.025,0.0248 -0.0381,0.066 l -0.32987,0.776 c -0.006,0.0195 -0.0181,0.028 -0.0181,0.028 0,0 -0.0259,0.007 -0.0381,0.007 l -1.2615,0 c -0.0309,0.007 -0.0399,-0.0139 -0.0399,-0.0139 0,0 -0.006,-0.0121 0.009,-0.0399 l 2.22393,-4.886 c 0.0122,-0.007 0.0236,-0.028 0.0236,-0.028 0,0 0.0143,-0.007 0.0507,-0.007 z m 3.52531,0 0.0652,0 1.14731,0 c 0.0309,0 0.0399,0.007 0.0399,0.007 0,0 0.006,0.0212 0,0.048 l -0.46945,3.74201 c -0.006,0.0402 0.0127,0.044 0.0127,0.044 0,0 0.0111,0.007 0.0616,0.007 l 1.247,0 c 0.0271,0 0.0362,0.014 0.0362,0.014 0,0 0.007,0.007 0.007,0.0399 l -0.12143,1.006 c -0.006,0.0402 -0.0126,0.0541 -0.0126,0.0541 0,0 -0.006,0.0139 -0.0362,0.0139 l -2.52119,0 c -0.0729,0 -0.0924,-0.02 -0.0924,-0.02 0,0 -0.0128,-0.0273 -0.007,-0.088 l 0.62532,-4.788 c 0.006,-0.0577 0.0181,-0.078 0.0181,-0.078 z m -10.11375,0.007 1.24338,0 c 0.0187,0 0.0308,0.0139 0.0308,0.0139 0,0 0.0116,0.007 0.0181,0.026 l 1.40288,2.71 c 0.0243,0.0535 0.0417,0.048 0.0417,0.048 0,0 0.0186,-2.1e-4 0.0308,-0.062 l 0.35344,-2.696 c 0,-0.0195 0.0109,-0.026 0.0109,-0.026 0,0 0.006,-0.014 0.0254,-0.014 l 1.16906,0.014 c 0.0252,0 0.0326,0.008 0.0326,0.008 0,0 0.006,0.004 0.006,0.018 l -0.63075,4.87399 c -0.006,0.0278 -0.0181,0.048 -0.0181,0.048 0,0 -0.007,0.007 -0.0381,0.007 l -1.12012,0 -0.0362,0 c 0,0 -0.004,-0.007 -0.0109,-0.0139 l -1.55512,-3.038 c -0.0122,-0.0135 -0.0181,-0.014 -0.0181,-0.014 0,0 -0.0126,4.6e-4 -0.0126,0.02 l -0.38607,2.984 c -0.006,0.034 -0.0126,0.042 -0.0126,0.042 0,0 -0.0121,0.007 -0.0309,0.007 l -1.11287,0 c -0.0178,0 -0.0308,-0.014 -0.0308,-0.014 0,0 -0.0256,-0.0273 -0.0164,-0.054 l 0.609,-4.82999 c 0.006,-0.0278 0.0199,-0.0341 0.0199,-0.0341 0,0 0.0175,-0.022 0.0362,-0.022 z m 7.08325,1.402 c 0,0 -0.006,-8.8e-4 -0.0127,0.026 l -0.6108,1.524 c -0.0131,0.0473 -0.007,0.054 -0.007,0.054 0,0 0.0177,0.014 0.0308,0.014 l 0.90625,-0.008 0.0109,0 c 0,0 0.006,-0.006 0,-0.0261 l -0.3045,-1.566 c -0.006,-0.0195 -0.0127,-0.0181 -0.0127,-0.0181 z m -10.16087,0.0181 c 0,0 -0.006,0.002 -0.0127,0.016 l -0.61081,1.528 c -0.0122,0.0205 -0.007,0.034 -0.007,0.034 0,0 0.007,0.008 0.0381,0.008 l 0.899,0.007 c 0.006,0 0.009,-0.007 0.009,-0.007 0,0 0.006,-0.007 0,-0.028 L 38.30303,3.83707 c 0,-0.0145 -0.006,-0.016 -0.006,-0.016 z"
     id="path68518"
     inkscape:connector-curvature="0" />
  <g
     id="g2987"
     transform="matrix(1.0007729,0,0,1.0001482,0.49113488,0.9909396)">
    <path
       id="path2989"
       d="M 12.862205,7.9724405 C 12.720473,7.9015743 12.57874,7.724409 12.57874,7.6181098 12.543307,7.5472436 12.543307,6.3425193 12.543307,4.8897635 l 0.03543,-2.6220471 0.07087,-0.1062992 c 0.212598,-0.3188976 0.744094,-0.3188976 0.885826,0.035433 0.07087,0.1417322 0.07087,0.1771653 0.07087,2.7637793 0,2.9763778 0,2.7637794 -0.212599,2.9409447 -0.106299,0.070866 -0.141732,0.1062992 -0.283464,0.1062992 -0.1063,0 -0.212599,0 -0.248032,-0.035433 z m 1.523622,0 c -0.07087,-0.035433 -0.212598,-0.1771654 -0.283464,-0.2834646 -0.03543,-0.1062992 -0.03543,-4.0748029 0.03543,-4.3582674 0.141732,-0.6377953 0.673228,-1.1692913 1.311023,-1.3464567 0.212599,-0.070866 0.673229,-0.070866 0.92126,0 0.248032,0.070866 0.566929,0.2125985 0.779528,0.4251969 0.177165,0.1417322 0.318897,0.3897637 1.452756,2.1968502 0.850393,1.3464566 1.311023,2.019685 1.381889,2.1259842 0.318898,0.2834645 0.779528,0.2834645 1.098426,-0.035433 0.212598,-0.2480315 0.212598,-0.1062992 0.212598,-2.3740156 0.03543,-1.9842519 0.03543,-2.055118 0.07087,-2.1614172 0.177166,-0.2834646 0.602362,-0.3188976 0.850394,-0.070866 0.141732,0.1771653 0.141732,0.1417322 0.141732,2.2322833 0,1.6653542 0,2.0196849 -0.03543,2.1968502 -0.141732,0.7086614 -0.673228,1.2401575 -1.38189,1.4173228 -0.566929,0.1771653 -1.204724,0 -1.665354,-0.4251968 C 19.062993,7.2992122 19.098426,7.3346452 17.503937,4.8543304 16.972441,4.0039368 16.511811,3.2598423 16.476378,3.2244093 16.26378,3.0118108 15.874016,2.9409447 15.590552,3.082677 c -0.177166,0.070866 -0.389764,0.2834645 -0.425197,0.4606299 -0.03543,0.070866 -0.03543,0.6377952 -0.03543,2.055118 0,2.0551179 0,2.090551 -0.141733,2.2322833 -0.141732,0.1417323 -0.389763,0.2125984 -0.602362,0.1417323 z m 9.885827,0 C 23.704725,7.7952751 23.244095,7.3346452 23.031497,6.7322831 l -0.07087,-0.1771654 0,-2.055118 c 0,-1.1338582 0,-2.1259841 0,-2.1968502 0.03543,-0.1771654 0.141733,-0.3188977 0.354331,-0.3543307 0.106299,-0.035433 0.92126,-0.035433 2.76378,-0.035433 2.444882,0 2.622047,0 2.692913,0.070866 0.07087,0.035433 0.141733,0.070866 0.177166,0.1417323 0.03543,0.070866 0.03543,0.1771654 0.03543,2.8346455 0,3.0472439 0.03543,2.8700786 -0.177166,2.9763778 -0.07087,0.070866 -0.141732,0.070866 -2.232283,0.070866 -1.771654,0 -2.161418,0 -2.30315,-0.035433 z m 2.338583,-2.7992125 0,-2.0196849 -0.07087,-0.1417323 C 26.503938,2.9409447 26.433072,2.8346455 26.362205,2.7992124 26.220473,2.7283463 26.220473,2.7283463 25.688977,2.7283463 l -0.531496,-0.035433 -0.141732,0.4251968 -0.141733,0.3897638 0.496063,0.035433 0.496063,0 0,1.8425195 0,1.8070866 0.389764,0 0.354331,0 0,-2.019685 z M 2.6220473,7.9370074 C 1.3110237,7.7598421 0.2480315,6.7322831 0.03543307,5.3858264 0,4.9960627 0,0.24803148 0.03543307,0.14173227 0.10629922,0 0.28346457,-0.03543307 0.38976379,0.07086614 l 0.0708661,0.07086613 0.0354331,1.55905503 0,1.5944881 0.17716536,-0.2480315 C 1.0629922,2.586614 1.5944882,2.2322833 2.2322835,2.0196849 2.480315,1.9488188 2.5157481,1.9488188 3.0118111,1.9488188 c 0.4251969,0 0.5314961,0 0.7440945,0.070866 C 4.2874017,2.1614172 4.7125985,2.4094487 5.1023623,2.8346455 5.7401576,3.4370077 6.0236222,4.2165352 5.9881891,5.1023619 5.9527561,5.8818894 5.6338584,6.5551177 5.0314962,7.1220468 4.6417324,7.5118106 4.2165355,7.7598421 3.6850395,7.9015743 3.3661418,7.9724405 2.9055119,7.9724405 2.6220473,7.9370074 z M 3.3661418,7.4409444 C 3.7559056,7.4055114 4.2519686,7.192913 4.6062993,6.9094484 4.96063,6.6259839 5.3149608,6.0944878 5.456693,5.5984249 5.492126,5.4212595 5.492126,5.2795272 5.492126,4.9251966 c 0,-0.3543307 0,-0.4251969 -0.070866,-0.6732284 C 5.2086615,3.5078738 4.7480316,2.9763778 4.0393702,2.6574802 2.7992127,2.055118 1.2755906,2.6220471 0.70866143,3.8976376 0.496063,4.3937005 0.42519686,5.0669288 0.56692915,5.5629918 0.85039372,6.5905508 1.7007874,7.3700783 2.7637796,7.4763775 2.940945,7.5118106 3.0118111,7.5118106 3.3661418,7.4409444 z m 5.4921261,0.496063 C 8.397638,7.9015743 7.8307089,7.6535428 7.4409451,7.3700783 5.9881891,6.2716532 5.8110238,4.145669 7.1220474,2.8346455 7.4763781,2.4448817 7.9724411,2.1614172 8.5039372,2.0196849 c 0.2125984,-0.070866 0.3188977,-0.070866 0.7086614,-0.070866 0.4251969,0 0.5314961,0 0.7440946,0.070866 1.1692918,0.3188976 2.0196848,1.2755905 2.2322838,2.4448818 0.07087,0.4251968 0.03543,0.531496 -0.03543,0.6377952 l -0.1063,0.1062992 -1.629921,0 c -1.7362204,0 -1.7716535,-0.035433 -1.8070866,-0.1417323 -0.035433,-0.1062992 -0.035433,-0.2125984 0.035433,-0.2834645 0.070866,-0.070866 0.070866,-0.070866 1.5944886,-0.070866 l 1.488189,0 0,-0.070866 C 11.72835,4.5 11.622051,4.0748032 11.480318,3.8622048 11.055118,2.9409447 10.098425,2.3740156 9.0708664,2.4094487 8.7165356,2.4448817 8.4685041,2.5157479 8.1141734,2.6929132 7.6181104,2.9409447 7.2283466,3.2952754 6.9803151,3.8267714 6.8031498,4.2165352 6.7322836,4.4645667 6.7322836,4.9251966 c 0,0.4606298 0.035433,0.7086613 0.2480315,1.0984251 0.1417323,0.3543307 0.2125985,0.4606299 0.46063,0.7086614 C 8.5393703,7.8661413 10.346457,7.724409 11.267717,6.4133854 11.444882,6.200787 11.444882,6.200787 11.586614,6.200787 c 0.141733,0 0.212599,0.070866 0.212599,0.2125984 0,0.2125985 -0.531496,0.7795276 -0.956693,1.0629921 -0.566929,0.3897638 -1.3110237,0.5669291 -1.9842521,0.4606299 z"
       style="fill:#ffffff;fill-opacity:1;fill-rule:nonzero;stroke:none"
       inkscape:connector-curvature="0" />
  </g>
</svg>
