<?xml version="1.0" encoding="UTF-8"?>
<svg xmlns="http://www.w3.org/2000/svg" width="100" height="100">
  <path d="m 69.90091,31.684682 9.34153,-8.462 c -6.39039,-9.52155
           -27.40948,-17.47015 -43.93903,-10.68981 -16.5322,6.78165
           -19.42381,25.48554 -8.84151,34.82504 10.58362,9.3395 33.02736,7.28458
           38.7418,14.80883 5.80571,7.64081 -2.33076,15.67061 -11.6908,16.25867
           -9.23571,0.57758 -19.8643,-0.80285 -26.23881,-11.8764 L 17,76.192362
           c 9.15105,11.98118 27.45445,16.06484 43.99988,12.64127
           16.5441,-3.41964 23.90277,-18.99595 17.9608,-32.74261
           -2.77521,-6.41886 -10.34419,-9.95899 -19.33386,-11.93141
           -10.23705,-2.24352 -19.34973,-3.02803 -23.9279,-7.8687
           -4.56494,-4.83019 -0.45504,-12.06762 6.74754,-14.52331
           7.2039,-2.45308 19.83652,-0.91942 27.45445,9.91708 z"
        fill-opacity="0.2" />
</svg>
