<?xml version="1.0" encoding="UTF-8" ?>
<svg xmlns="http://www.w3.org/2000/svg" width="100" height="100">
  <path
    d="M 78,18 61.28,18 C 59.6,13.36 55.2,10 50,10 44.8,10 40.4,13.36 38.72,18 L 22,18 c -4.4,0 -8,3.6 -8,8 l 0,56 c 0,4.4 3.6,8 8,8 l 56,0 c 4.4,0 8,-3.6 8,-8 l 0,-56 c 0,-4.4 -3.6,-8 -8,-8 z m -28,0 c 2.2,0 4,1.8 4,4 0,2.2 -1.8,4 -4,4 -2.2,0 -4,-1.8 -4,-4 0,-2.2 1.8,-4 4,-4 z m 8,56 -28,0 0,-8 28,0 0,8 z m 12,-16 -40,0 0,-8 40,0 0,8 z m 0,-16 -40,0 0,-8 40,0 0,8 z"
    opacity="0.2"
  />
</svg>
