<?xml version="1.0" encoding="UTF-8"?>
<svg xmlns="http://www.w3.org/2000/svg" width="100" height="100">
  <path d="m 10.360186,14.005859 c 0.11875,0.158228 0.586288,10.215189
           1.298828,11.125 l -1.658203,-2.138671 c 0,0 -0.3103057,12.296722
           11.208984,19.496093 0,0 -2.301275,-0.07938 -5.666015,-1.384765 0,0
           6.29951,8.074737 16.75,11.001953 0,0 -1.430426,0.671949
           -5.072266,0.197265 0,0 2.594701,2.95423 9.462891,6.03125 l
           0,13.117188 c 0,1.424052 -0.996288,2.410156 -2.460938,2.410156 l
           -4.986328,0 0,12.138672 37.841797,0 0,-12.138672 -4.701172,0 c
           -2.96889,0 -3.958984,-0.946424 -3.958984,-3.201172 l 0,-4.611328 c
           9.3868,4.275409 24.220703,15.130859 24.220703,15.13086 0,0
           -6.652615,-8.030602 -17.578125,-18.394532 -0.0905,-0.09044
           -0.290302,-0.264013 -0.482422,-0.433594 l 0.08789,0 6.222656,0
           0,-11.111328 -12.470703,0 0,-10.335937 13.458984,0 c 2.29594,0
           3.279297,1.430404 3.279297,3.091797 l 0,3.126953 14.84375,0
           0,-18.394531 -54.009766,0 c -1.44728,-0.821409 -3.388171,-1.841604
           -3.982422,-1.976563 l -0.07422,0 0.753906,1.816406 C
           20.337741,25.403801 10.122676,13.689403 10.360186,14.005859 Z"
        fill-opacity="0.2" />
</svg>
