<?xml version="1.0" encoding="UTF-8"?>
<svg xmlns="http://www.w3.org/2000/svg" width="100" height="100">
  <path d="M 13.522826,100 C 6.05192,100 0,93.95312 0,86.48128 V 13.52363 C 0,6.0527705 6.05192,4.9048828e-4 13.522826,4.9048828e-4 H 86.47717 V 3.2288605 v 3.2107 H 13.522826 c -3.904544,0.0103 -7.065972,3.18027 -7.075789,7.0845595 v 72.95716 c 0.0098,3.90527 3.171245,7.07278 7.075789,7.07278 H 86.47717 c 3.90455,0 7.07187,-3.16751 7.07187,-7.07278 V 13.52363 c 0,-3.9047795 -3.16732,-7.0742495 -7.07187,-7.0845595 V 3.2283705 4.8828122e-7 C 93.95299,4.8828122e-7 100,6.0522805 100,13.52314 V 86.48128 C 100,93.95312 93.95348,100 86.47717,100 Z"
        opacity="0.2" />
  <path d="m 62.92082,58.75224 c -0.60961,1.86084 -1.00865,3.7315 -1.00865,4.65823 0,1.76317 0.60421,3.00308 2.32064,3.00308 6.46667,0 13.74321,-12.31415 13.74321,-22.25353 0,-14.49994 -12.73308,-24.64351 -27.08148,-24.64351 -16.97679,0 -30.514835,14.80475 -30.514835,30.95692 0,16.87324 13.538045,30.33452 31.021855,30.33452 9.80284,0 19.80495,-4.96502 24.55028,-10.86955 h 7.78356 c -6.56876,11.07424 -19.40001,17.70033 -33.14272,17.70033 -21.11743,0 -37.991631,-16.04467 -37.991631,-37.6807 0,-20.71322 17.376321,-37.27328 38.190901,-37.27328 19.00097,0 34.96223,12.83396 34.96223,30.95496 0,17.28949 -14.44951,28.98368 -23.03852,28.98368 -4.54017,0 -7.37323,-2.17254 -7.88124,-6.5181 h -0.19977 c -2.93123,3.20824 -6.06223,6.5181 -12.32913,6.5181 -8.69061,0 -14.45,-7.13805 -14.45,-15.73199 0,-13.66744 9.49999,-28.36962 23.64863,-28.36962 4.74484,0 9.59766,2.48571 11.61595,8.07658 h 0.20517 l 2.01976,-6.31342 h 6.36409 z M 51.50464,35.97938 c -8.79369,0 -15.56271,11.49197 -15.56271,20.18604 0,5.80047 3.33567,9.00871 8.38335,9.00871 7.68147,0 14.65517,-12.31906 14.65517,-20.60326 0,-4.86637 -2.62839,-8.59149 -7.47581,-8.59149"
        opacity="0.2" />
</svg>
