<?xml version="1.0" encoding="UTF-8" standalone="no"?>
<!-- Created with Inkscape (http://www.inkscape.org/) -->

<svg
   xmlns:dc="http://purl.org/dc/elements/1.1/"
   xmlns:cc="http://creativecommons.org/ns#"
   xmlns:rdf="http://www.w3.org/1999/02/22-rdf-syntax-ns#"
   xmlns:svg="http://www.w3.org/2000/svg"
   xmlns="http://www.w3.org/2000/svg"
   xmlns:sodipodi="http://sodipodi.sourceforge.net/DTD/sodipodi-0.dtd"
   xmlns:inkscape="http://www.inkscape.org/namespaces/inkscape"
   width="30"
   height="10"
   id="svg2"
   sodipodi:version="0.32"
   inkscape:version="0.48.4 r9939"
   version="1.0"
   inkscape:output_extension="org.inkscape.output.svg.inkscape"
   sodipodi:docname="4.svg">
  <metadata
     id="metadata12">
    <rdf:RDF>
      <cc:Work
         rdf:about="">
        <dc:format>image/svg+xml</dc:format>
        <dc:type
           rdf:resource="http://purl.org/dc/dcmitype/StillImage" />
      </cc:Work>
    </rdf:RDF>
  </metadata>
  <defs
     id="defs10" />
  <sodipodi:namedview
     pagecolor="#ffffff"
     bordercolor="#666666"
     borderopacity="1"
     objecttolerance="10"
     gridtolerance="10"
     guidetolerance="10"
     inkscape:pageopacity="0"
     inkscape:pageshadow="2"
     inkscape:window-width="1600"
     inkscape:window-height="841"
     id="namedview8"
     showgrid="false"
     inkscape:zoom="7.9422234"
     inkscape:cx="54.623301"
     inkscape:cy="11.049754"
     inkscape:window-x="0"
     inkscape:window-y="27"
     inkscape:window-maximized="1"
     inkscape:current-layer="layer1" />
  <g
     inkscape:label="Layer 1"
     inkscape:groupmode="layer"
     id="layer1"
     transform="translate(-332.74477,-525.91065)">
    <path
       style="fill:#ffffff;fill-rule:nonzero;stroke:none"
       d="m 333.24477,526.91065 0,8 29,0 0,-8 -29,0 z m 3.75369,1.19601 c 0.52977,-0.0115 0.91941,0.12505 1.10018,0.192 0,0 0.24365,0.083 0.42594,0.21999 0.0925,0.068 0.10513,0.096 0.10513,0.096 0,0 0.007,0.013 -0.0181,0.118 l -0.17219,0.992 c -0.006,0.0412 -0.029,0.0619 -0.029,0.0619 0,0 -0.0127,0.007 -0.0997,-0.056 -0.5497,-0.42945 -1.19263,-0.378 -1.19263,-0.378 -0.48893,0.034 -1.06054,0.31728 -1.23069,1.032 -0.15145,0.63441 0.006,1.16584 0.348,1.482 0.23278,0.22555 0.59464,0.33757 0.97512,0.318 0.41415,-0.034 0.74569,-0.21338 0.72138,-0.2 0,0 0.0166,-0.008 0.0362,-0.014 0.086,-0.0473 0.10512,-0.042 0.10512,-0.042 0,0 0.0185,0.0202 0.006,0.082 l -0.17219,1.084 c -0.006,0.0535 -0.0308,0.096 -0.0308,0.096 0,0 -0.0259,0.0266 -0.0652,0.0399 -0.59083,0.26261 -1.24337,0.174 -1.24337,0.174 -1.06013,-0.12565 -1.73156,-0.84125 -1.94845,-1.76402 -0.31878,-1.38309 0.31338,-2.36486 0.46763,-2.576 0.37113,-0.49123 0.95218,-0.8416 1.52432,-0.92398 0.13636,-0.0211 0.26561,-0.0313 0.38787,-0.0341 z m 21.20625,0.094 1.21981,0 c 0.0243,0 0.0309,0.008 0.0309,0.008 0,0 0.0127,0.0132 0.0127,0.0399 l 0,1.618 1.59319,0 c 0.0402,0 0.0507,0.008 0.0507,0.008 0,0 0.0199,0.008 0.0199,0.048 l 0,1.36 c 0,0.0135 -0.0199,0.0341 -0.0199,0.0341 0,0 -0.006,0.014 -0.0254,0.014 l -1.56237,0 c -0.0252,0 -0.0381,0.012 -0.0381,0.012 0,0 -0.0181,0.008 -0.0181,0.042 l 0,1.84 c 0,0.0278 -0.0127,0.0341 -0.0127,0.0341 0,0 -0.006,0.0139 -0.0254,0.0139 l -1.24338,0 c -0.0178,0 -0.0308,-0.0139 -0.0308,-0.0139 0,0 -0.007,-0.008 -0.007,-0.0421 l 0,-1.84 c 0,-0.0195 -0.0145,-0.034 -0.0145,-0.034 0,0 -0.01,-0.012 -0.0254,-0.012 l -1.60406,0 c -0.0309,0 -0.0381,-0.008 -0.0381,-0.008 0,0 -0.0109,-0.0128 -0.0109,-0.054 l 0,-1.34601 c 0,-0.0166 0.0109,-0.034 0.0109,-0.034 0,0 0.006,-0.007 0.0199,-0.007 l 1.6385,0 c 0.0131,0 0.0126,-0.008 0.0126,-0.008 0,0 0.0109,-0.007 0.0109,-0.02 l 0,-1.612 c 0,-0.0195 0.007,-0.0341 0.007,-0.0341 0,0 0.0125,-0.008 0.0489,-0.008 z m -17.71538,0.10394 0.0435,0 1.40106,0 c 0.0252,0 0.0417,0.02 0.0417,0.02 0,0 0.008,0.007 0.0145,0.026 l 0.9425,4.88 c 0,0.0205 -0.0127,0.028 -0.0127,0.028 0,0 -0.006,0.007 -0.0199,0.007 l -1.0875,0.008 c -0.0252,0 -0.0435,-0.0139 -0.0435,-0.0139 0,0 -0.006,-0.007 -0.0127,-0.054 l -0.17037,-0.778 c 0,-0.0166 -0.0109,-0.0239 -0.0109,-0.0239 l -0.0199,0 -1.537,0 c -0.0308,0 -0.0489,0.0239 -0.0489,0.0239 0,0 -0.0248,0.0206 -0.0435,0.068 l -0.30632,0.722 c -0.0122,0.0278 -0.0181,0.034 -0.0181,0.034 0,0 -0.0185,0.014 -0.0344,0.014 l -1.26694,0 c -0.0374,0.007 -0.0435,-0.014 -0.0435,-0.014 0,0 -0.008,-0.0193 0.006,-0.046 l 2.19857,-4.86599 c 0.009,-0.0278 0.029,-0.034 0.029,-0.034 z m 10.21888,0 1.3775,0 c 0.0308,0 0.0471,0.02 0.0471,0.02 0,0 0.008,0.007 0.0145,0.026 l 0.92438,4.908 c 0,0.0145 -0.007,0.02 -0.007,0.02 0,0 -4.1e-4,0.007 -0.0181,0.007 l -1.12012,0 c -0.0243,0.0135 -0.0435,-0.012 -0.0435,-0.012 0,0 -0.006,-0.007 -0.0126,-0.048 l -0.14862,-0.764 c -0.0122,-0.0371 -0.0236,-0.058 -0.0236,-0.058 0,0 -0.0315,-0.02 -0.0689,-0.02 l -1.45544,0 c -0.028,0 -0.0471,0.02 -0.0471,0.02 0,0 -0.025,0.0248 -0.0381,0.066 l -0.32987,0.776 c -0.006,0.0195 -0.0181,0.028 -0.0181,0.028 0,0 -0.0259,0.007 -0.0381,0.007 l -1.2615,0 c -0.0309,0.007 -0.0399,-0.0139 -0.0399,-0.0139 0,0 -0.006,-0.0121 0.009,-0.0399 l 2.22393,-4.886 c 0.0122,-0.007 0.0236,-0.028 0.0236,-0.028 0,0 0.0143,-0.007 0.0507,-0.007 z m 3.52531,0 0.0652,0 1.14731,0 c 0.0309,0 0.0399,0.007 0.0399,0.007 0,0 0.006,0.0212 0,0.048 l -0.46945,3.74201 c -0.006,0.0402 0.0127,0.044 0.0127,0.044 0,0 0.0111,0.007 0.0616,0.007 l 1.247,0 c 0.0271,0 0.0362,0.014 0.0362,0.014 0,0 0.007,0.007 0.007,0.0399 l -0.12143,1.006 c -0.006,0.0402 -0.0126,0.0541 -0.0126,0.0541 0,0 -0.006,0.0139 -0.0362,0.0139 l -2.52119,0 c -0.0729,0 -0.0924,-0.02 -0.0924,-0.02 0,0 -0.0128,-0.0273 -0.007,-0.088 l 0.62532,-4.788 c 0.006,-0.0577 0.0181,-0.078 0.0181,-0.078 z m -10.11375,0.007 1.24338,0 c 0.0187,0 0.0308,0.0139 0.0308,0.0139 0,0 0.0116,0.007 0.0181,0.026 l 1.40288,2.71 c 0.0243,0.0535 0.0417,0.048 0.0417,0.048 0,0 0.0186,-2.1e-4 0.0308,-0.062 l 0.35344,-2.696 c 0,-0.0195 0.0109,-0.026 0.0109,-0.026 0,0 0.006,-0.014 0.0254,-0.014 l 1.16906,0.014 c 0.0252,0 0.0326,0.008 0.0326,0.008 0,0 0.006,0.004 0.006,0.018 l -0.63075,4.87399 c -0.006,0.0278 -0.0181,0.048 -0.0181,0.048 0,0 -0.007,0.007 -0.0381,0.007 l -1.12012,0 -0.0362,0 c 0,0 -0.004,-0.007 -0.0109,-0.0139 l -1.55512,-3.038 c -0.0122,-0.0135 -0.0181,-0.014 -0.0181,-0.014 0,0 -0.0126,4.6e-4 -0.0126,0.02 l -0.38607,2.984 c -0.006,0.034 -0.0126,0.042 -0.0126,0.042 0,0 -0.0121,0.007 -0.0309,0.007 l -1.11287,0 c -0.0178,0 -0.0308,-0.014 -0.0308,-0.014 0,0 -0.0256,-0.0273 -0.0164,-0.054 l 0.609,-4.82999 c 0.006,-0.0278 0.0199,-0.0341 0.0199,-0.0341 0,0 0.0175,-0.022 0.0362,-0.022 z m 7.08325,1.402 c 0,0 -0.006,-8.8e-4 -0.0127,0.026 l -0.6108,1.524 c -0.0131,0.0473 -0.007,0.054 -0.007,0.054 0,0 0.0177,0.014 0.0308,0.014 l 0.90625,-0.008 0.0109,0 c 0,0 0.006,-0.006 0,-0.0261 l -0.3045,-1.566 c -0.006,-0.0195 -0.0127,-0.0181 -0.0127,-0.0181 z m -10.16087,0.0181 c 0,0 -0.006,0.002 -0.0127,0.016 l -0.61081,1.528 c -0.0122,0.0205 -0.007,0.034 -0.007,0.034 0,0 0.007,0.008 0.0381,0.008 l 0.899,0.007 c 0.006,0 0.009,-0.007 0.009,-0.007 0,0 0.006,-0.007 0,-0.028 l -0.30994,-1.54198 c 0,-0.0145 -0.006,-0.016 -0.006,-0.016 z"
       id="path68518"
       inkscape:connector-curvature="0" />
  </g>
</svg>
