<?xml version="1.0" encoding="UTF-8" standalone="no"?>
<!-- Created with Inkscape (http://www.inkscape.org/) -->

<svg
   xmlns:dc="http://purl.org/dc/elements/1.1/"
   xmlns:cc="http://creativecommons.org/ns#"
   xmlns:rdf="http://www.w3.org/1999/02/22-rdf-syntax-ns#"
   xmlns:svg="http://www.w3.org/2000/svg"
   xmlns="http://www.w3.org/2000/svg"
   xmlns:sodipodi="http://sodipodi.sourceforge.net/DTD/sodipodi-0.dtd"
   xmlns:inkscape="http://www.inkscape.org/namespaces/inkscape"
   id="svg2"
   version="1.1"
   inkscape:version="0.48.4 r9939"
   width="30"
   height="10"
   sodipodi:docname="17.svg">
  <metadata
     id="metadata8">
    <rdf:RDF>
      <cc:Work
         rdf:about="">
        <dc:format>image/svg+xml</dc:format>
        <dc:type
           rdf:resource="http://purl.org/dc/dcmitype/StillImage" />
        <dc:title />
      </cc:Work>
    </rdf:RDF>
  </metadata>
  <defs
     id="defs6" />
  <sodipodi:namedview
     pagecolor="#ffffff"
     bordercolor="#666666"
     borderopacity="1"
     objecttolerance="10"
     gridtolerance="10"
     guidetolerance="10"
     inkscape:pageopacity="0"
     inkscape:pageshadow="2"
     inkscape:window-width="1600"
     inkscape:window-height="841"
     id="namedview4"
     showgrid="false"
     inkscape:zoom="49.675074"
     inkscape:cx="14.210968"
     inkscape:cy="4.2950378"
     inkscape:window-x="0"
     inkscape:window-y="27"
     inkscape:window-maximized="1"
     inkscape:current-layer="svg2" />
  <path
     style="fill:#ffffff;fill-opacity:1;stroke:none"
     d="M 10.5 0.5 L 10.5 9.5 L 14.15625 9.5 C 14.757229 9.5 15.336535 9.4033123 15.875 9.25 L 14.84375 9.25 C 14.87679 8.8479762 14.957862 8.4350681 15.0625 8 C 15.167135 7.5649344 15.288804 7.1372979 15.4375 6.71875 C 15.591699 6.3002073 15.750254 5.9002344 15.9375 5.53125 C 16.124742 5.1567658 16.338496 4.8323563 16.53125 4.5625 L 14.03125 4.5625 L 14.03125 3.53125 L 18.03125 3.53125 L 18.03125 4.40625 C 17.855016 4.5990059 17.652276 4.8773092 17.4375 5.21875 C 17.228223 5.5601989 17.036498 5.9399361 16.84375 6.375 C 16.656503 6.8045626 16.486934 7.2856058 16.34375 7.78125 C 16.211954 8.2557079 16.129661 8.7130435 16.09375 9.1875 C 18.092092 8.5355917 19.5 6.9119296 19.5 5 C 19.5 2.51472 17.114918 0.5 14.15625 0.5 L 10.5 0.5 z M 12.4375 3.53125 L 13.3125 3.53125 L 13.3125 9.25 L 12.0625 9.25 L 12.0625 5.125 C 11.897282 5.2351477 11.735014 5.3438818 11.53125 5.4375 C 11.327483 5.5256186 11.13025 5.6214175 10.9375 5.6875 L 10.5625 4.71875 C 10.722207 4.652668 10.891777 4.5826124 11.0625 4.5 C 11.238729 4.41189 11.397283 4.3178842 11.5625 4.21875 C 11.727714 4.1141187 11.882554 4.0163989 12.03125 3.90625 C 12.185449 3.7906047 12.31634 3.6579207 12.4375 3.53125 z "
     id="path2987" />
</svg>
