<?xml version="1.0" encoding="UTF-8" standalone="no"?>
<!-- Created with Inkscape (http://www.inkscape.org/) -->

<svg
   xmlns:dc="http://purl.org/dc/elements/1.1/"
   xmlns:cc="http://creativecommons.org/ns#"
   xmlns:rdf="http://www.w3.org/1999/02/22-rdf-syntax-ns#"
   xmlns:svg="http://www.w3.org/2000/svg"
   xmlns="http://www.w3.org/2000/svg"
   version="1.1"
   width="10"
   height="10"
   id="svg2">
  <defs
     id="defs4" />
  <metadata
     id="metadata7">
    <rdf:RDF>
      <cc:Work
         rdf:about="">
        <dc:format>image/svg+xml</dc:format>
        <dc:type
           rdf:resource="http://purl.org/dc/dcmitype/StillImage" />
        <dc:title></dc:title>
      </cc:Work>
    </rdf:RDF>
  </metadata>
  <g
     transform="translate(0,-1042.3622)"
     id="layer1">
    <path
       d="M 1,1 1,9 2,9 2,8 3,8 3,9 7,9 7,8 8,8 8,9 9,9 9,1 z M 2,2 3,2 3,3 2,3 z M 7,2 8,2 8,3 7,3 z M 2,4 3,4 3,5 2,5 z M 7,4 8,4 8,5 7,5 z M 2,6 3,6 3,7 2,7 z M 7,6 8,6 8,7 7,7 z"
       transform="translate(0,1042.3622)"
       id="rect2983"
       style="fill:#ffffff;fill-opacity:1;stroke:none" />
  </g>
</svg>
