<?xml version="1.0" encoding="UTF-8"?>
<svg xmlns="http://www.w3.org/2000/svg" width="100" height="100">
  <path d="m 55.212338,10.000809 c -5.775662,-0.062857 -10.707953,3.539035
           -15.143113,6.836277 -2.214843,2.136729 -5.975615,4.828759
           -4.243206,8.238709 0.791542,5.497754 -2.917847,10.907232
           -0.718056,16.339694 1.737895,3.009139 -0.459428,5.564473
           -3.784852,4.749354 -0.271886,-2.998396 -2.407014,-6.764277
           -5.975204,-5.557467 -4.185126,0.95577 -5.650404,6.130838
           -3.894464,9.714845 1.034285,3.150247 4.582269,7.160173
           8.065876,4.919022 2.141768,-2.668099 3.810898,0.437142
           1.174147,1.913438 -1.29457,3.919606 1.640672,8.273052
           3.180499,11.903607 2.070111,4.737126 7.700058,5.294142
           12.218361,5.521159 0.753828,-2.312637 5.471513,-1.13737
           5.476085,-1.369438 -3.86627,-2.141883 -6.827146,-5.687364
           -9.295486,-9.288434 -0.935084,-1.281793 -1.819712,-5.430268
           -0.02971,-2.189266 3.973549,5.881775 9.777851,11.663848
           17.285281,11.958842 5.249148,-0.140457 10.570649,-2.3689
           14.261593,-6.106381 6.934083,-8.469052 9.495748,-19.74522
           8.671544,-30.508475 -0.205376,-4.210269 -0.07543,-9.795325
           -4.60761,-11.84202 -2.0501,-2.165734 -7.389636,2.051278
           -4.749857,-2.135517 1.24177,-2.288477 6.689272,0.406285
           3.46571,-2.563654 C 73.880417,16.526835 70.065553,13.301376
           65.411319,11.886921 62.144603,10.722602 58.69111,9.9814718
           55.21268,10.000809 Z m -13.418635,2.481562 c -5.759844,1.758981
           -11.807105,4.84796 -14.740164,10.376113 3.192945,-1.793952
           7.969773,0.224 9.389737,-4.055263 0.259542,-2.836088
           6.781522,-4.572657 5.350427,-6.32085 z m 9.395954,10.57929 c
           2.494397,-0.626971 4.196772,4.009983 0.813142,2.710705
           -3.79771,-0.656456 -5.86957,3.806761 -7.592436,5.46093
           -1.415519,-3.107276 2.02954,-6.371912 4.648599,-7.666001
           0.669142,-0.299772 1.393062,-0.504 2.130683,-0.5056 z M
           33.501451,23.58406 c -5.081342,0.267886 -10.902044,3.767561
           -10.796844,9.444343 0.132572,2.627368 -0.996798,7.35287
           2.751425,4.919125 4.143755,-1.197599 7.198231,3.418133
           8.120333,5.692381 0.965713,-3.031505 -1.524512,-6.788677
           -0.2176,-10.199084 0.449371,-3.241516 1.371119,-6.671329
           0.142629,-9.856765 z m 44.351201,8.054184 c 0.945827,2.168283
           3.802475,5.429536 3.153641,7.637614 -1.369118,2.274054
           -7.731727,2.237402 -5.933935,-0.774399 1.944352,-0.246057
           5.742004,0.127085 3.478373,-2.77258 -0.515771,-1.295141
           -0.795428,-2.694145 -0.698057,-4.090589 z m -21.580179,0.05829 c
           0.212571,3.617093 5.361399,5.696541 3.996247,9.171051
           -1.66193,2.343609 -9.023132,2.208146 -7.641351,-1.610261
           2.206249,0.658057 7.92935,1.232022 4.830257,-2.2377
           -0.765713,-1.617106 -1.703563,-3.494087 -1.185153,-5.32309 z m
           11.182192,1.915598 c 1.445289,2.976567 3.197207,6.23614
           5.549627,8.832663 2.332557,2.720568 6.97158,5.967661
           3.291653,9.446079 -3.684098,2.509654 -8.115453,4.309263
           -12.646132,3.750555 -2.348763,-1.062855 -0.511314,-7.54583
           0.05828,-3.088327 2.429597,3.562075 7.436265,-0.2248
           10.47337,-1.353141 3.085744,-3.098591 -2.513769,-6.052244
           -3.929572,-8.832538 -1.831484,-2.475608 -3.386956,-5.40029
           -3.290648,-8.56664 l 0.363086,-0.174171 0.130742,-0.01486 0,0 z m
           -41.37413,9.171611 c 3.030167,-0.319771 5.29773,4.980874
           3.699355,5.953809 -0.426057,-2.105311 -3.396099,-4.965639
           -3.77075,-1.142398 -0.200457,1.457141 0.2928,5.596701
           -0.950513,2.088432 -0.984799,-1.843804 1.497381,-7.168951
           -1.824489,-3.939367 0.118057,-1.489129 1.212787,-3.054773
           2.846374,-2.960465 z m 53.151738,11.000146 c -1.148307,3.192373
           -6.355524,8.331189 -8.908686,5.865592 -0.758285,-3.91004
           5.21589,-2.617528 7.357316,-5.090302 0.510285,-0.271885
           1.025142,-0.535656 1.55137,-0.775313 z m -23.235731,2.031677 c
           4.053069,1.828021 8.627909,1.720204 12.982967,1.683404
           1.997837,5.110942 -4.585629,2.869402 -7.405568,2.409483
           -2.229963,-0.648343 -4.676348,-1.781427 -5.577399,-4.092887 z m
           -0.595428,3.033025 c 1.819244,4.489149 7.394265,4.740223
           11.529952,4.697548 1.979208,-0.160457 6.003592,-0.448342
           2.571242,1.716775 -3.842041,1.068113 -8.950172,1.769712
           -11.952865,-1.472718 -0.176457,-1.366627 -5.639353,-4.840039
           -2.148329,-4.941605 z m 20.650763,10.434158 c -0.683199,1.333347
           -5.393799,3.677916 -1.715575,2.862134 3.523687,1.63162
           3.263801,6.487077 3.136727,9.804524 -0.499313,2.252352
           -1.330204,4.239469 0.916913,5.865239 -0.433713,1.115541
           2.486512,0.277256 3.521927,0.536913 2.48394,-1.533175
           2.2749,-6.690666 3.087996,-9.752604 -0.903884,-3.331413
           -4.868393,-4.659412 -6.828368,-7.416963 -0.677713,-0.664342
           -1.379598,-1.304912 -2.119655,-1.899277 z m -44.307635,2.62669 C
           25.597621,74.357539 20.211708,78.307602 15,82.314363 c
           1.631758,2.154409 1.098513,7.038414 4.749377,6.037021 9.090788,0
           18.181577,0 27.272365,0 -1.205724,-3.818738 -1.131198,-8.252595
           -5.954255,-8.99472 -3.517378,-1.403553 -6.242655,-3.920304
           -8.530229,-6.867729 l -0.497828,-0.451885 -0.2952,-0.127771 0,0 z m
           41.243422,2.786305 c -2.432146,0.867656 -7.423888,2.458923
           -6.404347,5.267879 1.21993,-0.494514 4.741811,0.554399
           1.605061,0.505485 -2.882076,0.625942 -1.246798,4.475594
           1.485244,3.77787 2.969151,0.756684 7.176459,1.139655
           6.160415,-3.224008 -0.376228,-2.04954 0.01371,-6.187386
           -2.846373,-6.32726 z m -5.271605,0.145143 c -2.728797,0.95577
           -8.388195,1.145918 -9.530651,1.297598 3.445356,2.753094
           6.763386,1.497415 9.530651,-1.297598 z m -29.030146,0.04343 c
           -0.579314,2.517254 7.221031,5.909444 6.743134,1.787529
           -0.73017,-1.675746 -5.205936,-0.212914 -6.743134,-1.787529 z m
           10.368947,0.609485 c -3.410407,1.462535 -2.071609,6.536266
           -1.618924,9.502651 0.223657,4.205846 3.775687,6.690186
           7.221408,3.666647 1.999495,-1.601221 6.98926,-3.569276
           5.537467,-6.307055 -1.438764,-0.765028 -5.017948,-0.711542
           -1.607198,-1.317153 4.337618,-1.079884 -3.052362,-3.041607
           -4.727125,-4.222132 -1.553884,-0.573942 -3.146419,-1.170844
           -4.805628,-1.322958 z m 14.26093,3.67155 c -4.252372,0.206171
           0.32,7.340082 1.739644,2.379894 0.197371,-1.077484 -0.5376,-2.432671
           -1.739644,-2.379894 z m 1.699118,5.325924 c -2.29826,0.717028
           -5.881627,1.104456 -2.860911,3.860201 1.784124,0.317257
           2.949117,-0.294514 4.226132,-0.870513 0.913027,2.245083
           4.840805,0.07771 2.350751,-1.228273 -1.419529,-0.185714
           -2.273002,-1.722157 -3.715972,-1.761403 z m 7.653259,1.523759 c
           -2.967231,-0.207429 -2.279597,3.406818 0.378171,2.336442
           1.02857,-0.257028 4.646931,0.695542 2.87915,-0.892456
           -0.850627,-0.867427 -2.025014,-1.461964 -3.257298,-1.443998 z m
           -13.563857,1.63986 c -1.699507,0.807199 -0.517485,0.728914
           0.522856,0.696571 L 59.368767,88.000379 59.10431,87.654893 Z"
        fill-opacity="0.2" />
</svg>
