<?xml version="1.0" encoding="UTF-8"?>
<svg xmlns="http://www.w3.org/2000/svg" width="100" height="100">
  <path d="M 10.000039,49.9599 30.032869,84.962 70.032849,85 90,50.0365
           76.946372,27.18945 72.449054,35.06457 81.214262,50.1861
           65.767976,77.2335 39.763955,77.0633 50.006539,59.1279 c
           3.112276,-0.015 6.155512,-1.6377 7.823846,-4.559 2.496805,-4.3722
           1.015079,-9.9626 -3.309501,-12.48693 -4.324581,-2.52411
           -9.854426,-1.02625 -12.35123,3.34593 -1.67535,2.9336 -1.557556,6.3931
           0.0065,9.1295 L 31.93355,72.4925 18.785738,49.8102 34.232024,22.76278
           l 17.336014,0.11273 4.497318,-7.87511 -26.098205,0 L 10,49.9643 Z"
        fill="white" />
  <path d="m 27.383145,49.991 6.097973,10.651 4.450225,-7.7926 -1.76246,-3.0078
           6.781296,-11.87462 13.831137,0.15681 7.04984,12.03111
           -6.781296,11.8747 -3.457785,-0.039 -4.450226,7.7926 12.172884,0.015
           11.302161,-19.7908 -8.045421,-14.09675 c 2.608679,-0.41217
           5.021823,-1.93774 6.444767,-4.42947 2.496804,-4.37197
           1.015078,-9.96261 -3.309502,-12.48673 -4.32458,-2.52428
           -9.854426,-1.02623 -12.35123,3.34576 -1.427906,2.50036
           -1.598424,5.37885 -0.636256,7.87479 L 38.685306,30.1997
           27.383145,49.9906 Z"
        fill="white" />
</svg>
