<?xml version="1.0" encoding="UTF-8"?>
<svg xmlns="http://www.w3.org/2000/svg" width="100" height="100">
  <path d="m 22.999998,10 51.038726,0 0.476947,16.841134 -3.44346,0
           -1.716493,-5.290892 c -1.719106,-5.29353 -5.450834,-6.929617
           -10.799474,-6.929617 l -13.286418,0 0,23.868389 13.092494,0 c
           2.775212,0 2.96389,-0.48027 4.874307,-8.758339 l 3.632147,0
           0,23.095206 -3.632147,0 C 61.32621,44.840723 61.134909,43.684908
           58.36232,43.684908 l -13.092494,0 0,19.538037 c 0,4.132437
           1.244784,6.159074 6.49908,6.159074 l 6.307769,0 c 7.167327,0
           10.513829,-2.794542 12.995536,-8.085434 l 2.295643,-5.098255
           3.632147,1.055539 -2.864319,16.746135 -51.135684,0 0,-3.654806 c
           8.98341,-1.92636 9.46298,-2.216633 9.46298,-5.773801 l 0,-45.235149 c
           0,-3.657444 -0.47957,-3.847441 -9.46298,-5.676164 z"
        fill-opacity="0.2" />
  <rect x="10" y="85" width="80" height="5" fill-opacity="0.2" />
</svg>
