<?xml version="1.0" encoding="UTF-8" standalone="no"?>
<!-- Created with Inkscape (http://www.inkscape.org/) -->

<svg
   xmlns:dc="http://purl.org/dc/elements/1.1/"
   xmlns:cc="http://creativecommons.org/ns#"
   xmlns:rdf="http://www.w3.org/1999/02/22-rdf-syntax-ns#"
   xmlns:svg="http://www.w3.org/2000/svg"
   xmlns="http://www.w3.org/2000/svg"
   xmlns:sodipodi="http://sodipodi.sourceforge.net/DTD/sodipodi-0.dtd"
   xmlns:inkscape="http://www.inkscape.org/namespaces/inkscape"
   id="svg2"
   version="1.1"
   inkscape:version="0.48.4 r9939"
   width="30"
   height="10"
   sodipodi:docname="Nouveau document 1">
  <metadata
     id="metadata8">
    <rdf:RDF>
      <cc:Work
         rdf:about="">
        <dc:format>image/svg+xml</dc:format>
        <dc:type
           rdf:resource="http://purl.org/dc/dcmitype/StillImage" />
        <dc:title></dc:title>
      </cc:Work>
    </rdf:RDF>
  </metadata>
  <defs
     id="defs6" />
  <sodipodi:namedview
     pagecolor="#ffffff"
     bordercolor="#666666"
     borderopacity="1"
     objecttolerance="10"
     gridtolerance="10"
     guidetolerance="10"
     inkscape:pageopacity="0"
     inkscape:pageshadow="2"
     inkscape:window-width="1600"
     inkscape:window-height="841"
     id="namedview4"
     showgrid="false"
     inkscape:zoom="29.421875"
     inkscape:cx="14.396658"
     inkscape:cy="2.398962"
     inkscape:window-x="0"
     inkscape:window-y="27"
     inkscape:window-maximized="1"
     inkscape:current-layer="svg2" />
  <path
     style="fill:#ffffff;stroke:none"
     d="m 10.505701,9.0497249 0.0069,-0.4513804 0.22689,-0.079144 0.22689,-0.079144 0.0066,-1.1533698 0.0065,-1.1533597 -0.165259,0.059033 c -0.09089,0.032518 -0.198776,0.059033 -0.239742,0.059033 L 10.5,6.2513826 l 7.1e-5,-0.4403342 7e-5,-0.4403243 0.804741,-0.2790748 c 0.493915,-0.171295 0.841992,-0.2789347 0.901187,-0.2787046 0.09117,3.602e-4 0.135065,0.03592 0.802326,0.6492602 l 0.70588,0.6488899 0.0069,-0.4419551 c 0.0038,-0.2430749 0.0024,-0.4463977 -0.0031,-0.4518407 -0.0055,-0.005 -0.05602,0.008 -0.112188,0.030317 -0.05617,0.022112 -0.128494,0.03652 -0.16071,0.032018 -0.05847,-0.008 -0.05859,-0.00901 -0.06545,-0.4462275 l -0.0069,-0.438063 0.107715,-0.039422 c 0.05924,-0.021712 0.62389,-0.2191516 1.25477,-0.4388434 l 1.147056,-0.3994416 0.264704,-0.012607 c 0.227539,-0.010806 0.287522,-0.005 0.42721,0.041523 0.394941,0.1316631 0.691288,0.4421853 0.794646,0.8326619 0.105719,0.3994016 -0.01303,0.7780716 -0.349956,1.1159691 -0.149754,0.1501833 -0.44557,0.3577684 -0.583241,0.409277 -0.03782,0.014108 -0.06435,0.029616 -0.05896,0.034419 0.108436,0.095753 0.679415,0.4616961 0.789418,0.5059306 0.265633,0.1068193 0.496927,0.037621 0.59671,-0.178619 0.04366,-0.094652 0.04697,-0.1849626 0.04748,-1.2970595 l 5.55e-4,-1.1953731 -0.207982,0.068838 c -0.114391,0.037921 -0.239181,0.076442 -0.27731,0.085748 l -0.06933,0.016809 0,-0.4168513 0,-0.4168412 0.072,-0.041823 c 0.0396,-0.023013 0.524579,-0.1974195 1.077727,-0.387555 C 18.959187,2.4919572 19.431615,2.3285766 19.45588,2.3190213 19.49768,2.3025122 19.5,2.4095715 19.5,4.3593331 19.5,6.338611 19.4981,6.4244386 19.44937,6.6117926 19.36532,6.935172 19.240103,7.1537232 19.009205,7.3800287 18.779472,7.6051936 18.55923,7.7268211 18.224576,7.8133391 17.585494,7.9785707 16.983208,7.8521606 16.480327,7.447286 l -0.107915,-0.086848 -0.05595,0.050528 c -0.07973,0.07194 -0.260387,0.1555463 -0.630926,0.2919619 -0.35544,0.1308526 -0.451536,0.1986502 -0.493786,0.3484033 -0.03785,0.1341344 -0.03592,0.2177708 0.0047,0.2024423 0.15485,-0.058432 1.362244,-0.4643476 1.381333,-0.4643476 0.01513,0 0.02197,0.1078699 0.01761,0.2777141 l -0.0071,0.277714 -1.071425,0.3669136 c -0.589284,0.2018119 -1.09177,0.3735672 -1.116635,0.3816917 -0.04256,0.013908 -0.04478,-0.012207 -0.03782,-0.4462075 0.0041,-0.2535307 0.0066,-0.4609557 0.0056,-0.4609457 -9.96e-4,2e-5 -0.05488,0.01781 -0.119747,0.039522 l -0.117936,0.039522 0,0.454172 0,0.4541819 -0.08193,0.028916 c -0.04506,0.015909 -0.24374,0.083446 -0.441504,0.1502434 l -0.359573,0.1213769 0.0066,-0.8472396 c 0.0039,-0.8035257 0.0066,-0.9397312 0.0066,-0.9397312 L 12.894979,7.3572061 12.529434,7.027153 l -0.0066,0.8294501 -0.0066,0.8294601 -0.06279,0.09095 c -0.06092,0.088249 -0.09004,0.1003356 -0.97655,0.4064054 -0.502565,0.1735062 -0.928193,0.3159649 -0.945838,0.3165752 -0.02508,8.705e-4 -0.03058,-0.097454 -0.02521,-0.4502794 z m 5.070902,-3.7667694 c 0.273622,-0.1007659 0.318069,-0.1553762 0.318211,-0.3909969 1.01e-4,-0.1740666 -0.04062,-0.2744423 -0.136386,-0.3361865 -0.08542,-0.055031 -0.09101,-0.05433 -0.386628,0.049027 l -0.258402,0.09035 0,0.3808713 0,0.3808612 0.119747,-0.045725 c 0.06586,-0.025114 0.220417,-0.082846 0.343458,-0.1281311 z m 2.403122,-2.9606724 c -0.32452,-0.1187959 -0.533092,-0.412799 -0.52996,-0.7470544 0.0019,-0.2071249 0.05621,-0.3590191 0.221533,-0.62002392 0.221259,-0.34932377 0.444766,-0.4710513 0.832845,-0.45358161 0.281122,0.012707 0.426413,0.0786436 0.610982,0.27732384 0.273712,0.29470349 0.303794,0.72492209 0.07438,1.06377009 -0.09222,0.1362056 -0.380514,0.3639519 -0.561745,0.4437562 -0.156583,0.068938 -0.504898,0.088149 -0.648037,0.03582 z"
     id="path2987"
     inkscape:connector-curvature="0"
     sodipodi:nodetypes="scccccsscccscscscssscsscssssssssscsscccsssssssscsssssscssssscccsscccccccsscsscsscccssssssssss" />
</svg>
