<?xml version="1.0" encoding="UTF-8" standalone="no"?>
<!-- Created with Inkscape (http://www.inkscape.org/) -->

<svg
   xmlns:dc="http://purl.org/dc/elements/1.1/"
   xmlns:cc="http://creativecommons.org/ns#"
   xmlns:rdf="http://www.w3.org/1999/02/22-rdf-syntax-ns#"
   xmlns:svg="http://www.w3.org/2000/svg"
   xmlns="http://www.w3.org/2000/svg"
   xmlns:sodipodi="http://sodipodi.sourceforge.net/DTD/sodipodi-0.dtd"
   xmlns:inkscape="http://www.inkscape.org/namespaces/inkscape"
   width="30"
   height="10"
   id="svg2"
   version="1.1"
   inkscape:version="0.48.4 r9939"
   sodipodi:docname="13.svg">
  <metadata
     id="metadata30">
    <rdf:RDF>
      <cc:Work
         rdf:about="">
        <dc:format>image/svg+xml</dc:format>
        <dc:type
           rdf:resource="http://purl.org/dc/dcmitype/StillImage" />
      </cc:Work>
    </rdf:RDF>
  </metadata>
  <defs
     id="defs28" />
  <sodipodi:namedview
     pagecolor="#ffffff"
     bordercolor="#666666"
     borderopacity="1"
     objecttolerance="10"
     gridtolerance="10"
     guidetolerance="10"
     inkscape:pageopacity="0"
     inkscape:pageshadow="2"
     inkscape:window-width="1600"
     inkscape:window-height="841"
     id="namedview26"
     showgrid="false"
     inkscape:zoom="16.045714"
     inkscape:cx="29.965805"
     inkscape:cy="10.767477"
     inkscape:window-x="0"
     inkscape:window-y="27"
     inkscape:window-maximized="1"
     inkscape:current-layer="layer1" />
  <g
     inkscape:label="Layer 1"
     inkscape:groupmode="layer"
     id="layer1"
     transform="translate(-134.11329,-413.92152)">
    <path
       style="fill:#ffffff;stroke:none"
       clip-path="url(#SVGID_2_)"
       d="m 134.61329,415.42152 0,7 14.5,0 0,-7 -14.5,0 z m 7.17102,1.55532 c 0.49623,0 0.84971,0.0704 1.09787,0.14729 0.0645,0.0205 0.12015,0.0393 0.16894,0.0561 l 0.22786,0.0823 c 6.9e-4,2.3e-4 0.001,4.6e-4 0.003,7.7e-4 0.049,0.0175 0.13157,0.0367 0.15472,0.0306 l -0.48291,0.99823 c -0.0126,-0.0276 -0.0688,-0.0901 -0.10681,-0.12469 -4.1e-4,-7.7e-4 -0.001,-7.7e-4 -0.001,-10e-4 l -0.0162,-0.0145 c -0.11927,-0.12373 -0.52704,-0.25229 -0.96968,-0.25229 -0.50255,0 -1.15353,0.24468 -1.15353,0.95739 0,0.71272 0.65099,0.95739 1.15353,0.95739 0.1839,0 0.80398,-0.13505 0.98911,-0.29969 l 4.1e-4,0 0.0272,-0.0255 c 4.1e-4,-4.8e-4 0.001,-4.8e-4 0.001,-10e-4 0.0389,-0.0354 0.0967,-0.10025 0.10745,-0.12687 l 0.55929,0.9603 c -0.0159,-0.0101 -0.10634,0.0145 -0.15795,0.035 -6.9e-4,4.7e-4 -10e-4,4.7e-4 -0.003,7.8e-4 l -0.0822,0.0336 c -0.0291,0.0115 -0.0621,0.0251 -0.10033,0.0408 l -0.0731,0.03 c -0.27715,0.11186 -0.73504,0.27563 -1.34384,0.27563 -0.99253,0 -2.04684,-0.62903 -2.04684,-1.87979 0,-1.25074 1.05431,-1.87979 2.04684,-1.87979 z m -5.58703,0.12978 0.93733,0 c -0.014,1.7e-4 -0.0249,0.10915 -0.0252,0.17209 l 0,0.003 0,0.0248 0,0.26686 0,2.22177 1.79503,0 0.23692,0 0.022,0 0.003,0 c 0.0559,-2.3e-4 0.15261,-0.0127 0.15277,-0.0284 l 0,0.86917 c -2.1e-4,-0.0158 -0.0969,-0.028 -0.15277,-0.0284 l -0.003,0 -0.022,0 -2.94402,0 c 0.014,-2.3e-4 0.0256,-0.10915 0.0259,-0.17208 l 0,-0.003 0,-0.29167 0,-2.5674 0,-0.29166 0,-0.003 c -2.2e-4,-0.063 -0.0119,-0.17191 -0.0259,-0.17208 z m 8.28896,0 1.97497,0 c 0.7443,0 1.12836,0.51902 1.12828,1.11125 0,0.59224 -0.38398,1.10469 -1.12828,1.10469 l -1.0629,0 0,0.8174 0,0.26759 0,0.0248 0,0.002 c 4.2e-4,0.063 0.0113,0.17256 0.0252,0.17282 l -0.93733,0 c 0.014,-2.4e-4 0.0256,-0.10983 0.0259,-0.17282 l 0,-0.002 0,-0.2924 0,-2.56667 0,-0.29167 0,-0.003 c -2.1e-4,-0.063 -0.0119,-0.17181 -0.0259,-0.17208 z m 0.91207,0.74522 0,0.76562 0.89784,0 c 0.31894,0 0.47837,-0.12006 0.47837,-0.39959 0,-0.25946 -0.15943,-0.36603 -0.47837,-0.36603 l -0.89784,0 z m -8.61067,3.33301 0.22398,0 c -0.003,7.8e-4 0.003,0.0202 0.006,0.0306 l 0.001,0.003 c 0.0121,0.0409 0.12044,0.33907 0.18384,0.51406 l 0.0175,0.0474 c 8e-5,1.8e-4 4.2e-4,4.8e-4 4.2e-4,7.8e-4 0.003,0.009 0.01,0.0226 0.0129,0.0255 l -0.17349,0 c 0.003,-7.8e-4 -0.002,-0.0202 -0.006,-0.0306 l -0.0123,-0.0336 c -0.009,-0.0272 -0.0214,-0.0609 -0.024,-0.0701 l -0.24857,0 c -0.007,0.023 -0.0129,0.0405 -0.0175,0.0546 l -0.003,0.007 c -0.007,0.021 -0.0105,0.0327 -0.0123,0.0393 l -6.9e-4,0.003 c 0,1.7e-4 7e-5,4.6e-4 0,7.8e-4 -0.003,0.0101 -0.007,0.0286 -0.005,0.03 l -0.15341,0 c 0.003,-0.003 0.01,-0.0171 0.0129,-0.0263 l 0.003,-0.009 c 6.9e-4,-0.001 0.001,-0.003 0.001,-0.006 0.009,-0.0247 0.15633,-0.45693 0.18319,-0.54105 l 0.003,-0.009 c 9e-5,-1.7e-4 0,-4.7e-4 0,-7.8e-4 0.003,-0.0101 0.008,-0.0295 0.006,-0.0306 z m 5.34753,0 0.13076,0 0.0505,0 c -4.1e-4,0.007 0.0176,0.0356 0.0298,0.051 2.1e-4,2.4e-4 4.2e-4,4.6e-4 4.2e-4,4.6e-4 l 0.0615,0.0781 c 0.0589,0.0735 0.13797,0.16886 0.1806,0.22167 l 0,-0.26834 0,-0.0518 0,-7.8e-4 c -7e-5,-0.0113 -0.002,-0.0306 -0.005,-0.0306 l 0.14953,0 c -0.003,0 -0.004,0.0195 -0.005,0.0306 l 0,7.8e-4 0,0.003 0,0.0474 0,0.45647 0,0.0474 0,0.003 c 8e-5,0.0113 0.002,0.0306 0.005,0.0306 l -0.0298,0 -0.0136,0 -0.0563,0 -0.0349,0 c 0.003,-0.003 -0.008,-0.0206 -0.0194,-0.0365 -0.0131,-0.0209 -0.0705,-0.0819 -0.29972,-0.37042 l 0,0.32448 0,0.0518 c 0,0.0113 0.002,0.0306 0.005,0.0306 l -0.14953,0 c 0.003,0 0.004,-0.0194 0.005,-0.0306 l 0,-0.0518 0,-0.45645 0,-0.0518 0,-4.6e-4 c -8e-5,-0.0113 -0.002,-0.0306 -0.005,-0.0306 z m -1.14447,0.0175 0.1573,0 -0.0466,0.0518 0.0913,0 0.003,0 c 0.01,-8e-5 0.0272,-0.002 0.0272,-0.006 l 0,0.11375 c 0,-0.003 -0.0173,-0.005 -0.0272,-0.006 l -0.003,0 -0.30554,0 0,0.0955 0.15406,0 0.0427,0 0.003,0 c 0.01,-9e-5 0.0271,-0.002 0.0272,-0.006 l 0,0.10938 c -8e-5,-0.003 -0.0173,-0.005 -0.0272,-0.006 l -0.0466,0 -0.15406,0 0,0.11667 0.29712,0 0.0123,0 c 0.01,-8e-5 0.0272,-0.002 0.0272,-0.006 l 0,0.11374 c 0,-0.003 -0.0173,-0.005 -0.0272,-0.006 l -0.0123,0 -0.0337,0 -0.40846,0 c 0.003,-1.7e-4 0.005,-0.0195 0.005,-0.0306 l 0,-7.7e-4 0,-0.003 0,-0.0481 0,-0.35219 0,-0.0473 0,-0.003 0,-7.8e-4 c 0,-0.0113 -0.002,-0.0306 -0.005,-0.0306 l 0.21362,0 0.0272,-0.0473 c 10e-4,-0.002 0.005,-0.003 0.008,-0.003 z m -2.0902,0.0466 0,0.11374 c 0,-0.003 -0.0172,-0.005 -0.0272,-0.006 l -0.003,0 -0.30553,0 0,0.0955 0.1547,0 0.042,0 0.003,0 c 0.01,0 0.0271,-0.002 0.0272,-0.006 l 0,0.10938 c -7e-5,-0.003 -0.0173,-0.006 -0.0272,-0.006 l -0.046,0 -0.15471,0 0,0.11667 0.29712,0 0.0123,0 c 0.01,0 0.0272,-0.002 0.0272,-0.006 l 0,0.11375 c 0,-0.003 -0.0173,-0.005 -0.0272,-0.006 l -0.0123,0 -0.0336,0 -0.40845,0 c 0.003,-2.3e-4 0.004,-0.0195 0.005,-0.0306 l 0,-7.7e-4 0,-0.003 0,-0.0481 0,-0.35219 0,-0.0481 0,-0.003 0,-4.6e-4 c -8e-5,-0.0113 -0.002,-0.0305 -0.005,-0.0306 l 0.45053,0 0.003,0 c 0.01,-8e-5 0.0272,-0.002 0.0272,-0.006 z m 2.91424,0 0,0.11374 c -7e-5,-0.003 -0.0173,-0.005 -0.0272,-0.006 l -0.003,0 -0.30555,0 0,0.0955 0.15472,0 0.042,0 0.003,0 c 0.01,-8e-5 0.0271,-0.002 0.0272,-0.006 l 0,0.10938 c -8e-5,-0.003 -0.0173,-0.005 -0.0272,-0.006 l -0.046,0 -0.1547,0 0,0.11667 0.29712,0 0.0123,0 c 0.01,-9e-5 0.0271,-0.002 0.0272,-0.006 l 0,0.11375 c -8e-5,-0.003 -0.0173,-0.005 -0.0272,-0.006 l -0.0123,0 -0.0337,0 -0.40846,0 c 0.003,-1.8e-4 0.004,-0.0194 0.005,-0.0306 l 0,-7.7e-4 0,-0.003 0,-0.0473 0,-0.35219 0,-0.0481 0,-0.003 0,-4.6e-4 c -8e-5,-0.0113 -0.002,-0.0305 -0.005,-0.0306 l 0.45054,0 0.003,0 c 0.01,0 0.0271,-0.002 0.0272,-0.006 z m 5.33393,0 0,0.11374 c -7e-5,-0.003 -0.0173,-0.005 -0.0272,-0.006 l -4.2e-4,0 -0.003,0 -0.30489,0 0,0.0955 0.15406,0 0.042,0 0.003,0 6.9e-4,0 c 0.01,0 0.0272,-0.002 0.0272,-0.006 l 0,0.10938 c 0,-0.003 -0.0173,-0.006 -0.0272,-0.006 l -6.9e-4,0 -0.046,0 -0.15406,0 0,0.11667 0.29647,0 0.0123,0 4.1e-4,0 c 0.01,0 0.0271,-0.002 0.0272,-0.006 l 0,0.11375 c -7e-5,-0.003 -0.0173,-0.005 -0.0272,-0.006 l -4.1e-4,0 -0.0123,0 -0.0336,0 -0.40781,0 c 0.003,-2.3e-4 0.005,-0.0195 0.005,-0.0306 l 0,-7.7e-4 0,-0.003 0,-0.0481 0,-0.35219 0,-0.0481 0,-0.003 0,-4.6e-4 c 0,-0.0113 -0.002,-0.0305 -0.005,-0.0306 l 0.44989,0 0.003,0 6.9e-4,0 c 0.01,-8e-5 0.0271,-0.002 0.0272,-0.006 z m -9.63473,0.006 c 0.0876,0 0.16462,0.0234 0.19743,0.0292 l 0.0129,0.003 c 0.009,10e-4 0.0249,0.003 0.0272,10e-4 l -0.0531,0.12614 c -6.9e-4,-0.003 -0.0138,-0.0127 -0.022,-0.0175 l -4.1e-4,-7.8e-4 -0.005,-0.003 c -0.0233,-0.0141 -0.0796,-0.0328 -0.13334,-0.0328 -0.0262,0 -0.11911,-2e-5 -0.11911,0.0518 0,0.0837 0.34179,-0.002 0.34179,0.20271 0,0.0919 -0.0697,0.17207 -0.2298,0.17207 -0.0952,0 -0.20571,-0.0376 -0.22397,-0.0416 l -0.006,-0.002 c -0.009,-0.002 -0.0246,-0.005 -0.0272,-0.003 l 0.0349,-0.1298 c 6.9e-4,0.003 0.0126,0.0148 0.0201,0.0205 1.5e-4,9e-5 4.2e-4,4.7e-4 4.2e-4,4.7e-4 l 0.003,0.002 c 0.0284,0.0252 0.12523,0.0474 0.19678,0.0474 0.0261,0 0.0952,-0.005 0.0952,-0.051 0,-0.0918 -0.34179,-10e-4 -0.34179,-0.19978 0,-0.073 0.0613,-0.17574 0.23174,-0.17574 z m 0.57352,0 c 0.0876,0 0.16463,0.0234 0.19744,0.0292 l 0.0123,0.003 c 0.009,10e-4 0.0256,0.003 0.0278,10e-4 l -0.0537,0.12614 c -6.9e-4,-0.003 -0.0139,-0.0127 -0.022,-0.0175 l -4.2e-4,-7.8e-4 -0.005,-0.003 c -0.0233,-0.0141 -0.0796,-0.0328 -0.13335,-0.0328 -0.0262,0 -0.1191,-2e-5 -0.1191,0.0518 0,0.0837 0.34178,-0.002 0.34178,0.20271 0,0.0919 -0.0697,0.17207 -0.22979,0.17207 -0.0952,0 -0.20571,-0.0376 -0.22398,-0.0416 l -0.005,-0.002 c -1.5e-4,-8e-5 -4.2e-4,9e-5 -4.2e-4,0 -0.009,-0.002 -0.0246,-0.005 -0.0272,-0.003 l 0.0349,-0.1298 c 6.9e-4,0.003 0.0126,0.0148 0.0201,0.0205 1.5e-4,9e-5 4.1e-4,4.7e-4 4.1e-4,4.7e-4 l 0.003,0.002 c 0.0284,0.0252 0.12523,0.0474 0.19678,0.0474 0.0261,0 0.0952,-0.005 0.0952,-0.051 0,-0.0918 -0.34179,-10e-4 -0.34179,-0.19978 0,-0.073 0.0619,-0.17574 0.23239,-0.17574 z m 0.92244,0 0.18125,0 c -0.001,0.003 0.003,0.0202 0.008,0.03 l 0.008,0.019 c 0.0204,0.0512 0.0704,0.16214 0.077,0.18084 0.0208,-0.0476 0.0802,-0.17239 0.0835,-0.18011 l 0.008,-0.0197 c 8e-5,-8e-5 -7e-5,-4.6e-4 0,-7.8e-4 0.004,-0.0101 0.0101,-0.0268 0.008,-0.0292 l 0.18254,0 c -0.003,0 -0.004,0.0195 -0.005,0.0306 l 0,4.8e-4 0,0.0518 0,0.35219 0,0.0518 0,7.8e-4 c 8e-5,0.0113 0.002,0.0305 0.005,0.0306 l -0.13465,0 c 0.003,-9e-5 0.004,-0.0195 0.005,-0.0306 l 0,-7.8e-4 0,-0.0518 0,-0.28655 -0.002,0 -0.156,0.34052 -0.15083,-0.34052 -0.002,0 0,0.28655 0,0.0474 0,0.003 0,7.7e-4 c 7e-5,0.0113 0.002,0.0305 0.005,0.0306 l -0.1204,0 c 0.003,-8e-5 0.005,-0.0195 0.005,-0.0306 l 0,-7.7e-4 0,-0.0518 0,-0.35219 0,-0.0518 0,-7.7e-4 c -8e-5,-0.0113 -0.003,-0.0306 -0.005,-0.0306 z m 0.66609,0 0.28612,0 c 0.12552,0 0.17542,0.0234 0.17542,0.12833 0,0.0495 -0.0309,0.0931 -0.0686,0.11302 0.0554,0.0201 0.0841,0.0579 0.0841,0.12615 0,0.0919 -0.0552,0.15093 -0.18707,0.15093 l -0.29,0 c 0.003,-8e-5 0.004,-0.0195 0.005,-0.0306 l 0,-7.8e-4 0,-0.0518 0,-0.35292 0,-0.0518 c -8e-5,-0.0113 -0.002,-0.0306 -0.005,-0.0306 z m 0.56317,0 0.14954,0 c -0.003,0 -0.004,0.0195 -0.005,0.0306 l 0,7.7e-4 0,0.003 0,0.36313 0.19873,0 0.042,0 0.003,0 c 0.01,-9e-5 0.0272,-0.002 0.0272,-0.006 l 0,0.13052 c 0,-0.003 -0.0173,-0.005 -0.0272,-0.006 l -0.003,0 -0.3858,0 c 0.003,0 0.005,-0.0195 0.006,-0.0306 l 0,-4.6e-4 0,-0.003 0,-4.8e-4 0,-0.4477 0,-0.003 0,-4.6e-4 c -7e-5,-0.0113 -0.003,-0.0306 -0.006,-0.0306 z m 2.78413,0 0.17672,0 c -0.003,7.7e-4 0.003,0.0197 0.007,0.03 7e-5,2.4e-4 6.9e-4,4.7e-4 6.9e-4,4.7e-4 l 0.006,0.0168 c 0.028,0.0722 0.12906,0.30223 0.17542,0.41927 l 0.003,0.0113 c 0.002,0.006 0.004,0.0101 0.006,0.0145 1.5e-4,4.7e-4 4.1e-4,7.8e-4 4.1e-4,10e-4 0.003,0.009 0.0113,0.0234 0.0142,0.0248 l -0.145,0 c 0.001,-0.002 -0.003,-0.0203 -0.008,-0.03 l -0.0104,-0.0248 c -0.007,-0.0177 -0.0165,-0.0381 -0.0207,-0.0503 l -0.24274,0 c -0.004,0.0151 -0.0177,0.0426 -0.0252,0.0619 l -0.006,0.0132 c -0.004,0.0101 -0.009,0.0275 -0.008,0.03 l -0.12882,0 c 0.003,-0.001 0.0105,-0.0162 0.0142,-0.0255 1.5e-4,-2.3e-4 4.1e-4,-4.7e-4 4.1e-4,-4.7e-4 0.004,-0.0113 0.008,-0.0214 0.0123,-0.0321 l 0.001,-0.003 c 0.0645,-0.16787 0.13294,-0.33467 0.1573,-0.40104 l 0.01,-0.0248 c 0,-1.7e-4 -8e-5,-4.6e-4 0,-7.7e-4 0.003,-0.009 0.008,-0.0258 0.007,-0.0292 z m 0.38321,0 c 8e-5,0.003 0.0173,0.005 0.0272,0.006 l 4.1e-4,0 0.003,0 0.43953,0 0.003,0 c 0.01,-8e-5 0.0272,-0.002 0.0272,-0.006 l 0,0.13052 c 0,-0.003 -0.0173,-0.005 -0.0272,-0.006 l -4.2e-4,0 -0.003,0 -0.0427,0 -0.1068,0 0,0.36312 0,0.003 0,7.8e-4 c 7e-5,0.0113 0.002,0.0306 0.005,0.0306 l -0.14954,0 c 0.003,0 0.004,-0.0195 0.005,-0.0306 l 0,-7.8e-4 0,-0.003 0,-0.36312 -0.10746,0 -0.042,0 -0.003,0 -4.2e-4,0 c -0.01,7e-5 -0.0271,0.002 -0.0272,0.006 l 0,-0.13052 z m 0.58842,0 0.14953,0 c -0.003,0 -0.004,0.0195 -0.005,0.0306 l 0,7.7e-4 0,0.003 0,0.0481 0,0.35218 0,0.0474 0,0.003 0,7.8e-4 c 7e-5,0.0113 0.002,0.0305 0.005,0.0306 l -0.14953,0 c 0.003,-9e-5 0.004,-0.0195 0.005,-0.0306 l 0,-7.8e-4 0,-0.0518 0,-0.35218 0,-0.0518 0,-4.6e-4 c -8e-5,-0.0113 -0.002,-0.0306 -0.005,-0.0306 z m 0.51462,0 c 0.13078,0 0.27964,0.08 0.27964,0.26614 0,0.18623 -0.14886,0.26614 -0.27964,0.26614 -0.13085,0 -0.27899,-0.0799 -0.27899,-0.26614 0,-0.18614 0.14814,-0.26614 0.27899,-0.26614 z m 0.36574,0 0.18189,0 c -6.9e-4,0.007 0.0184,0.0348 0.0311,0.0504 1.5e-4,2.4e-4 4.2e-4,7.8e-4 4.2e-4,0.001 l 0.01,0.0117 c 0.0129,0.0162 0.13002,0.15581 0.1696,0.20417 l 0,-0.18448 0,-0.0481 0,-0.003 0,-4.7e-4 c 0,-0.0113 -0.003,-0.0306 -0.006,-0.0306 l 0.13464,0 c -0.003,0 -0.004,0.0195 -0.005,0.0306 l 0,4.7e-4 0,0.003 0,0.44771 0,0.003 0,7.8e-4 c 8e-5,0.0113 0.002,0.0305 0.005,0.0306 l -0.0162,0 -0.099,0 c 0.003,-0.003 -0.0169,-0.0355 -0.0304,-0.0518 -2e-4,-2.3e-4 -4.1e-4,-4.7e-4 -4.1e-4,-7.7e-4 l -0.0291,-0.0343 c -0.048,-0.0592 -0.13498,-0.15437 -0.2149,-0.25958 l -0.002,0.002 0,0.26104 0,0.0518 0,7.7e-4 c 7e-5,0.0113 0.002,0.0305 0.005,0.0306 l -0.13464,0 c 0.003,-9e-5 0.005,-0.0195 0.005,-0.0306 l 0,-7.7e-4 0,-0.0518 0,-0.35218 0,-0.0518 0,-4.6e-4 c 0,-0.0113 -0.002,-0.0306 -0.005,-0.0306 z m 0.81174,0 0.17672,0 c -0.003,7.7e-4 0.003,0.0197 0.007,0.03 7e-5,2.4e-4 4.1e-4,4.7e-4 4.1e-4,4.7e-4 l 0.006,0.0168 c 0.028,0.0722 0.12906,0.30223 0.17542,0.41927 l 0.003,0.0113 c 0.002,0.006 0.004,0.0101 0.006,0.0145 1.5e-4,4.7e-4 4.1e-4,7.8e-4 4.1e-4,10e-4 0.003,0.009 0.0113,0.0234 0.0142,0.0248 l -0.145,0 c 10e-4,-0.002 -0.003,-0.0203 -0.008,-0.03 l -0.0104,-0.0248 c -0.007,-0.0177 -0.0171,-0.0381 -0.0214,-0.0503 l -0.2421,0 c -0.005,0.0151 -0.0184,0.0426 -0.0259,0.0619 l -0.005,0.0132 c -0.004,0.0101 -0.009,0.0275 -0.008,0.03 l -0.12883,0 c 0.003,-0.001 0.0104,-0.0162 0.0142,-0.0255 8e-5,-2.3e-4 4.1e-4,-4.7e-4 4.1e-4,-4.7e-4 0.004,-0.0113 0.008,-0.0214 0.0123,-0.0321 l 10e-4,-0.003 c 0.0646,-0.16787 0.1336,-0.33467 0.15795,-0.40104 l 0.01,-0.0248 c 8e-5,-1.7e-4 -8e-5,-4.6e-4 0,-7.7e-4 0.003,-0.009 0.008,-0.0258 0.007,-0.0292 z m 0.47707,0 0.14953,0 c -0.003,0 -0.005,0.0195 -0.005,0.0306 l 0,7.7e-4 0,0.003 0,0.36313 0.19808,0 0.0421,0 0.003,0 4.1e-4,0 c 0.01,-9e-5 0.0271,-0.002 0.0272,-0.006 l 0,0.13052 c -8e-5,-0.003 -0.0173,-0.005 -0.0272,-0.006 l -4.1e-4,0 -0.003,0 -0.38516,0 c 0.003,0 0.004,-0.0195 0.005,-0.0306 l 0,-4.6e-4 0,-0.003 0,-4.8e-4 0,-0.4477 0,-0.003 0,-4.6e-4 c -7e-5,-0.0113 -0.002,-0.0306 -0.005,-0.0306 z m -9.27482,0.0416 -0.0932,0.28219 0.19484,0 -0.10163,-0.28219 z m 6.21753,0.0518 -0.0861,0.23553 0.17413,0 -0.088,-0.23553 z m 2.66372,0 -0.0861,0.23553 0.17413,0 -0.088,-0.23553 z m -5.94953,0.007 0,0.11302 0.12429,0 c 0.0544,0 0.0693,-0.0262 0.0693,-0.0569 0,-0.0471 -0.0232,-0.0562 -0.0693,-0.0562 l -0.12429,0 z m 4.68855,0.0255 c -0.0795,0 -0.14306,0.0543 -0.14306,0.14146 0,0.0873 0.0635,0.14146 0.14306,0.14146 0.0795,0 0.1437,-0.0542 0.1437,-0.14146 0,-0.0872 -0.0642,-0.14146 -0.1437,-0.14146 z m -4.68855,0.16772 0,0.12687 0.11393,0 c 0.0481,0 0.0867,-0.0162 0.0867,-0.0635 0,-0.0636 -0.0459,-0.0634 -0.0867,-0.0634 l -0.11393,0 z"
       id="rect735"
       inkscape:connector-curvature="0" />
    <path
       inkscape:connector-curvature="0"
       style="fill:#ffffff;stroke:none"
       clip-path="url(#SVGID_2_)"
       d="m 149.11329,415.42152 0,7 14.5,0 0,-7 -14.5,0 z m 1.01888,1.16667 1.31666,0 c 0.49622,0 0.7521,0.34607 0.75218,0.74084 0,0.39485 -0.25588,0.73645 -0.75218,0.73645 l -0.70882,0 0,0.54541 0,0.17792 0,0.016 0,0.002 c 2.1e-4,0.042 0.007,0.11431 0.0168,0.11448 l -0.62467,0 c 0.009,-1.7e-4 0.0166,-0.0724 0.0169,-0.11448 l 0,-0.002 0,-0.19395 0,-1.71134 0,-0.1947 0,-10e-4 c -2.1e-4,-0.042 -0.008,-0.11504 -0.0169,-0.11522 z m 11.48607,0.23333 c 0.17257,0 0.34105,0.0398 0.47449,0.0751 0.0877,0.0233 0.16361,0.0482 0.2175,0.0626 l 0.0518,0.0153 0.001,0 c 0.0335,0.0101 0.0917,0.0191 0.10163,0.0124 l -0.24469,0.55926 c 0.002,-0.0113 -0.0414,-0.0597 -0.0693,-0.0853 -7e-4,-2.4e-4 -0.001,-7.8e-4 -0.002,-10e-4 l -0.0168,-0.0153 c -0.0772,-0.0696 -0.30343,-0.15459 -0.51397,-0.15459 -0.29428,0 -0.63568,0.15447 -0.63568,0.53011 0,0.37556 0.34147,0.5301 0.63568,0.5301 0.27075,0 0.50318,-0.15754 0.56187,-0.24063 l 0.0148,-0.0189 c 4.1e-4,-4.7e-4 6.9e-4,-7.8e-4 0.001,-10e-4 0.022,-0.0291 0.0538,-0.0815 0.0544,-0.0962 l 0.3269,0.53083 c -0.0156,-7.8e-4 -0.0654,0.0189 -0.0945,0.0342 -4.1e-4,2.4e-4 -0.001,4.6e-4 -0.001,4.6e-4 l -0.006,0.003 c -0.0112,0.006 -0.026,0.0134 -0.044,0.0233 l -0.0893,0.0481 c -0.15246,0.0781 -0.40594,0.18521 -0.72305,0.18521 -0.57288,0 -1.14511,-0.27424 -1.14511,-0.99896 0,-0.7248 0.5723,-0.99822 1.14511,-0.99822 z m -8.95439,0.0263 0.55993,0 c -0.009,1.6e-4 -0.0173,0.0725 -0.0175,0.11448 l 0,0.002 0,0.016 0,0.17863 0,0.89469 c 0,0.22542 0.16475,0.31428 0.39227,0.31428 0.22753,0 0.39228,-0.0889 0.39228,-0.31428 l 0,-0.89469 0,-0.19469 0,-0.002 c -2.1e-4,-0.0419 -0.007,-0.11431 -0.0169,-0.11447 l 0.55994,0 c -0.009,1.6e-4 -0.0173,0.0726 -0.0175,0.11447 l 0,0.002 4.1e-4,0 0,0.016 0,0.17864 0,0.79334 c 0,0.46842 -0.22733,0.86624 -0.91789,0.86624 -0.69057,0 -0.91856,-0.39782 -0.91856,-0.86624 l 0,-0.79334 0,-0.19468 0,-0.001 c -2.1e-4,-0.0419 -0.007,-0.11431 -0.0169,-0.11448 z m 2.41645,0 1.07261,0 c 0.47065,0 0.65898,0.088 0.65898,0.48125 0,0.18563 -0.11781,0.34926 -0.25893,0.42438 0.20789,0.0751 0.31783,0.21711 0.31783,0.47322 0,0.3447 -0.2081,0.5651 -0.70235,0.5651 l -1.08814,0 c 0.009,-1.5e-4 0.0166,-0.0725 0.0168,-0.11447 l 0,-10e-4 0,-0.19469 0,-1.32198 0,-0.19469 0,-0.002 c -2e-4,-0.0419 -0.007,-0.1143 -0.0168,-0.11447 z m 2.25138,0 0.55994,0 c -0.009,1.6e-4 -0.0166,0.0724 -0.0168,0.11448 l 0,0.002 0,0.0153 0,7.9e-4 0,1.36061 0.91596,0 0.15859,0 0.0142,0 0.001,0 c 0.0372,-2.3e-4 0.10148,-0.009 0.10162,-0.0189 l 0,0.48926 c -2e-4,-0.0101 -0.0644,-0.0187 -0.10162,-0.019 l -0.001,0 -0.0136,0 -4.1e-4,0 -1.61766,0 c 0.009,-1.6e-4 0.0171,-0.0732 0.0175,-0.1152 l 0,-0.001 0,-0.016 0,-1.67926 0,-4.8e-4 0,-0.0153 0,-0.002 c -2.1e-4,-0.042 -0.008,-0.11431 -0.0175,-0.11448 z m 2.12192,0 0.55993,0 c -0.009,1.6e-4 -0.0173,0.0725 -0.0175,0.11448 l 0,0.002 0,0.016 0,0.17863 0,1.32198 0,0.17865 0,0.016 0,10e-4 c 2.1e-4,0.0419 0.008,0.11504 0.0175,0.1152 l -0.55993,0 c 0.009,-1.6e-4 0.0166,-0.0732 0.0169,-0.1152 l 0,-10e-4 0,-0.19468 0,-1.32199 0,-0.19468 0,-0.002 c -2.1e-4,-0.0419 -0.008,-0.11431 -0.0169,-0.11449 z m -8.71359,0.23698 0,0.51042 0.59813,0 c 0.21267,0 0.3192,-0.0799 0.31912,-0.26615 0,-0.17304 -0.10645,-0.24427 -0.31912,-0.24427 l -0.59813,0 z m 4.88274,0.13417 0,0.42437 0.46737,0 c 0.20393,0 0.25893,-0.0972 0.25893,-0.21219 0,-0.17672 -0.0863,-0.21218 -0.25893,-0.21218 l -0.46737,0 z m 0,0.72478 0,0.47688 0.42789,0 c 0.18047,0 0.3256,-0.0617 0.3256,-0.23845 0,-0.23861 -0.17253,-0.23843 -0.3256,-0.23843 l -0.42789,0 z m -3.78229,0.95157 c 0.42003,0 0.74956,0.11264 0.92502,0.1626 l 0.12428,0.0378 0.001,7.7e-4 c 0.0328,0.0101 0.0894,0.0191 0.10098,0.0132 l -0.22591,0.51189 c -0.006,-0.0164 -0.0431,-0.0576 -0.0679,-0.0802 -4.1e-4,-4.7e-4 -6.9e-4,-7.8e-4 -0.001,-10e-4 l -0.0175,-0.016 -4.1e-4,0 c -0.10338,-0.0953 -0.47559,-0.18521 -0.79103,-0.18521 -0.34261,0 -0.46089,0.10656 -0.46089,0.20855 0,0.39485 1.6306,-0.0885 1.6306,0.93187 0,0.38147 -0.25605,0.8028 -1.1108,0.8028 -0.55332,0 -0.84733,-0.14443 -0.98069,-0.1903 l -0.057,-0.0218 c -4.1e-4,-9e-5 -4.1e-4,-4.6e-4 -0.001,-4.6e-4 -0.0318,-0.0117 -0.0867,-0.0244 -0.0997,-0.0197 l 0.2408,-0.65189 c 0.005,0.0164 0.039,0.0617 0.0628,0.0867 4.1e-4,4.6e-4 6.9e-4,7.8e-4 0.001,0.001 l 0.0123,0.0132 c 0.0903,0.11798 0.45447,0.26833 0.8098,0.26833 0.39384,0 0.57094,-0.10668 0.57094,-0.30187 0,-0.32832 -1.62219,0.0358 -1.62219,-0.82032 0,-0.44364 0.37785,-0.74958 0.95674,-0.74958 z m 2.61906,0.0911 0.59035,0 -0.17348,0.19469 0.34114,0 0.0142,0 0.001,0 c 0.0372,-2.4e-4 0.10213,-0.009 0.10228,-0.0197 l 0,0.42802 c -2e-4,-0.0101 -0.0651,-0.0195 -0.10228,-0.0197 l -0.001,0 -0.0142,0 -1.14576,0 0,0.35802 0.57935,0 0.15795,0 0.0142,0 0.002,0 c 0.0373,-1.6e-4 0.10148,-0.009 0.10164,-0.0197 l 0,0.41052 c -2.1e-4,-0.0101 -0.0644,-0.0195 -0.10164,-0.0197 l -0.002,0 -0.17218,0 -0.57936,0 0,0.43749 1.11404,0 4.2e-4,0 0.0453,0 0.001,0 c 0.0371,-2.3e-4 0.10213,-0.008 0.10228,-0.019 l 0,0.42729 c -2.1e-4,-0.0101 -0.0651,-0.0195 -0.10228,-0.0197 l -0.001,0 -0.046,0 -0.12688,0 -1.52962,0 c 0.009,-4.7e-4 0.0166,-0.0728 0.0169,-0.11447 l 0,-10e-4 0,-0.016 0,-0.17865 0,-1.32198 0,-0.17864 0,-0.016 0,-0.002 c -2.1e-4,-0.0419 -0.008,-0.11431 -0.0175,-0.11448 l 0.80074,0 0.10292,-0.17864 c 0.006,-0.009 0.0178,-0.016 0.0272,-0.016 z m 5.81618,0.175 c 2.1e-4,0.0101 0.065,0.0193 0.10228,0.0197 l 0.001,0 0.0142,0 1.64808,0 0.0142,0 10e-4,0 c 0.0372,-2.3e-4 0.10148,-0.009 0.10164,-0.0197 l 0,0.48927 c -2.1e-4,-0.0101 -0.0645,-0.0187 -0.10164,-0.0189 l -0.002,0 -0.0136,0 -0.1586,0 -0.40263,0 0,1.36135 0,0.0153 0,0.002 c 2e-4,0.0419 0.007,0.11439 0.0169,0.11448 l -0.55993,0 c 0.009,-9e-5 0.0173,-0.0725 0.0175,-0.11448 l 0,-0.002 0,-0.0153 0,-1.36135 -0.40264,0 -0.1586,0 -0.0142,0 -0.001,0 c -0.0372,2.3e-4 -0.10212,0.009 -0.10227,0.0189 l 0,-0.48927 z m -4.40049,0.0197 0.68357,0 c -0.003,0.0254 0.0675,0.13244 0.11458,0.19031 6.9e-4,7.8e-4 0.002,0.001 0.003,0.003 l 0.0376,0.0452 c 0.0481,0.0604 0.48571,0.58355 0.63437,0.7649 l 0,-0.6927 0,-0.17792 0,-0.016 0,-0.002 c -2e-4,-0.0419 -0.007,-0.11431 -0.0168,-0.11448 l 0.50491,0 c -0.009,1.7e-4 -0.0171,0.0725 -0.0175,0.11448 l 0,0.002 0,0.0153 0,7.8e-4 0,1.67925 0,0.0153 0,0.002 c 2.1e-4,0.0419 0.008,0.1144 0.0175,0.11448 l -0.0615,0 -0.37156,0 c 0.0127,-0.0154 -0.0646,-0.13137 -0.11522,-0.1925 -4.2e-4,-7.8e-4 -6.9e-4,-0.001 -0.002,-0.003 l -0.10811,-0.12907 c -0.18018,-0.22198 -0.50681,-0.57973 -0.80656,-0.97416 l -0.008,0.009 0,0.97928 0,0.19396 0,10e-4 c 2e-4,0.0419 0.008,0.11439 0.0175,0.11448 l -0.50556,0 c 0.009,-9e-5 0.0173,-0.0726 0.0175,-0.11448 l 0,-10e-4 0,-0.19396 0,-1.32271 0,-0.19396 0,-0.002 c -2e-4,-0.0419 -0.008,-0.11431 -0.0175,-0.11448 z m 3.05212,0 0.66545,0 -0.001,7.8e-4 c -0.008,0.005 0.0113,0.074 0.0266,0.11231 2.1e-4,7.7e-4 4.1e-4,7.7e-4 4.1e-4,10e-4 l 0.0259,0.0642 c 0.10527,0.27078 0.4826,1.13333 0.65638,1.57209 l 0.0162,0.0393 c 0.008,0.0199 0.0146,0.0391 0.0214,0.0569 4.1e-4,0.001 0.001,0.003 0.003,0.003 0.0146,0.0353 0.0416,0.0874 0.0524,0.0926 l -0.54245,0 c 0.006,-0.009 -0.0146,-0.0738 -0.0298,-0.11006 -2.1e-4,-7.7e-4 -4.2e-4,-10e-4 -4.2e-4,-0.002 l -0.0388,-0.0911 c -0.0271,-0.0662 -0.063,-0.14353 -0.079,-0.18959 l -0.91014,0 c -0.0169,0.0566 -0.0667,0.16016 -0.0945,0.23261 l -0.0207,0.0481 c -2.1e-4,4.7e-4 -4.1e-4,7.8e-4 -4.1e-4,0.001 -0.0153,0.0366 -0.0352,0.10194 -0.0291,0.11084 l -0.48161,0 c 0.0111,-0.007 0.0383,-0.0588 0.0524,-0.0941 4.1e-4,-7.8e-4 0.001,-10e-4 0.002,-0.003 0.0153,-0.0401 0.03,-0.0802 0.0453,-0.1203 l 0.008,-0.0189 c 0.24206,-0.62945 0.49996,-1.25171 0.591,-1.50062 l 0.0362,-0.0949 c 2.1e-4,-4.6e-4 4.2e-4,-7.8e-4 4.2e-4,-10e-4 0.0134,-0.0358 0.0302,-0.0982 0.0259,-0.11084 z m 0.31266,0.35001 -0.32172,0.88301 0.65185,0 -0.33013,-0.88301 z"
       id="rect862" />
  </g>
</svg>
