<?xml version="1.0" encoding="UTF-8" standalone="no"?>
<svg
   xmlns:dc="http://purl.org/dc/elements/1.1/"
   xmlns:cc="http://creativecommons.org/ns#"
   xmlns:rdf="http://www.w3.org/1999/02/22-rdf-syntax-ns#"
   xmlns:svg="http://www.w3.org/2000/svg"
   xmlns="http://www.w3.org/2000/svg"
   xmlns:sodipodi="http://sodipodi.sourceforge.net/DTD/sodipodi-0.dtd"
   xmlns:inkscape="http://www.inkscape.org/namespaces/inkscape"
   width="30"
   height="10"
   viewBox="0 0 24 8"
   version="1.1"
   id="svg2"
   inkscape:version="0.48.4 r9939"
   sodipodi:docname="7.svg">
  <metadata
     id="metadata18">
    <rdf:RDF>
      <cc:Work
         rdf:about="">
        <dc:format>image/svg+xml</dc:format>
        <dc:type
           rdf:resource="http://purl.org/dc/dcmitype/StillImage" />
      </cc:Work>
    </rdf:RDF>
  </metadata>
  <defs
     id="defs16" />
  <sodipodi:namedview
     pagecolor="#ffffff"
     bordercolor="#666666"
     borderopacity="1"
     objecttolerance="10"
     gridtolerance="10"
     guidetolerance="10"
     inkscape:pageopacity="0"
     inkscape:pageshadow="2"
     inkscape:window-width="1600"
     inkscape:window-height="841"
     id="namedview14"
     showgrid="false"
     inkscape:zoom="6.5492711"
     inkscape:cx="6.308127"
     inkscape:cy="18.357221"
     inkscape:window-x="0"
     inkscape:window-y="27"
     inkscape:window-maximized="1"
     inkscape:current-layer="#fa481cff" />
  <g
     id="#ffffffff"
     transform="translate(0,-76)" />
  <g
     id="#fa481cff"
     transform="translate(0,-76)">
    <g
       id="g2995"
       transform="matrix(0.06823897,0,0,0.06777141,0.35400286,77.2)"
       style="fill:#ffffff;stroke:none">
      <path
         id="path6"
         d="m 187.56,0 33.65,0 c 0.03,4.98 0.04,9.96 -0.02,14.95 6.67,0.11 13.35,0.02 20.03,0.05 0.01,7.07 0.01,14.14 0,21.21 -6.67,0.04 -13.34,-0.01 -20,0.04 -0.06,15.25 0.07,30.5 0.19,45.75 -7.79,0.43 -15.72,1.33 -23.43,-0.34 -5.4,-1.01 -9.77,-5.99 -9.84,-11.53 -0.74,-11.27 -0.57,-22.58 -0.55,-33.88 -4.6,-0.03 -9.2,-0.03 -13.8,-0.03 -0.03,-7.07 -0.02,-14.14 -0.01,-21.22 4.62,0 9.24,0.07 13.86,-0.11 C 187.52,9.93 187.57,4.96 187.56,0 z"
         inkscape:connector-curvature="0"
         style="fill:#ffffff;stroke:none" />
      <path
         id="path8"
         d="m 39.91,13.89 c 13.28,-1.5 27.5,-0.87 39.5,5.55 6.55,3.26 11.99,9.87 11.6,17.51 -0.2,15.09 0.33,30.17 0.21,45.26 C 80,82.24 68.79,82.22 57.58,82.22 57.56,75.89 57.54,69.55 57.6,63.21 c -5.19,1.39 -10.42,2.81 -15.3,5.07 -2.88,1.54 -6.1,4.11 -5.67,7.77 0.56,2.42 2.35,4.24 3.82,6.14 C 29.96,82.28 19.48,82.19 9,82.24 5.1,82.7 2.34,79.05 1.16,75.78 0.21,70.75 0.44,64.99 3.79,60.83 c 5.18,-7 14.28,-8.98 22.32,-10.63 5.86,-0.49 11.59,-1.87 17.42,-2.58 3.84,-0.46 7.66,-1.21 11.33,-2.46 2.67,-1.06 3.34,-4.57 1.97,-6.89 -1.09,-2.16 -3.65,-2.96 -5.86,-3.41 -4.08,-0.61 -8.65,-0.45 -12.14,2 -1.93,1.43 -2.36,3.93 -2.82,6.12 C 25.26,43.01 14.51,43 3.77,42.99 4.8,35.44 8.22,27.98 14.27,23.16 21.39,17.1 30.89,15.08 39.91,13.89 z"
         inkscape:connector-curvature="0"
         style="fill:#ffffff;stroke:none" />
      <path
         id="path10"
         d="m 140.18,22.95 c 5.04,-8.85 16.92,-11.3 26.01,-7.92 0.08,7.07 0.03,14.13 0.03,21.19 -5.6,0.15 -11.44,-0.6 -16.8,1.44 -4.4,1.84 -6.92,6.59 -6.94,11.23 -0.13,11.11 0.03,22.23 -0.08,33.34 -11.37,-0.11 -22.75,0.21 -34.12,-0.16 0.13,-22.25 0.05,-44.51 0.04,-66.76 10.46,0.04 20.92,0.02 31.38,0.01 -0.07,2.55 -0.27,5.16 0.48,7.63 z"
         inkscape:connector-curvature="0"
         style="fill:#ffffff;stroke:none" />
      <path
         id="path12"
         d="m 273.41,16.66 c 13.17,-4.12 27.78,-4.49 40.86,0.18 7.62,2.46 14.42,7.36 19,13.95 6.96,9.9 8.24,22.67 6.93,34.42 -19.72,0.03 -39.45,0.03 -59.17,0 -0.06,5.59 -0.02,11.19 -0.03,16.79 -8.36,-0.09 -16.73,0.18 -25.07,-0.12 -2.16,-1.62 -3.27,-4.18 -4.53,-6.47 -5.65,-10.23 -6.39,-22.82 -3.07,-33.92 3.24,-11.94 13.39,-21.3 25.08,-24.83 m 14.2,18.87 c -5.1,1.67 -7.92,7.1 -7.68,12.27 9.24,0.11 18.46,-0.23 27.69,-0.23 -0.74,-3.01 -1.2,-6.29 -3.41,-8.65 -3.88,-4.92 -11.07,-4.99 -16.6,-3.39 z"
         inkscape:connector-curvature="0"
         style="fill:#ffffff;stroke:none" />
    </g>
  </g>
</svg>
