<?xml version="1.0" encoding="UTF-8" standalone="no"?>
<!-- Created with Inkscape (http://www.inkscape.org/) -->

<svg
   xmlns:dc="http://purl.org/dc/elements/1.1/"
   xmlns:cc="http://creativecommons.org/ns#"
   xmlns:rdf="http://www.w3.org/1999/02/22-rdf-syntax-ns#"
   xmlns:svg="http://www.w3.org/2000/svg"
   xmlns="http://www.w3.org/2000/svg"
   xmlns:sodipodi="http://sodipodi.sourceforge.net/DTD/sodipodi-0.dtd"
   xmlns:inkscape="http://www.inkscape.org/namespaces/inkscape"
   id="svg2"
   version="1.1"
   inkscape:version="0.48.4 r9939"
   width="30"
   height="10"
   sodipodi:docname="8.svg">
  <metadata
     id="metadata8">
    <rdf:RDF>
      <cc:Work
         rdf:about="">
        <dc:format>image/svg+xml</dc:format>
        <dc:type
           rdf:resource="http://purl.org/dc/dcmitype/StillImage" />
        <dc:title />
      </cc:Work>
    </rdf:RDF>
  </metadata>
  <defs
     id="defs6" />
  <sodipodi:namedview
     pagecolor="#ffffff"
     bordercolor="#666666"
     borderopacity="1"
     objecttolerance="10"
     gridtolerance="10"
     guidetolerance="10"
     inkscape:pageopacity="0"
     inkscape:pageshadow="2"
     inkscape:window-width="1600"
     inkscape:window-height="841"
     id="namedview4"
     showgrid="false"
     inkscape:zoom="24.837537"
     inkscape:cx="13.979447"
     inkscape:cy="8.6265533"
     inkscape:window-x="0"
     inkscape:window-y="27"
     inkscape:window-maximized="1"
     inkscape:current-layer="svg2" />
  <path
     style="fill:#ffffff;fill-opacity:1;stroke:none"
     d="m 10.5,0.5 0,9 3.65625,0 C 17.114918,9.5 19.5,7.48528 19.5,5 19.5,2.51472 17.114918,0.5 14.15625,0.5 L 10.5,0.5 z m 2.46875,1.8125 c 0.170503,-0.0186 0.337302,0 0.53125,0 0.770101,1e-5 1.349314,0.13925 1.75,0.4375 0.400677,0.29525 0.624995,0.74009 0.625,1.3125 -5e-6,0.38262 -0.113585,0.68143 -0.3125,0.9375 -0.196083,0.25608 -0.488531,0.43898 -0.875,0.5625 0.431936,0.12654 0.749933,0.3388 0.96875,0.625 0.221649,0.2832 0.343745,0.65992 0.34375,1.09375 -5e-6,0.66882 -0.204431,1.15655 -0.625,1.5 C 14.957263,9.12168 14.324094,9.3125 13.5,9.3125 12.673058,9.3125 12.048414,9.12168 11.625,8.78125 11.204425,8.4378 10.999999,7.95007 11,7.28125 10.999999,6.84742 11.124937,6.4707 11.34375,6.1875 11.565403,5.9013 11.880558,5.68904 12.3125,5.5625 11.926025,5.43898 11.633577,5.25608 11.4375,5 11.241421,4.74393 11.156249,4.44512 11.15625,4.0625 11.156249,3.49311 11.349317,3.04826 11.75,2.75 12.05051,2.52631 12.45724,2.36843 12.96875,2.3125 z M 13.5,3.40625 c -0.261441,1e-5 -0.451667,0.0742 -0.59375,0.21875 -0.139246,0.14461 -0.218752,0.32864 -0.21875,0.59375 -2e-6,0.26813 0.0795,0.4804 0.21875,0.625 0.142083,0.14461 0.332309,0.21875 0.59375,0.21875 0.255751,0 0.454502,-0.0741 0.59375,-0.21875 0.13924,-0.1446 0.218746,-0.35687 0.21875,-0.625 C 14.312496,3.95063 14.23299,3.7666 14.09375,3.625 13.954502,3.4804 13.755751,3.40626 13.5,3.40625 z m 0,2.75 c -0.306908,0 -0.522683,0.0722 -0.6875,0.25 -0.164822,0.17775 -0.250002,0.44986 -0.25,0.78125 -2e-6,0.3314 0.08518,0.57225 0.25,0.75 0.164817,0.17474 0.380592,0.28125 0.6875,0.28125 0.30406,0 0.556769,-0.10651 0.71875,-0.28125 0.161974,-0.17775 0.218746,-0.4186 0.21875,-0.75 -4e-6,-0.33441 -0.05678,-0.60651 -0.21875,-0.78125 -0.161981,-0.17775 -0.41469,-0.25 -0.71875,-0.25 z"
     id="path2987"
     inkscape:connector-curvature="0" />
</svg>
