<?xml version="1.0" encoding="UTF-8" standalone="no"?>
<!-- Created with Inkscape (http://www.inkscape.org/) -->

<svg
   xmlns:dc="http://purl.org/dc/elements/1.1/"
   xmlns:cc="http://creativecommons.org/ns#"
   xmlns:rdf="http://www.w3.org/1999/02/22-rdf-syntax-ns#"
   xmlns:svg="http://www.w3.org/2000/svg"
   xmlns="http://www.w3.org/2000/svg"
   xmlns:sodipodi="http://sodipodi.sourceforge.net/DTD/sodipodi-0.dtd"
   xmlns:inkscape="http://www.inkscape.org/namespaces/inkscape"
   width="30"
   height="10"
   id="svg3031"
   version="1.1"
   inkscape:version="0.48.4 r9939"
   sodipodi:docname="9.svg">
  <defs
     id="defs3033" />
  <sodipodi:namedview
     id="base"
     pagecolor="#ffffff"
     bordercolor="#666666"
     borderopacity="1.0"
     inkscape:pageopacity="0.0"
     inkscape:pageshadow="2"
     inkscape:zoom="7.9195959"
     inkscape:cx="60.625492"
     inkscape:cy="19.910495"
     inkscape:document-units="px"
     inkscape:current-layer="layer1"
     showgrid="false"
     inkscape:window-width="1600"
     inkscape:window-height="841"
     inkscape:window-x="0"
     inkscape:window-y="27"
     inkscape:window-maximized="1" />
  <metadata
     id="metadata3036">
    <rdf:RDF>
      <cc:Work
         rdf:about="">
        <dc:format>image/svg+xml</dc:format>
        <dc:type
           rdf:resource="http://purl.org/dc/dcmitype/StillImage" />
        <dc:title />
      </cc:Work>
    </rdf:RDF>
  </metadata>
  <g
     inkscape:label="Calque 1"
     inkscape:groupmode="layer"
     id="layer1"
     transform="translate(0,-1042.3622)">
    <path
       d="m 19.568612,1051.8552 c -0.33083,-0.025 -0.672992,-0.094 -0.999886,-0.2018 -0.974742,-0.3213 -1.788276,-0.9768 -2.398394,-1.9325 -0.04521,-0.071 -0.08618,-0.1287 -0.09106,-0.1285 -0.0049,10e-5 -0.02505,0.062 -0.04483,0.1385 -0.124528,0.4787 -0.34863,1.1779 -0.586631,1.8301 -0.04718,0.1293 -0.09025,0.2485 -0.09569,0.265 l -0.0099,0.03 -1.329192,0 c -1.257935,0 -1.329428,0 -1.333726,-0.016 -0.0026,-0.01 -0.230825,-1.2222 -0.507403,-2.6964 -0.276574,-1.4741 -0.505523,-2.6772 -0.508777,-2.6736 -0.0033,0 -0.231469,1.2055 -0.507139,2.671 -0.275676,1.4655 -0.503576,2.6759 -0.50645,2.6898 l -0.0052,0.025 -1.3564943,0 -1.3564899,0 -1.2135347,-4.483 c -0.6674414,-2.4658 -1.2154437,-4.4998 -1.2177793,-4.5062 -0.00338,-0.01 0.2315712,0 1.1550318,0 l 1.1592799,0 0.01381,0.048 c 0.00759,0.027 0.3274547,1.2392 0.7107934,2.6945 0.8370468,3.1778 0.7445707,2.8329 0.7537051,2.8113 0.00411,-0.01 0.3032573,-1.2561 0.6247993,-2.7698 0.3215417,-1.5136 0.5540327,-2.7755 0.5566617,-2.7844 l 2.430692,0 c 0.191437,0.9199 0.378588,1.8408 0.567049,2.7613 0.306176,1.4959 0.560032,2.7279 0.56413,2.7378 0.0056,0.014 0.01375,0 0.0329,-0.074 0.014,-0.05 0.356789,-1.2907 0.761748,-2.7562 l 0.736293,-2.6645 2.101194,0 c 2.213565,0 2.177461,0 2.55433,0.042 0.980961,0.1119 1.896027,0.4294 2.567022,0.8905 0.36621,0.2518 0.71364,0.5909 0.961617,0.9388 0.400913,0.5624 0.643471,1.2556 0.727321,2.079 0.02042,0.2004 0.0285,0.6529 0.01479,0.8252 -0.06463,0.8101 -0.301365,1.6059 -0.664073,2.2322 -0.579647,1.001 -1.48512,1.6358 -2.667688,1.8702 -0.315105,0.062 -0.594443,0.091 -1.037082,0.1062 -0.301853,0.01 -0.411857,0.01 -0.555733,0 z m 0.775294,-1.1279 c 0.831515,-0.094 1.473505,-0.3716 1.974826,-0.8531 0.390746,-0.3752 0.666802,-0.8477 0.832679,-1.4249 0.180737,-0.629 0.219844,-1.3986 0.102372,-2.0145 -0.121546,-0.6373 -0.401984,-1.1746 -0.822913,-1.5768 -0.134586,-0.1285 -0.221889,-0.1975 -0.392109,-0.3096 -0.515505,-0.3395 -1.167949,-0.5106 -1.947116,-0.5106 -0.695046,0 -1.318973,0.1295 -1.845257,0.3828 -0.09974,0.048 -0.194414,0.1 -0.283929,0.1549 -0.622459,0.3843 -0.995135,0.9407 -1.079825,1.6194 -0.02622,0.2102 -0.01625,0.5305 0.02274,0.7285 0.143489,0.7292 0.685107,1.2714 1.510221,1.5118 0.499116,0.1453 1.152178,0.1794 1.666722,0.087 0.346259,-0.062 0.706859,-0.2033 0.982753,-0.3844 0.076,-0.05 0.121751,-0.075 0.127523,-0.069 0.0058,0.01 -0.0039,0.057 -0.02681,0.1441 -0.140554,0.53 -0.368737,0.865 -0.705235,1.0355 -0.04614,0.024 -0.113435,0.053 -0.149513,0.066 -0.310091,0.1093 -0.774704,0.096 -1.02754,-0.028 -0.130453,-0.064 -0.246706,-0.1741 -0.297424,-0.2807 l -0.02957,-0.062 -1.006714,-2e-4 c -0.809806,-2e-4 -1.006718,0 -1.006718,0.012 0,0.01 0.01234,0.062 0.02742,0.1222 0.07912,0.3186 0.215546,0.5824 0.424892,0.8216 0.423096,0.4837 1.124326,0.7727 2.042283,0.8419 0.165626,0.013 0.757323,0 0.906278,-0.013 z m -0.462482,-3.4163 c -0.304283,-0.028 -0.583562,-0.1573 -0.768016,-0.3549 -0.263704,-0.2824 -0.288582,-0.6647 -0.0636,-0.9777 0.04895,-0.068 0.169049,-0.1824 0.245186,-0.2334 0.126814,-0.085 0.3035,-0.1573 0.469644,-0.1923 0.111877,-0.024 0.392746,-0.024 0.50236,2e-4 0.22864,0.049 0.407536,0.1399 0.556608,0.282 0.163906,0.1562 0.253463,0.3468 0.265037,0.5638 0.01456,0.2728 -0.105946,0.5161 -0.342316,0.6911 -0.212756,0.1576 -0.568866,0.2486 -0.864902,0.2212 z"
       id="path3289"
       style="fill:#ffffff;fill-opacity:1;stroke:none"
       inkscape:connector-curvature="0" />
  </g>
</svg>
