<?xml version="1.0" encoding="UTF-8" standalone="no"?>
<!-- Created with Inkscape (http://www.inkscape.org/) -->

<svg
   xmlns:dc="http://purl.org/dc/elements/1.1/"
   xmlns:cc="http://creativecommons.org/ns#"
   xmlns:rdf="http://www.w3.org/1999/02/22-rdf-syntax-ns#"
   xmlns:svg="http://www.w3.org/2000/svg"
   xmlns="http://www.w3.org/2000/svg"
   xmlns:sodipodi="http://sodipodi.sourceforge.net/DTD/sodipodi-0.dtd"
   xmlns:inkscape="http://www.inkscape.org/namespaces/inkscape"
   width="10"
   height="10"
   id="svg2"
   version="1.1"
   inkscape:version="0.48.4 r9939"
   sodipodi:docname="series-tv.svg">
  <defs
     id="defs4" />
  <sodipodi:namedview
     id="base"
     pagecolor="#ffffff"
     bordercolor="#666666"
     borderopacity="1.0"
     inkscape:pageopacity="0.0"
     inkscape:pageshadow="2"
     inkscape:zoom="46.527626"
     inkscape:cx="7.6248877"
     inkscape:cy="6.6122471"
     inkscape:document-units="px"
     inkscape:current-layer="layer1"
     showgrid="false"
     inkscape:window-width="1600"
     inkscape:window-height="841"
     inkscape:window-x="0"
     inkscape:window-y="27"
     inkscape:window-maximized="1" />
  <metadata
     id="metadata7">
    <rdf:RDF>
      <cc:Work
         rdf:about="">
        <dc:format>image/svg+xml</dc:format>
        <dc:type
           rdf:resource="http://purl.org/dc/dcmitype/StillImage" />
        <dc:title></dc:title>
      </cc:Work>
    </rdf:RDF>
  </metadata>
  <g
     inkscape:label="Calque 1"
     inkscape:groupmode="layer"
     id="layer1"
     transform="translate(0,-1042.3622)">
    <path
       style="fill:#ffffff;stroke:none"
       d="M 5 0.5 C 2.5147187 0.5 0.5 2.5147186 0.5 5 C 0.5 7.4852814 2.5147187 9.5 5 9.5 C 7.4852813 9.5 9.5 7.4852814 9.5 5 C 9.5 2.5147186 7.4852813 0.5 5 0.5 z M 3.5 2 C 4.0522848 2 4.5 2.4477153 4.5 3 C 4.5 3.5522847 4.0522848 4 3.5 4 C 2.9477152 4 2.5 3.5522847 2.5 3 C 2.5 2.4477153 2.9477152 2 3.5 2 z M 6.5 2 C 7.0522848 2 7.5 2.4477153 7.5 3 C 7.5 3.5522847 7.0522848 4 6.5 4 C 5.9477152 4 5.5 3.5522847 5.5 3 C 5.5 2.4477153 5.9477152 2 6.5 2 z M 2.0625 5.5 L 7.9375 5.5 C 7.6942842 6.9126458 6.4820901 8 5 8 C 3.5179099 8 2.3057158 6.9126458 2.0625 5.5 z "
       transform="translate(0,1042.3622)"
       id="path3938" />
  </g>
</svg>
