<?xml version="1.0" encoding="UTF-8"?>
<svg xmlns="http://www.w3.org/2000/svg" width="100" height="100">
  <path d="m 46.335612,20.000327 c -7.2452,0.02834 -15.945751,1.853587
           -23.662164,8.554208 -8.713775,7.559191 -12.7948623,17.740273
           -12.6707,30.175886 0.162837,7.638959 4.49225,17.966985
           17.403138,20.729521 8.439701,1.185498 17.069276,0.605413
           24.425452,-3.621106 3.321863,-1.956446 8.469525,-5.166112
           14.604388,-10.181082 0.16895,0.369459 0.333813,0.768305
           0.508863,1.154556 2.420162,5.159814 6.149113,12.156421
           7.683838,12.437714 0.887462,0.163736 1.6935,-0.140647
           1.933687,-0.2624 1.2111,-0.650749 9.599201,-4.647611
           10.889689,-5.825258 l -1.475713,-3.096308 -2.340775,1.259515 c 0,0
           -2.19015,1.202836 -3.3585,-0.787196 -1.170375,-1.992134
           -4.252063,-7.271602 -5.343063,-10.076122 -0.179125,-0.466021
           -0.5394,-1.251119 -0.966838,-2.204153 0.956663,-0.885857
           2.998225,-2.787726 3.816475,-3.673585 1.088963,-1.179746
           3.043001,-2.966159 3.969138,-3.778546 -0.242225,0.852272
           -0.738875,2.796124 0.91595,3.201269 1.654825,0.407242
           3.946751,-0.932043 6.004588,-3.411188 2.055813,-2.477047
           1.569338,-6.060368 -0.407087,-6.507496 -1.976425,-0.447127
           -4.107551,0.23091 -7.785613,3.201268 -3.470451,2.804522
           -3.995601,3.906597 -7.022313,6.507496 -0.437625,0.405143
           -0.74295,0.678038 -1.068625,0.944636 -2.302088,-4.859629
           -5.363413,-10.833931 -6.055476,-10.968278 0,0 -6.320088,1.330887
           -13.179563,5.352939 l 1.323037,2.72895 c 0,0 1.827851,-0.793495
           2.391663,-0.997116 0.565863,-0.203622 1.734213,-0.403045
           2.137225,0.367358 0.331788,0.638154 2.497513,4.166897
           5.750163,10.915799 -4.166575,3.696677 -9.216538,7.242214
           -10.991451,8.396769 -6.445125,3.688271 -11.54595,4.96081
           -17.962888,4.093424 C 22.186973,72.742527 22.724336,56.971297
           22.724336,54.899395 22.846461,51.122949 23.520198,38.263299
           33.868449,29.551652 36.726237,27.145977 44.904687,22.483671
           55.495163,25.773105 l 1.67925,10.338521 2.39165,-0.577278
           1.730138,-13.172431 c -1.9174,-0.589872 -7.715388,-2.389928
           -14.960589,-2.36159 z"
        fill-opacity="0.2" />
</svg>
