<?xml version="1.0" encoding="UTF-8" standalone="no"?>
<!-- Created with Inkscape (http://www.inkscape.org/) -->

<svg
   xmlns:dc="http://purl.org/dc/elements/1.1/"
   xmlns:cc="http://creativecommons.org/ns#"
   xmlns:rdf="http://www.w3.org/1999/02/22-rdf-syntax-ns#"
   xmlns:svg="http://www.w3.org/2000/svg"
   xmlns="http://www.w3.org/2000/svg"
   version="1.1"
   width="100"
   height="100"
   id="svg2">
  <metadata
     id="metadata12">
    <rdf:RDF>
      <cc:Work
         rdf:about="">
        <dc:format>image/svg+xml</dc:format>
        <dc:type
           rdf:resource="http://purl.org/dc/dcmitype/StillImage" />
        <dc:title></dc:title>
      </cc:Work>
    </rdf:RDF>
  </metadata>
  <defs
     id="defs10" />
  <path
     d="m 10,33.375313 0,33.249377 5.827586,0 0,-14.28751 1.387931,0 2.741379,14.28751 5.87069,0 -3.448276,-15.68641 c 0.657741,-0.40479 1.195966,-0.92099 1.62931,-1.5439 0.43332,-0.62287 0.791205,-1.3083 1.060345,-2.05569 0.269104,-0.74736 0.455415,-1.50773 0.560345,-2.286 0.104894,-0.77823 0.155152,-1.52685 0.155172,-2.24336 -2e-5,-1.74368 -0.224044,-3.2197 -0.672414,-4.41846 -0.4484,-1.198713 -1.071957,-2.169814 -1.87931,-2.917212 -0.807378,-0.747341 -1.78664,-1.285223 -2.922414,-1.612142 -1.135798,-0.326854 -2.391533,-0.486171 -3.767241,-0.486203 l -6.543103,0 z m 5.827586,4.853487 0.896552,0 c 0.987076,3e-5 1.770491,0.32534 2.353448,0.96387 0.582937,0.6386 0.8793,1.85386 0.87931,3.65931 -10e-6,0.59203 -0.05027,1.17141 -0.155172,1.73156 -0.104925,0.56019 -0.278238,1.04668 -0.517242,1.46714 -0.239029,0.4205 -0.548842,0.76749 -0.922413,1.03211 -0.373587,0.26466 -0.832451,0.39239 -1.37069,0.39237 l -1.163793,0 0,-9.24636 z m 34.284483,4.58053 c -1.016287,2e-5 -1.962659,0.22066 -2.844827,0.6568 -0.882177,0.43619 -1.641788,1.12301 -2.284483,2.07275 -0.642701,0.9498 -1.152287,2.1948 -1.525862,3.73609 -0.373581,1.54131 -0.560345,3.41944 -0.560345,5.62969 0,2.21125 0.186764,4.08842 0.560345,5.62971 0.373575,1.54131 0.883161,2.79669 1.525862,3.76166 0.642695,0.96498 1.402306,1.65227 2.284483,2.07276 C 48.14941,66.78927 49.095782,67 50.112069,67 c 1.793528,0 3.262941,-0.53927 4.413793,-1.6292 1.150825,-1.08993 1.921699,-2.74556 2.310345,-4.95585 l -3.62931,-1.11741 c -0.119518,0.40481 -0.242571,0.79606 -0.362069,1.18565 -0.119517,0.38961 -0.271211,0.73659 -0.465517,1.03212 -0.194326,0.29553 -0.44216,0.53831 -0.74138,0.72504 -0.299236,0.18672 -0.685771,0.28148 -1.163793,0.28148 -0.269134,0 -0.528232,-0.0631 -0.767241,-0.18766 -0.239024,-0.12448 -0.45224,-0.36727 -0.646552,-0.72504 -0.19432,-0.35776 -0.343371,-0.85415 -0.448276,-1.49273 -0.104918,-0.63856 -0.155183,-1.47201 -0.155172,-2.49924 l 0,-1.03211 8.293103,0 0,-2.37984 c -1.4e-5,-1.15263 -0.0988,-2.39715 -0.293103,-3.73607 -0.194331,-1.33888 -0.543142,-2.57259 -1.051724,-3.69343 -0.508613,-1.12078 -1.191507,-2.0603 -2.043104,-2.82337 -0.851625,-0.76303 -1.934505,-1.14299 -3.25,-1.14301 z m -22.86207,0.37531 0,18.96188 c 0,1.49474 0.338001,2.67656 1.025863,3.54841 C 28.963718,66.56678 29.908359,67 31.103448,67 c 0.867574,0 1.686063,-0.27389 2.448275,-0.81887 0.762203,-0.54496 1.436928,-1.1375 2.034483,-1.79126 l 0.09483,0 0,2.23482 5.198277,0 0,-23.44005 -5.198277,0 0,18.45009 c -0.179728,0.24896 -0.427567,0.45164 -0.741379,0.62267 -0.313833,0.17105 -0.650106,0.26443 -1.008621,0.26443 -0.448848,0 -0.808472,-0.16784 -1.077586,-0.49473 -0.26913,-0.32688 -0.405183,-0.93972 -0.405173,-1.84245 l 0,-17.00001 -5.198276,0 z m 22.818967,3.82991 c 0.627641,2e-5 1.075699,0.35829 1.344827,1.07476 0.269115,0.71651 0.405162,1.92992 0.405173,3.64225 l 0,0.64827 -3.362069,0 0,-0.64827 c -1.1e-5,-1.80641 0.113967,-3.04955 0.353448,-3.71902 0.239468,-0.66943 0.66107,-0.99797 1.258621,-0.99799 z"
     id="path4"
     style="fill:#000000;fill-opacity:0.19607843" />
  <path
     d="m 65.982759,33 c -1.2553,3.2e-5 -2.338185,0.242346 -3.25,0.725037 -0.911829,0.48276 -1.671893,1.136609 -2.284483,1.961867 -0.612599,0.82532 -1.071465,1.785126 -1.37069,2.874556 -0.29923,1.08948 -0.448276,2.22038 -0.448276,3.40342 0,1.58883 0.360078,3.14876 1.077587,4.67435 0.717503,1.52565 1.648695,2.79047 2.784482,3.78726 -1.3447,0.99588 -2.462656,2.14844 -3.344827,3.47165 -0.882177,1.32323 -1.318966,2.89354 -1.318966,4.69995 0,1.21443 0.162502,2.33308 0.49138,3.36076 0.328871,1.0277 0.816383,1.91443 1.474138,2.66132 0.657751,0.7469 1.45243,1.32813 2.37931,1.74862 C 63.099283,66.78927 64.179972,67 65.405172,67 c 1.435005,0 2.656127,-0.27389 3.672414,-0.81887 1.016268,-0.54496 1.848665,-1.24216 2.491379,-2.09834 0.642685,-0.85617 1.114549,-1.81599 1.413793,-2.87456 0.299212,-1.05857 0.448257,-2.10229 0.448276,-3.13046 -1.9e-5,-1.02721 -0.136063,-1.97849 -0.405172,-2.86603 -0.269134,-0.88751 -0.629217,-1.73089 -1.077586,-2.52484 -0.4484,-0.79391 -0.960171,-1.543 -1.543104,-2.24335 -0.582962,-0.70031 -1.204328,-1.40743 -1.862069,-2.12393 1.345598,-1.0272 2.340044,-2.13456 2.982759,-3.31812 0.642684,-1.1835 0.965503,-2.66043 0.965517,-4.43552 C 72.491365,39.6015 72.342317,38.66152 72.043103,37.7426 71.743862,36.823743 71.309261,36.011953 70.741379,35.311591 70.173473,34.61129 69.490574,34.051723 68.698276,33.631209 67.905948,33.210758 66.999029,33.000032 65.982759,33 z m 16.25862,0 c -1.076497,3.2e-5 -2.070943,0.254108 -2.982759,0.767687 -0.911828,0.513641 -1.698342,1.262249 -2.370689,2.243351 -0.672353,0.98116 -1.203553,2.204492 -1.577586,3.667842 C 74.936312,41.14229 74.75,42.80921 74.75,44.67737 c 0,1.74372 0.171123,3.21122 0.5,4.40993 0.328872,1.19876 0.752667,2.16847 1.275862,2.90016 0.523189,0.7317 1.107294,1.25968 1.75,1.58654 0.642695,0.3269 1.290521,0.48622 1.948276,0.48621 0.926869,1e-5 1.699931,-0.2008 2.327586,-0.60562 0.627641,-0.40479 1.185746,-0.97612 1.663793,-1.72303 l 0.08621,0 c -0.08941,1.681 -0.166585,3.18008 -0.241379,4.50376 -0.07482,1.32371 -0.197413,2.45227 -0.362069,3.38635 -0.164679,0.93411 -0.39952,1.6516 -0.698276,2.14953 -0.298784,0.49794 -0.71176,0.75063 -1.25,0.75063 -0.65776,0 -1.079366,-0.39033 -1.258621,-1.1686 -0.179272,-0.77824 -0.328775,-1.91719 -0.448276,-3.41193 l -4.931034,0.41796 c 0.0593,1.05858 0.220069,2.10276 0.474138,3.13045 0.254069,1.0277 0.629787,1.95545 1.137931,2.78074 0.508138,0.82529 1.166764,1.48953 1.974138,1.98745 0.807357,0.49794 1.799619,0.7421 2.965517,0.7421 1.195078,0 2.2936,-0.32717 3.310345,-0.98093 1.016725,-0.65377 1.899384,-1.69934 2.646551,-3.14752 0.747142,-1.44817 1.331247,-3.34565 1.75,-5.68088 0.418717,-2.33522 0.629297,-5.18397 0.629311,-8.54691 -1.4e-5,-3.26883 -0.212781,-5.91862 -0.646552,-7.95836 C 88.91965,38.64572 88.338187,37.053737 87.620692,35.91721 86.903172,34.780746 86.081578,34.010458 85.155175,33.60562 84.228742,33.200845 83.257652,33.000032 82.241382,33 z m -16.482758,4.4867 c 0.478938,3e-5 0.875823,0.0962 1.189655,0.29855 0.313812,0.20242 0.562105,0.46504 0.741379,0.77621 0.17925,0.31124 0.304497,0.66999 0.37931,1.07477 0.07479,0.40483 0.112058,0.78663 0.112069,1.16006 -1.1e-5,0.93412 -0.175509,1.85195 -0.534482,2.75514 -0.358988,0.90323 -0.793592,1.74661 -1.301724,2.52484 -0.777269,-0.59199 -1.436356,-1.44665 -1.974138,-2.56749 -0.537796,-1.12079 -0.810351,-2.22815 -0.810345,-3.31812 -6e-6,-0.62238 0.197569,-1.2253 0.586207,-1.81685 0.388626,-0.5915 0.925111,-0.88708 1.612069,-0.88711 z m 16.482758,0 c 0.777252,3e-5 1.286833,0.60247 1.525862,1.81686 0.23901,1.21444 0.375043,2.8069 0.405172,4.76819 l 0,4.62318 c -0.119517,0.15585 -0.330091,0.34491 -0.62931,0.56297 -0.299236,0.2181 -0.685765,0.32416 -1.163793,0.32414 -0.269128,2e-5 -0.530419,-0.0744 -0.784483,-0.23031 -0.254074,-0.15582 -0.475917,-0.43963 -0.655172,-0.84446 -0.179272,-0.40478 -0.328775,-0.97425 -0.448276,-1.70596 -0.119517,-0.73167 -0.18104,-1.67167 -0.181034,-2.82339 -6e-6,-1.27711 0.03506,-2.34112 0.09483,-3.18163 0.05975,-0.84046 0.171992,-1.49617 0.336207,-1.97893 0.164204,-0.4827 0.364425,-0.82969 0.603448,-1.03211 0.23901,-0.20238 0.537107,-0.29852 0.896552,-0.29855 z M 64.551724,52.56748 c 0.478022,0.46659 0.928728,0.9404 1.362069,1.40744 0.433324,0.46705 0.828475,0.95306 1.172414,1.46712 0.343917,0.51411 0.618204,1.0619 0.827586,1.63774 0.209357,0.57586 0.310334,1.19997 0.310345,1.8851 -1.1e-5,0.71649 -0.08753,1.31708 -0.267242,1.7998 -0.179726,0.48273 -0.403757,0.88298 -0.672413,1.19417 -0.268671,0.31122 -0.567683,0.53232 -0.896552,0.65681 -0.328888,0.12448 -0.640436,0.17912 -0.939655,0.17912 -0.328431,0 -0.651242,-0.0532 -0.965517,-0.16206 C 64.168474,62.52392 63.883374,62.3132 63.62931,62.00151 63.375236,61.68983 63.164204,61.267 63,60.72202 c -0.164215,-0.54495 -0.24139,-1.25254 -0.241379,-2.12393 -1.1e-5,-0.52928 0.05071,-1.08698 0.155172,-1.66331 0.104453,-0.57632 0.240499,-1.13589 0.405173,-1.68039 0.164656,-0.54448 0.350968,-1.05126 0.560344,-1.51831 0.20936,-0.46704 0.433385,-0.8569 0.672414,-1.1686 z"
     id="path6"
     style="fill:#000000;fill-opacity:0.19607843" />
</svg>
