<?xml version="1.0" encoding="UTF-8"?>
<svg xmlns="http://www.w3.org/2000/svg" width="100" height="100">
  <path d="m 65.989788,33.00827 c -2.920054,-0.154344 -5.616525,1.8698
           -6.578991,4.572548 -1.58725,4.028046 -0.684142,8.863105
           2.273737,12.036101 1.830736,1.152214 -1.361064,2.001491
           -1.826413,3.304564 -2.519578,2.877979 -2.601967,7.337196
           -0.824326,10.608156 1.569505,2.831518 5.097222,3.920083
           8.139743,3.281154 3.291223,-0.57489 5.646321,-3.611238
           6.090644,-6.812004 0.776409,-3.788557 -0.945755,-7.629781
           -3.523901,-10.35846 -0.783422,-0.780028 -1.624886,-1.49361
           -0.246126,-2.114609 2.138805,-1.776088 3.188351,-4.577153
           2.998441,-7.321149 -0.0487,-3.556378 -2.650678,-7.29313
           -6.502808,-7.196301 z m 16.261905,0 c -3.052543,-0.08679
           -5.507667,2.402432 -6.446161,5.128511 -1.229569,3.481236
           -1.369683,7.350998 -0.546947,10.939782 0.550475,2.3054
           2.123175,4.819103 4.729139,4.958795 1.80035,0.238652
           3.372337,-0.984066 4.322833,-2.317485 -0.278778,3.204564
           -0.02512,6.532689 -1.088033,9.613275 -0.56547,1.992929
           -3.231626,1.072089 -2.881239,-0.838821 -0.415913,-0.816024
           0.356178,-2.93713 -1.035292,-2.51061 l -4.186098,0.355036 c
           0.203124,3.011847 1.012893,6.517142 3.898951,8.064383
           2.728069,1.337366 6.2837,0.257725 7.872129,-2.319437
           2.372242,-3.676716 2.812901,-8.185908 3.057043,-12.44966
           0.109674,-5.039093 0.25018,-10.348733 -1.927988,-15.024643
           -0.89968,-1.974 -2.805469,-3.454919 -5.014331,-3.562063
           -0.250424,-0.02533 -0.502308,-0.03706 -0.754006,-0.03706 z m
           -66.567351,0.356986 c -1.558739,-0.008 -3.125711,0.07087
           -4.676397,0.01756 l -1.007945,0 0,33.209496 5.828892,0 0,-14.269705 c
           0.63379,0.07199 1.66259,-0.334055 1.517778,0.678859 l
           2.611671,13.590846 5.871867,0 -3.449673,-15.66839 c
           3.012183,-2.006213 3.574961,-6.028812 3.363724,-9.373334
           -0.08714,-3.325373 -1.996544,-6.858954 -5.432355,-7.682037
           -1.517829,-0.400397 -3.068823,-0.495317 -4.627562,-0.503292 z m
           50.080806,4.123877 c 2.215137,-0.05532 2.670477,2.653783
           2.34992,4.348212 -0.305632,1.303272 -0.948634,3.865554
           -2.049098,3.997078 -1.666333,-1.597187 -2.740433,-4.014369
           -2.416334,-6.336022 0.249452,-0.991333 0.966706,-2.064095
           2.115512,-2.009268 z m 16.486545,0 c 1.871019,0.334244
           1.578225,2.786944 1.830319,4.219463 0.163409,2.321999
           0.07886,4.650277 0.09962,6.975866 -1.083815,1.63569
           -3.550091,0.789638 -3.533668,-1.137284 -0.504408,-2.665568
           -0.39279,-5.433759 -0.06055,-8.113151 0.173955,-0.866066
           0.583876,-2.004573 1.664282,-1.944894 z m -65.85046,0.717874 c
           1.359394,0.0098 2.813182,0.500414 3.21136,1.946845 0.534078,2.195517
           0.695917,4.959622 -0.980598,6.706664 -0.538889,0.521708
           -2.585801,1.061623 -2.803103,0.259448 l 0,-8.889547 c
           0.18699,-0.01688 0.378142,-0.02481 0.572341,-0.02341 z m
           33.715373,4.597908 c -3.044197,-0.136294 -5.489673,2.317427
           -6.264496,5.101201 -1.24458,4.057561 -1.210304,8.466368
           -0.390677,12.603768 0.6025,2.855549 2.352115,5.988045
           5.541745,6.369184 2.925845,0.578451 6.113736,-1.050563
           7.110311,-3.911244 0.515993,-1.235464 1.307719,-2.958967
           -0.593828,-2.984642 l -2.306945,-0.710071 c -0.14348,1.802511
           -1.908936,4.297752 -3.840348,2.758355 -1.113992,-1.581933
           -0.859799,-3.628326 -0.910277,-5.46599 l 8.29406,0 c
           0.02191,-4.120698 0.058,-8.702673 -2.781616,-12.012692
           -0.937072,-1.152846 -2.378814,-1.786265 -3.857929,-1.747869 z M
           27.25227,43.181409 c 0.02311,6.58154 -0.04726,13.165639
           0.03516,19.745449 0.01873,2.296576 2.03698,4.538488 4.459572,3.989275
           1.576904,0.04579 3.128296,-2.295488 3.938018,-2.325289
           0.08242,0.623337 -0.161639,1.572338 0.115249,2.001465 l 5.0827,0
           0,-23.4109 -5.197949,0 0,18.426745 c -1.200659,1.805729
           -3.822238,0.511142 -3.232847,-1.562548 l 0,-16.864197 -5.199903,0 z m
           22.821361,3.823462 c 2.125082,0.474056 1.601956,3.276605
           1.75023,4.94319 0.11447,0.829222 -1.189417,0.239199
           -1.728742,0.415508 -0.522706,-0.175026 -1.824648,0.428012
           -1.633028,-0.460375 0.184817,-1.622345 -0.478627,-4.415414
           1.61154,-4.898323 z m 14.484328,5.54792 c 1.892162,1.813112
           3.960751,4.073449 3.656731,6.90369 -0.0048,1.705209
           -1.339567,3.685928 -3.24652,3.26945 -1.87415,-0.308529
           -2.238035,-2.580208 -2.203416,-4.151187 0.07314,-2.096386
           0.631401,-4.261082 1.793205,-6.021953 z"
        fill-opacity="0.2" />
</svg>
