<?xml version="1.0" encoding="UTF-8"?>
<svg xmlns="http://www.w3.org/2000/svg" width="100" height="100">
  <g opacity="0.2">
  <path d="M 61.084409,-2.6515358e-5 C 60.446853,-0.00119652 59.781527,0.02552948 59.088431,0.08148548 41.565477,1.5025476 46.213557,20.154917 45.953212,26.399896 c -0.320514,4.56745 -1.23926,8.167245 -4.357615,12.632108 -3.662187,4.387922 -8.820471,11.490901 -11.263085,18.88532 -1.152462,3.489121 -1.700931,7.045665 -1.195282,10.412382 -0.158521,0.143388 -0.308934,0.293981 -0.45357,0.447862 -1.074936,1.1576 -1.869919,2.558734 -2.755092,3.501835 -0.827318,0.832469 -2.005154,1.148318 -3.301093,1.615672 -1.29594,0.468752 -2.718137,1.158738 -3.581326,2.828107 0,0 2.7e-5,0.0014 -0.0011,0.0014 -0.0012,0.0023 -0.0022,0.0058 -0.0045,0.008 -0.406138,0.763573 -0.538091,1.587884 -0.538091,2.423735 0,0.772899 0.113476,1.556215 0.228027,2.310346 0.238361,1.569113 0.480066,3.053074 0.159552,4.058076 -1.025181,2.824637 -1.157062,4.777243 -0.435038,6.194924 0.724337,1.419896 2.211269,2.045892 3.892519,2.400283 3.362501,0.706451 7.915636,0.531587 11.503769,2.448097 l 0.308934,-0.586296 -0.305544,0.587662 c 3.841535,2.02376 7.736405,2.74183 10.843189,2.027103 2.254009,-0.517481 4.082255,-1.869636 5.021811,-3.949469 2.429886,-0.01166 5.096832,-1.04922 9.368804,-1.285752 2.898508,-0.235601 6.519049,1.037344 10.683412,0.804192 0.108766,0.454647 0.266263,0.893027 0.481366,1.309204 0.0024,0.0034 0.0046,0.008 0.007,0.01161 1.614024,3.252472 4.613199,4.740033 7.810351,4.485901 3.200392,-0.254252 6.603571,-2.155636 9.355244,-5.453573 l -0.504644,-0.426459 0.508034,0.421905 c 2.621963,-3.20351 6.973856,-4.531329 9.860793,-6.284633 1.44289,-0.876652 2.612607,-1.974582 2.704017,-3.569459 0.09003,-1.593594 -0.838997,-3.379594 -2.974983,-5.768238 -0.0012,-0.0012 -0.0025,-0.0024 -0.0025,-0.0034 -0.702238,-0.798546 -1.036678,-2.279071 -1.396417,-3.856345 -0.358813,-1.576108 -0.760198,-3.275878 -2.044567,-4.377521 -0.0024,-0.0024 -0.006,-0.0046 -0.0081,-0.0071 C 93.312907,70.423549 93.05135,70.23474 92.788692,70.077246 92.524991,69.919868 92.257653,69.791597 91.990481,69.690176 93.775823,64.355619 93.075875,59.043365 91.27313,54.243812 89.061933,48.352058 85.200646,43.219279 82.251227,39.708008 78.950052,35.512436 75.721559,31.530272 75.785315,25.647844 75.883552,16.670322 76.765279,0.02212298 61.084409,-2.6515358e-5 Z M 63.16491,13.830629 h 0.04271 c 0.888644,0 1.648852,0.26328 2.429888,0.833337 0.792605,0.580548 1.364379,1.305697 1.824899,2.319909 0.451265,0.988565 0.668764,1.954935 0.690865,3.100877 -1.15e-4,0.03031 -1.9e-4,0.05598 0.0079,0.08629 0.0092,1.176253 -0.192104,2.177777 -0.635269,3.200149 -0.252245,0.582881 -0.542584,1.072481 -0.890868,1.496818 -0.118139,-0.05712 -0.240522,-0.11193 -0.367919,-0.164389 -0.44085,-0.190019 -0.830814,-0.346159 -1.180139,-0.479056 -0.349556,-0.132896 -0.622236,-0.223798 -0.903524,-0.321722 0.203763,-0.248307 0.604987,-0.540804 0.754367,-0.908019 0.22679,-0.553736 0.338052,-1.094867 0.35888,-1.739532 0,-0.02565 0.0079,-0.04779 0.0079,-0.0781 0.01272,-0.617853 -0.06812,-1.145797 -0.247464,-1.68671 -0.187449,-0.567725 -0.425942,-0.975887 -0.770639,-1.315123 -0.345969,-0.339237 -0.690872,-0.493072 -1.10511,-0.507061 -0.01967,-0.0012 -0.03818,-0.0011 -0.05786,-0.0011 -0.388783,0.0012 -0.726628,0.13633 -1.076183,0.430102 -0.366799,0.308926 -0.638658,0.70432 -0.865332,1.254559 -0.225632,0.550239 -0.336777,1.095697 -0.358877,1.74386 -0.0034,0.02565 -0.0034,0.0479 -0.0034,0.07354 -0.0081,0.356723 0.01523,0.683144 0.06961,1.000232 -0.796078,-0.399856 -1.81474,-0.691625 -2.51825,-0.86066 -0.0405,-0.306595 -0.06356,-0.622481 -0.07051,-0.953555 v -0.08974 c -0.01272,-1.172755 0.178209,-2.178716 0.626003,-3.199922 0.447793,-1.022371 1.001974,-1.756937 1.781736,-2.354972 0.781036,-0.59687 1.548355,-0.870686 2.456555,-0.880013 z m -12.136779,0.972227 c 0.591273,0.0012 1.118978,0.199399 1.665124,0.638891 0.592429,0.476796 1.040277,1.086425 1.415174,1.94559 0.376054,0.859166 0.576113,1.718267 0.631653,2.732479 v 0.0082 c 0.02661,0.425502 0.02316,0.826514 -0.01039,1.214713 -0.116867,0.03381 -0.230145,0.06991 -0.342382,0.108379 -0.636399,0.221495 -1.141802,0.465965 -1.630094,0.791215 0.04744,-0.340402 0.05443,-0.685404 0.0174,-1.071271 -0.0035,-0.02098 -0.0034,-0.03844 -0.0034,-0.05943 -0.05091,-0.511769 -0.158513,-0.940888 -0.337862,-1.374551 -0.190919,-0.451149 -0.405171,-0.769311 -0.686343,-1.01412 -0.25456,-0.221495 -0.495242,-0.324054 -0.761372,-0.321722 -0.02661,0 -0.05426,0.0011 -0.08204,0.0034 -0.298528,0.02565 -0.546146,0.172442 -0.781034,0.460385 -0.233733,0.286777 -0.387689,0.643509 -0.498769,1.116808 -0.111081,0.472133 -0.140071,0.936287 -0.09379,1.46904 0,0.02098 0.0048,0.03844 0.0048,0.05943 0.05091,0.516432 0.153911,0.945441 0.336731,1.379104 0.187448,0.446486 0.404945,0.764756 0.686118,1.009566 0.04744,0.0408 0.09384,0.07802 0.140116,0.110656 -0.291587,0.227323 -0.487704,0.388609 -0.728378,0.565804 -0.153893,0.113079 -0.336714,0.248334 -0.549618,0.406878 -0.463993,-0.438326 -0.826034,-0.988675 -1.143077,-1.714944 -0.374896,-0.857999 -0.575101,-1.717128 -0.635269,-2.731339 v -0.0082 c -0.05554,-1.014212 0.04279,-1.886191 0.31933,-2.78849 0.277701,-0.902298 0.64797,-1.55506 1.186016,-2.09131 0.536889,-0.537416 1.078518,-0.807954 1.731113,-0.841761 0.05091,-0.0023 0.100531,-0.0034 0.150286,-0.0034 z m 5.539112,7.033042 c 1.372308,-0.0058 3.023519,0.447588 5.021811,1.741582 1.227672,0.804375 2.18217,0.871889 4.381797,1.820818 l 0.0034,0.0014 0.0025,0.0011 c 1.057579,0.43716 1.678781,1.008246 1.983096,1.608613 0.303157,0.600367 0.311285,1.251016 0.05673,1.936483 -0.507846,1.369769 -2.130127,2.811788 -4.404848,3.527565 l -0.0025,0.0011 -0.0023,0.0011 c -1.109764,0.362551 -2.077011,1.16586 -3.219058,1.822184 -1.139732,0.657489 -2.431034,1.187745 -4.18518,1.085158 -0.74748,-0.0443 -1.344656,-0.19338 -1.856089,-0.413708 -0.511447,-0.220329 -0.936108,-0.511932 -1.339932,-0.838345 -0.807648,-0.653992 -1.511039,-1.475698 -2.540849,-2.085392 l -0.0034,-0.0011 -0.0025,-0.0025 c -1.659265,-0.945433 -2.566297,-2.038816 -2.849783,-2.986579 -0.284644,-0.947764 -0.01747,-1.756847 0.805217,-2.378197 0.925671,-0.699456 1.569183,-1.174977 1.998464,-1.490898 0.425808,-0.314756 0.60156,-0.433645 0.738096,-0.56421 0,-0.0012 0.0011,-0.0013 0.0011,-0.0025 l 0.0011,-0.0011 c 0.69541,-0.663317 1.80515,-1.87213 3.477143,-2.451512 0.575073,-0.200511 1.217312,-0.328726 1.935864,-0.331058 z m 11.59394,8.429677 c 1.49496,5.936053 4.97091,14.510149 7.205365,18.694064 1.18833,2.219608 3.550963,6.936275 4.571632,12.619358 0.646812,-0.01994 1.359561,0.07473 2.122082,0.271631 2.669404,-6.972414 -2.26333,-14.481096 -4.519653,-16.57247 -0.910628,-0.890641 -0.95458,-1.289377 -0.502158,-1.270725 2.446086,2.181138 5.659179,6.565482 6.827953,11.515301 0.533304,2.256796 0.646978,4.630464 0.07526,6.972477 0.27886,0.116576 0.563431,0.243701 0.851547,0.381377 4.2847,2.10175 5.868826,3.929705 5.107462,6.424433 -0.251087,-0.0093 -0.498777,-0.0082 -0.739452,-0.0025 -0.02199,0.0012 -0.04398,0.0014 -0.06712,0.0014 0.621358,-1.97713 -0.753255,-3.435615 -4.416598,-5.104984 -3.798723,-1.683242 -6.825686,-1.516536 -7.337119,1.899143 -0.0324,0.178361 -0.05898,0.361348 -0.07865,0.545538 -0.284644,0.100257 -0.569332,0.22605 -0.856291,0.383427 -1.783074,0.983902 -2.757315,2.767572 -3.298833,4.956986 -0.540362,2.186967 -0.696658,4.829737 -0.844766,7.801261 v 0.0023 c -0.09141,1.493456 -0.702371,3.514852 -1.320257,5.655305 -6.222824,4.472906 -14.8592,6.410344 -22.192829,1.367264 -0.496392,-0.791552 -1.066953,-1.576127 -1.653598,-2.350192 -0.374896,-0.494166 -0.760107,-0.985111 -1.141947,-1.469951 0.752108,0.0012 1.391978,-0.123696 1.909197,-0.359063 0.643342,-0.294938 1.094652,-0.765734 1.319126,-1.372046 0.446637,-1.211225 -0.0024,-2.920322 -1.433706,-4.87297 -1.431318,-1.951483 -3.855375,-4.153578 -7.416894,-6.354533 v -0.0011 c -2.617335,-1.640225 -4.079859,-3.650259 -4.764856,-5.832446 -0.686154,-2.183469 -0.590259,-4.543989 -0.06147,-6.874344 1.01361,-4.473023 3.617186,-8.823796 5.278766,-11.554007 0.446636,-0.331076 0.15956,0.615729 -1.682525,4.061719 -1.650008,3.150002 -4.735956,10.419514 -0.511425,16.094553 0.113395,-4.038311 1.07038,-8.156999 2.677577,-12.009838 2.340791,-5.345012 7.236479,-14.616278 7.625261,-22.004868 0.201333,0.146885 0.889783,0.615412 1.196412,0.791441 0.0012,0.0012 0.0011,0.0014 0.0023,0.0014 0.897902,0.532752 1.572556,1.311289 2.446159,2.018906 0.875916,0.708782 1.96923,1.320825 3.621553,1.417583 0.158521,0.0093 0.313742,0.01412 0.465321,0.01412 1.703234,0 3.031547,-0.559737 4.137724,-1.197408 1.20233,-0.692462 2.162546,-1.459314 3.07329,-1.757749 0.0012,-0.0012 0.0022,-0.0014 0.0034,-0.0014 1.924239,-0.606196 3.452798,-1.678595 4.322812,-2.928291 z m 9.069136,37.821643 c 0.156323,2.568171 1.418598,5.189045 3.64935,5.755488 2.441573,0.64828 5.960347,-1.461928 7.446049,-3.183756 0.297256,-0.01177 0.586528,-0.02693 0.867817,-0.03393 1.304039,-0.03159 2.396231,0.04434 3.513979,1.028238 l 0.0034,0.0034 0.0034,0.0025 c 0.858559,0.733263 1.267211,2.118268 1.62128,3.66873 0.354185,1.551745 0.636248,3.240687 1.698571,4.444918 l 0.0011,0.0011 0.0014,0.0025 c 2.04122,2.281393 2.697209,3.822556 2.640512,4.807623 -0.05554,0.983786 -0.762622,1.714807 -2.068973,2.507524 -2.61051,1.5866 -7.237717,2.96696 -10.191649,6.572658 -2.566538,3.076442 -5.695226,4.765601 -8.450139,4.984764 -2.754912,0.219163 -5.13177,-0.932672 -6.534161,-3.766636 l -0.0023,-0.0059 -0.0034,-0.0071 c -0.870246,-1.667037 -0.508026,-4.295762 0.224412,-7.070155 0.732437,-2.773344 1.785207,-5.622472 1.926372,-7.936507 v -0.0071 c 0.147992,-2.965578 0.313741,-5.556078 0.807703,-7.555358 0.495234,-1.999279 1.273803,-3.35148 2.653168,-4.112721 0.06479,-0.03497 0.128455,-0.06893 0.192095,-0.100411 z m -44.846234,0.193535 c 0.01389,0.0013 0.02657,0.0013 0.04046,0 0.205961,0.0013 0.424642,0.01862 0.65606,0.05487 1.56207,0.237815 2.92389,1.33822 4.23603,3.13116 l 3.788337,6.956084 0.0011,0.0034 0.0025,0.0025 c 1.007824,2.120518 3.136778,4.453132 4.940679,6.832449 1.803902,2.378268 3.199359,4.766831 3.017696,6.594744 l -0.0011,0.0071 v 0.0082 c -0.236046,3.117244 -1.981081,4.814573 -4.660898,5.43126 -2.677504,0.616687 -6.309507,0.0025 -9.935823,-1.90825 -0.0012,0 -0.0023,-0.0014 -0.0034,-0.0014 -4.012796,-2.14149 -8.785832,-1.927965 -11.848647,-2.57263 -1.530828,-0.32175 -2.530562,-0.806779 -2.98877,-1.706746 -0.458206,-0.901133 -0.46872,-2.471403 0.505549,-5.149156 l 0.0047,-0.01184 0.0034,-0.01161 c 0.482512,-1.498004 0.125034,-3.13699 -0.108697,-4.675794 -0.233732,-1.537522 -0.348284,-2.937663 0.173563,-3.912356 l 0.0045,-0.0093 c 0.66764,-1.296326 1.646592,-1.760226 2.861535,-2.198552 1.2161,-0.439491 2.656794,-0.784421 3.794212,-1.933978 l 0.0068,-0.0059 0.0059,-0.0059 c 1.051795,-1.117965 1.842105,-2.520191 2.766618,-3.514585 0.779878,-0.839348 1.560932,-1.395534 2.737691,-1.403695 z" />
  <path d="m 62.188317,30.392516 c -1.809774,0.95041 -3.923688,2.103032 -6.173069,2.103032 -2.248224,0 -4.024355,-1.046853 -5.301782,-2.066893 -0.638713,-0.509437 -1.157088,-1.016543 -1.548184,-1.384924 -0.678557,-0.539634 -0.597276,-1.296521 -0.318484,-1.274176 0.467305,0.05878 0.537961,0.678669 0.832231,0.955924 0.398039,0.375375 0.896744,0.861497 1.500745,1.344122 1.208001,0.964084 2.818668,1.902521 4.835474,1.902521 2.013335,0 4.363584,-1.190844 5.798173,-2.001611 0.812764,-0.459338 1.846973,-1.282698 2.690993,-1.906883 0.645739,-0.477551 0.622192,-1.05259 1.155364,-0.989983 0.53317,0.06261 0.138754,0.636487 -0.607908,1.293007 -0.746665,0.65652 -1.914772,1.527609 -2.863553,2.025864 z" />
  <path d="m 57.69842,23.768629 c 0.07485,0.24204 0.462027,0.201922 0.685725,0.31801 0.196291,0.101862 0.354169,0.32512 0.574875,0.33154 0.21064,0.0061 0.538462,-0.07349 0.565864,-0.283997 0.0362,-0.278107 -0.366894,-0.454839 -0.626281,-0.556724 -0.333783,-0.131114 -0.761428,-0.197636 -1.074541,-0.02223 -0.07175,0.04019 -0.150061,0.134444 -0.125642,0.213408 z" />
  <path d="m 55.411509,23.768629 c -0.07485,0.24204 -0.462027,0.201922 -0.685724,0.31801 -0.196291,0.101862 -0.354169,0.32512 -0.574876,0.33154 -0.210639,0.0061 -0.538461,-0.07349 -0.565863,-0.283997 -0.0362,-0.278107 0.366892,-0.454839 0.626279,-0.556724 0.333785,-0.131114 0.76143,-0.197636 1.074541,-0.02223 0.07175,0.04019 0.150063,0.134444 0.125643,0.213408 z" />
</svg>
