<?xml version="1.0" encoding="UTF-8"?>
<svg xmlns="http://www.w3.org/2000/svg" width="100" height="100">
  <path d="m 51.678178,10.00003 c -4.802847,-0.2511952 -10.168329,2.151338
           -11.565323,7.083745 -2.390671,6.811581 1.161733,14.351967
           -2.247291,20.949516 -2.277826,4.421189 -6.063137,7.870751
           -8.274551,12.359922 -2.36416,4.321654 -4.325654,9.252464
           -3.626511,14.268527 -1.693857,3.326605 -5.295502,3.990989
           -7.842205,6.249513 -1.843792,2.773816 0.74854,6.194748
           -0.890769,9.077623 -1.585315,3.956156 2.813414,5.892708
           6.0324,5.703389 3.065061,0.489997 6.287561,0.73662 7.657313,2.121295
           3.691644,1.753372 9.511566,2.244156 11.608993,-2.09562
           3.983619,-0.423431 7.991496,-1.662714 12.004119,-0.630653
           2.823448,-0.0273 4.582405,0.269888 5.697761,2.988936
           3.307839,3.523511 8.953889,1.643794 11.793807,-1.524919
           0.679362,-1.718781 3.66781,-3.281625 6.347916,-4.696425
           3.231568,-0.82155 6.44912,-4.379756 3.337064,-7.393501
           -2.530804,-2.005642 -1.7043,-5.750971 -3.881569,-7.934938 C
           75.209449,64.77118 78.757338,60.114396 77.04258,57.111699
           75.678927,49.88839 70.668303,44.249435 66.319812,38.627967
           63.35295,35.062323 63.324332,30.341004 63.52909,25.969601
           63.439445,20.51598 62.559053,13.782083 57.07514,11.099991
           55.400614,10.29487 53.501879,10.024643 51.678178,10.00003 Z m
           1.708648,11.06424 c 4.051175,0.315133 5.111033,6.082692
           2.75899,8.82941 -3.758013,0.186002 0.860681,-5.840865
           -3.48721,-5.691275 -2.169483,0.913446 -0.358362,4.75942
           -3.16457,2.844635 -0.395825,-2.520801 0.974909,-5.914391
           3.89279,-5.98277 z m -9.802336,0.77712 c 3.001322,-0.05229
           4.16258,6.526799 1.378725,5.58186 0.454733,-3.6307
           -3.778794,-2.847091 -2.530568,0.405834 1.969689,2.467089
           -1.453597,2.302272 -1.414273,-0.261558 -0.471589,-2.074844
           -0.03476,-5.421925 2.566116,-5.726136 z m 4.458056,5.62602 c
           3.155909,0.553804 6.20705,2.17172 8.937077,3.784298 1.55415,4.158164
           -4.643733,4.775013 -6.957949,6.712548 -3.42974,1.497583
           -5.953922,-1.760891 -8.456575,-3.525073 -2.435408,-3.253939
           3.343656,-5.626689 5.655108,-6.897966 l 0.822384,-0.07346
           -4.5e-5,-3.5e-4 z m 7.72167,4.57285 c -3.360066,1.086232
           -6.547036,4.643291 -10.356296,2.878055 -1.243388,-0.666744
           -5.608456,-4.232749 -2.775065,-1.172766 2.74909,3.096035
           7.401959,2.600778 10.462456,0.25601 0.56331,-0.823429
           2.973206,-0.895498 2.668905,-1.961299 z m 1.610096,2.17049 c
           1.676502,6.653259 4.754057,12.809108 7.689825,18.96374
           1.296063,1.786216 0.911136,7.650738 3.681035,5.779401
           1.487894,-4.906473 -1.092728,-10.029846 -4.434512,-13.513755
           2.773084,1.427741 5.121394,6.135244 5.849566,9.657711
           0.425783,2.877452 -0.850584,5.628437 2.784602,6.432918
           2.077247,0.143742 2.33731,5.180247 1.39038,3.332684
           -0.853945,-3.106991 -5.322641,-4.871677 -8.328893,-4.026726
           -2.151834,3.108243 -5.690824,5.789859 -5.177968,10.427641
           -0.258355,3.149826 -0.02151,7.486593 -3.694097,8.598512
           -4.722018,2.557324 -10.902827,2.792698 -15.384198,-0.420736
           -1.167503,-1.935004 -3.399775,-3.247236 -0.05621,-3.799237
           1.749909,-3.641645 -2.652114,-6.65816 -5.202536,-8.634603
           -3.350373,-1.73301 -6.2697,-5.028302 -5.718232,-9.055859
           0.388521,-4.082098 2.435229,-8.214066 4.713907,-11.333193
           -1.685291,3.969718 -4.369896,8.004119 -3.471168,12.543173
           0.167881,1.489991 1.963688,5.288919 1.678851,1.750362
           0.885702,-9.011659 7.630677,-16.277168 8.17096,-25.387993
           2.578155,2.044954 5.774709,4.79393 9.179297,2.640495
           1.961457,-1.611787 4.810068,-1.802267 6.329392,-3.954535 z m
           9.831077,27.18639 c 4.146221,-0.384507 6.78832,5.00789
           1.541782,5.914523 -3.150528,1.092575 -4.889884,-5.667928
           -1.541782,-5.914523 z m -2.531496,3.0705 c -0.337044,4.749975
           5.329926,5.934455 8.102296,2.848078 3.321476,-2.882147
           6.114116,1.707949 6.135857,4.821059 0.923479,2.437247
           5.215417,5.489475 1.359309,7.526563 -3.452432,1.686537
           -7.034984,3.364056 -9.407857,6.52438 -2.618347,2.719786
           -7.930069,4.209838 -10.39701,0.494931 -2.102616,-3.276302
           0.184335,-7.1762 0.882177,-10.564817 1.033201,-3.703501
           -0.291518,-8.42122 2.776496,-11.320892 l 0.394274,-0.250502
           0.154101,-0.08 3.57e-4,0.0012 z m -36.063575,0.1551 c
           3.828224,0.436939 5.218312,4.757243 6.797533,7.708132
           1.725882,3.982864 6.214255,6.611896 6.596133,11.165768
           -0.07127,4.278867 -5.214459,5.27003 -8.503618,4.101909
           -3.483509,-1.309924 -6.873701,-3.040127 -10.708523,-3.043559
           -3.811156,0.498757 -6.020948,-2.994156 -3.952787,-6.256356
           0.303011,-2.801572 -1.843256,-7.193004 2.243747,-8.175394
           3.102635,-0.351073 4.094747,-3.52111 6.272766,-5.1686
           0.214854,-0.385522 1.038267,-0.11926 1.254749,-0.3319 z"
        fill-opacity="0.2" />
</svg>
