<?xml version="1.0" encoding="UTF-8"?>
<svg xmlns="http://www.w3.org/2000/svg" width="100" height="100">
  <path d="M 50.055789,89.999963 C 72.147249,89.969275 90.02965,72.034651
           89.999963,49.945235 89.970281,27.853771 72.032609,9.9703521
           49.94524,10.000037 27.853777,10.028698 9.9683112,27.963297
           10.000042,50.053738 c 0.02866,22.09249 17.963261,39.975907
           40.055747,39.946225 z m 13.58018,-59.27293 c 3.606164,-0.0051
           6.537772,2.916254 6.54391,6.525488 0.0061,3.608211 -2.917275,6.537772
           -6.525487,6.543913 -3.606164,0.0061 -6.538794,-2.916253
           -6.541863,-6.525488 -0.0042,-3.610258 2.915228,-6.538795
           6.52344,-6.543913 z m 9.342449,26.84202 c 0.01434,9.446857
           -10.261645,17.118788 -22.946172,17.135164 -12.686571,0.01947
           -22.982,-7.625862 -22.994283,-17.072725 l 45.940455,-0.06244 z M
           36.310809,30.762859 c 3.608211,-0.0051 6.536747,2.917277
           6.542889,6.526512 0.0031,3.608211 -2.917277,6.537772
           -6.525488,6.54289 -3.610258,0.0051 -6.537771,-2.917278
           -6.543912,-6.525489 -0.0051,-3.609235 2.919324,-6.538795
           6.526511,-6.543913 z"
        opacity="0.2" />
</svg>
