<?xml version="1.0" encoding="UTF-8" standalone="no"?>
<!-- Created with Inkscape (http://www.inkscape.org/) -->

<svg
   xmlns:dc="http://purl.org/dc/elements/1.1/"
   xmlns:cc="http://creativecommons.org/ns#"
   xmlns:rdf="http://www.w3.org/1999/02/22-rdf-syntax-ns#"
   xmlns:svg="http://www.w3.org/2000/svg"
   xmlns="http://www.w3.org/2000/svg"
   version="1.1"
   width="100"
   height="100"
   id="svg2">
  <defs
     id="defs4" />
  <metadata
     id="metadata7">
    <rdf:RDF>
      <cc:Work
         rdf:about="">
        <dc:format>image/svg+xml</dc:format>
        <dc:type
           rdf:resource="http://purl.org/dc/dcmitype/StillImage" />
        <dc:title></dc:title>
      </cc:Work>
    </rdf:RDF>
  </metadata>
  <g
     transform="translate(0,-952.36218)"
     id="layer1">
    <path
       d="M 50.00001,962.36218 C 37.07422,962.36218 12,970.07768 12,970.07768 l 5.51054,46.41292 32.48947,25.8716 32.48945,-25.8716 L 88,970.07768 c 0,0 -25.07421,-7.7155 -37.99999,-7.7155 z m -15.75106,19.34871 12.86235,0 2.70191,17.33656 c 0.12453,0 0.24905,0 0.37358,0 l 2.70191,-17.33656 12.86235,0 0,33.81361 -8.43259,5.81 0,-27.13756 -4.20961,23.15316 c -2.07256,0 -4.14514,0 -6.2177,0 l -4.20961,-23.15316 0,27.13756 -8.43259,-5.81 z"
       id="path3000"
       style="fill:#ffffff;stroke:none" />
  </g>
</svg>
