<?xml version="1.0" encoding="UTF-8"?>
<svg xmlns="http://www.w3.org/2000/svg" width="100" height="100">
  <path d="M 52.548498,82.798141 C 52.382087,70.184917 52.531626,57.570813
           52.40734,44.957482 c -0.06943,-4.587134 0.243551,-9.206011
           -0.233578,-13.769276 -1.919398,-2.134187 -4.726485,-6.110155
           -7.519753,-2.976552 -2.692487,0.637324 -1.307313,3.553952
           -1.608488,5.535675 -0.07826,8.152879 0.266747,16.319581
           -0.134156,24.462379 -0.171181,3.644413 -3.063189,6.273419
           -6.100788,7.832562 -2.162165,0.770842 -5.0895,4.931243
           -6.997927,3.259947 0.693759,-2.457986 3.524633,-5.263099
           2.853646,-8.60564 0.06319,-9.581637 -0.0067,-19.168064
           -0.0603,-28.748061 -0.471549,-4.794478 -6.149891,-1.914769
           -9.131072,-1.758191 -3.150695,0.93279 -7.380228,-1.493306
           -6.292536,-5.145068 0.973494,-3.00361 3.31676,-6.596416
           5.696264,-8.045258 3.918173,1.179637 -3.965192,5.93208
           1.045981,6.464536 3.40711,-0.773031 6.556591,-2.599669
           9.987841,-3.411037 3.291515,-0.893279 7.183008,0.520887
           8.426181,3.865787 0.637808,4.320732 4.854641,-1.227296
           7.10953,-1.840206 2.193984,-1.798207 4.543101,-2.841006
           6.458714,-0.07074 2.663613,1.136786 5.137321,6.654296
           8.017646,3.417284 2.958078,-1.762502 5.722583,-3.840541
           8.707858,-5.524894 3.47125,1.650661 6.499225,4.207431
           10.090499,5.625122 2.880312,1.525851 6.217755,-4.137707
           7.277099,0.386085 -2.356072,1.833745 -5.595811,2.98132
           -6.884127,5.957286 -1.603394,4.278545 -0.810057,8.992809
           -1.018405,13.467546 0.136514,9.056271 0.03812,18.119523
           0.1842,27.172238 0.08178,3.636675 3.579455,3.175406 5.564469,1.396763
           2.651412,3.255707 -3.231918,4.106634 -5.063141,5.946574
           -2.464151,1.338821 -5.005712,4.369997 -7.328505,1.06765
           -3.537911,-1.598681 -3.641027,-5.718613 -3.490156,-9.042782
           0.164107,-10.314777 -0.274602,-20.648914 0.174538,-30.951272
           0.05695,-3.510447 2.75253,-6.653263 4.959103,-8.456448
           -3.292511,-1.886377 -6.462557,-3.988681 -9.756034,-5.872253
           -2.954953,1.328315 -5.643671,3.163335 -4.493937,6.783483
           0.02683,13.912552 0.123107,27.829444 0.02803,41.739177
           -0.133629,4.693174 -5.891132,5.129603 -8.930087,7.390574 l
           -0.658226,0.235291 -0.739201,0.05238 -1.4e-5,6e-6 z"
        fill-opacity="0.2" />
  <path d="m 29.938043,71.165945 c 3.792801,-0.232269 7.858932,0.789305
           10.547119,3.616314 1.156325,0.742767 2.514906,-1.009726
           3.659734,-1.46285 1.106564,-0.754494 1.159013,1.389258
           1.708061,1.99971 -0.759225,0.914168 -2.073013,1.253577
           -3.026557,1.989281 -2.92372,1.790298 -5.864822,3.557194
           -8.750061,5.406555 -1.067089,-0.06802 -1.109154,-2.12353
           -2.162831,-2.664289 -2.414175,-2.470676 -6.175473,-2.646508
           -9.36839,-2.033648 -4.077206,0.78502 -8.05922,2.386307
           -11.337468,4.971288 -0.867672,0.163125 -1.8514831,-1.42622
           -0.647837,-1.910834 2.380157,-2.536179 5.156918,-4.712033
           8.177314,-6.425127 1.381983,-0.60863 2.596951,-1.571676
           4.095472,-1.909613 2.304192,-0.803207 4.640473,-1.534773
           7.105444,-1.576787 z"
        fill-opacity="0.2" />
</svg>
