<?xml version="1.0" encoding="UTF-8" standalone="no"?>
<!-- Created with Inkscape (http://www.inkscape.org/) -->

<svg
   xmlns:dc="http://purl.org/dc/elements/1.1/"
   xmlns:cc="http://creativecommons.org/ns#"
   xmlns:rdf="http://www.w3.org/1999/02/22-rdf-syntax-ns#"
   xmlns:svg="http://www.w3.org/2000/svg"
   xmlns="http://www.w3.org/2000/svg"
   xmlns:sodipodi="http://sodipodi.sourceforge.net/DTD/sodipodi-0.dtd"
   xmlns:inkscape="http://www.inkscape.org/namespaces/inkscape"
   version="1.0"
   width="22"
   height="22"
   id="svg28696"
   xml:space="preserve"
   inkscape:version="0.48.4 r9939"
   sodipodi:docname="Logo_Olympique_de_Marseille.svg"><metadata
     id="metadata176"><rdf:RDF><cc:Work
         rdf:about=""><dc:format>image/svg+xml</dc:format><dc:type
           rdf:resource="http://purl.org/dc/dcmitype/StillImage" /></cc:Work></rdf:RDF></metadata><sodipodi:namedview
     pagecolor="#ffffff"
     bordercolor="#666666"
     borderopacity="1"
     objecttolerance="10"
     gridtolerance="10"
     guidetolerance="10"
     inkscape:pageopacity="0"
     inkscape:pageshadow="2"
     inkscape:window-width="918"
     inkscape:window-height="627"
     id="namedview174"
     showgrid="false"
     inkscape:zoom="6.0840764"
     inkscape:cx="37.323953"
     inkscape:cy="26.303256"
     inkscape:window-x="0"
     inkscape:window-y="0"
     inkscape:window-maximized="0"
     inkscape:current-layer="svg28696" /><defs
     id="defs28699"><clipPath
       id="clipPath28711"><path
         d="M 0,841 595,841 595,0 0,0 0,841 z"
         id="path28713"
         inkscape:connector-curvature="0" /></clipPath><clipPath
       id="clipPath28717"><path
         d="m 0.36,841.68 595.44,0 L 595.8,0 0.36,0 l 0,841.68 z"
         id="path28719"
         inkscape:connector-curvature="0" /></clipPath><clipPath
       id="clipPath28807"><path
         d="m 399.685,682.535 68.031,0 0,-70 -68.031,0 0,70 z"
         id="path28809"
         inkscape:connector-curvature="0" /></clipPath><clipPath
       id="clipPath28813"><path
         d="M 0,841 595,841 595,0 0,0 0,841 z"
         id="path28815"
         inkscape:connector-curvature="0" /></clipPath><clipPath
       id="clipPath28819"><path
         d="m 0.36,841.68 595.44,0 L 595.8,0 0.36,0 l 0,841.68 z"
         id="path28821"
         inkscape:connector-curvature="0" /></clipPath><clipPath
       id="clipPath28869"><path
         d="m 484.724,682.535 68.032,0 0,-70 -68.032,0 0,70 z"
         id="path28871"
         inkscape:connector-curvature="0" /></clipPath><clipPath
       id="clipPath28875"><path
         d="M 0,841 595,841 595,0 0,0 0,841 z"
         id="path28877"
         inkscape:connector-curvature="0" /></clipPath><clipPath
       id="clipPath28881"><path
         d="m 0.36,841.68 595.44,0 L 595.8,0 0.36,0 l 0,841.68 z"
         id="path28883"
         inkscape:connector-curvature="0" /></clipPath><clipPath
       id="clipPath28955"><path
         d="m 144.567,682.535 68.031,0 0,-70 -68.031,0 0,70 z"
         id="path28957"
         inkscape:connector-curvature="0" /></clipPath><clipPath
       id="clipPath28961"><path
         d="M 0,841 595,841 595,0 0,0 0,841 z"
         id="path28963"
         inkscape:connector-curvature="0" /></clipPath><clipPath
       id="clipPath28967"><path
         d="m 0.36,841.68 595.44,0 L 595.8,0 0.36,0 l 0,841.68 z"
         id="path28969"
         inkscape:connector-curvature="0" /></clipPath><clipPath
       id="clipPath29133"><path
         d="m 229.606,682.535 68.032,0 0,-70 -68.032,0 0,70 z"
         id="path29135"
         inkscape:connector-curvature="0" /></clipPath><clipPath
       id="clipPath29139"><path
         d="M 0,841 595,841 595,0 0,0 0,841 z"
         id="path29141"
         inkscape:connector-curvature="0" /></clipPath><clipPath
       id="clipPath29145"><path
         d="m 0.36,841.68 595.44,0 L 595.8,0 0.36,0 l 0,841.68 z"
         id="path29147"
         inkscape:connector-curvature="0" /></clipPath><clipPath
       id="clipPath29207"><path
         d="m 314.646,682.535 68.031,0 0,-70 -68.031,0 0,70 z"
         id="path29209"
         inkscape:connector-curvature="0" /></clipPath><clipPath
       id="clipPath29213"><path
         d="M 0,841 595,841 595,0 0,0 0,841 z"
         id="path29215"
         inkscape:connector-curvature="0" /></clipPath><clipPath
       id="clipPath29219"><path
         d="m 0.36,841.68 595.44,0 L 595.8,0 0.36,0 l 0,841.68 z"
         id="path29221"
         inkscape:connector-curvature="0" /></clipPath><clipPath
       id="clipPath29253"><path
         d="m 458.677,531.224 c 0,-0.192 0,-0.384 0,-0.576 -0.012,0 -0.024,0 -0.036,0 0,-0.132 0,-0.264 0,-0.396 -0.012,0 -0.024,0 -0.036,0 0,-0.12 0,-0.24 0,-0.36 -0.012,0 -0.024,0 -0.036,0 0,-0.108 0,-0.216 0,-0.324 -0.012,0 -0.024,0 -0.036,0 0,-0.096 0,-0.192 0,-0.288 -0.103,-0.353 -0.112,-0.806 -0.216,-1.152 0,-0.072 0,-0.144 0,-0.216 -0.117,-0.381 -0.168,-0.852 -0.288,-1.224 0,-0.06 0,-0.12 0,-0.18 -0.102,-0.312 -0.182,-0.698 -0.288,-1.008 -0.012,-0.096 -0.024,-0.192 -0.036,-0.288 -0.188,-0.521 -0.339,-1.116 -0.54,-1.62 -0.06,-0.216 -0.12,-0.432 -0.18,-0.648 -0.012,0 -0.024,0 -0.036,0 0,-0.024 0,-0.048 0,-0.072 -0.012,0 -0.024,0 -0.036,0 -0.012,-0.072 -0.024,-0.144 -0.036,-0.216 -0.012,0 -0.024,0 -0.036,0 0,-0.024 0,-0.048 0,-0.072 -0.012,0 -0.024,0 -0.036,0 -0.012,-0.072 -0.024,-0.144 -0.036,-0.216 -0.012,0 -0.024,0 -0.036,0 0,-0.024 0,-0.048 0,-0.072 -0.012,0 -0.024,0 -0.036,0 0,-0.036 0,-0.072 0,-0.108 -0.012,0 -0.024,0 -0.036,0 0,-0.024 0,-0.048 0,-0.072 -0.012,0 -0.024,0 -0.036,0 -0.012,-0.06 -0.024,-0.12 -0.036,-0.18 -0.012,0 -0.024,0 -0.036,0 0,-0.036 0,-0.072 0,-0.108 -0.012,0 -0.024,0 -0.036,0 0,-0.024 0,-0.048 0,-0.072 -0.012,0 -0.024,0 -0.036,0 0,-0.036 0,-0.072 0,-0.108 -0.012,0 -0.024,0 -0.036,0 -0.012,-0.048 -0.024,-0.096 -0.036,-0.144 -0.012,0 -0.024,0 -0.036,0 0,-0.036 0,-0.072 0,-0.108 -0.012,0 -0.024,0 -0.036,0 -0.012,-0.048 -0.024,-0.096 -0.036,-0.144 -0.012,0 -0.024,0 -0.036,0 0,-0.036 0,-0.072 0,-0.108 -0.012,0 -0.024,0 -0.036,0 0,-0.024 0,-0.048 0,-0.072 -0.012,0 -0.024,0 -0.036,0 0,-0.024 0,-0.048 0,-0.072 -0.012,0 -0.024,0 -0.036,0 -0.024,-0.072 -0.048,-0.144 -0.072,-0.216 -0.012,0 -0.024,0 -0.036,0 0,-0.036 0,-0.072 0,-0.108 -0.012,0 -0.024,0 -0.036,0 -0.024,-0.072 -0.048,-0.144 -0.072,-0.216 -0.012,0 -0.024,0 -0.036,0 0,-0.024 0,-0.048 0,-0.072 -0.012,0 -0.024,0 -0.036,0 0,-0.024 0,-0.048 0,-0.072 -0.012,0 -0.024,0 -0.036,0 0,-0.024 0,-0.048 0,-0.072 -0.012,0 -0.024,0 -0.036,0 0,-0.024 0,-0.048 0,-0.072 -0.012,0 -0.024,0 -0.036,0 -0.012,-0.06 -0.024,-0.12 -0.036,-0.18 -0.024,-0.012 -0.048,-0.024 -0.072,-0.036 0,-0.024 0,-0.048 0,-0.072 l -0.072,-0.072 c 0,-0.024 0,-0.048 0,-0.072 -0.012,0 -0.024,0 -0.036,0 0,-0.024 0,-0.048 0,-0.072 -0.012,0 -0.024,0 -0.036,0 0,-0.024 0,-0.048 0,-0.072 -0.012,0 -0.024,0 -0.036,0 0,-0.024 0,-0.048 0,-0.072 -0.012,0 -0.024,0 -0.036,0 0,-0.024 0,-0.048 0,-0.072 l -0.072,-0.072 c 0,-0.024 0,-0.048 0,-0.072 -0.024,-0.012 -0.048,-0.024 -0.072,-0.036 0,-0.024 0,-0.048 0,-0.072 l -0.072,-0.072 c 0,-0.024 0,-0.048 0,-0.072 -0.012,0 -0.024,0 -0.036,0 0,-0.024 0,-0.048 0,-0.072 -0.012,0 -0.024,0 -0.036,0 0,-0.024 0,-0.048 0,-0.072 -0.024,-0.012 -0.048,-0.024 -0.072,-0.036 -0.024,-0.072 -0.048,-0.144 -0.072,-0.216 -0.024,-0.012 -0.048,-0.024 -0.072,-0.036 -0.012,-0.048 -0.024,-0.096 -0.036,-0.144 -0.024,-0.012 -0.048,-0.024 -0.072,-0.036 -0.024,-0.072 -0.048,-0.144 -0.072,-0.216 -0.024,-0.012 -0.048,-0.024 -0.072,-0.036 0,-0.024 0,-0.048 0,-0.072 -0.024,-0.012 -0.048,-0.024 -0.072,-0.036 -0.012,-0.048 -0.024,-0.096 -0.036,-0.144 -0.012,0 -0.024,0 -0.036,0 -0.012,-0.036 -0.024,-0.072 -0.036,-0.108 -0.024,-0.012 -0.048,-0.024 -0.072,-0.036 -0.012,-0.048 -0.024,-0.096 -0.036,-0.144 -0.024,-0.012 -0.048,-0.024 -0.072,-0.036 0,-0.024 0,-0.048 0,-0.072 -0.024,-0.012 -0.048,-0.024 -0.072,-0.036 0,-0.024 0,-0.048 0,-0.072 -0.012,0 -0.024,0 -0.036,0 -0.012,-0.036 -0.024,-0.072 -0.036,-0.108 -0.024,-0.012 -0.048,-0.024 -0.072,-0.036 0,-0.024 0,-0.048 0,-0.072 -0.012,0 -0.024,0 -0.036,0 -0.012,-0.036 -0.024,-0.072 -0.036,-0.108 -0.024,-0.012 -0.048,-0.024 -0.072,-0.036 0,-0.024 0,-0.048 0,-0.072 -0.036,-0.024 -0.072,-0.048 -0.108,-0.072 0,-0.024 0,-0.048 0,-0.072 -0.024,-0.012 -0.048,-0.024 -0.072,-0.036 0,-0.024 0,-0.048 0,-0.072 -0.036,-0.024 -0.072,-0.048 -0.108,-0.072 0,-0.024 0,-0.048 0,-0.072 -0.024,-0.012 -0.048,-0.024 -0.072,-0.036 0,-0.024 0,-0.048 0,-0.072 -0.036,-0.024 -0.072,-0.048 -0.108,-0.072 0,-0.024 0,-0.048 0,-0.072 -0.036,-0.024 -0.072,-0.048 -0.108,-0.072 0,-0.024 0,-0.048 0,-0.072 -0.048,-0.036 -0.096,-0.072 -0.144,-0.108 0,-0.024 0,-0.048 0,-0.072 -0.048,-0.036 -0.096,-0.072 -0.144,-0.108 -0.012,-0.036 -0.024,-0.072 -0.036,-0.108 -0.024,-0.012 -0.048,-0.024 -0.072,-0.036 0,-0.024 0,-0.048 0,-0.072 -0.06,-0.048 -0.12,-0.096 -0.18,-0.144 0,-0.024 0,-0.048 0,-0.072 -0.06,-0.048 -0.12,-0.096 -0.18,-0.144 0,-0.024 0,-0.048 0,-0.072 -0.072,-0.06 -0.144,-0.12 -0.216,-0.18 0,-0.024 0,-0.048 0,-0.072 -0.096,-0.084 -0.192,-0.168 -0.288,-0.252 -0.012,-0.036 -0.024,-0.072 -0.036,-0.108 -0.168,-0.156 -0.336,-0.312 -0.504,-0.468 -0.216,-0.228 -0.432,-0.456 -0.648,-0.684 -0.024,0 -0.048,0 -0.072,0 -0.096,-0.108 -0.192,-0.216 -0.288,-0.324 -0.024,0 -0.048,0 -0.072,0 -0.012,-0.024 -0.024,-0.048 -0.036,-0.072 -0.012,0 -0.024,0 -0.036,0 -0.036,-0.048 -0.072,-0.096 -0.108,-0.144 -0.024,0 -0.048,0 -0.072,0 -0.06,-0.072 -0.12,-0.144 -0.18,-0.216 -0.024,0 -0.048,0 -0.072,0 -0.012,-0.024 -0.024,-0.048 -0.036,-0.072 -0.012,0 -0.024,0 -0.036,0 -0.024,-0.036 -0.048,-0.072 -0.072,-0.108 -0.024,0 -0.048,0 -0.072,0 -0.048,-0.06 -0.096,-0.12 -0.144,-0.18 -0.024,0 -0.048,0 -0.072,0 -0.036,-0.048 -0.072,-0.096 -0.108,-0.144 -0.024,0 -0.048,0 -0.072,0 -0.036,-0.048 -0.072,-0.096 -0.108,-0.144 -0.024,0 -0.048,0 -0.072,0 -0.036,-0.048 -0.072,-0.096 -0.108,-0.144 -0.024,0 -0.048,0 -0.072,0 -0.024,-0.036 -0.048,-0.072 -0.072,-0.108 -0.024,0 -0.048,0 -0.072,0 -0.036,-0.048 -0.072,-0.096 -0.108,-0.144 -0.024,0 -0.048,0 -0.072,0 -0.024,-0.036 -0.048,-0.072 -0.072,-0.108 -0.024,0 -0.048,0 -0.072,0 -0.024,-0.036 -0.048,-0.072 -0.072,-0.108 -0.024,0 -0.048,0 -0.072,0 -0.024,-0.036 -0.048,-0.072 -0.072,-0.108 -0.024,0 -0.048,0 -0.072,0 -0.012,-0.024 -0.024,-0.048 -0.036,-0.072 -0.024,0 -0.048,0 -0.072,0 -0.012,-0.024 -0.024,-0.048 -0.036,-0.072 -0.036,-0.012 -0.072,-0.024 -0.108,-0.036 -0.024,-0.036 -0.048,-0.072 -0.072,-0.108 -0.024,0 -0.048,0 -0.072,0 0,-0.012 0,-0.024 0,-0.036 -0.036,-0.012 -0.072,-0.024 -0.108,-0.036 -0.012,-0.024 -0.024,-0.048 -0.036,-0.072 -0.024,0 -0.048,0 -0.072,0 -0.024,-0.036 -0.048,-0.072 -0.072,-0.108 -0.024,0 -0.048,0 -0.072,0 -0.012,-0.024 -0.024,-0.048 -0.036,-0.072 -0.036,-0.012 -0.072,-0.024 -0.108,-0.036 0,-0.012 0,-0.024 0,-0.036 -0.024,0 -0.048,0 -0.072,0 -0.012,-0.024 -0.024,-0.048 -0.036,-0.072 -0.024,0 -0.048,0 -0.072,0 -0.012,-0.024 -0.024,-0.048 -0.036,-0.072 -0.024,0 -0.048,0 -0.072,0 -0.012,-0.024 -0.024,-0.048 -0.036,-0.072 -0.024,0 -0.048,0 -0.072,0 -0.012,-0.024 -0.024,-0.048 -0.036,-0.072 -0.024,0 -0.048,0 -0.072,0 -0.012,-0.024 -0.024,-0.048 -0.036,-0.072 -0.024,0 -0.048,0 -0.072,0 -0.012,-0.024 -0.024,-0.048 -0.036,-0.072 -0.024,0 -0.048,0 -0.072,0 -0.012,-0.024 -0.024,-0.048 -0.036,-0.072 -0.048,-0.012 -0.096,-0.024 -0.144,-0.036 -0.012,-0.024 -0.024,-0.048 -0.036,-0.072 -0.024,0 -0.048,0 -0.072,0 -0.012,-0.024 -0.024,-0.048 -0.036,-0.072 -0.048,-0.012 -0.096,-0.024 -0.144,-0.036 -0.012,-0.024 -0.024,-0.048 -0.036,-0.072 -0.048,-0.012 -0.096,-0.024 -0.144,-0.036 -0.012,-0.024 -0.024,-0.048 -0.036,-0.072 -0.048,-0.012 -0.096,-0.024 -0.144,-0.036 -0.012,-0.024 -0.024,-0.048 -0.036,-0.072 -0.048,-0.012 -0.096,-0.024 -0.144,-0.036 -0.012,-0.024 -0.024,-0.048 -0.036,-0.072 -0.072,-0.024 -0.144,-0.048 -0.216,-0.072 -0.012,-0.024 -0.024,-0.048 -0.036,-0.072 -0.024,0 -0.048,0 -0.072,0 0,-0.012 0,-0.024 0,-0.036 -0.024,0 -0.048,0 -0.072,0 l -0.072,-0.072 c -0.024,0 -0.048,0 -0.072,0 -0.012,-0.024 -0.024,-0.048 -0.036,-0.072 -0.192,-0.084 -0.384,-0.168 -0.576,-0.252 -0.012,-0.024 -0.024,-0.048 -0.036,-0.072 -0.072,-0.024 -0.144,-0.048 -0.216,-0.072 0,-0.012 0,-0.024 0,-0.036 -0.024,0 -0.048,0 -0.072,0 0,-0.012 0,-0.024 0,-0.036 -0.072,-0.024 -0.144,-0.048 -0.216,-0.072 0,-0.012 0,-0.024 0,-0.036 -0.036,0 -0.072,0 -0.108,0 0,-0.012 0,-0.024 0,-0.036 -0.024,0 -0.048,0 -0.072,0 0,-0.012 0,-0.024 0,-0.036 -0.024,0 -0.048,0 -0.072,0 0,-0.012 0,-0.024 0,-0.036 -0.024,0 -0.048,0 -0.072,0 0,-0.012 0,-0.024 0,-0.036 -0.072,-0.024 -0.144,-0.048 -0.216,-0.072 0,-0.012 0,-0.024 0,-0.036 -0.108,-0.036 -0.216,-0.072 -0.324,-0.108 0,-0.012 0,-0.024 0,-0.036 -0.024,0 -0.048,0 -0.072,0 0,-0.012 0,-0.024 0,-0.036 -0.036,0 -0.072,0 -0.108,0 0,-0.012 0,-0.024 0,-0.036 -0.024,0 -0.048,0 -0.072,0 0,-0.012 0,-0.024 0,-0.036 -0.036,0 -0.072,0 -0.108,0 0,-0.012 0,-0.024 0,-0.036 -0.048,-0.012 -0.096,-0.024 -0.144,-0.036 0,-0.012 0,-0.024 0,-0.036 -0.036,0 -0.072,0 -0.108,0 0,-0.012 0,-0.024 0,-0.036 -0.024,0 -0.048,0 -0.072,0 0,-0.012 0,-0.024 0,-0.036 -0.036,0 -0.072,0 -0.108,0 0,-0.012 0,-0.024 0,-0.036 -0.024,0 -0.048,0 -0.072,0 0,-0.012 0,-0.024 0,-0.036 -0.06,-0.012 -0.12,-0.024 -0.18,-0.036 0,-0.012 0,-0.024 0,-0.036 -0.036,0 -0.072,0 -0.108,0 0,-0.012 0,-0.024 0,-0.036 -0.024,0 -0.048,0 -0.072,0 0,-0.012 0,-0.024 0,-0.036 -0.108,-0.024 -0.216,-0.048 -0.324,-0.072 0,-0.012 0,-0.024 0,-0.036 -0.024,0 -0.048,0 -0.072,0 0,-0.012 0,-0.024 0,-0.036 -0.036,0 -0.072,0 -0.108,0 0,-0.012 0,-0.024 0,-0.036 -0.036,0 -0.072,0 -0.108,0 0,-0.012 0,-0.024 0,-0.036 -0.036,0 -0.072,0 -0.108,0 0,-0.012 0,-0.024 0,-0.036 -0.036,0 -0.072,0 -0.108,0 0,-0.012 0,-0.024 0,-0.036 -0.036,0 -0.072,0 -0.108,0 -0.589,-0.234 -1.28,-0.374 -1.908,-0.576 -0.06,0 -0.12,0 -0.18,0 0,-0.012 0,-0.024 0,-0.036 -0.048,0 -0.096,0 -0.144,0 0,-0.012 0,-0.024 0,-0.036 -0.048,0 -0.096,0 -0.144,0 0,-0.012 0,-0.024 0,-0.036 -0.06,0 -0.12,0 -0.18,0 0,-0.012 0,-0.024 0,-0.036 -0.06,0 -0.12,0 -0.18,0 0,-0.012 0,-0.024 0,-0.036 -0.12,-0.012 -0.24,-0.024 -0.36,-0.036 0,-0.012 0,-0.024 0,-0.036 -0.072,0 -0.144,0 -0.216,0 -0.365,-0.109 -0.848,-0.108 -1.224,-0.216 -0.108,0 -0.216,0 -0.324,0 0,-0.012 0,-0.024 0,-0.036 -0.108,0 -0.216,0 -0.324,0 0,-0.012 0,-0.024 0,-0.036 -0.132,0 -0.264,0 -0.396,0 -0.05,-0.008 0.013,-0.022 -0.036,-0.036 -0.156,0 -0.312,0 -0.468,0 0,-0.012 0,-0.024 0,-0.036 -0.217,-0.061 -0.58,0.024 -0.792,-0.036 -0.324,0 -0.648,0 -0.972,0 -0.331,0 -0.774,-0.04 -1.044,0.036 -0.218,0.062 -0.56,-0.019 -0.756,0.036 -0.18,0 -0.36,0 -0.54,0 0,0.012 0,0.024 0,0.036 -0.24,0.012 -0.48,0.024 -0.72,0.036 -0.66,0.096 -1.32,0.192 -1.98,0.288 -0.636,0.144 -1.272,0.288 -1.908,0.432 0,0.012 0,0.024 0,0.036 -0.084,0.012 -0.168,0.024 -0.252,0.036 0,0.012 0,0.024 0,0.036 -0.084,0.012 -0.168,0.024 -0.252,0.036 0,0.012 0,0.024 0,0.036 -0.084,0.012 -0.168,0.024 -0.252,0.036 0,0.012 0,0.024 0,0.036 -0.036,0 -0.072,0 -0.108,0 0,0.012 0,0.024 0,0.036 -0.036,0 -0.072,0 -0.108,0 0,0.012 0,0.024 0,0.036 -0.036,0 -0.072,0 -0.108,0 0,0.012 0,0.024 0,0.036 -0.048,0 -0.096,0 -0.144,0 0,0.012 0,0.024 0,0.036 -0.036,0 -0.072,0 -0.108,0 0,0.012 0,0.024 0,0.036 -0.036,0 -0.072,0 -0.108,0 0,0.012 0,0.024 0,0.036 -0.036,0 -0.072,0 -0.108,0 0,0.012 0,0.024 0,0.036 -0.036,0 -0.072,0 -0.108,0 0,0.012 0,0.024 0,0.036 -0.024,0 -0.048,0 -0.072,0 0,0.012 0,0.024 0,0.036 -0.036,0 -0.072,0 -0.108,0 0,0.012 0,0.024 0,0.036 -0.036,0 -0.072,0 -0.108,0 0,0.012 0,0.024 0,0.036 -0.036,0 -0.072,0 -0.108,0 0,0.012 0,0.024 0,0.036 -0.036,0 -0.072,0 -0.108,0 0,0.012 0,0.024 0,0.036 -0.036,0 -0.072,0 -0.108,0 0,0.012 0,0.024 0,0.036 -0.024,0 -0.048,0 -0.072,0 0,0.012 0,0.024 0,0.036 -0.036,0 -0.072,0 -0.108,0 0,0.012 0,0.024 0,0.036 -0.024,0 -0.048,0 -0.072,0 0,0.012 0,0.024 0,0.036 -0.072,0.012 -0.144,0.024 -0.216,0.036 0,0.012 0,0.024 0,0.036 -0.024,0 -0.048,0 -0.072,0 0,0.012 0,0.024 0,0.036 -0.036,0 -0.072,0 -0.108,0 0,0.012 0,0.024 0,0.036 -0.048,0.012 -0.096,0.024 -0.144,0.036 0,0.012 0,0.024 0,0.036 -0.036,0 -0.072,0 -0.108,0 0,0.012 0,0.024 0,0.036 -0.024,0 -0.048,0 -0.072,0 0,0.012 0,0.024 0,0.036 -0.036,0 -0.072,0 -0.108,0 0,0.012 0,0.024 0,0.036 -0.048,0.012 -0.096,0.024 -0.144,0.036 0,0.012 0,0.024 0,0.036 -0.036,0 -0.072,0 -0.108,0 0,0.012 0,0.024 0,0.036 -0.024,0 -0.048,0 -0.072,0 0,0.012 0,0.024 0,0.036 -0.024,0 -0.048,0 -0.072,0 0,0.012 0,0.024 0,0.036 -0.024,0 -0.048,0 -0.072,0 0,0.012 0,0.024 0,0.036 -0.036,0 -0.072,0 -0.108,0 0,0.012 0,0.024 0,0.036 -0.024,0 -0.048,0 -0.072,0 0,0.012 0,0.024 0,0.036 -0.072,0.024 -0.144,0.048 -0.216,0.072 0,0.012 0,0.024 0,0.036 -0.036,0 -0.072,0 -0.108,0 0,0.012 0,0.024 0,0.036 -0.072,0.024 -0.144,0.048 -0.216,0.072 0,0.012 0,0.024 0,0.036 -0.024,0 -0.048,0 -0.072,0 0,0.012 0,0.024 0,0.036 -0.024,0 -0.048,0 -0.072,0 0,0.012 0,0.024 0,0.036 -0.024,0 -0.048,0 -0.072,0 0,0.012 0,0.024 0,0.036 -0.024,0 -0.048,0 -0.072,0 0,0.012 0,0.024 0,0.036 -0.024,0 -0.048,0 -0.072,0 0,0.012 0,0.024 0,0.036 -0.024,0 -0.048,0 -0.072,0 l -0.072,0.072 c -0.024,0 -0.048,0 -0.072,0 -0.012,0.024 -0.024,0.048 -0.036,0.072 -0.024,0 -0.048,0 -0.072,0 l -0.072,0.072 c -0.024,0 -0.048,0 -0.072,0 0,0.012 0,0.024 0,0.036 -0.024,0 -0.048,0 -0.072,0 0,0.012 0,0.024 0,0.036 -0.024,0 -0.048,0 -0.072,0 0,0.012 0,0.024 0,0.036 -0.048,0.012 -0.096,0.024 -0.144,0.036 -0.012,0.024 -0.024,0.048 -0.036,0.072 -0.072,0.024 -0.144,0.048 -0.216,0.072 -0.012,0.024 -0.024,0.048 -0.036,0.072 -0.072,0.024 -0.144,0.048 -0.216,0.072 -0.012,0.024 -0.024,0.048 -0.036,0.072 -0.072,0.024 -0.144,0.048 -0.216,0.072 -0.012,0.024 -0.024,0.048 -0.036,0.072 -0.024,0 -0.048,0 -0.072,0 0,0.012 0,0.024 0,0.036 -0.024,0 -0.048,0 -0.072,0 0,0.012 0,0.024 0,0.036 -0.036,0.012 -0.072,0.024 -0.108,0.036 -0.012,0.024 -0.024,0.048 -0.036,0.072 -0.048,0.012 -0.096,0.024 -0.144,0.036 0,0.012 0,0.024 0,0.036 -0.036,0.012 -0.072,0.024 -0.108,0.036 -0.012,0.024 -0.024,0.048 -0.036,0.072 -0.048,0.012 -0.096,0.024 -0.144,0.036 -0.012,0.024 -0.024,0.048 -0.036,0.072 -0.024,0 -0.048,0 -0.072,0 0,0.012 0,0.024 0,0.036 -0.036,0.012 -0.072,0.024 -0.108,0.036 -0.012,0.024 -0.024,0.048 -0.036,0.072 -0.024,0 -0.048,0 -0.072,0 -0.012,0.024 -0.024,0.048 -0.036,0.072 -0.024,0 -0.048,0 -0.072,0 -0.012,0.024 -0.024,0.048 -0.036,0.072 -0.024,0 -0.048,0 -0.072,0 -0.012,0.024 -0.024,0.048 -0.036,0.072 -0.024,0 -0.048,0 -0.072,0 0,0.012 0,0.024 0,0.036 -0.036,0.012 -0.072,0.024 -0.108,0.036 -0.012,0.024 -0.024,0.048 -0.036,0.072 -0.024,0 -0.048,0 -0.072,0 -0.024,0.036 -0.048,0.072 -0.072,0.108 -0.024,0 -0.048,0 -0.072,0 -0.012,0.024 -0.024,0.048 -0.036,0.072 -0.024,0 -0.048,0 -0.072,0 -0.024,0.036 -0.048,0.072 -0.072,0.108 -0.024,0 -0.048,0 -0.072,0 -0.012,0.024 -0.024,0.048 -0.036,0.072 -0.024,0 -0.048,0 -0.072,0 -0.024,0.036 -0.048,0.072 -0.072,0.108 -0.024,0 -0.048,0 -0.072,0 -0.024,0.036 -0.048,0.072 -0.072,0.108 -0.024,0 -0.048,0 -0.072,0 -0.024,0.036 -0.048,0.072 -0.072,0.108 -0.024,0 -0.048,0 -0.072,0 -0.024,0.036 -0.048,0.072 -0.072,0.108 -0.024,0 -0.048,0 -0.072,0 -0.036,0.048 -0.072,0.096 -0.108,0.144 -0.024,0 -0.048,0 -0.072,0 -0.024,0.036 -0.048,0.072 -0.072,0.108 -0.024,0 -0.048,0 -0.072,0 -0.036,0.048 -0.072,0.096 -0.108,0.144 -0.024,0 -0.048,0 -0.072,0 -0.036,0.048 -0.072,0.096 -0.108,0.144 -0.024,0 -0.048,0 -0.072,0 -0.048,0.06 -0.096,0.12 -0.144,0.18 -0.024,0 -0.048,0 -0.072,0 -0.06,0.072 -0.12,0.144 -0.18,0.216 -0.024,0 -0.048,0 -0.072,0 -0.06,0.072 -0.12,0.144 -0.18,0.216 -0.024,0 -0.048,0 -0.072,0 -0.096,0.108 -0.192,0.216 -0.288,0.324 -0.024,0 -0.048,0 -0.072,0 -0.144,0.156 -0.288,0.312 -0.432,0.468 -0.024,0 -0.048,0 -0.072,0 -0.108,0.12 -0.216,0.24 -0.324,0.36 -0.263,0.263 -0.534,0.485 -0.756,0.792 -0.156,0.144 -0.312,0.288 -0.468,0.432 0,0.024 0,0.048 0,0.072 -0.096,0.084 -0.192,0.168 -0.288,0.252 0,0.024 0,0.048 0,0.072 -0.084,0.072 -0.168,0.144 -0.252,0.216 0,0.024 0,0.048 0,0.072 -0.084,0.072 -0.168,0.144 -0.252,0.216 0,0.024 0,0.048 0,0.072 -0.06,0.048 -0.12,0.096 -0.18,0.144 0,0.024 0,0.048 0,0.072 -0.06,0.048 -0.12,0.096 -0.18,0.144 0,0.024 0,0.048 0,0.072 -0.024,0.012 -0.048,0.024 -0.072,0.036 -0.012,0.036 -0.024,0.072 -0.036,0.108 -0.048,0.036 -0.096,0.072 -0.144,0.108 0,0.024 0,0.048 0,0.072 -0.036,0.024 -0.072,0.048 -0.108,0.072 0,0.024 0,0.048 0,0.072 -0.036,0.024 -0.072,0.048 -0.108,0.072 0,0.024 0,0.048 0,0.072 -0.036,0.024 -0.072,0.048 -0.108,0.072 -0.012,0.036 -0.024,0.072 -0.036,0.108 -0.024,0.012 -0.048,0.024 -0.072,0.036 0,0.024 0,0.048 0,0.072 -0.024,0.012 -0.048,0.024 -0.072,0.036 0,0.024 0,0.048 0,0.072 -0.036,0.024 -0.072,0.048 -0.108,0.072 0,0.024 0,0.048 0,0.072 -0.024,0.012 -0.048,0.024 -0.072,0.036 0,0.024 0,0.048 0,0.072 -0.012,0 -0.024,0 -0.036,0 -0.012,0.036 -0.024,0.072 -0.036,0.108 -0.024,0.012 -0.048,0.024 -0.072,0.036 0,0.024 0,0.048 0,0.072 -0.036,0.024 -0.072,0.048 -0.108,0.072 0,0.024 0,0.048 0,0.072 -0.024,0.012 -0.048,0.024 -0.072,0.036 -0.012,0.048 -0.024,0.096 -0.036,0.144 -0.024,0.012 -0.048,0.024 -0.072,0.036 0,0.024 0,0.048 0,0.072 -0.024,0.012 -0.048,0.024 -0.072,0.036 0,0.024 0,0.048 0,0.072 -0.024,0.012 -0.048,0.024 -0.072,0.036 0,0.024 0,0.048 0,0.072 -0.024,0.012 -0.048,0.024 -0.072,0.036 -0.012,0.048 -0.024,0.096 -0.036,0.144 -0.024,0.012 -0.048,0.024 -0.072,0.036 -0.012,0.048 -0.024,0.096 -0.036,0.144 -0.024,0.012 -0.048,0.024 -0.072,0.036 -0.012,0.048 -0.024,0.096 -0.036,0.144 -0.024,0.012 -0.048,0.024 -0.072,0.036 -0.024,0.072 -0.048,0.144 -0.072,0.216 -0.024,0.012 -0.048,0.024 -0.072,0.036 -0.024,0.072 -0.048,0.144 -0.072,0.216 -0.024,0.012 -0.048,0.024 -0.072,0.036 0,0.024 0,0.048 0,0.072 l -0.072,0.072 c 0,0.024 0,0.048 0,0.072 -0.012,0 -0.024,0 -0.036,0 0,0.024 0,0.048 0,0.072 -0.012,0 -0.024,0 -0.036,0 0,0.024 0,0.048 0,0.072 -0.012,0 -0.024,0 -0.036,0 -0.012,0.048 -0.024,0.096 -0.036,0.144 -0.024,0.012 -0.048,0.024 -0.072,0.036 0,0.024 0,0.048 0,0.072 l -0.072,0.072 c 0,0.024 0,0.048 0,0.072 -0.012,0 -0.024,0 -0.036,0 0,0.024 0,0.048 0,0.072 -0.012,0 -0.024,0 -0.036,0 0,0.024 0,0.048 0,0.072 -0.012,0 -0.024,0 -0.036,0 0,0.024 0,0.048 0,0.072 -0.012,0 -0.024,0 -0.036,0 -0.024,0.072 -0.048,0.144 -0.072,0.216 -0.012,0 -0.024,0 -0.036,0 0,0.036 0,0.072 0,0.108 -0.012,0 -0.024,0 -0.036,0 0,0.024 0,0.048 0,0.072 -0.012,0 -0.024,0 -0.036,0 0,0.024 0,0.048 0,0.072 -0.012,0 -0.024,0 -0.036,0 -0.024,0.072 -0.048,0.144 -0.072,0.216 -0.012,0 -0.024,0 -0.036,0 0,0.036 0,0.072 0,0.108 -0.012,0 -0.024,0 -0.036,0 0,0.024 0,0.048 0,0.072 -0.012,0 -0.024,0 -0.036,0 -0.012,0.048 -0.024,0.096 -0.036,0.144 -0.012,0 -0.024,0 -0.036,0 0,0.036 0,0.072 0,0.108 -0.012,0 -0.024,0 -0.036,0 -0.012,0.048 -0.024,0.096 -0.036,0.144 -0.012,0 -0.024,0 -0.036,0 0,0.036 0,0.072 0,0.108 -0.012,0 -0.024,0 -0.036,0 0,0.024 0,0.048 0,0.072 -0.012,0 -0.024,0 -0.036,0 0,0.036 0,0.072 0,0.108 -0.012,0 -0.024,0 -0.036,0 0,0.024 0,0.048 0,0.072 -0.012,0 -0.024,0 -0.036,0 0,0.036 0,0.072 0,0.108 -0.012,0 -0.024,0 -0.036,0 0,0.024 0,0.048 0,0.072 -0.012,0 -0.024,0 -0.036,0 -0.012,0.06 -0.024,0.12 -0.036,0.18 -0.012,0 -0.024,0 -0.036,0 -0.012,0.072 -0.024,0.144 -0.036,0.216 -0.012,0 -0.024,0 -0.036,0 0,0.024 0,0.048 0,0.072 -0.012,0 -0.024,0 -0.036,0 -0.024,0.108 -0.048,0.216 -0.072,0.324 -0.012,0 -0.024,0 -0.036,0 0,0.024 0,0.048 0,0.072 -0.012,0 -0.024,0 -0.036,0 -0.024,0.108 -0.048,0.216 -0.072,0.324 -0.012,0 -0.024,0 -0.036,0 0,0.036 0,0.072 0,0.108 -0.012,0 -0.024,0 -0.036,0 0,0.036 0,0.072 0,0.108 -0.012,0 -0.024,0 -0.036,0 0,0.036 0,0.072 0,0.108 -0.012,0 -0.024,0 -0.036,0 -0.024,0.12 -0.048,0.24 -0.072,0.36 -0.012,0 -0.024,0 -0.036,0 0,0.036 0,0.072 0,0.108 -0.012,0 -0.024,0 -0.036,0 0,0.048 0,0.096 0,0.144 -0.012,0 -0.024,0 -0.036,0 0,0.036 0,0.072 0,0.108 -0.012,0 -0.024,0 -0.036,0 -0.012,0.084 -0.024,0.168 -0.036,0.252 -0.012,0 -0.024,0 -0.036,0 -0.012,0.096 -0.024,0.192 -0.036,0.288 -0.012,0 -0.024,0 -0.036,0 -0.012,0.096 -0.024,0.192 -0.036,0.288 -0.172,0.505 -0.236,1.13 -0.396,1.656 0,0.072 0,0.144 0,0.216 -0.059,0.197 -0.086,0.483 -0.144,0.684 0,0.096 0,0.192 0,0.288 -0.012,0 -0.024,0 -0.036,0 0,0.084 0,0.168 0,0.252 -0.012,0 -0.024,0 -0.036,0 0,0.108 0,0.216 0,0.324 -0.012,0 -0.024,0 -0.036,0 0,0.12 0,0.24 0,0.36 -0.012,0 -0.024,0 -0.036,0 0,0.132 0,0.264 0,0.396 -0.012,0 -0.024,0 -0.036,0 -0.012,0.3 -0.024,0.6 -0.036,0.9 0,0.132 0,0.264 0,0.396 -0.076,0.273 -0.077,1.348 0,1.62 0,0.216 0,0.432 0,0.648 0.024,0.36 0.048,0.72 0.072,1.08 0.012,0 0.024,0 0.036,0 0,0.132 0,0.264 0,0.396 0.012,0 0.024,0 0.036,0 0,0.096 0,0.192 0,0.288 0.112,0.385 0.104,0.887 0.216,1.26 0.012,0.144 0.024,0.288 0.036,0.432 0.066,0.214 0.113,0.507 0.18,0.72 0,0.06 0,0.12 0,0.18 0.012,0 0.024,0 0.036,0 0.024,0.156 0.048,0.312 0.072,0.468 0.012,0 0.024,0 0.036,0 0,0.048 0,0.096 0,0.144 0.012,0 0.024,0 0.036,0 0,0.048 0,0.096 0,0.144 0.012,0 0.024,0 0.036,0 0,0.048 0,0.096 0,0.144 0.012,0 0.024,0 0.036,0 0,0.048 0,0.096 0,0.144 0.012,0 0.024,0 0.036,0 0,0.048 0,0.096 0,0.144 0.012,0 0.024,0 0.036,0 0,0.036 0,0.072 0,0.108 0.012,0 0.024,0 0.036,0 0.012,0.096 0.024,0.192 0.036,0.288 0.159,0.441 0.298,0.942 0.468,1.368 0,0.036 0,0.072 0,0.108 0.012,0 0.024,0 0.036,0 0,0.036 0,0.072 0,0.108 0.012,0 0.024,0 0.036,0 0,0.036 0,0.072 0,0.108 0.012,0 0.024,0 0.036,0 0,0.036 0,0.072 0,0.108 0.012,0 0.024,0 0.036,0 0,0.024 0,0.048 0,0.072 0.012,0 0.024,0 0.036,0 0.012,0.072 0.024,0.144 0.036,0.216 0.012,0 0.024,0 0.036,0 0,0.024 0,0.048 0,0.072 0.012,0 0.024,0 0.036,0 0.012,0.072 0.024,0.144 0.036,0.216 0.012,0 0.024,0 0.036,0 0,0.024 0,0.048 0,0.072 0.012,0 0.024,0 0.036,0 0,0.036 0,0.072 0,0.108 0.012,0 0.024,0 0.036,0 0,0.024 0,0.048 0,0.072 0.012,0 0.024,0 0.036,0 0.012,0.06 0.024,0.12 0.036,0.18 0.012,0 0.024,0 0.036,0 0,0.036 0,0.072 0,0.108 0.012,0 0.024,0 0.036,0 0,0.024 0,0.048 0,0.072 0.012,0 0.024,0 0.036,0 0,0.036 0,0.072 0,0.108 0.012,0 0.024,0 0.036,0 0.012,0.048 0.024,0.096 0.036,0.144 0.012,0 0.024,0 0.036,0 0,0.036 0,0.072 0,0.108 0.012,0 0.024,0 0.036,0 0,0.024 0,0.048 0,0.072 0.012,0 0.024,0 0.036,0 0.012,0.048 0.024,0.096 0.036,0.144 0.012,0 0.024,0 0.036,0 0,0.036 0,0.072 0,0.108 0.012,0 0.024,0 0.036,0 0,0.024 0,0.048 0,0.072 0.012,0 0.024,0 0.036,0 0,0.024 0,0.048 0,0.072 0.012,0 0.024,0 0.036,0 0,0.024 0,0.048 0,0.072 0.012,0 0.024,0 0.036,0 0,0.036 0,0.072 0,0.108 0.012,0 0.024,0 0.036,0 0,0.024 0,0.048 0,0.072 0.012,0 0.024,0 0.036,0 0.012,0.048 0.024,0.096 0.036,0.144 0.012,0 0.024,0 0.036,0 0.012,0.048 0.024,0.096 0.036,0.144 0.012,0 0.024,0 0.036,0 0.012,0.048 0.024,0.096 0.036,0.144 0.012,0 0.024,0 0.036,0 0,0.024 0,0.048 0,0.072 0.012,0 0.024,0 0.036,0 0,0.024 0,0.048 0,0.072 0.012,0 0.024,0 0.036,0 0,0.024 0,0.048 0,0.072 0.012,0 0.024,0 0.036,0 0,0.024 0,0.048 0,0.072 0.012,0 0.024,0 0.036,0 0,0.024 0,0.048 0,0.072 0.012,0 0.024,0 0.036,0 0,0.024 0,0.048 0,0.072 0.012,0 0.024,0 0.036,0 0,0.024 0,0.048 0,0.072 0.012,0 0.024,0 0.036,0 0,0.024 0,0.048 0,0.072 0.012,0 0.024,0 0.036,0 0,0.024 0,0.048 0,0.072 0.012,0 0.024,0 0.036,0 0,0.024 0,0.048 0,0.072 l 0.072,0.072 c 0,0.024 0,0.048 0,0.072 0.024,0.012 0.048,0.024 0.072,0.036 0.024,0.072 0.048,0.144 0.072,0.216 l 0.072,0.072 c 0,0.024 0,0.048 0,0.072 0.024,0.012 0.048,0.024 0.072,0.036 0.024,0.072 0.048,0.144 0.072,0.216 0.024,0.012 0.048,0.024 0.072,0.036 0.024,0.072 0.048,0.144 0.072,0.216 0.024,0.012 0.048,0.024 0.072,0.036 0.012,0.048 0.024,0.096 0.036,0.144 0.024,0.012 0.048,0.024 0.072,0.036 0,0.024 0,0.048 0,0.072 0.012,0 0.024,0 0.036,0 0,0.024 0,0.048 0,0.072 0.024,0.012 0.048,0.024 0.072,0.036 0,0.024 0,0.048 0,0.072 0.024,0.012 0.048,0.024 0.072,0.036 0.012,0.048 0.024,0.096 0.036,0.144 0.024,0.012 0.048,0.024 0.072,0.036 0,0.024 0,0.048 0,0.072 0.024,0.012 0.048,0.024 0.072,0.036 0,0.024 0,0.048 0,0.072 0.024,0.012 0.048,0.024 0.072,0.036 0.012,0.048 0.024,0.096 0.036,0.144 0.012,0 0.024,0 0.036,0 0.012,0.036 0.024,0.072 0.036,0.108 0.024,0.012 0.048,0.024 0.072,0.036 0,0.024 0,0.048 0,0.072 0.012,0 0.024,0 0.036,0 0.012,0.036 0.024,0.072 0.036,0.108 0.024,0.012 0.048,0.024 0.072,0.036 0,0.024 0,0.048 0,0.072 0.036,0.024 0.072,0.048 0.108,0.072 0,0.024 0,0.048 0,0.072 0.012,0 0.024,0 0.036,0 0.012,0.036 0.024,0.072 0.036,0.108 0.024,0.012 0.048,0.024 0.072,0.036 0,0.024 0,0.048 0,0.072 0.024,0.012 0.048,0.024 0.072,0.036 0.012,0.036 0.024,0.072 0.036,0.108 0.036,0.024 0.072,0.048 0.108,0.072 0,0.024 0,0.048 0,0.072 0.024,0.012 0.048,0.024 0.072,0.036 0,0.024 0,0.048 0,0.072 0.024,0.012 0.048,0.024 0.072,0.036 0.012,0.036 0.024,0.072 0.036,0.108 0.036,0.024 0.072,0.048 0.108,0.072 0,0.024 0,0.048 0,0.072 0.048,0.036 0.096,0.072 0.144,0.108 0,0.024 0,0.048 0,0.072 0.036,0.024 0.072,0.048 0.108,0.072 0,0.024 0,0.048 0,0.072 0.048,0.036 0.096,0.072 0.144,0.108 0,0.024 0,0.048 0,0.072 0.048,0.036 0.096,0.072 0.144,0.108 0,0.024 0,0.048 0,0.072 0.06,0.048 0.12,0.096 0.18,0.144 0,0.024 0,0.048 0,0.072 0.072,0.06 0.144,0.12 0.216,0.18 0,0.024 0,0.048 0,0.072 0.084,0.072 0.168,0.144 0.252,0.216 0,0.024 0,0.048 0,0.072 0.132,0.12 0.264,0.24 0.396,0.36 0,0.024 0,0.048 0,0.072 0.156,0.144 0.312,0.288 0.468,0.432 0.326,0.326 0.628,0.662 1.008,0.936 0.084,0.096 0.168,0.192 0.252,0.288 0.024,0 0.048,0 0.072,0 0.06,0.072 0.12,0.144 0.18,0.216 0.024,0 0.048,0 0.072,0 0.048,0.06 0.096,0.12 0.144,0.18 0.024,0 0.048,0 0.072,0 0.036,0.048 0.072,0.096 0.108,0.144 0.024,0 0.048,0 0.072,0 0.036,0.048 0.072,0.096 0.108,0.144 0.024,0 0.048,0 0.072,0 0.036,0.048 0.072,0.096 0.108,0.144 0.024,0 0.048,0 0.072,0 0.024,0.036 0.048,0.072 0.072,0.108 0.024,0 0.048,0 0.072,0 0.036,0.048 0.072,0.096 0.108,0.144 0.024,0 0.048,0 0.072,0 0.012,0.024 0.024,0.048 0.036,0.072 0.024,0 0.048,0 0.072,0 0.024,0.036 0.048,0.072 0.072,0.108 0.024,0 0.048,0 0.072,0 0.012,0.024 0.024,0.048 0.036,0.072 0.024,0 0.048,0 0.072,0 0.024,0.036 0.048,0.072 0.072,0.108 0.024,0 0.048,0 0.072,0 0.012,0.024 0.024,0.048 0.036,0.072 0.024,0 0.048,0 0.072,0 0.024,0.036 0.048,0.072 0.072,0.108 0.024,0 0.048,0 0.072,0 0.012,0.024 0.024,0.048 0.036,0.072 0.024,0 0.048,0 0.072,0 0.024,0.036 0.048,0.072 0.072,0.108 0.024,0 0.048,0 0.072,0 0.012,0.024 0.024,0.048 0.036,0.072 0.024,0 0.048,0 0.072,0 0.012,0.024 0.024,0.048 0.036,0.072 0.024,0 0.048,0 0.072,0 0.012,0.024 0.024,0.048 0.036,0.072 0.024,0 0.048,0 0.072,0 0.012,0.024 0.024,0.048 0.036,0.072 0.048,0.012 0.096,0.024 0.144,0.036 0.012,0.024 0.024,0.048 0.036,0.072 0.024,0 0.048,0 0.072,0 0.012,0.024 0.024,0.048 0.036,0.072 0.024,0 0.048,0 0.072,0 0.012,0.024 0.024,0.048 0.036,0.072 0.024,0 0.048,0 0.072,0 0,0.012 0,0.024 0,0.036 0.024,0 0.048,0 0.072,0 0.012,0.024 0.024,0.048 0.036,0.072 0.048,0.012 0.096,0.024 0.144,0.036 0.012,0.024 0.024,0.048 0.036,0.072 0.036,0.012 0.072,0.024 0.108,0.036 0,0.012 0,0.024 0,0.036 0.072,0.024 0.144,0.048 0.216,0.072 0.012,0.024 0.024,0.048 0.036,0.072 0.048,0.012 0.096,0.024 0.144,0.036 0.012,0.024 0.024,0.048 0.036,0.072 0.072,0.024 0.144,0.048 0.216,0.072 0.012,0.024 0.024,0.048 0.036,0.072 0.024,0 0.048,0 0.072,0 0,0.012 0,0.024 0,0.036 0.024,0 0.048,0 0.072,0 0,0.012 0,0.024 0,0.036 0.024,0 0.048,0 0.072,0 l 0.072,0.072 c 0.024,0 0.048,0 0.072,0 0.012,0.024 0.024,0.048 0.036,0.072 0.048,0.012 0.096,0.024 0.144,0.036 l 0.072,0.072 c 0.024,0 0.048,0 0.072,0 0,0.012 0,0.024 0,0.036 0.024,0 0.048,0 0.072,0 0,0.012 0,0.024 0,0.036 0.024,0 0.048,0 0.072,0 0,0.012 0,0.024 0,0.036 0.024,0 0.048,0 0.072,0 0,0.012 0,0.024 0,0.036 0.048,0.012 0.096,0.024 0.144,0.036 0,0.012 0,0.024 0,0.036 0.048,0.012 0.096,0.024 0.144,0.036 0,0.012 0,0.024 0,0.036 0.048,0.012 0.096,0.024 0.144,0.036 0,0.012 0,0.024 0,0.036 0.048,0.012 0.096,0.024 0.144,0.036 0,0.012 0,0.024 0,0.036 0.024,0 0.048,0 0.072,0 0,0.012 0,0.024 0,0.036 0.024,0 0.048,0 0.072,0 0,0.012 0,0.024 0,0.036 0.024,0 0.048,0 0.072,0 0,0.012 0,0.024 0,0.036 0.024,0 0.048,0 0.072,0 0,0.012 0,0.024 0,0.036 0.048,0.012 0.096,0.024 0.144,0.036 0,0.012 0,0.024 0,0.036 0.024,0 0.048,0 0.072,0 0,0.012 0,0.024 0,0.036 0.036,0 0.072,0 0.108,0 0,0.012 0,0.024 0,0.036 0.024,0 0.048,0 0.072,0 0,0.012 0,0.024 0,0.036 0.072,0.024 0.144,0.048 0.216,0.072 0,0.012 0,0.024 0,0.036 0.036,0 0.072,0 0.108,0 0,0.012 0,0.024 0,0.036 0.024,0 0.048,0 0.072,0 0,0.012 0,0.024 0,0.036 0.048,0.012 0.096,0.024 0.144,0.036 0,0.012 0,0.024 0,0.036 0.036,0 0.072,0 0.108,0 0,0.012 0,0.024 0,0.036 0.024,0 0.048,0 0.072,0 0,0.012 0,0.024 0,0.036 0.036,0 0.072,0 0.108,0 0,0.012 0,0.024 0,0.036 0.048,0.012 0.096,0.024 0.144,0.036 0,0.012 0,0.024 0,0.036 0.036,0 0.072,0 0.108,0 0,0.012 0,0.024 0,0.036 0.048,0.012 0.096,0.024 0.144,0.036 0,0.012 0,0.024 0,0.036 0.036,0 0.072,0 0.108,0 0,0.012 0,0.024 0,0.036 0.024,0 0.048,0 0.072,0 0,0.012 0,0.024 0,0.036 0.072,0.012 0.144,0.024 0.216,0.036 0,0.012 0,0.024 0,0.036 0.06,0.012 0.12,0.024 0.18,0.036 0,0.012 0,0.024 0,0.036 0.024,0 0.048,0 0.072,0 0,0.012 0,0.024 0,0.036 0.036,0 0.072,0 0.108,0 0,0.012 0,0.024 0,0.036 0.024,0 0.048,0 0.072,0 0,0.012 0,0.024 0,0.036 0.036,0 0.072,0 0.108,0 0,0.012 0,0.024 0,0.036 0.036,0 0.072,0 0.108,0 0,0.012 0,0.024 0,0.036 0.036,0 0.072,0 0.108,0 0,0.012 0,0.024 0,0.036 0.036,0 0.072,0 0.108,0 0,0.012 0,0.024 0,0.036 0.024,0 0.048,0 0.072,0 0,0.012 0,0.024 0,0.036 0.036,0 0.072,0 0.108,0 0,0.012 0,0.024 0,0.036 0.036,0 0.072,0 0.108,0 0,0.012 0,0.024 0,0.036 0.036,0 0.072,0 0.108,0 0,0.012 0,0.024 0,0.036 0.036,0 0.072,0 0.108,0 0,0.012 0,0.024 0,0.036 0.036,0 0.072,0 0.108,0 0,0.012 0,0.024 0,0.036 0.072,0.012 0.144,0.024 0.216,0.036 0,0.012 0,0.024 0,0.036 0.024,0 0.048,0 0.072,0 0,0.012 0,0.024 0,0.036 0.036,0 0.072,0 0.108,0 0,0.012 0,0.024 0,0.036 0.048,0 0.096,0 0.144,0 0.189,0.068 0.396,0.171 0.612,0.216 0.756,2.34 1.512,4.68 2.268,7.02 -0.036,0.024 -0.072,0.048 -0.108,0.072 0,0.012 0,0.024 0,0.036 -0.024,0 -0.048,0 -0.072,0 -0.024,0.036 -0.048,0.072 -0.072,0.108 -0.024,0 -0.048,0 -0.072,0 -0.012,0.024 -0.024,0.048 -0.036,0.072 -0.024,0 -0.048,0 -0.072,0 -0.012,0.024 -0.024,0.048 -0.036,0.072 -0.036,0.012 -0.072,0.024 -0.108,0.036 -0.024,0.036 -0.048,0.072 -0.072,0.108 -0.024,0 -0.048,0 -0.072,0 -0.024,0.036 -0.048,0.072 -0.072,0.108 -0.036,0.012 -0.072,0.024 -0.108,0.036 -0.012,0.024 -0.024,0.048 -0.036,0.072 -0.024,0 -0.048,0 -0.072,0 -0.012,0.024 -0.024,0.048 -0.036,0.072 -0.024,0 -0.048,0 -0.072,0 -0.012,0.024 -0.024,0.048 -0.036,0.072 -0.036,0.012 -0.072,0.024 -0.108,0.036 -0.024,0.036 -0.048,0.072 -0.072,0.108 -0.024,0 -0.048,0 -0.072,0 -0.024,0.036 -0.048,0.072 -0.072,0.108 -0.036,0.012 -0.072,0.024 -0.108,0.036 -0.012,0.024 -0.024,0.048 -0.036,0.072 -0.024,0 -0.048,0 -0.072,0 -0.012,0.024 -0.024,0.048 -0.036,0.072 -0.024,0 -0.048,0 -0.072,0 -0.012,0.024 -0.024,0.048 -0.036,0.072 -0.036,0.012 -0.072,0.024 -0.108,0.036 -0.024,0.036 -0.048,0.072 -0.072,0.108 -0.024,0 -0.048,0 -0.072,0 -0.024,0.036 -0.048,0.072 -0.072,0.108 -0.024,0 -0.048,0 -0.072,0 -0.024,0.036 -0.048,0.072 -0.072,0.108 -0.024,0 -0.048,0 -0.072,0 -0.024,0.036 -0.048,0.072 -0.072,0.108 -0.024,0 -0.048,0 -0.072,0 -0.012,0.024 -0.024,0.048 -0.036,0.072 -0.024,0 -0.048,0 -0.072,0 -0.024,0.036 -0.048,0.072 -0.072,0.108 -0.024,0 -0.048,0 -0.072,0 -0.024,0.036 -0.048,0.072 -0.072,0.108 -0.024,0 -0.048,0 -0.072,0 -0.024,0.036 -0.048,0.072 -0.072,0.108 -0.024,0 -0.048,0 -0.072,0 -0.024,0.036 -0.048,0.072 -0.072,0.108 -0.024,0 -0.048,0 -0.072,0 -0.012,0.024 -0.024,0.048 -0.036,0.072 -0.024,0 -0.048,0 -0.072,0 -0.024,0.036 -0.048,0.072 -0.072,0.108 -0.024,0 -0.048,0 -0.072,0 -0.024,0.036 -0.048,0.072 -0.072,0.108 -0.024,0 -0.048,0 -0.072,0 -0.024,0.036 -0.048,0.072 -0.072,0.108 -0.024,0 -0.048,0 -0.072,0 -0.024,0.036 -0.048,0.072 -0.072,0.108 -0.024,0 -0.048,0 -0.072,0 -0.012,0.024 -0.024,0.048 -0.036,0.072 -0.024,0 -0.048,0 -0.072,0 -0.024,0.036 -0.048,0.072 -0.072,0.108 -0.024,0 -0.048,0 -0.072,0 -0.024,0.036 -0.048,0.072 -0.072,0.108 -0.024,0 -0.048,0 -0.072,0 -0.024,0.036 -0.048,0.072 -0.072,0.108 -0.024,0 -0.048,0 -0.072,0 -0.024,0.036 -0.048,0.072 -0.072,0.108 -0.024,0 -0.048,0 -0.072,0 -0.012,0.024 -0.024,0.048 -0.036,0.072 -0.024,0 -0.048,0 -0.072,0 -0.012,0.024 -0.024,0.048 -0.036,0.072 -0.036,0.012 -0.072,0.024 -0.108,0.036 -0.024,0.036 -0.048,0.072 -0.072,0.108 -0.024,0 -0.048,0 -0.072,0 -0.024,0.036 -0.048,0.072 -0.072,0.108 -0.036,0.012 -0.072,0.024 -0.108,0.036 -0.012,0.024 -0.024,0.048 -0.036,0.072 -0.024,0 -0.048,0 -0.072,0 -0.012,0.024 -0.024,0.048 -0.036,0.072 -0.024,0 -0.048,0 -0.072,0 -0.024,0.036 -0.048,0.072 -0.072,0.108 -0.024,0 -0.048,0 -0.072,0 -0.024,0.036 -0.048,0.072 -0.072,0.108 -0.024,0 -0.048,0 -0.072,0 -0.024,0.036 -0.048,0.072 -0.072,0.108 -0.024,0 -0.048,0 -0.072,0 -0.024,0.036 -0.048,0.072 -0.072,0.108 -0.024,0 -0.048,0 -0.072,0 -0.024,0.036 -0.048,0.072 -0.072,0.108 -0.024,0 -0.048,0 -0.072,0 -0.012,0.024 -0.024,0.048 -0.036,0.072 -0.024,0 -0.048,0 -0.072,0 -0.024,0.036 -0.048,0.072 -0.072,0.108 -0.024,0 -0.048,0 -0.072,0 -0.024,0.036 -0.048,0.072 -0.072,0.108 -0.024,0 -0.048,0 -0.072,0 -0.024,0.036 -0.048,0.072 -0.072,0.108 -0.082,0.058 -0.155,0.069 -0.216,0.144 2.796,0 5.592,0 8.388,0 0,0.012 0,0.024 0,0.036 0.012,0 0.024,0 0.036,0 0.013,0.215 0.147,0.476 0.216,0.648 0.024,0.108 0.048,0.216 0.072,0.324 0.012,0 0.024,0 0.036,0 0.012,0.072 0.024,0.144 0.036,0.216 0.012,0 0.024,0 0.036,0 0,0.036 0,0.072 0,0.108 0.012,0 0.024,0 0.036,0 0,0.036 0,0.072 0,0.108 0.012,0 0.024,0 0.036,0 0,0.036 0,0.072 0,0.108 0.012,0 0.024,0 0.036,0 0,0.036 0,0.072 0,0.108 0.012,0 0.024,0 0.036,0 0,0.036 0,0.072 0,0.108 0.012,0 0.024,0 0.036,0 0.012,0.072 0.024,0.144 0.036,0.216 0.012,0 0.024,0 0.036,0 0,0.036 0,0.072 0,0.108 0.012,0 0.024,0 0.036,0 0,0.036 0,0.072 0,0.108 0.012,0 0.024,0 0.036,0 0,0.036 0,0.072 0,0.108 0.012,0 0.024,0 0.036,0 0,0.036 0,0.072 0,0.108 0.012,0 0.024,0 0.036,0 0,0.036 0,0.072 0,0.108 0.012,0 0.024,0 0.036,0 0,0.036 0,0.072 0,0.108 0.012,0 0.024,0 0.036,0 0.012,0.072 0.024,0.144 0.036,0.216 0.39,0.972 0.655,2.051 1.044,3.024 0.024,0.108 0.048,0.216 0.072,0.324 0.15,0.375 0.283,0.813 0.432,1.188 0,0.036 0,0.072 0,0.108 0.012,0 0.024,0 0.036,0 0,0.036 0,0.072 0,0.108 0.012,0 0.024,0 0.036,0 0,0.036 0,0.072 0,0.108 0.012,0 0.024,0 0.036,0 0,0.036 0,0.072 0,0.108 0.012,0 0.024,0 0.036,0 0.012,0.06 0.024,0.12 0.036,0.18 0.012,0 0.024,0 0.036,0 0.864,-2.652 1.728,-5.304 2.592,-7.956 2.808,-0.012 5.616,-0.024 8.424,-0.036 0,-0.012 0,-0.024 0,-0.036 -0.024,0 -0.048,0 -0.072,0 -0.076,-0.121 -0.175,-0.136 -0.288,-0.216 -0.024,-0.036 -0.048,-0.072 -0.072,-0.108 -0.024,0 -0.048,0 -0.072,0 -0.012,-0.024 -0.024,-0.048 -0.036,-0.072 -0.024,0 -0.048,0 -0.072,0 -0.024,-0.036 -0.048,-0.072 -0.072,-0.108 -0.024,0 -0.048,0 -0.072,0 -0.024,-0.036 -0.048,-0.072 -0.072,-0.108 -0.024,0 -0.048,0 -0.072,0 -0.024,-0.036 -0.048,-0.072 -0.072,-0.108 -0.024,0 -0.048,0 -0.072,0 -0.012,-0.024 -0.024,-0.048 -0.036,-0.072 -0.024,0 -0.048,0 -0.072,0 -0.024,-0.036 -0.048,-0.072 -0.072,-0.108 -0.024,0 -0.048,0 -0.072,0 -0.024,-0.036 -0.048,-0.072 -0.072,-0.108 -0.024,0 -0.048,0 -0.072,0 -0.024,-0.036 -0.048,-0.072 -0.072,-0.108 -0.024,0 -0.048,0 -0.072,0 -0.012,-0.024 -0.024,-0.048 -0.036,-0.072 -0.024,0 -0.048,0 -0.072,0 -0.024,-0.036 -0.048,-0.072 -0.072,-0.108 -0.024,0 -0.048,0 -0.072,0 -0.024,-0.036 -0.048,-0.072 -0.072,-0.108 -0.024,0 -0.048,0 -0.072,0 -0.024,-0.036 -0.048,-0.072 -0.072,-0.108 -0.024,0 -0.048,0 -0.072,0 -0.012,-0.024 -0.024,-0.048 -0.036,-0.072 -0.024,0 -0.048,0 -0.072,0 -0.024,-0.036 -0.048,-0.072 -0.072,-0.108 -0.024,0 -0.048,0 -0.072,0 -0.024,-0.036 -0.048,-0.072 -0.072,-0.108 -0.024,0 -0.048,0 -0.072,0 -0.024,-0.036 -0.048,-0.072 -0.072,-0.108 -0.024,0 -0.048,0 -0.072,0 -0.012,-0.024 -0.024,-0.048 -0.036,-0.072 -0.024,0 -0.048,0 -0.072,0 -0.024,-0.036 -0.048,-0.072 -0.072,-0.108 -0.024,0 -0.048,0 -0.072,0 -0.024,-0.036 -0.048,-0.072 -0.072,-0.108 -0.024,0 -0.048,0 -0.072,0 -0.024,-0.036 -0.048,-0.072 -0.072,-0.108 -0.024,0 -0.048,0 -0.072,0 -0.012,-0.024 -0.024,-0.048 -0.036,-0.072 -0.024,0 -0.048,0 -0.072,0 -0.024,-0.036 -0.048,-0.072 -0.072,-0.108 -0.024,0 -0.048,0 -0.072,0 -0.024,-0.036 -0.048,-0.072 -0.072,-0.108 -0.024,0 -0.048,0 -0.072,0 -0.024,-0.036 -0.048,-0.072 -0.072,-0.108 -0.024,0 -0.048,0 -0.072,0 -0.012,-0.024 -0.024,-0.048 -0.036,-0.072 -0.024,0 -0.048,0 -0.072,0 -0.024,-0.036 -0.048,-0.072 -0.072,-0.108 -0.024,0 -0.048,0 -0.072,0 -0.024,-0.036 -0.048,-0.072 -0.072,-0.108 -0.024,0 -0.048,0 -0.072,0 -0.024,-0.036 -0.048,-0.072 -0.072,-0.108 -0.024,0 -0.048,0 -0.072,0 -0.012,-0.024 -0.024,-0.048 -0.036,-0.072 -0.024,0 -0.048,0 -0.072,0 -0.024,-0.036 -0.048,-0.072 -0.072,-0.108 -0.024,0 -0.048,0 -0.072,0 -0.024,-0.036 -0.048,-0.072 -0.072,-0.108 -0.036,-0.012 -0.072,-0.024 -0.108,-0.036 -0.012,-0.024 -0.024,-0.048 -0.036,-0.072 -0.024,0 -0.048,0 -0.072,0 -0.012,-0.024 -0.024,-0.048 -0.036,-0.072 -0.024,0 -0.048,0 -0.072,0 -0.012,-0.024 -0.024,-0.048 -0.036,-0.072 -0.036,-0.012 -0.072,-0.024 -0.108,-0.036 -0.024,-0.036 -0.048,-0.072 -0.072,-0.108 -0.024,0 -0.048,0 -0.072,0 -0.024,-0.036 -0.048,-0.072 -0.072,-0.108 -0.036,-0.012 -0.072,-0.024 -0.108,-0.036 -0.012,-0.024 -0.024,-0.048 -0.036,-0.072 -0.024,0 -0.048,0 -0.072,0 -0.012,-0.024 -0.024,-0.048 -0.036,-0.072 -0.024,0 -0.048,0 -0.072,0 -0.024,-0.036 -0.048,-0.072 -0.072,-0.108 -0.024,0 -0.048,0 -0.072,0 -0.024,-0.036 -0.048,-0.072 -0.072,-0.108 -0.036,-0.012 -0.072,-0.024 -0.108,-0.036 -0.012,-0.024 -0.024,-0.048 -0.036,-0.072 -0.024,0 -0.048,0 -0.072,0 -0.012,-0.024 -0.024,-0.048 -0.036,-0.072 -0.024,0 -0.048,0 -0.072,0 -0.012,-0.024 -0.024,-0.048 -0.036,-0.072 -0.036,-0.012 -0.072,-0.024 -0.108,-0.036 -0.024,-0.036 -0.048,-0.072 -0.072,-0.108 -0.024,0 -0.048,0 -0.072,0 -0.024,-0.036 -0.048,-0.072 -0.072,-0.108 -0.127,-0.088 -0.242,-0.079 -0.288,-0.252 0.105,-0.115 0.115,-0.377 0.18,-0.54 0.139,-0.346 0.257,-0.769 0.396,-1.116 0.024,-0.108 0.048,-0.216 0.072,-0.324 0.355,-0.887 0.583,-1.888 0.936,-2.772 0.024,-0.12 0.048,-0.24 0.072,-0.36 0.012,0 0.024,0 0.036,0 0.012,-0.072 0.024,-0.144 0.036,-0.216 0.012,0 0.024,0 0.036,0 0,-0.036 0,-0.072 0,-0.108 0.012,0 0.024,0 0.036,0 0,-0.036 0,-0.072 0,-0.108 0.012,0 0.024,0 0.036,0 0,-0.036 0,-0.072 0,-0.108 0.012,0 0.024,0 0.036,0 0,-0.036 0,-0.072 0,-0.108 0.012,0 0.024,0 0.036,0 0,-0.036 0,-0.072 0,-0.108 0.012,0 0.024,0 0.036,0 0.012,-0.072 0.024,-0.144 0.036,-0.216 0.012,0 0.024,0 0.036,0 0.012,-0.084 0.024,-0.168 0.036,-0.252 0.068,-0.189 0.171,-0.395 0.216,-0.612 0.294,-0.004 0.603,-0.134 0.828,-0.216 0.048,0 0.096,0 0.144,0 0,-0.012 0,-0.024 0,-0.036 0.036,0 0.072,0 0.108,0 0,-0.012 0,-0.024 0,-0.036 0.048,0 0.096,0 0.144,0 0,-0.012 0,-0.024 0,-0.036 0.036,0 0.072,0 0.108,0 0,-0.012 0,-0.024 0,-0.036 0.036,0 0.072,0 0.108,0 0,-0.012 0,-0.024 0,-0.036 0.036,0 0.072,0 0.108,0 0,-0.012 0,-0.024 0,-0.036 0.036,0 0.072,0 0.108,0 0,-0.012 0,-0.024 0,-0.036 0.036,0 0.072,0 0.108,0 0,-0.012 0,-0.024 0,-0.036 0.072,-0.012 0.144,-0.024 0.216,-0.036 0,-0.012 0,-0.024 0,-0.036 0.024,0 0.048,0 0.072,0 0,-0.012 0,-0.024 0,-0.036 0.108,-0.024 0.216,-0.048 0.324,-0.072 0,-0.012 0,-0.024 0,-0.036 0.024,0 0.048,0 0.072,0 0,-0.012 0,-0.024 0,-0.036 0.072,-0.012 0.144,-0.024 0.216,-0.036 0,-0.012 0,-0.024 0,-0.036 0.024,0 0.048,0 0.072,0 0,-0.012 0,-0.024 0,-0.036 0.036,0 0.072,0 0.108,0 0,-0.012 0,-0.024 0,-0.036 0.06,-0.012 0.12,-0.024 0.18,-0.036 0,-0.012 0,-0.024 0,-0.036 0.048,-0.012 0.096,-0.024 0.144,-0.036 0,-0.012 0,-0.024 0,-0.036 0.036,0 0.072,0 0.108,0 0,-0.012 0,-0.024 0,-0.036 0.024,0 0.048,0 0.072,0 0,-0.012 0,-0.024 0,-0.036 0.036,0 0.072,0 0.108,0 0,-0.012 0,-0.024 0,-0.036 0.048,-0.012 0.096,-0.024 0.144,-0.036 0,-0.012 0,-0.024 0,-0.036 0.024,0 0.048,0 0.072,0 0,-0.012 0,-0.024 0,-0.036 0.036,0 0.072,0 0.108,0 0,-0.012 0,-0.024 0,-0.036 0.024,0 0.048,0 0.072,0 0,-0.012 0,-0.024 0,-0.036 0.072,-0.024 0.144,-0.048 0.216,-0.072 0,-0.012 0,-0.024 0,-0.036 0.036,0 0.072,0 0.108,0 0,-0.012 0,-0.024 0,-0.036 0.024,0 0.048,0 0.072,0 0,-0.012 0,-0.024 0,-0.036 0.048,-0.012 0.096,-0.024 0.144,-0.036 0,-0.012 0,-0.024 0,-0.036 0.048,-0.012 0.096,-0.024 0.144,-0.036 0,-0.012 0,-0.024 0,-0.036 0.048,-0.012 0.096,-0.024 0.144,-0.036 0,-0.012 0,-0.024 0,-0.036 0.024,0 0.048,0 0.072,0 0,-0.012 0,-0.024 0,-0.036 0.024,0 0.048,0 0.072,0 0,-0.012 0,-0.024 0,-0.036 0.024,0 0.048,0 0.072,0 0,-0.012 0,-0.024 0,-0.036 0.024,0 0.048,0 0.072,0 0,-0.012 0,-0.024 0,-0.036 0.024,0 0.048,0 0.072,0 0,-0.012 0,-0.024 0,-0.036 0.192,-0.084 0.384,-0.168 0.576,-0.252 0.012,-0.024 0.024,-0.048 0.036,-0.072 0.024,0 0.048,0 0.072,0 0,-0.012 0,-0.024 0,-0.036 0.024,0 0.048,0 0.072,0 l 0.072,-0.072 c 0.024,0 0.048,0 0.072,0 0.012,-0.024 0.024,-0.048 0.036,-0.072 0.024,0 0.048,0 0.072,0 0,-0.012 0,-0.024 0,-0.036 0.024,0 0.048,0 0.072,0 l 0.072,-0.072 c 0.024,0 0.048,0 0.072,0 0.012,-0.024 0.024,-0.048 0.036,-0.072 0.048,-0.012 0.096,-0.024 0.144,-0.036 0.012,-0.024 0.024,-0.048 0.036,-0.072 0.048,-0.012 0.096,-0.024 0.144,-0.036 0.012,-0.024 0.024,-0.048 0.036,-0.072 0.048,-0.012 0.096,-0.024 0.144,-0.036 0.012,-0.024 0.024,-0.048 0.036,-0.072 0.048,-0.012 0.096,-0.024 0.144,-0.036 0,-0.012 0,-0.024 0,-0.036 0.036,-0.012 0.072,-0.024 0.108,-0.036 0.012,-0.024 0.024,-0.048 0.036,-0.072 0.048,-0.012 0.096,-0.024 0.144,-0.036 0.012,-0.024 0.024,-0.048 0.036,-0.072 0.024,0 0.048,0 0.072,0 0.012,-0.024 0.024,-0.048 0.036,-0.072 0.024,0 0.048,0 0.072,0 0.012,-0.024 0.024,-0.048 0.036,-0.072 0.024,0 0.048,0 0.072,0 0.012,-0.024 0.024,-0.048 0.036,-0.072 0.048,-0.012 0.096,-0.024 0.144,-0.036 0.012,-0.024 0.024,-0.048 0.036,-0.072 0.024,0 0.048,0 0.072,0 0.024,-0.036 0.048,-0.072 0.072,-0.108 0.024,0 0.048,0 0.072,0 0.012,-0.024 0.024,-0.048 0.036,-0.072 0.036,-0.012 0.072,-0.024 0.108,-0.036 0,-0.012 0,-0.024 0,-0.036 0.024,0 0.048,0 0.072,0 0.012,-0.024 0.024,-0.048 0.036,-0.072 0.024,0 0.048,0 0.072,0 0.012,-0.024 0.024,-0.048 0.036,-0.072 0.024,0 0.048,0 0.072,0 0.024,-0.036 0.048,-0.072 0.072,-0.108 0.024,0 0.048,0 0.072,0 0.024,-0.036 0.048,-0.072 0.072,-0.108 0.024,0 0.048,0 0.072,0 0.012,-0.024 0.024,-0.048 0.036,-0.072 0.024,0 0.048,0 0.072,0 0.024,-0.036 0.048,-0.072 0.072,-0.108 0.024,0 0.048,0 0.072,0 0.024,-0.036 0.048,-0.072 0.072,-0.108 0.024,0 0.048,0 0.072,0 0.024,-0.036 0.048,-0.072 0.072,-0.108 0.024,0 0.048,0 0.072,0 0.036,-0.048 0.072,-0.096 0.108,-0.144 0.024,0 0.048,0 0.072,0 0.024,-0.036 0.048,-0.072 0.072,-0.108 0.024,0 0.048,0 0.072,0 0.036,-0.048 0.072,-0.096 0.108,-0.144 0.024,0 0.048,0 0.072,0 0.036,-0.048 0.072,-0.096 0.108,-0.144 0.024,0 0.048,0 0.072,0 0.048,-0.06 0.096,-0.12 0.144,-0.18 0.024,0 0.048,0 0.072,0 0.048,-0.06 0.096,-0.12 0.144,-0.18 0.024,0 0.048,0 0.072,0 0.06,-0.072 0.12,-0.144 0.18,-0.216 0.024,0 0.048,0 0.072,0 0.084,-0.096 0.168,-0.192 0.252,-0.288 0.024,0 0.048,0 0.072,0 0.12,-0.132 0.24,-0.264 0.36,-0.396 0.024,0 0.048,0 0.072,0 0.144,-0.156 0.288,-0.312 0.432,-0.468 0.297,-0.297 0.614,-0.554 0.864,-0.9 0.144,-0.132 0.288,-0.264 0.432,-0.396 0,-0.024 0,-0.048 0,-0.072 0.084,-0.072 0.168,-0.144 0.252,-0.216 0,-0.024 0,-0.048 0,-0.072 0.06,-0.048 0.12,-0.096 0.18,-0.144 0,-0.024 0,-0.048 0,-0.072 0.024,-0.012 0.048,-0.024 0.072,-0.036 0.024,-0.036 0.048,-0.072 0.072,-0.108 0.012,0 0.024,0 0.036,0 0,-0.024 0,-0.048 0,-0.072 0.06,-0.048 0.12,-0.096 0.18,-0.144 0,-0.024 0,-0.048 0,-0.072 0.048,-0.036 0.096,-0.072 0.144,-0.108 0,-0.024 0,-0.048 0,-0.072 0.036,-0.024 0.072,-0.048 0.108,-0.072 0,-0.024 0,-0.048 0,-0.072 0.036,-0.024 0.072,-0.048 0.108,-0.072 0,-0.024 0,-0.048 0,-0.072 0.036,-0.024 0.072,-0.048 0.108,-0.072 0,-0.024 0,-0.048 0,-0.072 0.048,-0.036 0.096,-0.072 0.144,-0.108 0,-0.024 0,-0.048 0,-0.072 0.024,-0.012 0.048,-0.024 0.072,-0.036 0,-0.024 0,-0.048 0,-0.072 0.036,-0.024 0.072,-0.048 0.108,-0.072 0,-0.024 0,-0.048 0,-0.072 0.024,-0.012 0.048,-0.024 0.072,-0.036 0,-0.024 0,-0.048 0,-0.072 0.036,-0.024 0.072,-0.048 0.108,-0.072 0,-0.024 0,-0.048 0,-0.072 0.024,-0.012 0.048,-0.024 0.072,-0.036 0.012,-0.036 0.024,-0.072 0.036,-0.108 0.012,0 0.024,0 0.036,0 0,-0.024 0,-0.048 0,-0.072 0.024,-0.012 0.048,-0.024 0.072,-0.036 0,-0.024 0,-0.048 0,-0.072 0.024,-0.012 0.048,-0.024 0.072,-0.036 0,-0.024 0,-0.048 0,-0.072 0.024,-0.012 0.048,-0.024 0.072,-0.036 0,-0.024 0,-0.048 0,-0.072 0.024,-0.012 0.048,-0.024 0.072,-0.036 0,-0.024 0,-0.048 0,-0.072 0.024,-0.012 0.048,-0.024 0.072,-0.036 0.012,-0.048 0.024,-0.096 0.036,-0.144 0.012,0 0.024,0 0.036,0 0.012,-0.036 0.024,-0.072 0.036,-0.108 0.024,-0.012 0.048,-0.024 0.072,-0.036 0,-0.024 0,-0.048 0,-0.072 0.012,0 0.024,0 0.036,0 0,-0.024 0,-0.048 0,-0.072 0.024,-0.012 0.048,-0.024 0.072,-0.036 0.012,-0.048 0.024,-0.096 0.036,-0.144 0.024,-0.012 0.048,-0.024 0.072,-0.036 0.012,-0.048 0.024,-0.096 0.036,-0.144 0.024,-0.012 0.048,-0.024 0.072,-0.036 0.012,-0.048 0.024,-0.096 0.036,-0.144 0.024,-0.012 0.048,-0.024 0.072,-0.036 0,-0.024 0,-0.048 0,-0.072 0.012,0 0.024,0 0.036,0 0,-0.024 0,-0.048 0,-0.072 l 0.072,-0.072 c 0,-0.024 0,-0.048 0,-0.072 0.024,-0.012 0.048,-0.024 0.072,-0.036 0,-0.024 0,-0.048 0,-0.072 l 0.072,-0.072 c 0,-0.024 0,-0.048 0,-0.072 0.012,0 0.024,0 0.036,0 0,-0.024 0,-0.048 0,-0.072 0.012,0 0.024,0 0.036,0 0.012,-0.048 0.024,-0.096 0.036,-0.144 0.024,-0.012 0.048,-0.024 0.072,-0.036 0,-0.024 0,-0.048 0,-0.072 l 0.072,-0.072 c 0,-0.024 0,-0.048 0,-0.072 0.012,0 0.024,0 0.036,0 0,-0.024 0,-0.048 0,-0.072 0.012,0 0.024,0 0.036,0 0,-0.024 0,-0.048 0,-0.072 0.012,0 0.024,0 0.036,0 0,-0.024 0,-0.048 0,-0.072 0.012,0 0.024,0 0.036,0 0,-0.024 0,-0.048 0,-0.072 0.012,0 0.024,0 0.036,0 0,-0.024 0,-0.048 0,-0.072 0.012,0 0.024,0 0.036,0 0,-0.024 0,-0.048 0,-0.072 0.012,0 0.024,0 0.036,0 0.024,-0.072 0.048,-0.144 0.072,-0.216 0.012,0 0.024,0 0.036,0 0,-0.036 0,-0.072 0,-0.108 0.012,0 0.024,0 0.036,0 0,-0.024 0,-0.048 0,-0.072 0.012,0 0.024,0 0.036,0 0,-0.024 0,-0.048 0,-0.072 0.012,0 0.024,0 0.036,0 0.024,-0.072 0.048,-0.144 0.072,-0.216 0.012,0 0.024,0 0.036,0 0,-0.036 0,-0.072 0,-0.108 0.012,0 0.024,0 0.036,0 0,-0.024 0,-0.048 0,-0.072 0.012,0 0.024,0 0.036,0 0,-0.024 0,-0.048 0,-0.072 0.012,0 0.024,0 0.036,0 0,-0.024 0,-0.048 0,-0.072 0.012,0 0.024,0 0.036,0 0,-0.036 0,-0.072 0,-0.108 0.012,0 0.024,0 0.036,0 0,-0.024 0,-0.048 0,-0.072 0.012,0 0.024,0 0.036,0 0,-0.036 0,-0.072 0,-0.108 0.012,0 0.024,0 0.036,0 0.012,-0.048 0.024,-0.096 0.036,-0.144 0.012,0 0.024,0 0.036,0 0,-0.036 0,-0.072 0,-0.108 0.012,0 0.024,0 0.036,0 0,-0.024 0,-0.048 0,-0.072 0.012,0 0.024,0 0.036,0 0,-0.036 0,-0.072 0,-0.108 0.012,0 0.024,0 0.036,0 0,-0.024 0,-0.048 0,-0.072 0.012,0 0.024,0 0.036,0 0,-0.036 0,-0.072 0,-0.108 0.012,0 0.024,0 0.036,0 0,-0.024 0,-0.048 0,-0.072 0.012,0 0.024,0 0.036,0 0.012,-0.072 0.024,-0.144 0.036,-0.216 0.012,0 0.024,0 0.036,0 0,-0.024 0,-0.048 0,-0.072 0.012,0 0.024,0 0.036,0 0.024,-0.108 0.048,-0.216 0.072,-0.324 0.012,0 0.024,0 0.036,0 0,-0.024 0,-0.048 0,-0.072 0.012,0 0.024,0 0.036,0 0.012,-0.072 0.024,-0.144 0.036,-0.216 0.012,0 0.024,0 0.036,0 0,-0.036 0,-0.072 0,-0.108 0.012,0 0.024,0 0.036,0 0,-0.036 0,-0.072 0,-0.108 0.012,0 0.024,0 0.036,0 0,-0.036 0,-0.072 0,-0.108 0.012,0 0.024,0 0.036,0 0,-0.036 0,-0.072 0,-0.108 0.012,0 0.024,0 0.036,0 0,-0.036 0,-0.072 0,-0.108 0.012,0 0.024,0 0.036,0 0,-0.036 0,-0.072 0,-0.108 0.012,0 0.024,0 0.036,0 0,-0.048 0,-0.096 0,-0.144 0.012,0 0.024,0 0.036,0 0,-0.036 0,-0.072 0,-0.108 0.012,0 0.024,0 0.036,0 0,-0.036 0,-0.072 0,-0.108 0.012,0 0.024,0 0.036,0 0,-0.036 0,-0.072 0,-0.108 0.012,0 0.024,0 0.036,0 0.012,-0.084 0.024,-0.168 0.036,-0.252 0.012,0 0.024,0 0.036,0 0,-0.048 0,-0.096 0,-0.144 0.012,0 0.024,0 0.036,0 0,-0.048 0,-0.096 0,-0.144 0.012,0 0.024,0 0.036,0 0,-0.036 0,-0.072 0,-0.108 0.012,0 0.024,0 0.036,0 0,-0.048 0,-0.096 0,-0.144 0.012,0 0.024,0 0.036,0 0.012,-0.096 0.024,-0.192 0.036,-0.288 0.131,-0.384 0.2,-0.864 0.324,-1.26 0.012,-0.132 0.024,-0.264 0.036,-0.396 0.118,-0.388 0.136,-0.899 0.252,-1.296 0,-0.096 0,-0.192 0,-0.288 0.012,0 0.024,0 0.036,0 0,-0.096 0,-0.192 0,-0.288 0.012,0 0.024,0 0.036,0 0,-0.108 0,-0.216 0,-0.324 0.012,0 0.024,0 0.036,0 0,-0.12 0,-0.24 0,-0.36 0.012,0 0.024,0 0.036,0 0,-0.132 0,-0.264 0,-0.396 0.012,0 0.024,0 0.036,0 0.012,-0.42 0.024,-0.84 0.036,-1.26 0.076,-0.273 0.077,-1.348 0,-1.62 m -21.096,26.532 c -1.608,1.164 -3.216,2.328 -4.824,3.492 -0.063,-0.074 -0.134,-0.086 -0.216,-0.144 -0.024,-0.036 -0.048,-0.072 -0.072,-0.108 -0.024,0 -0.048,0 -0.072,0 -0.012,-0.024 -0.024,-0.048 -0.036,-0.072 -0.024,0 -0.048,0 -0.072,0 -0.012,-0.024 -0.024,-0.048 -0.036,-0.072 -0.036,-0.012 -0.072,-0.024 -0.108,-0.036 -0.024,-0.036 -0.048,-0.072 -0.072,-0.108 -0.024,0 -0.048,0 -0.072,0 -0.012,-0.024 -0.024,-0.048 -0.036,-0.072 -0.024,0 -0.048,0 -0.072,0 -0.024,-0.036 -0.048,-0.072 -0.072,-0.108 -0.024,0 -0.048,0 -0.072,0 -0.012,-0.024 -0.024,-0.048 -0.036,-0.072 -0.024,0 -0.048,0 -0.072,0 -0.012,-0.024 -0.024,-0.048 -0.036,-0.072 -0.036,-0.012 -0.072,-0.024 -0.108,-0.036 -0.024,-0.036 -0.048,-0.072 -0.072,-0.108 -0.024,0 -0.048,0 -0.072,0 -0.012,-0.024 -0.024,-0.048 -0.036,-0.072 -0.024,0 -0.048,0 -0.072,0 -0.012,-0.024 -0.024,-0.048 -0.036,-0.072 -0.036,-0.012 -0.072,-0.024 -0.108,-0.036 -0.024,-0.036 -0.048,-0.072 -0.072,-0.108 -0.024,0 -0.048,0 -0.072,0 -0.012,-0.024 -0.024,-0.048 -0.036,-0.072 -0.024,0 -0.048,0 -0.072,0 -0.012,-0.024 -0.024,-0.048 -0.036,-0.072 -0.036,-0.012 -0.072,-0.024 -0.108,-0.036 -0.024,-0.036 -0.048,-0.072 -0.072,-0.108 -0.024,0 -0.048,0 -0.072,0 -0.012,-0.024 -0.024,-0.048 -0.036,-0.072 -0.024,0 -0.048,0 -0.072,0 -0.012,-0.024 -0.024,-0.048 -0.036,-0.072 -0.036,-0.012 -0.072,-0.024 -0.108,-0.036 -0.024,-0.036 -0.048,-0.072 -0.072,-0.108 -0.024,0 -0.048,0 -0.072,0 -0.012,-0.024 -0.024,-0.048 -0.036,-0.072 -0.024,0 -0.048,0 -0.072,0 -0.024,-0.036 -0.048,-0.072 -0.072,-0.108 -0.024,0 -0.048,0 -0.072,0 -0.012,-0.024 -0.024,-0.048 -0.036,-0.072 -0.024,0 -0.048,0 -0.072,0 -0.024,-0.036 -0.048,-0.072 -0.072,-0.108 -0.024,0 -0.048,0 -0.072,0 -0.024,-0.036 -0.048,-0.072 -0.072,-0.108 -0.024,0 -0.048,0 -0.072,0 -0.012,-0.024 -0.024,-0.048 -0.036,-0.072 -0.024,0 -0.048,0 -0.072,0 -0.012,-0.024 -0.024,-0.048 -0.036,-0.072 -0.036,-0.012 -0.072,-0.024 -0.108,-0.036 -0.024,-0.036 -0.048,-0.072 -0.072,-0.108 -0.024,0 -0.048,0 -0.072,0 -0.012,-0.024 -0.024,-0.048 -0.036,-0.072 -0.024,0 -0.048,0 -0.072,0 -0.012,-0.024 -0.024,-0.048 -0.036,-0.072 -0.036,-0.012 -0.072,-0.024 -0.108,-0.036 -0.024,-0.036 -0.048,-0.072 -0.072,-0.108 -0.024,0 -0.048,0 -0.072,0 -0.012,-0.024 -0.024,-0.048 -0.036,-0.072 -0.024,0 -0.048,0 -0.072,0 -0.024,-0.036 -0.048,-0.072 -0.072,-0.108 -0.024,0 -0.048,0 -0.072,0 -0.012,-0.024 -0.024,-0.048 -0.036,-0.072 -0.024,0 -0.048,0 -0.072,0 -0.024,-0.036 -0.048,-0.072 -0.072,-0.108 -0.024,0 -0.048,0 -0.072,0 -0.024,-0.036 -0.048,-0.072 -0.072,-0.108 -0.103,-0.072 -0.186,-0.07 -0.252,-0.18 0.024,0 0.048,0 0.072,0 0.097,0.087 0.246,0.028 0.396,0.072 0,0.012 0,0.024 0,0.036 0.084,0 0.168,0 0.252,0 0.341,0.098 0.806,0.083 1.152,0.18 0.12,0 0.24,0 0.36,0 0,0.012 0,0.024 0,0.036 0.144,0 0.288,0 0.432,0 0,0 0.004,0.03 0.072,0.036 0.132,0 0.264,0 0.396,0 0,0.012 0,0.024 0,0.036 0.228,0 0.456,0 0.684,0 0,0.012 0,0.024 0,0.036 0.576,0 1.152,0 1.728,0 1.494,0 2.871,-0.162 4.14,-0.396 0,0.012 0,0.024 0,0.036"
         id="path29255"
         inkscape:connector-curvature="0" /></clipPath><clipPath
       id="clipPath29259"><path
         d="m 399.685,574.913 68.031,0 0,-70 -68.031,0 0,70 z"
         id="path29261"
         inkscape:connector-curvature="0" /></clipPath><clipPath
       id="clipPath29265"><path
         d="M 0,841 595,841 595,0 0,0 0,841 z"
         id="path29267"
         inkscape:connector-curvature="0" /></clipPath><clipPath
       id="clipPath29271"><path
         d="m 0.36,841.68 595.44,0 L 595.8,0 0.36,0 l 0,841.68 z"
         id="path29273"
         inkscape:connector-curvature="0" /></clipPath><clipPath
       id="clipPath29283"><path
         d="m 484.724,574.913 68.032,0 0,-70 -68.032,0 0,70 z"
         id="path29285"
         inkscape:connector-curvature="0" /></clipPath><clipPath
       id="clipPath29289"><path
         d="M 0,841 595,841 595,0 0,0 0,841 z"
         id="path29291"
         inkscape:connector-curvature="0" /></clipPath><clipPath
       id="clipPath29295"><path
         d="m 0.36,841.68 595.44,0 L 595.8,0 0.36,0 l 0,841.68 z"
         id="path29297"
         inkscape:connector-curvature="0" /></clipPath><clipPath
       id="clipPath29381"><path
         d="m 149.952,574.913 62.646,0 0,-70 -62.646,0 0,70 z"
         id="path29383"
         inkscape:connector-curvature="0" /></clipPath><clipPath
       id="clipPath29387"><path
         d="M 0,841 595,841 595,0 0,0 0,841 z"
         id="path29389"
         inkscape:connector-curvature="0" /></clipPath><clipPath
       id="clipPath29393"><path
         d="m 0.36,841.68 595.44,0 L 595.8,0 0.36,0 l 0,841.68 z"
         id="path29395"
         inkscape:connector-curvature="0" /></clipPath><clipPath
       id="clipPath29463"><path
         d="m 229.606,574.913 68.032,0 0,-70 -68.032,0 0,70 z"
         id="path29465"
         inkscape:connector-curvature="0" /></clipPath><clipPath
       id="clipPath29469"><path
         d="M 0,841 595,841 595,0 0,0 0,841 z"
         id="path29471"
         inkscape:connector-curvature="0" /></clipPath><clipPath
       id="clipPath29475"><path
         d="m 0.36,841.68 595.44,0 L 595.8,0 0.36,0 l 0,841.68 z"
         id="path29477"
         inkscape:connector-curvature="0" /></clipPath><clipPath
       id="clipPath29555"><path
         d="m 314.646,574.913 68.031,0 0,-70 -68.031,0 0,70 z"
         id="path29557"
         inkscape:connector-curvature="0" /></clipPath><clipPath
       id="clipPath29561"><path
         d="M 0,841 595,841 595,0 0,0 0,841 z"
         id="path29563"
         inkscape:connector-curvature="0" /></clipPath><clipPath
       id="clipPath29567"><path
         d="m 0.36,841.68 595.44,0 L 595.8,0 0.36,0 l 0,841.68 z"
         id="path29569"
         inkscape:connector-curvature="0" /></clipPath><clipPath
       id="clipPath29651"><path
         d="m 399.685,468.291 68.031,0 0,-70 -68.031,0 0,70 z"
         id="path29653"
         inkscape:connector-curvature="0" /></clipPath><clipPath
       id="clipPath29657"><path
         d="M 0,841 595,841 595,0 0,0 0,841 z"
         id="path29659"
         inkscape:connector-curvature="0" /></clipPath><clipPath
       id="clipPath29663"><path
         d="m 0.36,841.68 595.44,0 L 595.8,0 0.36,0 l 0,841.68 z"
         id="path29665"
         inkscape:connector-curvature="0" /></clipPath><clipPath
       id="clipPath29751"><path
         d="m 484.724,468.291 68.032,0 0,-70 -68.032,0 0,70 z"
         id="path29753"
         inkscape:connector-curvature="0" /></clipPath><clipPath
       id="clipPath29757"><path
         d="M 0,841 595,841 595,0 0,0 0,841 z"
         id="path29759"
         inkscape:connector-curvature="0" /></clipPath><clipPath
       id="clipPath29763"><path
         d="m 0.36,841.68 595.44,0 L 595.8,0 0.36,0 l 0,841.68 z"
         id="path29765"
         inkscape:connector-curvature="0" /></clipPath><clipPath
       id="clipPath29817"><path
         d="m 150.236,468.291 62.362,0 0,-70 -62.362,0 0,70 z"
         id="path29819"
         inkscape:connector-curvature="0" /></clipPath><clipPath
       id="clipPath29823"><path
         d="M 0,841 595,841 595,0 0,0 0,841 z"
         id="path29825"
         inkscape:connector-curvature="0" /></clipPath><clipPath
       id="clipPath29829"><path
         d="m 0.36,841.68 595.44,0 L 595.8,0 0.36,0 l 0,841.68 z"
         id="path29831"
         inkscape:connector-curvature="0" /></clipPath><clipPath
       id="clipPath29921"><path
         d="m 229.606,468.291 68.032,0 0,-70 -68.032,0 0,70 z"
         id="path29923"
         inkscape:connector-curvature="0" /></clipPath><clipPath
       id="clipPath29927"><path
         d="M 0,841 595,841 595,0 0,0 0,841 z"
         id="path29929"
         inkscape:connector-curvature="0" /></clipPath><clipPath
       id="clipPath29933"><path
         d="m 0.36,841.68 595.44,0 L 595.8,0 0.36,0 l 0,841.68 z"
         id="path29935"
         inkscape:connector-curvature="0" /></clipPath><clipPath
       id="clipPath30047"><path
         d="m 314.646,468.291 68.031,0 0,-70 -68.031,0 0,70 z"
         id="path30049"
         inkscape:connector-curvature="0" /></clipPath><clipPath
       id="clipPath30053"><path
         d="M 0,841 595,841 595,0 0,0 0,841 z"
         id="path30055"
         inkscape:connector-curvature="0" /></clipPath><clipPath
       id="clipPath30059"><path
         d="m 0.36,841.68 595.44,0 L 595.8,0 0.36,0 l 0,841.68 z"
         id="path30061"
         inkscape:connector-curvature="0" /></clipPath><clipPath
       id="clipPath30113"><path
         d="m 399.685,362.137 68.031,0 0,-70 -68.031,0 0,70 z"
         id="path30115"
         inkscape:connector-curvature="0" /></clipPath><clipPath
       id="clipPath30119"><path
         d="M 0,841 595,841 595,0 0,0 0,841 z"
         id="path30121"
         inkscape:connector-curvature="0" /></clipPath><clipPath
       id="clipPath30125"><path
         d="m 0.36,841.68 595.44,0 L 595.8,0 0.36,0 l 0,841.68 z"
         id="path30127"
         inkscape:connector-curvature="0" /></clipPath><clipPath
       id="clipPath30221"><path
         d="m 484.724,362.137 68.032,0 0,-70 -68.032,0 0,70 z"
         id="path30223"
         inkscape:connector-curvature="0" /></clipPath><clipPath
       id="clipPath30227"><path
         d="M 0,841 595,841 595,0 0,0 0,841 z"
         id="path30229"
         inkscape:connector-curvature="0" /></clipPath><clipPath
       id="clipPath30233"><path
         d="m 0.36,841.68 595.44,0 L 595.8,0 0.36,0 l 0,841.68 z"
         id="path30235"
         inkscape:connector-curvature="0" /></clipPath><clipPath
       id="clipPath30263"><path
         d="m 144.567,362.137 68.031,0 0,-70 -68.031,0 0,70 z"
         id="path30265"
         inkscape:connector-curvature="0" /></clipPath><clipPath
       id="clipPath30269"><path
         d="M 0,841 595,841 595,0 0,0 0,841 z"
         id="path30271"
         inkscape:connector-curvature="0" /></clipPath><clipPath
       id="clipPath30275"><path
         d="m 0.36,841.68 595.44,0 L 595.8,0 0.36,0 l 0,841.68 z"
         id="path30277"
         inkscape:connector-curvature="0" /></clipPath><clipPath
       id="clipPath30311"><path
         d="m 177.983,298.659 c 0.192,2.683 8.145,2.492 8.145,2.492 6.805,0.287 11.309,1.916 11.309,1.916 16.387,5.175 7.283,23.191 7.283,23.191 -3.929,8.433 -0.384,14.279 -0.384,14.279 l 0,13.225 c -20.028,0.096 -26.353,2.204 -26.353,2.204 0,0 -6.325,-2.108 -26.353,-2.204 l 0,-13.225 c 0,0 3.545,-5.846 -0.384,-14.279 0,0 -9.104,-18.016 7.283,-23.191 0,0 4.504,-1.629 11.308,-1.916 0,0 7.954,0.191 8.146,-2.492"
         id="path30313"
         inkscape:connector-curvature="0" /></clipPath><clipPath
       id="clipPath30317"><path
         d="m 144.567,362.137 68.031,0 0,-70 -68.031,0 0,70 z"
         id="path30319"
         inkscape:connector-curvature="0" /></clipPath><clipPath
       id="clipPath30323"><path
         d="M 0,841 595,841 595,0 0,0 0,841 z"
         id="path30325"
         inkscape:connector-curvature="0" /></clipPath><clipPath
       id="clipPath30329"><path
         d="m 0.36,841.68 595.44,0 L 595.8,0 0.36,0 l 0,841.68 z"
         id="path30331"
         inkscape:connector-curvature="0" /></clipPath><clipPath
       id="clipPath30349"><path
         d="m 144.567,362.137 68.031,0 0,-70 -68.031,0 0,70 z"
         id="path30351"
         inkscape:connector-curvature="0" /></clipPath><clipPath
       id="clipPath30355"><path
         d="M 0,841 595,841 595,0 0,0 0,841 z"
         id="path30357"
         inkscape:connector-curvature="0" /></clipPath><clipPath
       id="clipPath30361"><path
         d="m 0.36,841.68 595.44,0 L 595.8,0 0.36,0 l 0,841.68 z"
         id="path30363"
         inkscape:connector-curvature="0" /></clipPath><clipPath
       id="clipPath30475"><path
         d="m 229.606,362.137 68.032,0 0,-70 -68.032,0 0,70 z"
         id="path30477"
         inkscape:connector-curvature="0" /></clipPath><clipPath
       id="clipPath30481"><path
         d="M 0,841 595,841 595,0 0,0 0,841 z"
         id="path30483"
         inkscape:connector-curvature="0" /></clipPath><clipPath
       id="clipPath30487"><path
         d="m 0.36,841.68 595.44,0 L 595.8,0 0.36,0 l 0,841.68 z"
         id="path30489"
         inkscape:connector-curvature="0" /></clipPath><clipPath
       id="clipPath30569"><path
         d="m 263.589,298.126 c 4.05,3.118 11.069,4.711 11.069,4.711 15.391,4.86 10.531,19.035 10.531,19.035 -0.54,1.62 -1.215,6.21 -1.215,6.21 -1.485,13.095 4.05,21.195 4.05,21.195 -3.241,3.105 -6.075,7.425 -6.075,7.425 -7.966,-2.835 -18.36,-2.551 -18.36,-2.551 0,0 -10.395,-0.284 -18.361,2.551 0,0 -2.834,-4.32 -6.075,-7.425 0,0 5.536,-8.1 4.05,-21.195 0,0 -0.675,-4.59 -1.215,-6.21 0,0 -4.86,-14.175 10.531,-19.035 0,0 7.02,-1.593 11.07,-4.711"
         id="path30571"
         inkscape:connector-curvature="0" /></clipPath><clipPath
       id="clipPath30581"><path
         d="m 229.606,362.137 68.032,0 0,-70 -68.032,0 0,70 z"
         id="path30583"
         inkscape:connector-curvature="0" /></clipPath><clipPath
       id="clipPath30587"><path
         d="M 0,841 595,841 595,0 0,0 0,841 z"
         id="path30589"
         inkscape:connector-curvature="0" /></clipPath><clipPath
       id="clipPath30593"><path
         d="m 0.36,841.68 595.44,0 L 595.8,0 0.36,0 l 0,841.68 z"
         id="path30595"
         inkscape:connector-curvature="0" /></clipPath><clipPath
       id="clipPath30691"><path
         d="m 314.646,362.137 68.031,0 0,-70 -68.031,0 0,70 z"
         id="path30693"
         inkscape:connector-curvature="0" /></clipPath><clipPath
       id="clipPath30697"><path
         d="M 0,841 595,841 595,0 0,0 0,841 z"
         id="path30699"
         inkscape:connector-curvature="0" /></clipPath><clipPath
       id="clipPath30703"><path
         d="m 0.36,841.68 595.44,0 L 595.8,0 0.36,0 l 0,841.68 z"
         id="path30705"
         inkscape:connector-curvature="0" /></clipPath><clipPath
       id="clipPath30831"><path
         d="M 0,841 595,841 595,0 0,0 0,841 z"
         id="path30833"
         inkscape:connector-curvature="0" /></clipPath><clipPath
       id="clipPath30837"><path
         d="m 0.36,841.68 595.44,0 L 595.8,0 0.36,0 l 0,841.68 z"
         id="path30839"
         inkscape:connector-curvature="0" /></clipPath></defs><g
     id="g3228"
     transform="matrix(0.03115954,0,0,0.03215739,0.31301378,-3.6727054)"
     style="stroke:none;fill:#ffffff"><path
       d="m 143.00179,767.22205 c -16.64547,-2.6303 -42.1371,-10.44268 -116.897733,0.0262 L 22.04738,758.79463 C 39.530349,746.57225 70.701332,719.68041 92.685905,671.85088 120.06193,596.34434 210.18559,369.09191 210.18559,277.33249 c 0,-0.95528 0,-1.92365 -0.0262,-2.83967 -1.72736,-25.36078 -12.65421,-61.62224 -25.4262,-84.3658 -3.45472,-5.75786 -7.38054,-11.31944 -11.56808,-16.423 -0.1832,-0.19629 -1.19083,-1.23009 -1.19083,-1.23009 l 0.0916,-0.10469 c -6.47759,-7.66842 -12.71964,-13.3216 -17.69234,-17.20816 l 4.22679,-9.8538 c 20.51894,9.05555 63.83378,29.67917 90.45082,53.74443 12.78507,-11.90831 36.70638,-24.09143 54.39873,-29.69226 l 3.35003,8.11336 c -2.21155,2.30314 -2.43401,2.65646 -3.74261,4.88109 l -0.11778,0.18321 -0.13086,0.1832 c -16.17436,21.60508 -21.22558,43.66817 -21.22558,64.76289 0,19.51131 4.30531,38.18511 8.17878,54.90909 0,0 3.31078,14.9181 3.37621,15.24525 0.0131,0.0916 42.12401,169.29429 49.00727,195.68887 6.89635,-26.39458 48.99419,-195.59727 49.03345,-195.68887 0.0654,-0.32715 3.36312,-15.24525 3.36312,-15.24525 3.86038,-16.72398 8.19187,-35.39778 8.19187,-54.90909 0,-21.09472 -5.06431,-43.15781 -21.22559,-64.76289 l -0.13086,-0.1832 -0.14394,-0.18321 c -1.28244,-2.22463 -1.5049,-2.57795 -3.72953,-4.88109 l 3.35003,-8.11336 c 17.69235,5.60083 41.61366,17.78395 54.39873,29.69226 26.61704,-24.06526 69.91879,-44.68888 90.4639,-53.74443 l 4.2268,9.8538 c -4.9727,3.88656 -11.22784,9.53974 -17.69235,17.20816 l 0.0916,0.10469 c 0,0 -1.00762,1.0338 -1.20391,1.23009 -4.18754,5.10356 -8.10027,10.66514 -11.58116,16.423 -12.75891,22.74356 -23.69885,59.00502 -25.40004,84.3658 -0.0262,0.91602 -0.0392,1.88439 -0.0392,2.83967 0,91.75942 91.7725,319.01185 119.14853,394.51839 21.98457,47.82953 53.14247,74.72137 70.63852,86.94375 l -4.12211,8.45359 c -74.76063,-10.46885 -100.38312,-2.6303 -117.00241,0 L 430.94734,450.25162 c -6.97487,26.63012 -21.78828,81.87945 -21.76211,81.77476 l -3.23225,14.39466 c -3.23226,14.05442 -5.8233,25.30843 -5.8233,35.77727 0,15.53315 5.71861,29.3782 23.47638,48.03891 l -2.87893,8.53211 c -9.16024,5.69243 -26.00199,10.69131 -38.0935,11.25401 -3.82113,18.41208 -25.37387,46.46858 -40.50134,59.42377 -15.10131,-12.95519 -36.64096,-41.01169 -40.47517,-59.42377 -12.09152,-0.5627 -28.93327,-5.56158 -38.08042,-11.25401 l -2.86585,-8.53211 c 17.74469,-18.66071 23.4633,-32.50576 23.4633,-48.03891 0,-10.46884 -2.59104,-21.72285 -5.8233,-35.77727 l -3.23225,-14.39466 c 0.0262,0.10469 -14.80033,-55.14464 -21.76211,-81.77476 l -110.3547,316.97043"
       id="path29225"
       style="fill:#ffffff;fill-opacity:1;fill-rule:nonzero;stroke:none"
       inkscape:connector-curvature="0" /><path
       d="m 342.00142,221.96539 c -170.39352,0 -308.529914,120.26085 -308.529914,268.61745 0,148.35661 138.136394,268.61745 308.529914,268.61745 170.39353,0 308.52992,-120.26084 308.52992,-268.61745 0,-148.3566 -138.13639,-268.61745 -308.52992,-268.61745 z m -0.0523,510.36923 c -128.54432,0 -232.74857,-108.23476 -232.74857,-241.75178 0,-133.51702 104.20425,-241.75178 232.74857,-241.75178 128.54432,0 232.76166,108.23476 232.76166,241.75178 0,133.51702 -104.21734,241.75178 -232.76166,241.75178"
       id="path29227"
       style="fill:#ffffff;fill-opacity:1;fill-rule:nonzero;stroke:none"
       inkscape:connector-curvature="0" /></g></svg>