<?xml version="1.0" encoding="UTF-8" standalone="no"?>
<!-- Created with Inkscape (http://www.inkscape.org/) -->

<svg
   xmlns:dc="http://purl.org/dc/elements/1.1/"
   xmlns:cc="http://creativecommons.org/ns#"
   xmlns:rdf="http://www.w3.org/1999/02/22-rdf-syntax-ns#"
   xmlns:svg="http://www.w3.org/2000/svg"
   xmlns="http://www.w3.org/2000/svg"
   xmlns:sodipodi="http://sodipodi.sourceforge.net/DTD/sodipodi-0.dtd"
   xmlns:inkscape="http://www.inkscape.org/namespaces/inkscape"
   width="100"
   height="100"
   id="svg2"
   version="1.1"
   inkscape:version="0.48.4 r9939"
   sodipodi:docname="icon.svg">
  <defs
     id="defs4" />
  <sodipodi:namedview
     id="base"
     pagecolor="#ffffff"
     bordercolor="#666666"
     borderopacity="1.0"
     inkscape:pageopacity="0.0"
     inkscape:pageshadow="2"
     inkscape:zoom="5.6"
     inkscape:cx="29.021888"
     inkscape:cy="36.501524"
     inkscape:document-units="px"
     inkscape:current-layer="text2984"
     showgrid="false"
     inkscape:window-width="1680"
     inkscape:window-height="998"
     inkscape:window-x="-8"
     inkscape:window-y="-8"
     inkscape:window-maximized="1" />
  <metadata
     id="metadata7">
    <rdf:RDF>
      <cc:Work
         rdf:about="">
        <dc:format>image/svg+xml</dc:format>
        <dc:type
           rdf:resource="http://purl.org/dc/dcmitype/StillImage" />
        <dc:title />
      </cc:Work>
    </rdf:RDF>
  </metadata>
  <g
     inkscape:label="Calque 1"
     inkscape:groupmode="layer"
     id="layer1"
     transform="translate(0,-952.36218)">
    <g
       transform="scale(0.98825471,1.0118849)"
       style="font-size:63.88717651000000300px;font-style:normal;font-variant:normal;font-weight:normal;font-stretch:normal;line-height:125%;letter-spacing:0px;word-spacing:0px;fill:#000000;fill-opacity:0.19607843;stroke:none;font-family:Comic Sans MS;-inkscape-font-specification:Comic Sans MS"
       id="text2984">
      <path
         d="m 42.998284,980.17 c -1.871727,3e-5 -3.2547,-0.98781 -4.148923,-2.96352 -0.415962,-0.93581 -0.831894,-1.49732 -1.247796,-1.68452 -0.311978,-0.14554 -1.133443,-0.21833 -2.464398,-0.21837 -2.620397,4e-5 -5.6463,2.03811 -9.077719,6.1142 -4.804029,5.6983 -7.206035,11.03263 -7.206025,16.00299 -10e-6,2.26685 0.759066,4.21132 2.277229,5.83342 1.518138,1.6222 3.337839,2.4332 5.459109,2.4332 2.058844,0 4.148901,-0.5407 6.270177,-1.6221 0.748653,-0.3951 2.329194,-1.4142 4.741627,-3.0571 1.622104,-1.08141 2.849103,-1.62212 3.680999,-1.62214 1.247762,2e-5 2.308388,0.45754 3.181881,1.37254 0.811031,0.8527 1.216564,1.8302 1.216601,2.9324 -3.7e-5,1.227 -0.540748,2.298 -1.622135,3.213 -5.719097,4.8249 -11.542141,7.2373 -17.46915,7.2373 -4.67925,0 -8.630601,-1.7054 -11.854066,-5.116 -3.077901,-3.2859 -4.616848,-7.154 -4.616846,-11.60452 -2e-6,-6.96684 3.046698,-14.07927 9.140108,-21.33731 5.17834,-6.15576 10.471071,-9.23365 15.87821,-9.2337 0.915023,5e-5 1.741687,0.0312 2.479995,0.0936 0.73825,0.0624 1.388143,0.15602 1.949682,0.28075 0.915019,-0.89421 2.017238,-1.34133 3.30666,-1.34138 2.121218,5e-5 3.431403,1.21665 3.930559,3.6498 0.353504,1.74696 0.530275,3.78503 0.530314,6.11421 -3.9e-5,1.03986 -0.30159,1.98611 -0.904653,2.83873 -0.790308,1.12305 -1.93412,1.68456 -3.43144,1.68453 z"
         style="font-weight:bold;-inkscape-font-specification:Comic Sans MS Bold;fill:#000000;fill-opacity:0.19607843"
         id="path2989" />
      <path
         d="m 65.926542,1015.2955 c -5.282351,0 -9.441668,-1.175 -12.477964,-3.5251 -2.557985,-1.9548 -3.836976,-4.2113 -3.836974,-6.7693 -2e-6,-1.3101 0.395134,-2.3968 1.185407,-3.2598 0.790267,-0.8631 1.882088,-1.2946 3.275465,-1.2946 1.871687,0 3.244262,0.9566 4.117728,2.8699 1.185396,2.558 3.868155,3.837 8.048287,3.837 3.576995,0 7.039627,-0.7799 10.387905,-2.3396 3.473002,-1.6014 5.209517,-3.3587 5.20955,-5.27196 -3.3e-5,-2.62036 -1.081456,-4.34647 -3.24427,-5.17836 -1.538978,-0.60308 -4.627271,-0.95662 -9.264889,-1.06062 -3.59783,-0.0832 -6.821301,-0.75906 -9.670422,-2.02767 -3.84738,-1.7261 -5.739869,-4.20089 -5.677474,-7.42439 0.06238,-4.05531 2.225229,-7.7727 6.488542,-11.15218 4.263288,-3.37941 8.963316,-5.06913 14.100099,-5.06918 2.038039,5e-5 4.554426,0.46797 7.549169,1.40378 3.722555,1.16465 5.583849,2.50603 5.583889,4.02414 -4e-5,1.08146 -0.374379,2.0381 -1.123017,2.86993 -0.831902,0.93588 -1.902926,1.40381 -3.213076,1.40377 -0.977475,4e-5 -2.438435,-0.20793 -4.382885,-0.6239 -1.944512,-0.41589 -3.41587,-0.62386 -4.41408,-0.62389 -2.682786,0.0208 -5.230368,0.66552 -7.642753,1.93408 -2.495609,1.28942 -3.743404,2.69319 -3.743389,4.21131 -1.5e-5,0.7903 0.379523,1.4402 1.138614,1.94968 0.759059,0.50955 1.897673,0.86829 3.415843,1.07623 2.661943,0.1456 5.313508,0.29118 7.954702,0.43673 4.616815,0.35357 8.266615,1.65335 10.949414,3.89936 2.953076,2.49562 4.429634,5.94785 4.429677,10.35671 -4.3e-5,5.36553 -3.057141,9.43123 -9.171304,12.19723 -4.658469,2.1004 -9.982395,3.1507 -15.971794,3.1507 z"
         style="font-weight:bold;-inkscape-font-specification:Comic Sans MS Bold;fill:#000000;fill-opacity:0.19607843"
         id="path2991" />
    </g>
  </g>
</svg>
