<?xml version="1.0" encoding="UTF-8"?>
<svg xmlns="http://www.w3.org/2000/svg" width="100" height="100">
  <path d="M 50 10 A 40 40 0 0 0 10 50 A 40 40 0 0 0 50 90 A 40 40 0 0 0 90 50 A
           40 40 0 0 0 50 10 z M 40.89 28.83 C 46.09 28.83 51.11 30.67 55.03
           34.02 L 49.55 40.21 C 47.15 38.16 44.08 37.03 40.89 37.03 C 33.61
           37.03 27.68 42.85 27.68 50 C 27.68 57.15 33.61 62.97 40.89 62.97 C
           47.05 62.97 51.08 60.02 52.39 54.72 L 40.99 54.72 L 40.99 46.52 L
           61.21 46.52 L 61.21 50.62 C 61.21 62.91 53.04 71.17 40.89 71.17 C 29
           71.17 19.33 61.68 19.33 50 C 19.33 38.33 29 28.83 40.89 28.83 z M
           72.46 40.27 L 77.46 40.27 L 77.46 46.52 L 83.71 46.52 L 83.71 51.52 L
           77.46 51.52 L 77.46 57.77 L 72.46 57.77 L 72.46 51.52 L 66.21 51.52 L
           66.21 46.52 L 72.46 46.52 L 72.46 40.27 z"
        fill-opacity="0.2" />
</svg>
