<?xml version="1.0" encoding="UTF-8"?>
<svg xmlns="http://www.w3.org/2000/svg" width="100" height="100">
  <path d="M 50 10 A 40 40 0 0 0 10 50 A 40 40 0 0 0 50 90 A 40 40 0 0 0 90 50 A
           40 40 0 0 0 50 10 z M 40.890625 28.828125 C 46.089375 28.828125
           51.110547 30.673359 55.029297 34.021484 L 49.548828 40.208984 C
           47.150078 38.159609 44.075 37.029297 40.890625 37.029297 C 33.608125
           37.029297 27.683594 42.84875 27.683594 50 C 27.683594 57.150625
           33.60875 62.96875 40.890625 62.96875 C 47.051875 62.96875 51.084531
           60.016953 52.394531 54.720703 L 40.992188 54.720703 L 40.992188
           46.519531 L 61.208984 46.519531 L 61.208984 50.621094 C 61.208984
           62.911719 53.04375 71.171875 40.890625 71.171875 C 29.004375
           71.171875 19.333984 61.675625 19.333984 50 C 19.333984 38.325
           29.004375 28.828125 40.890625 28.828125 z M 72.458984 40.273438 L
           77.458984 40.273438 L 77.458984 46.523438 L 83.708984 46.523438 L
           83.708984 51.523438 L 77.458984 51.523438 L 77.458984 57.773438 L
           72.458984 57.773438 L 72.458984 51.523438 L 66.208984 51.523438 L
           66.208984 46.523438 L 72.458984 46.523438 L 72.458984 40.273438 z"
        fill-opacity="0.2" />
</svg>
