<?xml version="1.0" encoding="UTF-8"?>
<svg xmlns="http://www.w3.org/2000/svg" width="100" height="100">
  <path d="m 88.3208,40.254237 -0.0024,8.48e-4 C 87.5168,31.690678 80.6976,25
           72.4,25 c -3.084,0 -5.9552,0.940678 -8.3984,2.542373 H 35.9984 C
           33.5552,25.940678 30.684,25 27.6,25 19.3024,25 12.4832,31.690678
           11.6816,40.255085 l -0.0024,-8.48e-4 C 11.4008,43.792373 10,67.958475
           10,68.220339 10,71.964407 12.8648,75 16.4,75 31.1016,75
           37.1544,61.70678 39.3328,54.661017 H 60.6672 C 62.8456,61.70678
           68.8984,75 83.6,75 87.1352,75 90,71.964407 90,68.220339 90,67.958475
           88.5992,43.792373 88.3208,40.254237 z M 27.6,52.118644 c -5.3032,0
           -9.6,-4.55339 -9.6,-10.169491 0,-5.616102 4.2968,-10.169492
           9.6,-10.169492 5.3032,0 9.6,4.55339 9.6,10.169492 0,5.616101
           -4.2968,10.169491 -9.6,10.169491 z m 44.8,0 c -5.3032,0 -9.6,-4.55339
           -9.6,-10.169491 0,-5.616102 4.2968,-10.169492 9.6,-10.169492 5.3032,0
           9.6,4.55339 9.6,10.169492 0,5.616101 -4.2968,10.169491 -9.6,10.169491
           z"
        opacity="0.2" />
  <path d="m 30,49.576 0,-5.084667 4.8,0 0,-5.084666 -4.8,0 0,-5.084667 -4.8,0
           0,5.084667 -4.8,0 0,5.084666 4.8,0 0,5.084667 z"
        opacity="0.2" />
  <path d="m 72.4,38.559322 c 0,1.872881 -1.432,3.389831 -3.2,3.389831 -1.764,0
           -3.2,-1.51695 -3.2,-3.389831 0,-1.872881 1.436,-3.38983 3.2,-3.38983
           1.768,0 3.2,1.516949 3.2,3.38983 z"
        opacity="0.2" />
  <path d="m 78.8,45.338983 c 0,1.872881 -1.432,3.389831 -3.2,3.389831 -1.764,0
           -3.2,-1.51695 -3.2,-3.389831 0,-1.872881 1.436,-3.38983 3.2,-3.38983
           1.768,0 3.2,1.516949 3.2,3.38983 z"
        opacity="0.2" />
</svg>
