<?xml version="1.0" encoding="UTF-8"?>
<svg xmlns="http://www.w3.org/2000/svg" width="100" height="100">
  <path d="m 34.303056,50.77586 c -5.288278,0 -5.505124,0.21846
           -5.505124,3.55608 l 0,15.66361 c 0,11.67007 0.545615,13.22232
           6.715273,13.89263 l 3.196747,0.33189 c 0.657536,0.44422
           0.44069,2.44126 -0.223846,2.77993 -5.945814,-0.22577
           -9.688179,-0.33867 -13.990152,-0.33867 -4.735668,0 -8.47803,0.22576
           -12.773008,0.33867 -0.664531,-0.33867 -0.88138,-2.10965
           -0.223846,-2.77993 l 1.87468,-0.33189 c 6.169655,-1.11483
           6.386501,-2.22256 6.386501,-13.89263 l 0,-39.99866 c 0,-11.66304
           -0.769454,-13.55396 -6.498422,-13.99846 L 10.400871,15.77996 C
           9.7363399,15.33515 9.9601809,13.33164 10.61772,13 c 5.400199,0.11313
           9.142561,0.33135 13.878229,0.33135 4.301973,0 8.044338,-0.11288
           12.780003,-0.33135 0.664534,0.33135 0.88138,2.33544 0.223847,2.77996
           l -2.098524,0.21847 c -6.386504,0.67029 -6.60335,2.33542
           -6.60335,13.99846 l 0,12.77783 c 0,3.44316 0.216848,3.55607
           5.505124,3.55607 l 31.505817,0 c 5.28128,0 5.50513,-0.11288
           5.50513,-3.55607 l 0,-12.77783 c 0,-11.66304 -0.22385,-13.32817
           -6.71527,-13.99846 l -2.09853,-0.21847 c -0.65754,-0.44481
           -0.44069,-2.44832 0.22385,-2.77996 5.06443,0.21847 8.81379,0.33135
           13.32562,0.33135 4.29497,0 8.04433,-0.11288 12.99685,-0.33135
           0.66453,0.33135 0.88138,2.33544 0.22384,2.77996 l -2.31537,0.21847 c
           -6.3865,0.67029 -6.61034,2.33542 -6.61034,13.99846 l 0,39.99866 c
           0,11.67007 0.22384,13.10944 6.61034,13.89263 l 2.64414,0.33189 c
           0.66453,0.44422 0.44069,2.44126 -0.21685,2.77993 -5.28827,-0.22577
           -9.03763,-0.33867 -13.33261,-0.33867 -4.51182,0 -8.47803,0.11288
           -13.32562,0.33867 -0.66453,-0.33867 -0.88138,-2.10965
           -0.22385,-2.77993 l 2.09853,-0.33189 c 6.71527,-1.11483
           6.71527,-2.22256 6.71527,-13.89263 l 0,-15.66361 c 0,-3.33734
           -0.22385,-3.55608 -5.50513,-3.55608 l -31.505815,0 z"
        fill-opacity="0.2" />
</svg>
