<?xml version="1.0" encoding="UTF-8"?>
<svg xmlns="http://www.w3.org/2000/svg" width="100" height="100" opacity="0.2">
  <path d="m 57,60 c -9.133641,0 -16.538461,4.483333 -16.538461,11.111111 0,6.666667 0.882051,13.402222 2.64505,19.363333 1.025386,3.466667 3.116949,7.768889 3.116949,7.768889 C 46.693231,99.21 48.06923,100 49.282052,100 h 15.435896 c 1.212821,0 2.588821,-0.79 3.058513,-1.756667 0,0 2.090462,-4.302222 3.115846,-7.767777 C 72.65641,84.514444 73.538461,77.777778 73.538461,71.111111 73.538461,64.483333 66.133641,60 57,60 Z" />
  <ellipse cx="57" cy="43.333332" rx="10" ry="10" />
  <path d="M 57,0 C 33.289359,0 14,19.438889 14,43.333333 c 0,15.524445 8.146846,29.161111 20.354436,36.814445 -0.312026,-2.801111 -0.482923,-5.662222 -0.499462,-8.544445 -8.081795,-6.73 -13.239589,-16.904444 -13.239589,-28.27 0,-20.217777 16.322359,-36.6666663 36.384615,-36.6666663 20.062256,0 36.384615,16.4488893 36.384615,36.6666663 0,11.365556 -5.157795,21.54 -13.239589,28.27 -0.01764,2.882223 -0.187436,5.743334 -0.499463,8.544445 C 91.853154,72.494444 100,58.857778 100,43.333333 100,19.438889 80.710641,0 57,0 Z" />
  <path d="M 42.510102,56.955556 C 39.198,53.381111 37.153846,48.598889 37.153846,43.333333 c 0,-11.027777 8.903206,-20 19.846154,-20 10.942948,0 19.846153,8.972223 19.846153,20 0,5.265556 -2.044154,10.047778 -5.356255,13.622223 2.013281,1.186666 3.733281,2.63 5.09605,4.291111 C 80.856179,56.51 83.461538,50.222222 83.461538,43.333333 83.461538,28.628889 71.591333,16.666667 57,16.666667 c -14.591333,0 -26.461538,11.962222 -26.461538,26.666666 0,6.888889 2.605358,13.176667 6.87559,17.913334 1.362769,-1.661111 3.082768,-3.104445 5.09605,-4.291111 z" />
</svg>
