<?xml version="1.0" encoding="UTF-8" standalone="no"?>
<!-- Created with Inkscape (http://www.inkscape.org/) -->

<svg
   xmlns:dc="http://purl.org/dc/elements/1.1/"
   xmlns:cc="http://creativecommons.org/ns#"
   xmlns:rdf="http://www.w3.org/1999/02/22-rdf-syntax-ns#"
   xmlns:svg="http://www.w3.org/2000/svg"
   xmlns="http://www.w3.org/2000/svg"
   xmlns:sodipodi="http://sodipodi.sourceforge.net/DTD/sodipodi-0.dtd"
   xmlns:inkscape="http://www.inkscape.org/namespaces/inkscape"
   width="30"
   height="10"
   id="svg3036"
   version="1.1"
   inkscape:version="0.48.4 r9939"
   sodipodi:docname="18.svg">
  <defs
     id="defs3038" />
  <sodipodi:namedview
     id="base"
     pagecolor="#ffffff"
     bordercolor="#666666"
     borderopacity="1.0"
     inkscape:pageopacity="0.0"
     inkscape:pageshadow="2"
     inkscape:zoom="7.9195959"
     inkscape:cx="48.563912"
     inkscape:cy="33.755257"
     inkscape:document-units="px"
     inkscape:current-layer="layer1"
     showgrid="false"
     inkscape:window-width="1600"
     inkscape:window-height="841"
     inkscape:window-x="0"
     inkscape:window-y="27"
     inkscape:window-maximized="1" />
  <metadata
     id="metadata3041">
    <rdf:RDF>
      <cc:Work
         rdf:about="">
        <dc:format>image/svg+xml</dc:format>
        <dc:type
           rdf:resource="http://purl.org/dc/dcmitype/StillImage" />
        <dc:title />
      </cc:Work>
    </rdf:RDF>
  </metadata>
  <g
     inkscape:label="Calque 1"
     inkscape:groupmode="layer"
     id="layer1"
     transform="translate(0,-1042.3622)">
    <path
       style="fill:#ffffff;fill-opacity:1;stroke:none;display:inline"
       d="m 15.427548,1042.8622 c -3.619722,0.2078 -4.88077,1.8071 -4.927548,4.1114 l 0,0.4026 c 0.04505,0.6621 0.117217,1.1931 0.289428,1.7452 0.436491,1.3996 1.303105,2.6535 3.808911,2.7408 l 0.143123,0 c 2.749956,-0.1433 4.634528,-1.2036 4.758526,-4.1869 l 0,-4.8131 -9e-4,0 -4.66e-4,4.6242 c -0.105757,-2.0891 -0.816427,-3.6554 -2.31588,-4.3219 -0.434503,-0.1931 -0.904297,-0.2555 -1.483035,-0.3014 l 3.799369,0 -4.071532,0 z m 4.07244,4.8131 -0.0014,4.1855 -4.757162,0 4.758525,0 0,-4.1869 z m -4.901649,4.1869 -4.098339,0 0,0 4.098339,0 z m 2.901096,-7.027 0.438004,0.028 c -0.0056,1.1321 -0.01192,2.2701 -0.08814,3.4519 l -0.305331,0 -0.04453,-3.4786 z m -0.854653,0.065 0.490255,0.01 c -0.0064,1.1267 -0.0203,2.2813 -0.07088,3.4069 l -0.37803,0 -0.04134,-3.4172 z m 1.62116,0.1092 c 0.134675,0.01 0.272458,0.021 0.401202,0.065 l 0.0018,0.3802 c -0.130013,-0.015 -0.259376,-0.029 -0.386207,-0.035 l -0.01681,-0.4106 z m -5.637714,0.5175 c 0.11744,-2e-4 0.232779,0.018 0.347587,0.051 0.178803,0.05 0.343051,0.1498 0.463448,0.293 0.104672,0.1244 0.169975,0.2803 0.217639,0.4373 0.05127,0.1689 0.08625,0.3434 0.09541,0.5194 0.0103,0.1978 0.0071,0.3983 -0.03544,0.5939 -0.05973,0.2746 -0.214744,0.5295 -0.446183,0.6816 -0.146439,0.096 -0.305857,0.1763 -0.475715,0.2076 -0.100107,0.019 -0.211145,0.1172 -0.110865,0.2025 0.103495,0.088 0.241314,0.1165 0.35531,0.1894 0.197827,0.1265 0.313852,0.3538 0.356219,0.5831 0.03419,0.1851 0.03202,0.3744 0.02227,0.5616 -0.007,0.1361 -0.05017,0.2701 -0.114953,0.3904 -0.04626,0.086 -0.117961,0.1602 -0.196284,0.2128 -0.156559,0.1053 -0.348652,0.1363 -0.532966,0.1327 -0.239864,0 -0.489562,-0.045 -0.696535,-0.1805 -0.164747,-0.1078 -0.274789,-0.2815 -0.343498,-0.4664 -0.03135,-0.084 -0.06151,-0.1685 -0.07269,-0.2568 -0.01714,-0.1353 -0.02558,-0.2705 -0.0091,-0.4102 0.02462,-0.2086 0.07543,-0.432 0.23854,-0.5672 0.0847,-0.07 0.184242,-0.1156 0.288065,-0.1429 0.11522,-0.03 0.09987,-0.1847 -0.01817,-0.1923 -0.129479,-0.01 -0.258793,-0.043 -0.369395,-0.1125 -0.08442,-0.053 -0.165417,-0.1165 -0.227181,-0.1982 -0.07602,-0.1006 -0.139096,-0.2101 -0.182199,-0.3291 -0.03725,-0.1028 -0.05958,-0.2099 -0.07815,-0.3164 -0.01742,-0.1 -0.03013,-0.2005 -0.02908,-0.3023 0.0015,-0.1524 -0.01164,-0.3075 0.01045,-0.458 0.0235,-0.16 0.05913,-0.3212 0.138124,-0.4636 0.114091,-0.2056 0.296793,-0.3672 0.505251,-0.4645 0.161849,-0.076 0.334754,-0.1211 0.507976,-0.1585 0.129507,-0.028 0.260649,-0.036 0.392113,-0.037 z m 3.307296,0.1218 0.378028,0 c -8.37e-4,0.5041 -0.0025,1.0152 -0.0018,1.5193 7.2e-5,0.057 -0.0086,0.1066 -0.01227,0.164 -0.0038,0.059 -0.02217,0.1147 -0.02863,0.1725 -0.0071,0.064 -0.01865,0.1111 -0.03135,0.1711 -0.01108,0.052 -0.03166,0.1013 -0.05679,0.1491 -0.02288,0.043 -0.0428,0.091 -0.07224,0.1312 -0.0302,0.042 -0.05138,0.09 -0.08997,0.1261 -0.03639,0.034 -0.06703,0.07 -0.108138,0.095 -0.04561,0.028 -0.08568,0.055 -0.134037,0.079 -0.06037,0.03 -0.119973,0.061 -0.184017,0.075 -0.06327,0.014 -0.126018,0.033 -0.190831,0.038 -0.161542,0.014 -0.324273,0.019 -0.485712,0.01 -0.06801,-0.01 -0.13341,-0.026 -0.200374,-0.041 -0.06413,-0.015 -0.117606,-0.035 -0.17811,-0.063 -0.04846,-0.022 -0.09566,-0.055 -0.140397,-0.087 -0.04489,-0.033 -0.08497,-0.068 -0.119951,-0.1073 -0.03509,-0.039 -0.06328,-0.081 -0.09042,-0.1247 -0.02665,-0.043 -0.0503,-0.089 -0.06679,-0.1336 -0.0196,-0.053 -0.03705,-0.1015 -0.05316,-0.1575 -0.01385,-0.048 -0.02918,-0.099 -0.04134,-0.1486 -0.01616,-0.067 -0.02503,-0.1339 -0.02772,-0.2034 -0.01405,-0.3629 -0.0045,-0.7263 -0.0032,-1.0894 7.15e-4,-0.1905 -0.004,-0.3811 0.0022,-0.5714 l 0.482986,0 c -6.52e-4,0.3603 0.0038,0.7244 -9e-4,1.0847 -7.76e-4,0.061 -0.01424,0.1231 -0.0077,0.1837 0.0066,0.072 0.009,0.1494 0.0091,0.2386 0.0074,0.07 0.01441,0.138 0.02863,0.2049 0.01128,0.053 0.0282,0.1046 0.04544,0.1551 0.01414,0.042 0.03835,0.081 0.05907,0.121 0.02086,0.041 0.05435,0.07 0.08587,0.105 0.03822,0.043 0.0819,0.081 0.132673,0.105 0.05026,0.023 0.104202,0.045 0.16039,0.057 0.05038,0.011 0.101479,0.012 0.152665,0.02 0.09032,0.014 0.179829,0.01 0.268074,-0.01 0.05801,-0.01 0.112352,-0.027 0.16584,-0.055 0.04946,-0.026 0.104204,-0.053 0.146305,-0.095 0.03505,-0.035 0.06217,-0.076 0.0886,-0.1182 0.02344,-0.037 0.03892,-0.078 0.05634,-0.1186 0.02009,-0.047 0.02509,-0.1 0.03998,-0.1481 0.02241,-0.073 0.02764,-0.1485 0.02953,-0.2269 0.0086,-0.3578 0.0014,-0.716 0.0014,-1.0645 l -0.0072,-0.4481 z m 2.395846,0.076 0.34895,0.031 c 0.04508,0.8495 0.0028,1.7141 -0.01363,2.5486 l -0.352129,0 0.01681,-2.5819 z m -5.848083,0.36 c -0.04454,0 -0.08857,0.01 -0.132674,0.012 -0.183464,0.01 -0.364899,0.077 -0.507067,0.1983 -0.109632,0.094 -0.182042,0.2241 -0.222637,0.3609 -0.04232,0.1427 -0.05503,0.2937 -0.04771,0.4435 0.0111,0.2271 0.04834,0.4723 0.205372,0.6469 0.124699,0.1386 0.30465,0.2019 0.482077,0.2156 0.168199,0.013 0.339843,0.018 0.506158,-0.016 0.209466,-0.043 0.405505,-0.1782 0.509339,-0.375 0.08131,-0.1542 0.09676,-0.3285 0.114045,-0.4992 0.0114,-0.1127 -0.0049,-0.2235 -0.01908,-0.3352 -0.02442,-0.1928 -0.132762,-0.3762 -0.283975,-0.4959 -0.16414,-0.13 -0.38367,-0.1499 -0.584763,-0.1552 -0.0064,-10e-5 -0.01273,-10e-5 -0.01909,0 z m -0.357128,3.0441 c -0.01821,2e-4 -0.03648,3e-4 -0.05452,0 -0.06442,0 -0.127381,0.025 -0.181745,0.061 -0.149645,0.098 -0.164756,0.3031 -0.144033,0.472 0.02181,0.1778 0.108561,0.3562 0.270346,0.4341 0.104499,0.05 0.217627,0.048 0.329412,0.048 0.112135,3e-4 0.23063,-0.048 0.293971,-0.1495 0.05834,-0.093 0.05735,-0.2024 0.06316,-0.3079 0.01,-0.1814 -0.04602,-0.3841 -0.205826,-0.4814 -0.113312,-0.069 -0.243301,-0.078 -0.370759,-0.077 z"
       id="path3168"
       inkscape:connector-curvature="0" />
  </g>
</svg>
