<?xml version="1.0" encoding="UTF-8" standalone="no"?>
<!-- Created with Inkscape (http://www.inkscape.org/) -->

<svg
   xmlns:dc="http://purl.org/dc/elements/1.1/"
   xmlns:cc="http://creativecommons.org/ns#"
   xmlns:rdf="http://www.w3.org/1999/02/22-rdf-syntax-ns#"
   xmlns:svg="http://www.w3.org/2000/svg"
   xmlns="http://www.w3.org/2000/svg"
   xmlns:sodipodi="http://sodipodi.sourceforge.net/DTD/sodipodi-0.dtd"
   xmlns:inkscape="http://www.inkscape.org/namespaces/inkscape"
   width="30"
   height="10"
   id="svg2"
   version="1.1"
   inkscape:version="0.48.4 r9939"
   sodipodi:docname="23.svg">
  <defs
     id="defs4" />
  <sodipodi:namedview
     id="base"
     pagecolor="#ffffff"
     bordercolor="#666666"
     borderopacity="1.0"
     inkscape:pageopacity="0.0"
     inkscape:pageshadow="2"
     inkscape:zoom="7.919596"
     inkscape:cx="53.087106"
     inkscape:cy="20.491169"
     inkscape:document-units="px"
     inkscape:current-layer="layer1"
     showgrid="false"
     fit-margin-top="0"
     fit-margin-left="0"
     fit-margin-right="0"
     fit-margin-bottom="0"
     inkscape:window-width="1600"
     inkscape:window-height="841"
     inkscape:window-x="0"
     inkscape:window-y="27"
     inkscape:window-maximized="1" />
  <metadata
     id="metadata7">
    <rdf:RDF>
      <cc:Work
         rdf:about="">
        <dc:format>image/svg+xml</dc:format>
        <dc:type
           rdf:resource="http://purl.org/dc/dcmitype/StillImage" />
        <dc:title />
      </cc:Work>
    </rdf:RDF>
  </metadata>
  <g
     inkscape:label="Calque 1"
     inkscape:groupmode="layer"
     id="layer1"
     transform="translate(-154.92969,-659.63968)">
    <path
       style="fill:#ffffff;stroke:none"
       d="m 172.46621,669.12819 c -0.65341,-0.0523 -1.38233,-0.18982 -1.89433,-0.35733 -0.34113,-0.1116 -0.3379,-0.11254 -0.3379,0.0993 l 0,0.1803 -3.90214,0 c -2.14618,0 -3.90215,-0.008 -3.90215,-0.0177 0,-0.0153 1.53822,-1.78399 3.57347,-4.10891 0.92498,-1.05662 1.04692,-1.25016 1.01977,-1.61853 -0.0171,-0.23178 -0.0931,-0.34123 -0.30986,-0.44576 -0.12993,-0.0627 -0.18994,-0.0732 -0.31492,-0.0552 -0.3128,0.0451 -0.4822,0.29245 -0.52184,0.76192 l -0.0216,0.25572 -1.53035,0.009 -1.53035,0.009 0.0223,-0.4019 c 0.0928,-1.67532 0.98113,-2.79104 2.52854,-3.17588 0.35972,-0.0895 0.48031,-0.10339 1.02562,-0.11849 0.68716,-0.019 1.0944,0.0266 1.59722,0.17884 0.56028,0.16967 1.11065,0.49745 1.46848,0.87456 l 0.21848,0.23025 0,-0.59695 0,-0.59695 3.90335,0 c 3.70789,0 3.90162,0.003 3.86885,0.0574 -0.019,0.0316 -0.56395,0.66192 -1.21105,1.40081 -0.64709,0.7389 -1.17652,1.35312 -1.17652,1.36493 0,0.0118 0.0575,0.0318 0.12779,0.0444 0.44088,0.0791 1.02079,0.39909 1.3653,0.75332 0.53768,0.55286 0.80544,1.36712 0.7418,2.25581 -0.11428,1.59598 -1.18934,2.63667 -3.03924,2.9421 -0.39783,0.0657 -1.37713,0.10826 -1.76869,0.0769 z m 1.15881,-2.55374 c 0.23364,-0.0582 0.41535,-0.18259 0.50446,-0.34544 0.0937,-0.17137 0.065,-0.45036 -0.0649,-0.62886 -0.14104,-0.19384 -0.508,-0.36839 -0.91272,-0.43416 -0.45523,-0.074 -1.29187,-0.0587 -1.85289,0.0339 l -0.11077,0.0183 3.4e-4,-0.86197 3.4e-4,-0.86197 0.35744,-0.40476 c 0.19659,-0.22262 0.35744,-0.4107 0.35744,-0.41795 0,-0.007 -0.38462,-0.0132 -0.8547,-0.0132 l -0.85472,0 0.0283,0.22127 c 0.0766,0.59985 -0.0117,1.20167 -0.24618,1.67779 -0.15954,0.3239 -0.25635,0.449 -1.00954,1.30461 -0.35283,0.40082 -0.64152,0.73641 -0.64152,0.74575 0,0.009 0.32815,0.017 0.72923,0.017 l 0.72922,0 0.0357,-0.20488 c 0.0196,-0.11268 0.0459,-0.27494 0.0585,-0.36058 0.0126,-0.0856 0.0334,-0.15571 0.0464,-0.15571 0.0129,0 0.26805,0.0891 0.56697,0.19799 0.82266,0.29967 1.51079,0.47997 2.04302,0.53528 0.24753,0.0257 0.88273,-0.0106 1.09064,-0.0624 z m -3.01616,-5.04474 c 0,-0.0227 -0.24527,-0.4121 -0.25958,-0.4121 -0.007,0 -0.0131,0.0959 -0.0131,0.21307 l 0,0.21307 0.13632,0 c 0.075,0 0.13632,-0.006 0.13632,-0.014 z m 0.5148,-0.0811 c -0.10499,-0.0943 -0.10584,-0.0978 -0.10584,-0.42855 0,-0.2999 -0.006,-0.33234 -0.0596,-0.32244 -0.0525,0.01 -0.0608,0.0612 -0.0692,0.42854 l -0.009,0.41755 0.17502,0 0.17502,0 -0.10585,-0.0951 z m 0.75753,-0.19173 c 0.11414,-0.60491 0.11402,-0.57219 0.002,-0.55988 l -0.0985,0.0108 -0.017,0.33922 c -0.0165,0.32921 -0.0201,0.34154 -0.11928,0.41779 l -0.10225,0.0786 0.14051,1.4e-4 0.1405,2e-4 0.0541,-0.28683 z m 0.41885,0.22946 c -0.009,-0.0316 -0.0427,-0.14327 -0.0736,-0.24828 -0.0309,-0.105 -0.0604,-0.18613 -0.0653,-0.18029 -0.005,0.006 -0.0191,0.11757 -0.0312,0.24829 l -0.022,0.23765 0.10477,0 c 0.0837,0 0.10132,-0.0115 0.0873,-0.0574 z m 0.37509,-0.0164 c -0.0113,-0.0406 -0.0207,-0.14677 -0.0211,-0.23601 -6.6e-4,-0.19737 -0.0411,-0.16757 -0.11597,0.0854 -0.0701,0.23656 -0.0728,0.22442 0.0513,0.22442 0.0935,0 0.10376,-0.009 0.0857,-0.0738 z m 0.34589,-0.34419 -0.009,-0.41795 -0.0937,-0.0104 c -0.0515,-0.006 -0.0936,0.002 -0.0936,0.0164 10e-5,0.0147 0.0307,0.20378 0.068,0.42013 0.0373,0.21634 0.068,0.39705 0.068,0.40155 1e-4,0.005 0.0159,0.008 0.0351,0.008 0.0228,0 0.0317,-0.14715 0.0256,-0.41795 z m 0.64753,0.003 c -0.007,-0.29632 -0.0218,-0.41916 -0.0522,-0.42887 -0.0287,-0.009 -0.0426,0.0245 -0.0426,0.10385 0,0.11519 -0.003,0.11746 -0.13633,0.11746 -0.0984,0 -0.13631,0.0137 -0.13631,0.0492 0,0.0344 0.036,0.0492 0.11928,0.0492 0.10981,0 0.11928,0.008 0.11928,0.0983 0,0.0905 -0.009,0.0983 -0.11928,0.0983 -0.0833,0 -0.11928,0.0148 -0.11928,0.0492 0,0.0355 0.0378,0.0492 0.13631,0.0492 0.13309,0 0.13633,0.003 0.13633,0.11473 0,0.0811 0.0153,0.11473 0.0522,0.11473 0.0446,0 0.0507,-0.0604 0.0426,-0.41527 z m 0.37888,0.27595 c -0.0985,-0.18795 -0.0987,-0.18798 -0.0987,-0.0137 0,0.14165 0.006,0.15297 0.0859,0.15297 l 0.0859,0 -0.073,-0.13931 z m 0.59454,0.0719 c -0.24497,-0.15095 -0.25732,-0.48375 -0.0252,-0.67835 l 0.1271,-0.10653 -0.355,0.003 c -0.31303,0.002 -0.34203,0.007 -0.24534,0.041 0.15453,0.0542 0.21786,0.12624 0.22157,0.25195 0.002,0.075 -0.02,0.12679 -0.0718,0.16709 l -0.075,0.0584 0.11224,0.16509 c 0.10729,0.15781 0.11902,0.1651 0.26561,0.16513 l 0.15336,4e-5 -0.1076,-0.0663 z m -3.16772,-0.21391 c 0.0114,-0.0285 0.0207,-0.16963 0.0207,-0.31359 l 0,-0.26173 -0.0937,0.0104 c -0.0924,0.0102 -0.0939,0.0141 -0.10373,0.26753 -0.0104,0.2562 0.0201,0.34928 0.11278,0.34928 0.0239,0 0.0526,-0.0233 0.064,-0.0519 z m 3.52411,-0.0202 c 0.0894,-0.086 0.0105,-0.28846 -0.11247,-0.28846 -0.0709,0 -0.15337,0.0946 -0.15337,0.17607 0,0.0918 0.0606,0.15173 0.15337,0.15173 0.0394,0 0.09,-0.0177 0.11247,-0.0393 z m -4.38281,-0.32944 -0.0126,-0.22127 -0.11638,0 c -0.064,0 -0.11636,0.0139 -0.11636,0.031 0,0.0343 0.24096,0.43916 0.25127,0.42216 0.003,-0.006 9.9e-4,-0.11022 -0.006,-0.23191 z m 1.90132,-0.18029 c 3e-4,-0.0251 -0.0458,-0.041 -0.11881,-0.041 -0.13785,0 -0.13814,10e-4 -0.0609,0.26848 l 0.0584,0.20194 0.0605,-0.19424 c 0.0333,-0.10682 0.0607,-0.21267 0.0609,-0.2352 z m 1.58328,0.32257 c 0.0334,-0.0519 -0.0199,-0.13409 -0.0869,-0.13409 -0.0461,0 -0.0645,0.0234 -0.0645,0.082 0,0.0593 0.0184,0.082 0.0662,0.082 0.0364,0 0.0748,-0.0134 0.0853,-0.0298 z"
       id="path2998"
       inkscape:connector-curvature="0" />
  </g>
</svg>
