<?xml version="1.0" encoding="UTF-8" standalone="no"?>
<svg
   xmlns:dc="http://purl.org/dc/elements/1.1/"
   xmlns:cc="http://creativecommons.org/ns#"
   xmlns:rdf="http://www.w3.org/1999/02/22-rdf-syntax-ns#"
   xmlns:svg="http://www.w3.org/2000/svg"
   xmlns="http://www.w3.org/2000/svg"
   xmlns:sodipodi="http://sodipodi.sourceforge.net/DTD/sodipodi-0.dtd"
   xmlns:inkscape="http://www.inkscape.org/namespaces/inkscape"
   xml:space="preserve"
   enable-background="new 0 0 86 100"
   viewBox="0 0 8.6 10"
   height="10"
   width="10"
   y="0px"
   x="0px"
   id="Layer_1"
   version="1.1"
   inkscape:version="0.48.4 r9939"
   sodipodi:docname="sport.svg"><metadata
     id="metadata9"><rdf:RDF><cc:Work
         rdf:about=""><dc:format>image/svg+xml</dc:format><dc:type
           rdf:resource="http://purl.org/dc/dcmitype/StillImage" /></cc:Work></rdf:RDF></metadata><defs
     id="defs7" /><sodipodi:namedview
     pagecolor="#ffffff"
     bordercolor="#666666"
     borderopacity="1"
     objecttolerance="10"
     gridtolerance="10"
     guidetolerance="10"
     inkscape:pageopacity="0"
     inkscape:pageshadow="2"
     inkscape:window-width="1600"
     inkscape:window-height="841"
     id="namedview5"
     showgrid="false"
     inkscape:zoom="53.400704"
     inkscape:cx="3.0192681"
     inkscape:cy="5.4948424"
     inkscape:window-x="0"
     inkscape:window-y="27"
     inkscape:window-maximized="1"
     inkscape:current-layer="Layer_1" /><rect
     style="fill:#ffffff;fill-opacity:1;stroke:none"
     id="rect2988"
     width="5"
     height="3"
     x="1.8"
     y="0.5" /><path
     sodipodi:type="arc"
     style="fill:#ffffff;fill-opacity:1;stroke:none"
     id="path2986"
     sodipodi:cx="4.9531183"
     sodipodi:cy="4.0262961"
     sodipodi:rx="2.2377982"
     sodipodi:ry="1.4606549"
     d="m 7.1909165,4.0262961 a 2.2377982,1.4606549 0 1 1 -4.4755964,0 2.2377982,1.4606549 0 1 1 4.4755964,0 z"
     transform="matrix(1.1171695,0,0,1.3692489,-1.2334728,-2.0130016)" /><rect
     style="fill:#ffffff;fill-opacity:1;stroke:none"
     id="rect2990"
     width="1"
     height="5"
     x="3.8"
     y="4" /><path
     style="fill:#ffffff;stroke:none;fill-opacity:1"
     d="M 2,9.5 5,8 8,9.5 z"
     id="path2992"
     inkscape:connector-curvature="0"
     transform="translate(-0.7,0)"
     sodipodi:nodetypes="cccc" /><path
     style="fill:#ffffff;fill-opacity:1;stroke:none"
     d="M 1.0625 1 C 1.0418868 1.1645321 1 1.3298802 1 1.5 C 1 3.709139 2.790861 5.5 5 5.5 C 7.209139 5.5 9 3.709139 9 1.5 C 9 1.3298802 8.9581132 1.1645321 8.9375 1 L 8.46875 1 C 8.491563 1.1614357 8.5 1.3322681 8.5 1.5 C 8.5 3.4329966 6.9329966 5 5 5 C 3.0670034 5 1.5 3.4329966 1.5 1.5 C 1.5 1.3322681 1.508437 1.1614357 1.53125 1 L 1.0625 1 z "
     transform="translate(-0.7,0)"
     id="path3762" /><rect
     style="fill:#ffffff;fill-opacity:1;stroke:none"
     id="rect3786"
     width="7.5"
     height="0.5"
     x="0.55000001"
     y="1" /></svg>