<?xml version="1.0" encoding="UTF-8" standalone="no"?>
<!-- Created with Inkscape (http://www.inkscape.org/) -->

<svg
   xmlns:dc="http://purl.org/dc/elements/1.1/"
   xmlns:cc="http://creativecommons.org/ns#"
   xmlns:rdf="http://www.w3.org/1999/02/22-rdf-syntax-ns#"
   xmlns:svg="http://www.w3.org/2000/svg"
   xmlns="http://www.w3.org/2000/svg"
   xmlns:sodipodi="http://sodipodi.sourceforge.net/DTD/sodipodi-0.dtd"
   xmlns:inkscape="http://www.inkscape.org/namespaces/inkscape"
   width="100"
   height="100"
   id="svg2"
   version="1.1"
   inkscape:version="0.48.4 r9939"
   sodipodi:docname="Nouveau document 1">
  <defs
     id="defs4" />
  <sodipodi:namedview
     id="base"
     pagecolor="#ffffff"
     bordercolor="#666666"
     borderopacity="1.0"
     inkscape:pageopacity="0.0"
     inkscape:pageshadow="2"
     inkscape:zoom="5.6"
     inkscape:cx="29.021888"
     inkscape:cy="38.019381"
     inkscape:document-units="px"
     inkscape:current-layer="layer1"
     showgrid="false"
     inkscape:window-width="1600"
     inkscape:window-height="841"
     inkscape:window-x="0"
     inkscape:window-y="27"
     inkscape:window-maximized="1" />
  <metadata
     id="metadata7">
    <rdf:RDF>
      <cc:Work
         rdf:about="">
        <dc:format>image/svg+xml</dc:format>
        <dc:type
           rdf:resource="http://purl.org/dc/dcmitype/StillImage" />
        <dc:title></dc:title>
      </cc:Work>
    </rdf:RDF>
  </metadata>
  <g
     inkscape:label="Calque 1"
     inkscape:groupmode="layer"
     id="layer1"
     transform="translate(0,-952.36218)">
    <path
       style="fill:#000000;fill-opacity:0.19607843;stroke:none"
       d="M 14.705882,962.36232 C 12.098824,962.36232 10,964.46114 10,967.0682 l 0,70.5881 c 0,2.6071 2.098824,4.7059 4.705882,4.7059 l 51.485294,0 c 1.491177,-11.5588 11.373525,-20.5 23.338236,-20.5 0.158503,0 0.312833,0.012 0.470588,0.015 l 0,-54.80875 c 0,-2.60705 -2.098824,-4.70587 -4.705882,-4.70587 l -70.588236,0 z m 30.102942,16.47056 c 0.160858,-0.008 0.322352,0 0.485294,0 l 9.411764,0 c 5.214118,0 9.411765,4.19804 9.411765,9.41175 l 0,11.29405 -12.235294,0 0,-11.76464 c 0,-1.04274 -0.839529,-1.88235 -1.882353,-1.88235 -1.042824,0 -1.882353,0.83961 -1.882353,1.88235 l 0,29.17646 c 0,1.0427 0.839529,1.8823 1.882353,1.8823 1.042824,0 1.882353,-0.8396 1.882353,-1.8823 l 0,-11.7647 12.235294,0 0,11.2941 c 0,5.2137 -4.197647,9.4117 -9.411765,9.4117 l -9.411764,0 c -5.214118,0 -9.411765,-4.198 -9.411765,-9.4117 l 0,-28.23527 c 0,-5.05078 3.939848,-9.16063 8.926471,-9.41175 z"
       id="rect3793"
       inkscape:connector-curvature="0" />
    <rect
       style="fill:#000000;fill-opacity:0.19607843;stroke:none"
       id="rect3800"
       width="9.4117651"
       height="9.4117479"
       x="80.588234"
       y="1032.9445"
       ry="0" />
  </g>
</svg>
