<?xml version="1.0" encoding="UTF-8"?>
<svg xmlns="http://www.w3.org/2000/svg" width="100" height="100">
  <path d="M 86.1261,27.10589 97.80304,16.52837 C 89.81503,4.6264304 63.54119,-5.3093696 42.87925,3.1661204 22.21397,11.64312 18.59948,35.023 31.82737,46.69741 45.05693,58.37174 73.11161,55.80311 80.25466,65.20848 87.51174,74.75947 77.34116,84.79674 65.64114,85.53175 54.09652,86.25373 40.81069,84.52826 32.84266,70.68631 L 20,82.74046 C 31.43884,97.71697 54.31809,102.8215 74.99989,98.54203 95.67996,94.26758 104.87835,74.79713 97.45082,57.61376 93.98185,49.5902 84.52056,45.1651 73.28357,42.69954 60.48724,39.89518 49.0964,38.91443 43.3736,32.86361 37.66748,26.82594 42.80488,17.77913 51.80806,14.7095 60.81297,11.64312 76.6037,13.56022 86.1261,27.10589 Z"
        opacity="0.2" />
</svg>
