<?xml version="1.0" encoding="UTF-8"?>
<svg xmlns="http://www.w3.org/2000/svg" width="100" height="100">
  <g transform="matrix(2.5,0,0,2.5,10,10)">
    <rect x="6"  y="0" width="4" height="4" fill-opacity="0.2" />
    <rect x="22" y="0" width="4" height="4" fill-opacity="0.2" />
    <path d="m 30,2 h -2 v 2 c 0,1.105 -0.895,2 -2,2 H 22 C 20.895,6 20,5.105
             20,4 V 2 h -8 v 2 c 0,1.105 -0.895,2 -2,2 H 6 C 4.895,6 4,5.105 4,4
             V 2 H 1.999 C 0.894,2 0,2.895 0,4 v 26 c 0,1.105 0.894,2 1.999,2 H
             30 c 1.105,0 2,-0.895 2,-2 V 4 C 32,2.895 31.105,2 30,2 z M 10,26 H
             6 v -4 h 4 v 4 z m 0,-8 H 6 v -4 h 4 v 4 z m 8,8 h -4 v -4 h 4 v 4
             z m 0,-8 h -4 v -4 h 4 v 4 z m 8,8 h -4 v -4 h 4 v 4 z m 0,-8 h -4
             v -4 h 4 v 4 z"
          fill-opacity="0.2" />
  </g>
</svg>
