<?xml version="1.0" encoding="UTF-8" standalone="no"?>
<!-- Created with Inkscape (http://www.inkscape.org/) -->

<svg
   xmlns:dc="http://purl.org/dc/elements/1.1/"
   xmlns:cc="http://creativecommons.org/ns#"
   xmlns:rdf="http://www.w3.org/1999/02/22-rdf-syntax-ns#"
   xmlns:svg="http://www.w3.org/2000/svg"
   xmlns="http://www.w3.org/2000/svg"
   version="1.1"
   width="100"
   height="100"
   id="svg3956">
  <defs
     id="defs3958" />
  <metadata
     id="metadata3961">
    <rdf:RDF>
      <cc:Work
         rdf:about="">
        <dc:format>image/svg+xml</dc:format>
        <dc:type
           rdf:resource="http://purl.org/dc/dcmitype/StillImage" />
        <dc:title></dc:title>
      </cc:Work>
    </rdf:RDF>
  </metadata>
  <g
     transform="translate(-175.71429,-759.10764)"
     id="layer1">
    <g
       transform="matrix(2.1040423,0,0,2.1040423,81.032405,141.77576)"
       id="g3909">
      <path
         d="m 62.235943,317.4855 c -2.199216,0 -2.289395,0.0898 -2.289395,1.46172 l 0,6.43851 c 0,4.79697 0.226903,5.43502 2.792655,5.71055 l 1.329419,0.13642 c 0.273447,0.1826 0.183268,1.00348 -0.09309,1.14269 -2.472663,-0.0928 -4.028986,-0.13921 -5.818031,-0.13921 -1.969404,0 -3.525726,0.0928 -5.311862,0.13921 -0.276356,-0.13921 -0.366536,-0.86717 -0.09309,-1.14269 l 0.779616,-0.13642 c 2.565751,-0.45825 2.65593,-0.91358 2.65593,-5.71055 l 0,-16.4414 c 0,-4.79408 -0.31999,-5.57134 -2.702474,-5.75405 l -1.189788,-0.0898 c -0.276356,-0.18284 -0.183268,-1.00638 0.09018,-1.1427 2.24576,0.0465 3.802082,0.1362 5.771486,0.1362 1.789045,0 3.345368,-0.0464 5.314771,-0.1362 0.276357,0.1362 0.366536,0.95998 0.09309,1.1427 l -0.872705,0.0898 c -2.655931,0.27552 -2.74611,0.95997 -2.74611,5.75405 l 0,5.25231 c 0,1.41531 0.09018,1.46172 2.289395,1.46172 l 13.102204,0 c 2.196307,0 2.289396,-0.0464 2.289396,-1.46172 l 0,-5.25231 c 0,-4.79408 -0.09309,-5.47853 -2.792655,-5.75405 l -0.872705,-0.0898 c -0.273448,-0.18284 -0.183268,-1.00638 0.09309,-1.1427 2.106128,0.0898 3.66536,0.1362 5.541675,0.1362 1.786135,0 3.345367,-0.0464 5.40495,-0.1362 0.276357,0.1362 0.366536,0.95998 0.09309,1.1427 l -0.962884,0.0898 c -2.655932,0.27552 -2.74902,0.95997 -2.74902,5.75405 l 0,16.4414 c 0,4.79697 0.09309,5.38862 2.74902,5.71055 l 1.099608,0.13642 c 0.276356,0.1826 0.183268,1.00348 -0.09018,1.14269 -2.199216,-0.0928 -3.758448,-0.13921 -5.544583,-0.13921 -1.876315,0 -3.525727,0.0464 -5.541675,0.13921 -0.276356,-0.13921 -0.366536,-0.86717 -0.09309,-1.14269 l 0.872705,-0.13642 c 2.792655,-0.45825 2.792655,-0.91358 2.792655,-5.71055 l 0,-6.43851 c 0,-1.37181 -0.09309,-1.46172 -2.289396,-1.46172 l -13.102204,0 z"
         id="path3333"
         style="fill:#000000;fill-opacity:0.19607843;fill-rule:nonzero;stroke:none" />
      <rect
         width="37.54678"
         height="37.54678"
         x="49.990387"
         y="298.39319"
         id="rect3001"
         style="fill:none;stroke:#000000;stroke-width:0.47527561;stroke-miterlimit:4;stroke-opacity:0.19607843;stroke-dasharray:none" />
    </g>
  </g>
</svg>
