<?xml version="1.0" encoding="UTF-8" standalone="no"?>
<svg
   xmlns:dc="http://purl.org/dc/elements/1.1/"
   xmlns:cc="http://creativecommons.org/ns#"
   xmlns:rdf="http://www.w3.org/1999/02/22-rdf-syntax-ns#"
   xmlns:svg="http://www.w3.org/2000/svg"
   xmlns="http://www.w3.org/2000/svg"
   xmlns:sodipodi="http://sodipodi.sourceforge.net/DTD/sodipodi-0.dtd"
   xmlns:inkscape="http://www.inkscape.org/namespaces/inkscape"
   width="100"
   height="100"
   viewBox="-501.602 431.079 100 100"
   enable-background="new -501.602 431.079 196 62"
   id="svg2"
   version="1.1"
   inkscape:version="0.48.4 r9939"
   sodipodi:docname="icon.svg">
  <metadata
     id="metadata10">
    <rdf:RDF>
      <cc:Work
         rdf:about="">
        <dc:format>image/svg+xml</dc:format>
        <dc:type
           rdf:resource="http://purl.org/dc/dcmitype/StillImage" />
      </cc:Work>
    </rdf:RDF>
  </metadata>
  <defs
     id="defs8" />
  <sodipodi:namedview
     pagecolor="#ffffff"
     bordercolor="#666666"
     borderopacity="1"
     objecttolerance="10"
     gridtolerance="10"
     guidetolerance="10"
     inkscape:pageopacity="0"
     inkscape:pageshadow="2"
     inkscape:window-width="1600"
     inkscape:window-height="851"
     id="namedview6"
     showgrid="false"
     inkscape:zoom="2.0714286"
     inkscape:cx="6.2758621"
     inkscape:cy="27.137931"
     inkscape:window-x="0"
     inkscape:window-y="25"
     inkscape:window-maximized="1"
     inkscape:current-layer="svg2" />
  <path
     d="m -430.70109,462.76368 9.34153,-8.462 c -6.39039,-9.52155 -27.40948,-17.47015 -43.93903,-10.68981 -16.5322,6.78165 -19.42381,25.48554 -8.84151,34.82504 10.58362,9.3395 33.02736,7.28458 38.7418,14.80883 5.80571,7.64081 -2.33076,15.67061 -11.6908,16.25867 -9.23571,0.57758 -19.8643,-0.80285 -26.23881,-11.8764 l -10.27409,9.64335 c 9.15105,11.98118 27.45445,16.06484 43.99988,12.64127 16.5441,-3.41964 23.90277,-18.99595 17.9608,-32.74261 -2.77521,-6.41886 -10.34419,-9.95899 -19.33386,-11.93141 -10.23705,-2.24352 -19.34973,-3.02803 -23.9279,-7.8687 -4.56494,-4.83019 -0.45504,-12.06762 6.74754,-14.52331 7.2039,-2.45308 19.83652,-0.91942 27.45445,9.91708 z"
     id="path4"
     style="fill:#000000;stroke:none;fill-opacity:0.19607843"
     inkscape:connector-curvature="0"
     sodipodi:nodetypes="cccccccccccccc" />
</svg>
