<?xml version="1.0" encoding="UTF-8" standalone="no"?>
<svg
   xmlns:dc="http://purl.org/dc/elements/1.1/"
   xmlns:cc="http://creativecommons.org/ns#"
   xmlns:rdf="http://www.w3.org/1999/02/22-rdf-syntax-ns#"
   xmlns:svg="http://www.w3.org/2000/svg"
   xmlns="http://www.w3.org/2000/svg"
   xmlns:sodipodi="http://sodipodi.sourceforge.net/DTD/sodipodi-0.dtd"
   xmlns:inkscape="http://www.inkscape.org/namespaces/inkscape"
   width="30"
   height="10"
   viewBox="0 0 24 8"
   version="1.1"
   id="svg2"
   inkscape:version="0.48.4 r9939"
   sodipodi:docname="22.svg">
  <metadata
     id="metadata12">
    <rdf:RDF>
      <cc:Work
         rdf:about="">
        <dc:format>image/svg+xml</dc:format>
        <dc:type
           rdf:resource="http://purl.org/dc/dcmitype/StillImage" />
      </cc:Work>
    </rdf:RDF>
  </metadata>
  <defs
     id="defs10" />
  <sodipodi:namedview
     pagecolor="#ffffff"
     bordercolor="#666666"
     borderopacity="1"
     objecttolerance="10"
     gridtolerance="10"
     guidetolerance="10"
     inkscape:pageopacity="0"
     inkscape:pageshadow="2"
     inkscape:window-width="1600"
     inkscape:window-height="841"
     id="namedview8"
     showgrid="false"
     showguides="true"
     inkscape:guide-bbox="true"
     inkscape:zoom="8.1985401"
     inkscape:cx="65.352456"
     inkscape:cy="24.040669"
     inkscape:window-x="0"
     inkscape:window-y="27"
     inkscape:window-maximized="1"
     inkscape:current-layer="svg2" />
  <g
     id="#ffffffff"
     style="fill:#000000;stroke:none"
     transform="matrix(0.0588169,0,0,0.05821586,3.2566588,0.123874)" />
  <g
     id="#e83b71ff"
     style="fill:#ffffff;stroke:none"
     transform="matrix(0.0588169,0,0,0.05821586,3.9355742,0.352845)">
    <path
       d="M 36.03,1.09 C 45.19,0.7 54.38,1.1 63.54,0.81 63.42,1.31 63.2,2.29 63.08,2.79 57.77,12.41 52.47,22.05 47.11,31.65 c 10.48,-0.4 21.21,2.23 29.66,8.61 6.62,5.03 12.21,11.8 14.83,19.79 C 92.24,56.06 91.95,52.02 92,48 92.02,32.66 91.96,17.33 92.03,1.99 c 8.32,0.02 16.64,0 24.96,0.01 0.03,8 -0.01,15.99 0.01,23.99 5.66,0.03 11.31,0 16.97,0 0.11,6.85 -0.08,13.7 0.1,20.55 2.34,-2.16 3.77,-5.09 6.01,-7.34 7.57,-8.01 17.83,-13.77 28.84,-15.07 7.62,-0.21 15.54,-0.78 22.79,2.04 15.66,4.83 27.49,18.94 30.75,34.84 1.69,-9.39 4.81,-18.95 11.79,-25.79 4.56,-4.51 10.24,-7.81 16.4,-9.58 7.21,-2.43 14.91,-1.45 22.37,-1.64 0.04,7.67 0.13,15.34 0.1,23 -5.63,0 -11.7,-0.62 -16.7,2.52 -6.63,3.48 -9.51,11.35 -9.44,18.49 0.03,18.06 0.05,36.13 -0.01,54.19 -7.97,0.04 -15.93,0.05 -23.9,0 C 222.9,109.47 223.05,96.74 223,84.01 199.18,84 175.37,83.97 151.55,84.03 c 1.86,6.92 6.62,13.14 13.12,16.29 10.37,4.91 24.63,2.13 30.66,-8.18 8.58,-0.32 17.18,-0.07 25.77,-0.12 0.17,4.31 -2.38,7.99 -4.43,11.56 -7.09,11.75 -20.25,18.86 -33.68,20.39 -14.47,2.16 -29.74,-2.52 -40.42,-12.54 -2.79,-2.14 -4.38,-5.48 -7.21,-7.53 -0.07,5.74 0.11,11.49 -0.02,17.23 -0.74,1.68 -2.92,1 -4.34,1.22 -8.37,0.27 -17.11,-1.41 -24.03,-6.36 -7.9,-5.53 -12.5,-14.8 -13.91,-24.17 -3.95,11.51 -12.02,21.74 -22.99,27.25 -13.73,7.26 -31.09,7.14 -44.72,-0.29 C 6.99,109.21 -2.81,86.38 2.56,66.43 4.12,59.7 7.23,53.48 10.39,47.39 17.97,33.63 25.52,19.85 33.02,6.04 34.01,4.4 34.6,2.41 36.03,1.09 m 115.8,62.89 c 15.82,0.03 31.63,0.04 47.45,-0.01 C 197.16,52.08 184.76,43.95 173,45.46 162.9,46.27 154.2,54.24 151.83,63.98 M 117,48.01 c -0.01,12 0.01,24 -0.01,36.01 0.04,4.69 1.45,9.88 5.47,12.73 2.87,2.32 6.7,2.69 10.25,2.87 -1.09,-3.61 -3.18,-6.83 -4.08,-10.51 -4.3,-13.6 -2.18,-28.73 4.75,-41.09 C 127.92,47.98 122.46,47.99 117,48.01 M 43.53,54.68 C 31.9,57.01 23.71,69.38 25.89,81 c 1.35,9.25 8.89,17.16 18.08,18.9 6.79,1.3 14.21,-0.9 19.15,-5.75 7.03,-6.29 9.21,-17.21 5.49,-25.82 C 64.86,58.61 53.77,52.45 43.53,54.68 z"
       id="path6"
       style="fill:#ffffff;stroke:none"
       inkscape:connector-curvature="0" />
  </g>
</svg>
