<?xml version="1.0" encoding="UTF-8" standalone="no"?>
<!-- Generator: Adobe Illustrator 15.0.0, SVG Export Plug-In . SVG Version: 6.00 Build 0)  -->

<svg
   xmlns:dc="http://purl.org/dc/elements/1.1/"
   xmlns:cc="http://creativecommons.org/ns#"
   xmlns:rdf="http://www.w3.org/1999/02/22-rdf-syntax-ns#"
   xmlns:svg="http://www.w3.org/2000/svg"
   xmlns="http://www.w3.org/2000/svg"
   xmlns:sodipodi="http://sodipodi.sourceforge.net/DTD/sodipodi-0.dtd"
   xmlns:inkscape="http://www.inkscape.org/namespaces/inkscape"
   version="1.1"
   id="Calque_1"
   x="0px"
   y="0px"
   width="30"
   height="10"
   viewBox="-0.5 -7.721 30 10"
   enable-background="new -0.5 -7.721 3660.501 1389.387"
   xml:space="preserve"
   inkscape:version="0.48.4 r9939"
   sodipodi:docname="5.svg"><metadata
     id="metadata229"><rdf:RDF><cc:Work
         rdf:about=""><dc:format>image/svg+xml</dc:format><dc:type
           rdf:resource="http://purl.org/dc/dcmitype/StillImage" /></cc:Work></rdf:RDF></metadata><defs
     id="defs227"><linearGradient
       id="SVGID_12_"
       gradientUnits="userSpaceOnUse"
       x1="335.88281"
       y1="186.5298"
       x2="335.88281"
       y2="674.12061"><stop
         offset="0.5"
         style="stop-color:#FFFFFF"
         id="stop211" /><stop
         offset="1"
         style="stop-color:#D9D9D9"
         id="stop213" /></linearGradient><linearGradient
       id="SVGID_10_"
       gradientUnits="userSpaceOnUse"
       x1="942.58148"
       y1="1228.8809"
       x2="942.58148"
       y2="739.91412"
       gradientTransform="matrix(1,0,0,-1,4,1384.3867)"><stop
         offset="0.5"
         style="stop-color:#FFFFFF"
         id="stop184" /><stop
         offset="1"
         style="stop-color:#BFBFBF"
         id="stop186" /></linearGradient><linearGradient
       id="SVGID_8_"
       gradientUnits="userSpaceOnUse"
       x1="1577.625"
       y1="1228.6318"
       x2="1577.625"
       y2="739.92291"
       gradientTransform="matrix(1,0,0,-1,4,1384.3867)"><stop
         offset="0.5"
         style="stop-color:#FFFFFF"
         id="stop157" /><stop
         offset="1"
         style="stop-color:#BFBFBF"
         id="stop159" /></linearGradient><linearGradient
       id="SVGID_6_"
       gradientUnits="userSpaceOnUse"
       x1="2200.3208"
       y1="1228.9209"
       x2="2200.3208"
       y2="739.9209"
       gradientTransform="matrix(1,0,0,-1,4,1384.3867)"><stop
         offset="0.5"
         style="stop-color:#FFFFFF"
         id="stop118" /><stop
         offset="1"
         style="stop-color:#BFBFBF"
         id="stop120" /></linearGradient><linearGradient
       id="SVGID_4_"
       gradientUnits="userSpaceOnUse"
       x1="2837.6958"
       y1="1228.9727"
       x2="2837.6958"
       y2="739.91888"
       gradientTransform="matrix(1,0,0,-1,4,1384.3867)"><stop
         offset="0.5"
         style="stop-color:#FFFFFF"
         id="stop91" /><stop
         offset="1"
         style="stop-color:#BFBFBF"
         id="stop93" /></linearGradient><linearGradient
       id="SVGID_2_"
       gradientUnits="userSpaceOnUse"
       x1="3467.5728"
       y1="1166.3867"
       x2="3467.5728"
       y2="710.26758"
       gradientTransform="matrix(1,0,0,-1,4,1384.3867)"><stop
         offset="0.5"
         style="stop-color:#FFFFFF"
         id="stop62" /><stop
         offset="1"
         style="stop-color:#BFBFBF"
         id="stop64" /></linearGradient><linearGradient
       gradientTransform="matrix(1,0,0,-1,4,1384.3867)"
       y2="568.00562"
       x2="3441.5239"
       y1="1359.9609"
       x1="3372.2368"
       gradientUnits="userSpaceOnUse"
       id="SVGID_1_"><stop
         id="stop49"
         style="stop-color:#EEAA5F"
         offset="0" /><stop
         id="stop51"
         style="stop-color:#EE922D"
         offset="0.25" /><stop
         id="stop53"
         style="stop-color:#EEA453"
         offset="0.5" /><stop
         id="stop55"
         style="stop-color:#EE8410"
         offset="1" /></linearGradient><linearGradient
       gradientTransform="matrix(1,0,0,-1,4,1384.3867)"
       y2="568.00513"
       x2="2811.5239"
       y1="1359.96"
       x1="2742.2368"
       gradientUnits="userSpaceOnUse"
       id="SVGID_3_"><stop
         id="stop78"
         style="stop-color:#ACD480"
         offset="0" /><stop
         id="stop80"
         style="stop-color:#8CC642"
         offset="0.25" /><stop
         id="stop82"
         style="stop-color:#A6D16F"
         offset="0.5" /><stop
         id="stop84"
         style="stop-color:#7BC143"
         offset="1" /></linearGradient><linearGradient
       gradientTransform="matrix(1,0,0,-1,4,1384.3867)"
       y2="568.00513"
       x2="2181.5249"
       y1="1359.96"
       x1="2112.2378"
       gradientUnits="userSpaceOnUse"
       id="SVGID_5_"><stop
         id="stop105"
         style="stop-color:#9E639A"
         offset="0" /><stop
         id="stop107"
         style="stop-color:#802A75"
         offset="0.25" /><stop
         id="stop109"
         style="stop-color:#985D93"
         offset="0.5" /><stop
         id="stop111"
         style="stop-color:#76246F"
         offset="1" /></linearGradient><linearGradient
       gradientTransform="matrix(1,0,0,-1,4,1384.3867)"
       y2="568.0061"
       x2="1551.5233"
       y1="1359.9609"
       x1="1482.2363"
       gradientUnits="userSpaceOnUse"
       id="SVGID_7_"><stop
         id="stop132"
         style="stop-color:#649DCB"
         offset="0" /><stop
         id="stop134"
         style="stop-color:#619BCA"
         offset="0.0067" /><stop
         id="stop136"
         style="stop-color:#4C8FC7"
         offset="0.0557" /><stop
         id="stop138"
         style="stop-color:#3F88C6"
         offset="0.1039" /><stop
         id="stop140"
         style="stop-color:#3B86C5"
         offset="0.15" /><stop
         id="stop142"
         style="stop-color:#488CC6"
         offset="0.2966" /><stop
         id="stop144"
         style="stop-color:#6199C9"
         offset="0.5" /><stop
         id="stop146"
         style="stop-color:#5193C7"
         offset="0.6381" /><stop
         id="stop148"
         style="stop-color:#2882C2"
         offset="0.9061" /><stop
         id="stop150"
         style="stop-color:#187CC0"
         offset="1" /></linearGradient><linearGradient
       gradientTransform="matrix(1,0,0,-1,4,1384.3867)"
       y2="568.00562"
       x2="921.52368"
       y1="1359.96"
       x1="852.23682"
       gradientUnits="userSpaceOnUse"
       id="SVGID_9_"><stop
         id="stop171"
         style="stop-color:#F37364"
         offset="0" /><stop
         id="stop173"
         style="stop-color:#F16152"
         offset="0.15" /><stop
         id="stop175"
         style="stop-color:#F26758"
         offset="0.5" /><stop
         id="stop177"
         style="stop-color:#ED1B2F"
         offset="1" /></linearGradient><linearGradient
       gradientTransform="matrix(1,0,0,-1,4,1384.3867)"
       y2="568.00562"
       x2="291.5238"
       y1="1359.96"
       x1="222.2368"
       gradientUnits="userSpaceOnUse"
       id="SVGID_11_"><stop
         id="stop198"
         style="stop-color:#FFE7A6"
         offset="0" /><stop
         id="stop200"
         style="stop-color:#FFD259"
         offset="0.15" /><stop
         id="stop202"
         style="stop-color:#FFE499"
         offset="0.5" /><stop
         id="stop204"
         style="stop-color:#FFC82F"
         offset="1" /></linearGradient></defs><sodipodi:namedview
     pagecolor="#ffffff"
     bordercolor="#666666"
     borderopacity="1"
     objecttolerance="10"
     gridtolerance="10"
     guidetolerance="10"
     inkscape:pageopacity="0"
     inkscape:pageshadow="2"
     inkscape:window-width="1600"
     inkscape:window-height="841"
     id="namedview225"
     showgrid="false"
     inkscape:zoom="6.1368649"
     inkscape:cx="105.68289"
     inkscape:cy="-5.1499448"
     inkscape:window-x="0"
     inkscape:window-y="27"
     inkscape:window-maximized="1"
     inkscape:current-layer="Calque_1" /><g
     id="g3241"
     transform="matrix(0.01353526,0,0,0.01356852,2.4729284,-18.968164)"
     style="fill:#ffffff;stroke:none"><path
       style="fill:#ffffff;stroke:none"
       inkscape:connector-curvature="0"
       id="path6"
       d="m 81,1151.666 v 223 H 38 v -223 H 2 v -39 h 36 v -34.5 c 0,-9 0.664,-17.414 2,-25.25 1.328,-7.828 4.328,-14.664 9,-20.5 4.664,-5.828 11.328,-10.5 20,-14 8.664,-3.5 20.328,-5.25 35,-5.25 4,0 8.164,0.086 12.5,0.25 4.328,0.172 8.5,0.422 12.5,0.75 v 36 c -2,0 -4.172,-0.078 -6.5,-0.25 -2.336,-0.164 -4.5,-0.25 -6.5,-0.25 -8.672,0 -15.422,0.75 -20.25,2.25 -4.836,1.5 -8.336,3.586 -10.5,6.25 -2.172,2.672 -3.422,5.836 -3.75,9.5 -0.336,3.672 -0.5,7.836 -0.5,12.5 v 32.5 h 48 v 39 H 81 z" /><path
       style="fill:#ffffff;stroke:none"
       inkscape:connector-curvature="0"
       id="path8"
       d="m 265.999,1147.666 c -6,0 -13.75,0.422 -23.25,1.25 -9.5,0.836 -18.75,3.836 -27.75,9 -9,5.172 -16.75,13.25 -23.25,24.25 -6.5,11 -9.75,26.672 -9.75,47 v 145.5 h -43 v -262 h 42 v 51 c 3.664,-14.664 8.914,-25.914 15.75,-33.75 6.828,-7.828 14.078,-13.578 21.75,-17.25 7.664,-3.664 15.328,-5.75 23,-6.25 7.664,-0.5 14.328,-0.75 20,-0.75 2.664,0 6.328,0.086 11,0.25 4.664,0.172 9,0.586 13,1.25 v 40.5 h -19.5 z" /><path
       style="fill:#ffffff;stroke:none"
       inkscape:connector-curvature="0"
       id="path10"
       d="m 515.492,1374.916 c -3,0.164 -6,0.25 -9,0.25 -8.336,0 -15.25,-0.5 -20.75,-1.5 -5.5,-1 -10,-2.75 -13.5,-5.25 -3.5,-2.5 -6.336,-5.914 -8.5,-10.25 -2.172,-4.328 -3.922,-9.664 -5.25,-16 -3.672,5 -7.672,9.836 -12,14.5 -4.336,4.672 -9.836,8.922 -16.5,12.75 -6.672,3.836 -15.086,6.828 -25.25,9 -10.172,2.164 -22.75,3.25 -37.75,3.25 -16.336,0 -30.086,-1.672 -41.25,-5 -11.172,-3.328 -20.172,-8.25 -27,-14.75 -6.836,-6.5 -11.75,-14.664 -14.75,-24.5 -3,-9.828 -4.5,-21.25 -4.5,-34.25 0,-13 1.914,-24.164 5.75,-33.5 3.828,-9.328 11.5,-17.414 23,-24.25 11.5,-6.828 27.75,-12.664 48.75,-17.5 21,-4.828 48.828,-9.578 83.5,-14.25 3.664,-0.328 6.5,-1.914 8.5,-4.75 2,-2.828 3.5,-5.914 4.5,-9.25 1,-3.328 1.578,-6.664 1.75,-10 0.164,-3.328 0.25,-6 0.25,-8 0,-8.664 -1.086,-15.664 -3.25,-21 -2.172,-5.328 -5.672,-9.5 -10.5,-12.5 -4.836,-3 -11.086,-5 -18.75,-6 -7.672,-1 -16.836,-1.5 -27.5,-1.5 -14,0 -25.25,0.922 -33.75,2.75 -8.5,1.836 -15,4.922 -19.5,9.25 -4.5,4.336 -7.422,9.836 -8.75,16.5 -1.336,6.672 -2,14.836 -2,24.5 h -41.5 c 0,-9 0.578,-18.664 1.75,-29 1.164,-10.328 5.25,-19.914 12.25,-28.75 7,-8.828 18,-16.078 33,-21.75 15,-5.664 36.5,-8.5 64.5,-8.5 18,0 33.164,1.5 45.5,4.5 12.328,3 22.414,7.836 30.25,14.5 7.828,6.672 13.5,15.422 17,26.25 3.5,10.836 5.25,24.086 5.25,39.75 v 129 c 0,11 2.164,17.5 6.5,19.5 4.328,2 10.5,3 18.5,3 v 32.5 c -3,0 -6,0.078 -9,0.25 z m -59,-134.25 c -12,4 -22.75,6.922 -32.25,8.75 -9.5,1.836 -18.25,3.25 -26.25,4.25 -18,2.336 -32,5.172 -42,8.5 -10,3.336 -17.336,7.172 -22,11.5 -4.672,4.336 -7.5,9.336 -8.5,15 -1,5.672 -1.5,12 -1.5,19 0,15 4.914,25.25 14.75,30.75 9.828,5.5 22.25,8.25 37.25,8.25 26.328,0 46.328,-6 60,-18 13.664,-12 20.5,-31 20.5,-57 v -31 z" /><path
       style="fill:#ffffff;stroke:none"
       inkscape:connector-curvature="0"
       id="path12"
       d="m 708.989,1374.666 v -166.5 c 0,-10 -0.422,-19.078 -1.25,-27.25 -0.836,-8.164 -3,-15.164 -6.5,-21 -3.5,-5.828 -8.836,-10.328 -16,-13.5 -7.172,-3.164 -16.922,-4.75 -29.25,-4.75 -10,0 -19.586,1.172 -28.75,3.5 -9.172,2.336 -17.25,6.586 -24.25,12.75 -7,6.172 -12.586,14.5 -16.75,25 -4.172,10.5 -6.25,23.75 -6.25,39.75 v 152 h -43 v -262 h 43 v 40.5 c 2.328,-5 5.25,-10.328 8.75,-16 3.5,-5.664 8.328,-10.828 14.5,-15.5 6.164,-4.664 14.164,-8.5 24,-11.5 9.828,-3 22.078,-4.5 36.75,-4.5 21.328,0 38,2.922 50,8.75 12,5.836 20.75,13.25 26.25,22.25 5.5,9 8.828,18.836 10,29.5 1.164,10.672 1.75,20.672 1.75,30 v 178.5 h -43 z" /><path
       style="fill:#ffffff;stroke:none"
       inkscape:connector-curvature="0"
       id="path14"
       d="m 1003.485,1313.916 c -2.673,11.172 -8,21.75 -16,31.75 -8,10 -19.5,18.5 -34.5,25.5 -15,7 -34.836,10.5 -59.5,10.5 -14.673,0 -29.423,-1.672 -44.25,-5 -14.836,-3.328 -28.173,-10 -40,-20 -11.836,-10 -21.423,-23.914 -28.75,-41.75 -7.336,-17.828 -11,-41.25 -11,-70.25 0,-49.328 11.077,-84.828 33.25,-106.5 22.164,-21.664 53.577,-32.5 94.25,-32.5 22.327,0 40.5,2.922 54.5,8.75 14,5.836 24.914,13.172 32.75,22 7.827,8.836 13.25,18.5 16.25,29 3,10.5 4.827,20.25 5.5,29.25 h -42.5 c -1,-6.328 -2.586,-12.75 -4.75,-19.25 -2.173,-6.5 -5.673,-12.328 -10.5,-17.5 -4.836,-5.164 -11.423,-9.328 -19.75,-12.5 -8.336,-3.164 -19.336,-4.75 -33,-4.75 -29.673,0 -50.75,8.25 -63.25,24.75 -12.5,16.5 -18.75,43.25 -18.75,80.25 0,16.672 1.25,31.25 3.75,43.75 2.5,12.5 6.914,23 13.25,31.5 6.327,8.5 14.664,14.922 25,19.25 10.327,4.336 23.5,6.5 39.5,6.5 16,0 28.5,-1.828 37.5,-5.5 9,-3.664 15.75,-8.5 20.25,-14.5 4.5,-6 7.414,-12.75 8.75,-20.25 1.327,-7.5 2.5,-14.914 3.5,-22.25 h 42.5 c 0,8.672 -1.336,18.586 -4,29.75 z" /><path
       style="fill:#ffffff;stroke:none"
       inkscape:connector-curvature="0"
       id="path16"
       d="m 1257.729,1248.166 c -0.172,3.336 -0.25,6.672 -0.25,10 h -197 c 0,9.672 0.664,19.672 2,30 1.328,10.336 4.578,19.836 9.75,28.5 5.164,8.672 13.078,15.836 23.75,21.5 10.664,5.672 25.5,8.5 44.5,8.5 12.664,0 23.25,-1.078 31.75,-3.25 8.5,-2.164 15.5,-5.328 21,-9.5 5.5,-4.164 9.664,-9.414 12.5,-15.75 2.828,-6.328 5.078,-13.664 6.75,-22 h 40.5 c -0.672,10.336 -2.75,20.586 -6.25,30.75 -3.5,10.172 -9.5,19.336 -18,27.5 -8.5,8.172 -20,14.75 -34.5,19.75 -14.5,5 -33.25,7.5 -56.25,7.5 -18.336,0 -35.086,-2.336 -50.25,-7 -15.172,-4.664 -28.086,-12.164 -38.75,-22.5 -10.672,-10.328 -19,-23.828 -25,-40.5 -6,-16.664 -9,-37.164 -9,-61.5 0,-26.664 2.664,-49.164 8,-67.5 5.328,-18.328 13.414,-33.25 24.25,-44.75 10.828,-11.5 24.25,-19.75 40.25,-24.75 16,-5 34.664,-7.5 56,-7.5 5,0 11.328,0.172 19,0.5 7.664,0.336 15.75,1.75 24.25,4.25 8.5,2.5 17,6.422 25.5,11.75 8.5,5.336 16.164,12.922 23,22.75 6.828,9.836 12.328,22.336 16.5,37.5 4.164,15.172 6.25,33.75 6.25,55.75 0,3.336 -0.086,6.672 -0.25,10 z m -48,-58.75 c -1.836,-10.164 -5.422,-18.828 -10.75,-26 -5.336,-7.164 -12.836,-12.75 -22.5,-16.75 -9.672,-4 -22.172,-6 -37.5,-6 -16,0 -28.922,2.336 -38.75,7 -9.836,4.672 -17.5,10.836 -23,18.5 -5.5,7.672 -9.422,16.422 -11.75,26.25 -2.336,9.836 -4,20.086 -5,30.75 h 152 c 0,-12.328 -0.922,-23.578 -2.75,-33.75 z" /></g><path
     style="fill:#ffffff;stroke:none"
     d="m 26.269674,-7.2162377 -5.539348,1.103572 C 20.604049,-6.0873957 20.5,-5.9635027 20.5,-5.8422067 l 0,6.24238203 c 0,0.121296 0.104049,0.245292 0.230326,0.270528 L 26.269674,1.7742063 C 26.395951,1.7994763 26.5,1.7223853 26.5,1.6010893 l 0,-2.866934 c -0.236113,0.84156103 -1.047396,1.23331503 -2.245681,1.23331503 -1.564454,0 -2.176584,-0.71573 -2.176584,-1.60121803 l 1.497121,0 c 0.03367,0.26942 0.215395,0.584291 0.760077,0.584291 0.454528,0 0.760077,-0.176025 0.760077,-0.757373 0,-0.543652 -0.326234,-0.692398 -0.78311,-0.692398 -0.34995,0 -0.552808,0.134207 -0.714011,0.313763 l -1.289828,-0.194752 0.333974,-3.040085 3.857965,0 0,-1.622819 c 0,-0.121261 -0.104049,-0.198283 -0.230326,-0.173117 z m -2.441459,3.01845 -0.115163,0.973691 c 0.0034,-0.0035 0.01151,0.01073 0.01151,0.01073 0.184158,-0.149993 0.606812,-0.281293 0.932821,-0.281293 0.786522,0 1.601135,0.274128 1.842611,1.114338 l 0,-1.817571 -2.671785,0 z"
     id="path73"
     inkscape:connector-curvature="0" /></svg>