<?xml version="1.0" encoding="UTF-8" standalone="no"?>
<!-- Created with Inkscape (http://www.inkscape.org/) -->

<svg
   xmlns:dc="http://purl.org/dc/elements/1.1/"
   xmlns:cc="http://creativecommons.org/ns#"
   xmlns:rdf="http://www.w3.org/1999/02/22-rdf-syntax-ns#"
   xmlns:svg="http://www.w3.org/2000/svg"
   xmlns="http://www.w3.org/2000/svg"
   version="1.1"
   width="10"
   height="10"
   id="svg2">
  <defs
     id="defs4" />
  <metadata
     id="metadata7">
    <rdf:RDF>
      <cc:Work
         rdf:about="">
        <dc:format>image/svg+xml</dc:format>
        <dc:type
           rdf:resource="http://purl.org/dc/dcmitype/StillImage" />
        <dc:title></dc:title>
      </cc:Work>
    </rdf:RDF>
  </metadata>
  <g
     transform="translate(0,-1042.3622)"
     id="layer1">
    <path
       d="m 0.5,0.5 0,9 9,0 0,-9 -9,0 z M 4.75,1 c 0.8898575,8e-6 1.5956828,0.1803806 2.0625,0.53125 C 7.279307,1.8786255 7.4999942,2.3923312 7.5,3.0625 7.4999942,3.4063652 7.4234762,3.6950711 7.28125,3.96875 7.1390126,4.2389302 6.9053103,4.5314738 6.5625,4.84375 l -0.34375,0.3125 c -0.2479984,0.2175475 -0.4234176,0.3979201 -0.5,0.53125 -0.07659,0.1298277 -0.1250039,0.2796083 -0.125,0.4375 l 0,0.21875 -1.96875,0 0,-0.25 C 3.6249981,5.8060339 3.6921479,5.5335561 3.8125,5.3125 3.9328479,5.0879425 4.1759184,4.8126138 4.5625,4.46875 l 0.375,-0.3125 C 5.1453741,3.9737989 5.2801751,3.8176587 5.375,3.65625 5.4734645,3.494852 5.5312462,3.3176592 5.53125,3.15625 5.5312462,2.9106421 5.425051,2.7305984 5.25,2.59375 5.0749419,2.4534057 4.8448866,2.3750066 4.53125,2.375 4.2358427,2.3750066 3.9053133,2.4432083 3.5625,2.5625 3.219683,2.6782958 2.8719901,2.8621772 2.5,3.09375 L 2.5,1.4375 C 2.9412825,1.2901393 3.3540511,1.1639333 3.71875,1.09375 4.083445,1.0235825 4.4108288,1.000008 4.75,1 z m -1.125,6.125 1.96875,0 0,1.875 -1.96875,0 0,-1.875 z"
       transform="translate(0,1042.3622)"
       id="rect2983"
       style="fill:#ffffff;fill-opacity:1;stroke:none" />
  </g>
</svg>
