<?xml version="1.0" encoding="UTF-8"?>
<svg xmlns="http://www.w3.org/2000/svg" width="100" height="100">
  <path d="m 89,43.74 -14.84,0 L 89,37.87 l 0,-26.73 -11.03,0 -0.95,11 -0.57,0
           C 70.36,14.17 62.56,10 49.05,10 29.83,10 11,21.75 11,50.19 11,78.63
           30.02,90 46.58,90 58.94,90 66.55,85.45 70.93,80.90 l 0.95,0
           4.19,8.15 12.94,0 0,-45.31 z m -38.05,15.17 18.07,0 c 0,0 -0.19,4.74
           -0.19,8.72 -4,5.31 -11.03,7.01 -17.31,7.01 -10.46,0 -19.6,-6.26
           -19.6,-24.64 0,-20.28 10.65,-24.64 19.40,-24.64 8.94,0 18.07,5.12
           20.55,18.39 l -20.93,0 0,15.17 z"
        fill-opacity="0.2" />
</svg>
