<?xml version="1.0" encoding="UTF-8"?>
<svg xmlns="http://www.w3.org/2000/svg" width="100" height="100">
  <path d="M 56.011719 10 C 42.676482 10 32.173349 13.564302 24.503906 20.691406
           C 16.834429 27.818646 13 37.595917 13 50.025391 C 13 62.317219
           16.765587 72.061788 24.296875 79.257812 C 31.82813 86.419425
           42.037706 90 54.923828 90 C 60.624056 90 66.150992 89.396484
           71.505859 88.191406 C 76.860599 86.986329 82.025136 85.179691 87
           82.769531 L 87 45.6875 L 55.908203 45.6875 L 55.908203 59.011719 L
           68.085938 59.011719 L 68.085938 73.990234 C 66.669445 74.541141
           65.06202 74.953083 63.265625 75.228516 C 61.503667 75.469544 59.58645
           75.589857 57.513672 75.589844 C 49.878709 75.589857 43.989372
           73.369325 39.84375 68.927734 C 35.698063 64.486183 33.624974
           58.185524 33.625 50.025391 C 33.624974 41.796472 35.766906 35.479463
           40.050781 31.072266 C 44.369139 26.630752 50.501378 24.41022
           58.447266 24.410156 C 62.731057 24.41022 66.996734 25.011782
           71.246094 26.216797 C 75.529873 27.421937 79.831924 29.246878
           84.150391 31.691406 L 84.150391 15.732422 C 79.970113 13.838801
           75.51219 12.409452 70.779297 11.445312 C 66.080825 10.481328
           61.159191 10 56.011719 10 z"
        fill-opacity="0.2" />
</svg>
