<?xml version="1.0" encoding="UTF-8" standalone="no"?>
<!-- Created with Inkscape (http://www.inkscape.org/) -->

<svg
   xmlns:dc="http://purl.org/dc/elements/1.1/"
   xmlns:cc="http://creativecommons.org/ns#"
   xmlns:rdf="http://www.w3.org/1999/02/22-rdf-syntax-ns#"
   xmlns:svg="http://www.w3.org/2000/svg"
   xmlns="http://www.w3.org/2000/svg"
   xmlns:sodipodi="http://sodipodi.sourceforge.net/DTD/sodipodi-0.dtd"
   xmlns:inkscape="http://www.inkscape.org/namespaces/inkscape"
   id="svg2"
   version="1.1"
   inkscape:version="0.48.4 r9939"
   width="100"
   height="100"
   xml:space="preserve"
   sodipodi:docname="logo above title.svg"><metadata
     id="metadata8"><rdf:RDF><cc:Work
         rdf:about=""><dc:format>image/svg+xml</dc:format><dc:type
           rdf:resource="http://purl.org/dc/dcmitype/StillImage" /><dc:title /></cc:Work></rdf:RDF></metadata><defs
     id="defs6"><clipPath
       clipPathUnits="userSpaceOnUse"
       id="clipPath18"><path
         d="M 0,2494.84 0,0 l 1804.34,0 0,2494.84 -1804.34,0 z"
         id="path20"
         inkscape:connector-curvature="0" /></clipPath></defs><sodipodi:namedview
     pagecolor="#ffffff"
     bordercolor="#666666"
     borderopacity="1"
     objecttolerance="10"
     gridtolerance="10"
     guidetolerance="10"
     inkscape:pageopacity="0"
     inkscape:pageshadow="2"
     inkscape:window-width="1600"
     inkscape:window-height="851"
     id="namedview4"
     showgrid="false"
     inkscape:zoom="5.6568542"
     inkscape:cx="27.310831"
     inkscape:cy="50.933935"
     inkscape:window-x="0"
     inkscape:window-y="25"
     inkscape:window-maximized="1"
     inkscape:current-layer="g10"
     fit-margin-top="10"
     fit-margin-left="10"
     fit-margin-right="10"
     fit-margin-bottom="10" /><g
     id="g10"
     inkscape:groupmode="layer"
     inkscape:label="ink_ext_XXXXXX"
     transform="matrix(1.25,0,0,-1.25,-351.87928,18.12109)"><path
       style="fill:#000000;fill-opacity:0.19607843;stroke:none"
       d="m 323.58422,6.4963516 c -1.13459,-0.01144 -2.2089,-0.210492 -3.1179,-0.670358 -2.34709,-1.187607 -5.52405,-3.154437 -6.60572,-5.64441596 1.01046,-2.40283104 -0.29953,-4.60589604 -0.38313,-7.04546404 -0.0444,-1.298081 0.60442,-2.428037 0.65397,-3.8411516 -0.34577,-0.578921 -1.40237,-0.649711 -2.13366,-0.610026 -0.24615,1.250084 -0.68019,2.6543496 -1.94869,2.7953936 -1.7949,0.19923 -3.1024,-1.307199 -3.18395,-2.8825396 -0.0965,-1.852602 1.4033,-4.925792 3.52746,-4.712618 0.82056,0.08232 1.02161,0.920268 1.91566,0.911687 0.48457,-0.981136 -0.75182,-1.289233 -0.87856,-1.990964 -0.0331,-0.181265 0.10632,-0.894526 0.18495,-1.226755 0.38584,-1.617708 1.24085,-3.708958 2.08741,-4.94054 1.07446,-1.562202 3.18531,-1.797632 5.45632,-1.950742 0.40563,0.88675 1.89987,0.815156 2.87349,0.583212 -1.16683,0.468982 -2.25191,1.601351 -3.15093,2.607693 -1.03265,1.154625 -2.07418,2.392374 -2.12703,3.901484 1.95146,-2.747396 3.55924,-5.146473 7.10775,-6.354995 2.68505,-0.913832 5.82413,0.420181 7.88723,1.89041 0.8561,0.611099 1.3666,1.579364 1.97511,2.466918 2.27686,3.323636 3.33827,8.071648 3.10469,12.6697686 -0.0962,1.896309 -0.0931,3.785378 -0.72002,5.061204 -0.65529,1.334013 -2.87084,2.52725004 -4.16822,1.320605 -0.24045,1.29727804 1.07939,2.10251204 2.62909,1.63567404 -1.10501,1.44716896 -2.26075,3.18312896 -3.83132,4.08248096 -1.87997,1.076411 -4.65788,1.969209 -7.154,1.944039 z m -6.50663,-1.220052 c -0.0175,-9.94e-4 -0.0414,-0.0082 -0.0594,-0.01341 -2.63454,-0.757773 -6.00533,-2.699666 -7.08793,-5.10142496 0.83829,0.123614 1.41898,0.556933 2.24594,0.610025 0.31253,0.02065 0.71754,-0.137557 1.07673,-0.04693 0.7158,0.180193 1.32282,1.80728596 1.86281,2.41328996 0.52641,0.591792 1.15899,0.848137 1.59198,1.387641 0.27819,0.136217 0.69102,0.125759 0.70682,0.549694 -0.10549,0.114497 -0.21416,0.208069 -0.33689,0.201107 z m 4.55134,-5.21538596 c 0.0906,9.7e-5 0.17581,-0.0066 0.26423,-0.02011 0.60887,-0.09305 1.43848,-0.658828 0.97765,-1.42786304 -2.40058,0.56739104 -3.5991,-1.022162 -4.32675,-2.668025 -0.64973,0.159813 -0.38871,1.058093 -0.22459,1.515009 0.40283,1.124191 1.95183,2.59953004 3.30946,2.60099004 z m -8.58083,-0.254736 c -1.80162,-0.13863 -3.27924,-0.88487304 -4.35318,-2.08481404 -1.16373,-1.299422 -0.92036,-3.731214 -0.77946,-5.463419 2.10349,1.342861 4.89472,-0.109134 4.86841,-2.3931786 1.00428,0.02708 0.37322,1.2755576 0.19157,2.0781106 -0.59368,2.621368 1.00055,5.4661 0.0726,7.86330104 z m 21.51484,-3.96852004 c 0.0378,-0.0016 0.081,-0.0051 0.11889,-0.0067 0.54247,-1.143631 1.00672,-2.355639 1.69107,-3.365198 -0.45844,-1.083567 -3.46827,-2.039498 -3.42176,-0.09385 0.65158,0.289058 1.77403,0.0598 2.35163,0.429029 -0.33399,0.930189 -0.81647,1.720944 -0.73983,3.036723 z m -10.46347,-0.02681 c 0.51472,-0.957539 0.68197,-1.964417 1.41362,-2.688136 0.32949,-0.325794 0.97157,-0.722914 0.65397,-1.62897 -0.0743,-0.21371 -0.61829,-0.690737 -0.9314,-0.784319 -1.14385,-0.342687 -3.80913,-0.07294 -2.90652,1.374234 0.94596,-0.04478 2.21264,-0.623165 2.91973,0.07374 -0.54299,0.880851 -1.50575,2.626732 -1.1494,3.653452 z m 5.42329,-0.945205 c 0.3069,-0.02788 0.34692,-0.723651 0.40955,-0.871465 0.6878,-1.633529 2.42273,-3.723438 3.686,-5.1215366 0.3102,-0.344296 0.81514,-0.670626 0.87197,-0.898279 0.16381,-0.662046 -0.42516,-1.456823 -0.35672,-1.897114 -1.72225,-1.122716 -3.63844,-2.341159 -6.46039,-2.058 -0.60298,0.531997 -0.83682,1.711827 -0.25102,2.493733 0.30491,-0.531996 0.11467,-1.508574 0.96443,-1.655785 1.60122,-0.278064 3.46563,0.989985 4.6174,1.434567 0.71421,1.221928 -0.0634,1.67375 -0.70681,2.460214 -1.31719,1.6112726 -3.08302,3.6075986 -3.01882,6.0198156 0.0665,0.04897 0.126,0.07707 0.17836,0.08715 0.0228,0.0044 0.0456,0.0086 0.066,0.0067 z m -23.03415,-1.944038 c -0.27996,-0.261951 -0.55251,-0.52786 -0.8191,-0.80443 -4.05645,-4.2119936 -6.56609,-10.0237306 -6.56609,-16.4572926 0,-6.43222 2.50964,-12.25278 6.56609,-16.463996 0.0696,-0.0723 0.14098,-0.14286 0.21138,-0.214514 -0.15081,1.50406 -0.37674,3.013128 -0.77287,4.571842 -0.32511,1.278482 -0.8928,2.401466 -1.28812,3.633342 -0.36537,1.141728 -1.00272,2.555137 -1.16921,3.693673 -0.24686,1.687425 1.31742,1.782616 2.31861,2.513843 1.54769,1.13076 2.76286,1.754729 4.43904,2.775283 0.49646,0.302197 1.99638,1.068819 2.16668,1.421159 0.33853,0.698513 -0.57985,1.684744 -0.82571,2.232293 -0.38893,0.865834 -0.59164,1.599206 -0.64736,2.45351 -1.40609,0.225509 -2.47406,1.073646 -3.1179,2.031185 -1.06506,1.584727 -1.80667,4.52036 -0.88517,6.7505066 0.0722,0.175634 0.43566,0.52127 0.48883,0.791023 0.063,0.318715 -0.0175,0.697831 -0.0991,1.072573 z m 31.2847,-1.273681 c -0.0402,-2.7649416 -0.43498,-5.5766546 -1.10977,-7.9839646 -0.2008,-0.715407 -0.49172,-1.768405 -0.89837,-2.627804 -0.28352,-0.600105 -1.16393,-1.802995 -1.05691,-2.332847 0.11018,-0.547816 2.01052,-2.008124 2.41768,-2.406585 0.73324,-0.71782 2.12652,-1.668388 2.23935,-2.574176 0.12128,-0.963975 -0.42013,-2.28753 -0.69361,-3.217719 -0.91422,-3.104266 -1.80388,-5.973935 -2.84045,-8.74147 1.22868,0.619868 3.07101,1.48877 4.67024,1.561935 2.15411,3.575209 3.40195,7.803625 3.40195,12.334589 0,6.199582 -2.33106,11.81835 -6.13011,15.9880416 z m -28.31872,-1.300495 c 1.08793,-0.01682 2.34731,-1.2725066 1.97511,-3.0903506 -0.53982,0.312655 -0.66758,1.690375 -1.30133,1.729524 -0.9057,0.05577 -0.74347,-1.785029 -0.73984,-2.862429 -0.62342,0.574363 -0.72882,2.343036 -0.27084,3.251237 -0.52195,0.260099 -0.75418,-0.289863 -1.04371,-0.482658 0.13954,1.028665 0.72785,1.4647686 1.38061,1.4546766 z m 25.77552,-5.4164926 c -0.80168,-1.548528 -1.93469,-3.248556 -4.28711,-3.298162 -0.0478,0.500087 -0.0807,1.260809 0.007,1.561934 1.79834,0.175366 2.9036,1.099119 4.2805,1.736228 z m -11.26936,-0.998839 c 1.50039,-0.800676 4.25593,-0.891845 6.29525,-0.831244 0.10939,-0.45343 0.10807,-1.009023 0.1123,-1.561935 -2.62142,-0.132731 -5.72019,0.526097 -6.40755,2.393179 z m -0.28405,-1.494899 c 1.03755,-2.643624 4.6026,-2.338745 7.60979,-2.26581 -0.13237,-0.343224 -0.41616,-0.751606 -0.77286,-0.89828 -0.96365,-0.397925 -3.62311,-0.694223 -4.96091,0.02681 -0.84844,0.457721 -1.39134,1.491949 -1.8562,2.098221 -0.22449,0.292813 -1.3451,1.037446 -0.0198,1.039055 z m 10.00767,-5.134943 c -0.41775,-0.625846 -1.30979,-1.046295 -1.65144,-1.555231 2.44228,1.201818 2.87957,-4.494081 1.92228,-6.328181 0.14796,-0.547012 0.65766,-0.755091 0.86534,-1.246866 -1.3629,-2.477616 -2.87666,-4.791398 -4.26729,-7.239868 1.03445,0.653491 2.51493,0.114175 3.73223,0.603322 0.44497,0.178584 0.76626,1.210935 1.10316,2.037889 0.92665,2.275142 1.89901,5.149155 2.33182,7.320311 0.0978,0.494724 0.36357,1.570783 0.30385,2.011074 -0.10648,0.788342 -1.16155,1.369408 -1.69766,1.856893 -0.98769,0.900425 -1.61206,1.698687 -2.64229,2.540657 z m -21.48841,-1.300495 c -2.93127,-1.173127 -5.66916,-3.202971 -8.11843,-5.121536 2.33522,-5.085095 3.27502,-11.31063 3.44158,-17.315351 2.6751,-1.269712 5.03003,-3.100326 8.6601,-3.291458 -0.42007,3.016075 -0.80527,5.707482 -1.04371,8.547066 -0.91209,0.390174 -2.2247,-0.01802 -3.07827,0.120664 -0.007,1.043856 1.30445,0.457747 1.41364,1.15972 0.0822,0.530949 -0.71744,0.571681 -0.4558,1.407752 0.66728,-0.246155 1.01905,-0.794669 1.7307,-0.998834 0.65027,1.443684 -0.0145,4.002039 0.0792,5.208683 0.0177,0.226553 0.11426,1.253059 0.61434,1.072573 0.44259,-0.159734 -0.0287,-2.732648 0.0198,-3.87467 0.0442,-1.052168 -0.12263,-2.074543 0.29725,-2.735061 3.50775,0.484535 7.07108,0.799309 10.86641,0.904983 -0.83495,0.363575 -1.82561,0.705243 -2.91312,1.32731 -0.58955,0.33727 -2.44575,1.04061 -2.61587,1.608859 -0.27144,0.905494 0.71033,1.388982 0.87857,2.165257 -1.77062,-0.979984 -2.11775,0.939574 -2.5366,2.299328 -0.37951,1.231582 -0.59389,2.152118 -0.68699,2.86243 -1.52529,0.73793 -3.15921,1.480419 -4.47207,2.426696 -0.23948,0.173221 -1.85888,2.314345 -2.08081,2.225589 z m 20.00873,-1.36753 c -1.12886,-0.05319 -2.65335,-1.519661 -3.36232,-1.77645 0.0915,-0.26707 0.2394,-0.47649 0.25102,-0.817837 0.49702,0.124151 1.10184,0.04049 1.53253,-0.174293 -0.49807,-0.05658 -1.0511,-0.05416 -1.3806,-0.294957 -0.12075,-0.354217 0.0341,-0.835535 -0.0462,-1.327309 1.18215,-0.338397 2.5284,-0.518589 4.02288,-0.563101 0.29065,0.383445 0.39105,1.112794 0.3567,1.836781 -0.0412,0.872806 -0.26766,2.66883 -0.79928,2.983094 -0.17435,0.103278 -0.36566,0.143922 -0.5747,0.134072 z m -2.55641,-0.06704 c -1.44349,-0.130854 -3.26059,-1.042005 -4.69006,-0.395512 -0.004,-0.07669 -0.1028,-0.05148 -0.11891,-0.11396 0.98108,-0.778152 1.70983,-0.938502 3.04523,-0.871466 0.60218,0.443509 1.13672,0.965584 1.76374,1.380938 z m -14.08341,-0.02681 c -0.76256,-0.785659 2.13469,-1.859573 3.05845,-1.917224 -0.005,0.497138 0.28189,0.970679 0.22459,1.327309 -1.09715,0.195477 -2.53762,0.06462 -3.28304,0.589915 z m 5.03356,-0.301661 c -1.19671,-0.02485 -1.07581,-2.146989 -1.01728,-3.445641 0.049,-1.096706 0.61466,-2.25452 0.85875,-2.983093 0.11456,-0.340221 0.13615,-0.703366 0.42277,-0.770912 0.50657,-0.119835 2.17935,0.561009 2.6555,0.82454 1.00702,0.557228 1.78697,1.443684 2.64228,2.037889 0.0111,0.289058 0.0216,0.575704 0.033,0.864762 -0.51419,0.260099 -1.10791,0.442436 -1.86281,0.475954 0.51207,0.26144 1.26406,0.258759 1.73071,0.569805 0.005,0.115838 0.009,0.233821 0.0132,0.348586 -0.85188,0.0665 -1.17582,0.452626 -1.7373,0.764208 -0.9188,0.509472 -2.29447,1.063993 -3.48123,1.293791 -0.092,0.01785 -0.17783,0.02177 -0.25762,0.02011 z m 6.91619,-1.803263 c -0.22779,-0.0016 -0.50265,-0.09201 -0.81251,-0.301661 -0.0584,-0.658292 0.0941,-0.874416 0.2246,-1.628971 1.79916,-0.570819 1.81798,1.939307 0.58791,1.930632 z m 0.82572,-2.621101 c -0.50453,-0.02634 -0.95791,-0.624941 -1.62501,-0.341882 -0.16302,-0.182874 -0.30942,-0.377814 -0.47561,-0.556397 1.57163,-1.922077 2.28717,-4.652608 3.50103,-6.911393 0.65132,2.169762 0.57656,4.549909 0.72002,6.918096 -0.89493,-0.05765 -1.39406,0.817301 -2.02134,0.884873 -0.0342,0.0037 -0.0654,0.0085 -0.0991,0.0067 z m 3.70581,-0.757504 c -0.28798,-0.0023 -0.58824,-0.07079 -0.90499,-0.221218 -0.0915,-2.305711 -0.35222,-5.332269 -0.95783,-7.139315 1.44454,1.866625 2.60715,4.044351 3.82471,6.160592 -0.3892,0.634051 -1.09792,1.206844 -1.96189,1.199941 z m -3.2368,-0.683766 c 0.26765,0 0.48882,-0.218 0.48882,-0.489361 0,-0.271387 -0.22117,-0.489361 -0.48882,-0.489361 -0.26741,0 -0.48222,0.217972 -0.48222,0.489361 0,0.271361 0.21481,0.489361 0.48222,0.489361 z m -3.33589,-0.127368 c -1.39748,-0.951104 -2.93653,-1.845898 -3.32929,-3.573008 2.00035,-1.148512 4.32993,-2.278173 6.61234,-2.976391 -0.96602,2.305496 -1.84063,4.691649 -3.28305,6.549399 z m 3.82471,-2.151849 c 0.26767,0 0.48221,-0.217973 0.48221,-0.489362 0,-0.271386 -0.21454,-0.489361 -0.48221,-0.489361 -0.2674,0 -0.48882,0.217972 -0.48882,0.489361 0,0.271389 0.22142,0.489362 0.48882,0.489362 z m 11.37505,-3.975224 c -0.20879,0.0053 -0.41754,-0.0464 -0.61433,-0.174293 -1.28046,-0.832074 -3.53828,-1.070911 -4.47207,-2.07811 0.46821,-1.582046 0.61274,-3.753791 0.8059,-5.758377 1.59964,-0.101197 3.57105,0.44737 4.90143,-0.134071 -0.92875,-0.305308 -2.13708,-0.312548 -2.93954,-0.757505 0.65582,-0.32145 2.18941,-0.253368 3.19056,-0.0067 1.37532,0.338933 2.24093,2.045423 1.85622,3.800931 -0.25816,1.17983 -0.71687,3.401451 -1.20886,4.15622 -0.27268,0.418707 -0.89293,0.93599 -1.51931,0.951909 z m -0.11229,-1.870299 c -1.36316,-0.276939 -2.32311,-1.621409 -3.65297,-1.53512 0.73086,1.04557 2.01369,1.486318 3.65297,1.53512 z m -6.72463,-0.408919 c -0.26327,-0.0096 -0.52379,-0.04228 -0.75966,-0.04693 0.19711,-1.99233 0.67061,-4.189953 0.83893,-6.281256 0.65978,-0.02083 1.01622,0.289299 1.55895,0.395512 0.0291,1.835734 -0.15907,4.365372 -1.0305,5.885744 -0.10971,0.02553 -0.22731,0.0419 -0.34349,0.04693 -0.0872,0.0038 -0.17647,0.0032 -0.26423,0 z m -9.18856,-0.01341 c -0.21316,7.75e-4 -0.42567,-0.0032 -0.64076,-0.0067 -2.86774,-0.04708 -5.8813,-0.463185 -8.24394,-0.911688 0.61001,-5.690804 1.49744,-10.472766 3.1179,-15.512087 3.5965,-1.108185 7.9319,-1.207799 11.11083,-0.207811 -0.58367,2.844212 -0.33266,6.309625 -0.67379,9.344793 -0.25709,2.281309 -0.12312,4.577205 -0.47561,6.904688 -1.26391,0.266839 -2.70248,0.38339 -4.19463,0.388808 z m 6.99546,-0.207811 c -0.65687,-0.0064 -1.23422,0.0081 -1.88923,-0.214514 -0.0326,-2.444073 0.10675,-4.859775 0.29065,-7.306904 0.9248,0.140882 1.55181,0.237869 2.41108,0.429029 -0.27902,2.355879 -0.24414,5.008405 -0.8125,7.092389 z m 7.58998,-1.199941 c 0.69981,-0.0097 1.4518,-0.168167 1.92887,-0.335179 -1.11109,-0.119084 -2.41374,-0.301876 -3.54067,-0.207811 0.26674,0.413477 0.91198,0.552708 1.6118,0.54299 z m -0.31707,-1.696006 c 0.9679,0.01218 2.12291,-0.263501 2.62906,-0.502769 -1.24874,-0.02746 -2.79633,-0.0072 -3.98325,0.09385 0.26327,0.286972 0.77343,0.40161 1.35419,0.408919 z m -7.40502,-5.597491 c -0.37945,-0.0023 -0.94284,-0.27478 -1.34097,-0.248032 -0.0584,-1.412042 0.13291,-3.673778 0.19818,-5.155055 0.92506,-0.0013 1.32431,0.206149 2.01474,0.442437 0.0779,1.742931 -0.54088,3.355759 -0.72002,4.947243 -0.0457,0.01237 -0.0978,0.01373 -0.15193,0.01341 z"
       id="path3879"
       inkscape:connector-curvature="0" /></g></svg>