<?xml version="1.0" encoding="UTF-8"?>
<svg xmlns="http://www.w3.org/2000/svg" width="100" height="100">
  <path d="M 14.705882,10.00012 C 12.098824,10.00012 10,12.09894 10,14.706 l
           0,70.5881 C 10,87.9012 12.098824,90 14.705882,90 l 51.485294,0 C
           67.682353,78.4412 77.564701,69.5 89.529412,69.5 89.687915,69.5
           89.842245,69.512 90,69.515 l 0,-54.80875 c 0,-2.60705
           -2.098824,-4.70587 -4.705882,-4.70587 l -70.588236,0 z m
           30.102942,16.47056 c 0.160858,-0.008 0.322352,0 0.485294,0 l
           9.411764,0 c 5.214118,0 9.411765,4.19804 9.411765,9.41175 l
           0,11.29405 -12.235294,0 0,-11.76464 c 0,-1.04274 -0.839529,-1.88235
           -1.882353,-1.88235 -1.042824,0 -1.882353,0.83961 -1.882353,1.88235 l
           0,29.17646 c 0,1.0427 0.839529,1.8823 1.882353,1.8823 1.042824,0
           1.882353,-0.8396 1.882353,-1.8823 l 0,-11.7647 12.235294,0 0,11.2941
           c 0,5.2137 -4.197647,9.4117 -9.411765,9.4117 l -9.411764,0 c
           -5.214118,0 -9.411765,-4.198 -9.411765,-9.4117 l 0,-28.23527 c
           0,-5.05078 3.939848,-9.16063 8.926471,-9.41175 z"
        fill-opacity="0.2" />
  <rect x="80" y="80" width="10" height="10" fill-opacity="0.2" />
</svg>
