<?xml version="1.0" encoding="UTF-8"?>
<svg xmlns="http://www.w3.org/2000/svg" width="100" height="100">
  <path d="m 10,10 c 0,26.666667 0,53.333333 0,80 26.666667,0 53.333333,0 80,0
           0,-26.666667 0,-53.333333 0,-80 -26.666667,0 -53.333333,0 -80,0 z m
           30,20 c 2.385417,0 4.770833,0 7.15625,0 0,5.052083 0,10.104167
           0,15.15625 1.888296,-4.043588 7.226892,-6.333161 11.166243,-3.790988
           5.664377,4.062633 6.26407,12.015134 5.303834,18.365439 C
           62.9041,64.371068 59.920157,70.028211 54.5625,70 c -3.256568,1.005267
           -6.721708,-4.172572 -7.40625,-4.133677 -0.356401,1.008182
           0.775177,3.504343 -0.678823,3.414927 -2.159142,0 -4.318285,0
           -6.477427,0 C 40,56.1875 40,43.09375 40,30 Z m 11.90625,16.875 c
           -4.26542,0.176094 -4.867024,5.434406 -4.745235,8.775518
           -0.237531,3.40472 1.452646,8.759147 5.825586,7.653692
           3.751485,-1.39636 3.69627,-6.222775 3.595499,-9.594582 C
           56.460469,50.913513 55.431105,46.808831 51.90625,46.875 Z"
        fill-opacity="0.2" />
</svg>
