<?xml version="1.0" encoding="UTF-8"?>
<svg xmlns="http://www.w3.org/2000/svg" width="100" height="100">
  <path d="m 90,24.812709 c -2.94095,1.327122 -6.106003,2.222311
           -9.426953,2.62292 3.39078,-2.060748 5.990703,-5.324973
           7.216775,-9.218964 -3.171549,1.910726 -6.6825,3.297198
           -10.422427,4.045662 C 74.374455,19.024479 70.108373,17 65.387589,17 c
           -9.063192,0 -16.411506,7.459909 -16.411506,16.662386 0,1.304042
           0.144531,2.575112 0.425472,3.796723 -13.641069,-0.695708
           -25.736151,-7.328021 -33.831476,-17.409202 -1.412825,2.45971
           -2.221546,5.321677 -2.221546,8.378179 0,5.779987 2.897104,10.880751
           7.301221,13.868011 -2.68924,-0.08738 -5.220958,-0.837487
           -7.434383,-2.085477 -0.0016,0.06924 -0.0016,0.140131 -0.0016,0.211021
           0,8.07154 5.657796,14.804417 13.16688,16.337613 -1.377099,0.379177
           -2.827274,0.583603 -4.324544,0.583603 -1.058807,0 -2.086759,-0.103861
           -3.088728,-0.300044 2.090007,6.619123 8.150539,11.437978
           15.331587,11.571514 -5.617197,4.469351 -12.69269,7.133486
           -20.383655,7.133486 -1.323508,0 -2.630777,-0.07913
           -3.9153111,-0.234101 7.2654891,4.72983 15.8918421,7.486287
           25.1596491,7.486287 30.190609,0 46.697927,-25.38842
           46.697927,-47.407103 0,-0.722087 -0.01462,-1.442524
           -0.04547,-2.158016 3.205651,-2.344307 5.989078,-5.280462
           8.187889,-8.622171 z"
        fill-opacity="0.2" />
</svg>
