<?xml version="1.0" encoding="UTF-8"?>
<svg xmlns="http://www.w3.org/2000/svg" width="30" height="10">
  <path d="m 8.4973923,1.0180939 c 0.5892734,-0.0252 1.1804767,6.5e-4
           1.7697497,-0.0181 -0.0077,0.0323 -0.02187,0.0957 -0.02959,0.12809
           -0.341598,0.6223 -0.682553,1.2459 -1.0273683,1.86691
           0.6741903,-0.0259 1.3644643,0.14425 1.9080623,0.55697
           0.425872,0.32538 0.785483,0.76332 0.954031,1.28019 0.04117,-0.25811
           0.02252,-0.51946 0.02573,-0.77951 0.0013,-0.99231 -0.0026,-1.98399
           0.0019,-2.97631 0.535235,10e-4 1.07047,0 1.605705,6.5e-4
           0.0019,0.5175 -6.43e-4,1.03437 6.44e-4,1.55187 0.364114,0.002
           0.727585,0 1.091699,0 0.0071,0.44312 -0.0051,0.88624 0.0064,1.32935
           0.150535,-0.13972 0.242529,-0.32926 0.386631,-0.47481
           0.486986,-0.51816 1.147025,-0.89076 1.85531,-0.97486 0.490203,-0.0136
           0.999706,-0.0505 1.466106,0.13197 1.007426,0.31244 1.768463,1.2252
           1.978183,2.25375 0.10872,-0.60743 0.309434,-1.22585 0.758465,-1.66832
           0.29335,-0.29175 0.658751,-0.50522 1.05503,-0.61972 0.463829,-0.15719
           0.959179,-0.0938 1.439089,-0.10609 0.0026,0.49616 0.0084,0.99233
           0.0065,1.48784 -0.362184,0 -0.752675,-0.0401 -1.07433,0.16301
           -0.426515,0.22513 -0.61179,0.73422 -0.607286,1.1961 0.0019,1.16827
           0.0032,2.33719 -6.44e-4,3.50547 -0.512719,0.003 -1.024795,0.003
           -1.537514,0 -0.01094,-0.82348 -0.0013,-1.64697 -0.0045,-2.47045
           -1.532369,-6.5e-4 -3.064094,-0.003 -4.596462,0.001 0.119656,0.44764
           0.425873,0.85 0.844024,1.05378 0.667114,0.31762 1.584477,0.13778
           1.972395,-0.52916 0.55196,-0.0207 1.105209,-0.005 1.657813,-0.008
           0.01094,0.27881 -0.153109,0.51686 -0.284987,0.7478 -0.456108,0.76009
           -1.302707,1.22002 -2.166673,1.319 -0.930872,0.13973
           -1.913208,-0.16302 -2.600265,-0.8112 -0.179484,-0.13843
           -0.28177,-0.35449 -0.463828,-0.4871 -0.0045,0.37131 0.0071,0.74327
           -0.0013,1.11459 -0.04761,0.10867 -0.187847,0.0647 -0.279197,0.0789
           -0.538452,0.0175 -1.100706,-0.0912 -1.545877,-0.41142
           -0.508217,-0.35773 -0.80414,-0.95739 -0.894847,-1.56352
           -0.254108,0.74457 -0.77326,1.40633 -1.478973,1.76277
           -0.883267,0.46963 -2.0000556,0.46187 -2.8768892,-0.0188
           -1.18112,-0.61908 -1.8115653,-2.09591 -1.466107,-3.38645
           0.1003566,-0.43536 0.3004265,-0.83772 0.5037129,-1.23167
           0.4876301,-0.89012 0.9733304,-1.78153 1.455814,-2.67487
           0.063687,-0.10609 0.1016432,-0.23482 0.1936368,-0.32022 m
           7.4495465,4.06827 c 1.01772,0.002 2.034795,0.003 3.052514,-6.5e-4
           -0.136382,-0.76914 -0.934088,-1.29506 -1.690624,-1.19738
           -0.649744,0.0524 -1.209425,0.56796 -1.36189,1.19803 m
           -2.240653,-1.03308 c -6.43e-4,0.77627 6.43e-4,1.55253
           -6.43e-4,2.32944 0.0026,0.30339 0.09328,0.63912 0.351891,0.82348
           0.184631,0.15008 0.431019,0.17401 0.659394,0.18566 -0.07012,-0.23352
           -0.204573,-0.44182 -0.262471,-0.67988 -0.276624,-0.87976
           -0.140242,-1.85849 0.305573,-2.65805 -0.351248,-0.003
           -0.702496,-0.002 -1.053744,-6.5e-4 m -4.7264099,0.43147 c
           -0.7481713,0.15073 -1.2750434,0.95093 -1.1348015,1.70261
           0.086847,0.59837 0.571904,1.11006 1.1631073,1.22262 0.4368085,0.0841
           0.9141461,-0.0582 1.2319411,-0.37197 0.452249,-0.40689
           0.59249,-1.11328 0.353179,-1.67025 -0.241242,-0.62878
           -0.954675,-1.02726 -1.6134259,-0.88301 z"
        fill="white" />
</svg>
