<?xml version="1.0" encoding="UTF-8"?>
<svg xmlns="http://www.w3.org/2000/svg" width="30" height="10">
  <path d="m 16.441131,1.5000057 2.870302,0 c 0.0026,0.4218769 0.0034,0.8437537
           -0.0017,1.2664785 0.568943,0.00932 1.138738,0.00166 1.708534,0.0042
           8.52e-4,0.5989296 8.52e-4,1.1978592 0,1.7967888 -0.568943,0.00342
           -1.137885,-8.47e-4 -1.705975,0.00342 -0.0051,1.2918929
           0.006,2.5837848 0.0162,3.8756776 -0.664477,0.036426
           -1.340896,0.1126702 -1.998549,-0.028805 -0.460613,-0.085558
           -0.833369,-0.5074387 -0.839339,-0.9767554 -0.06313,-0.9547299
           -0.04862,-1.9128487 -0.04692,-2.8701196 -0.392374,-0.00254
           -0.784748,-0.00254 -1.177122,-0.00254 -0.0026,-0.5989305
           -0.0017,-1.1978601 -8.54e-4,-1.7976367 0.394081,0 0.788161,0.00595
           1.182241,-0.00932 -0.01024,-0.4201829 -0.006,-0.8412127
           -0.0068,-1.2613955 z"
        fill="white" />
  <path d="m 3.8467754,2.6766873 c 1.132767,-0.1270719 2.3457147,-0.073702
           3.3692994,0.4701637 0.5587066,0.2761684 1.0227316,0.8361298
           0.989465,1.4833472 -0.01706,1.2783381 0.028148,2.5558285
           0.017912,3.8341674 -0.9570517,0.00254 -1.9132503,8.471e-4
           -2.8694489,8.471e-4 -0.00171,-0.536242 -0.00341,-1.0733301
           0.00171,-1.6104182 C 4.9130121,6.9725468 4.4668999,7.0928418
           4.0506421,7.2842953 3.8049817,7.414756 3.5303199,7.6324709
           3.5669983,7.9425254 c 0.047767,0.2050089 0.2004521,0.3591883
           0.3258411,0.5201454 -0.8947835,0.00762 -1.788714,0 -2.6826446,0.0042
           C 0.87752701,8.5058756 0.64210257,8.1966682 0.54145008,7.9196529
           0.4604163,7.4935401 0.480035,7.0055858 0.7657857,6.6531744
           1.2076331,6.0601747 1.9838514,5.8924398 2.6696531,5.752662
           3.1695036,5.7111521 3.6582653,5.594246 4.1555567,5.5340993
           4.4831039,5.4951268 4.8089449,5.4315948 5.1219912,5.3257015
           5.3497388,5.2359046 5.406889,4.9385578 5.2900297,4.7420205
           5.1970541,4.5590379 4.9786894,4.4912666 4.7901793,4.4531446
           4.4421604,4.401467 4.0523453,4.4150208 3.7546528,4.6225734
           3.5900262,4.7437145 3.5533478,4.9555004 3.5141104,5.1410249
           2.5971492,5.1435624 1.680188,5.1426873 0.76407973,5.1418719
           0.85193742,4.5022793 1.1436591,3.8703105 1.6597163,3.4619883
           2.2670431,2.9486198 3.0773809,2.7774969 3.8467754,2.6766873 Z"
        fill="white" />
  <path d="m 12.399678,3.4441979 c 0.429905,-0.749721 1.443254,-0.957271
           2.21862,-0.6709369 0.0068,0.5989296 0.0026,1.1970131 0.0026,1.7950956
           -0.477673,0.012705 -0.975817,-0.050828 -1.433019,0.1219882
           -0.375315,0.1558742 -0.590267,0.5582674 -0.591973,0.9513411
           -0.01109,0.9411753 0.0026,1.8831984 -0.0068,2.8243737
           -0.969847,-0.00932 -1.940546,0.017789 -2.9103927,-0.013553
           0.011092,-1.8848925 0.00423,-3.7706319 0.00344,-5.6555236
           0.8922247,0.00342 1.7844487,0.00166 2.6766737,8.469e-4
           -0.006,0.216021 -0.02303,0.4371255 0.04094,0.6463695 z"
        fill="white" />
  <path d="m 23.764026,2.9113457 c 1.123384,-0.3490227 2.369598,-0.3803678
           3.485305,0.015251 0.649976,0.208397 1.230008,0.623497
           1.620676,1.1817635 0.593679,0.8386717 0.702861,1.9204727
           0.59112,2.9158648 -1.682091,0.00254 -3.365034,0.00254 -5.047125,0
           -0.0051,0.4735526 -0.0017,0.947953 -0.0026,1.4223526
           -0.713098,-0.00761 -1.427048,0.015251 -2.138439,-0.010168
           -0.1842,-0.1372361 -0.278882,-0.3541048 -0.386359,-0.5481002
           -0.481937,-0.866627 -0.545058,-1.9331793 -0.261867,-2.8735077
           0.276368,-1.0114885 1.14215,-1.8044144 2.139292,-2.1034551 m
           1.211242,1.5985574 c -0.435024,0.1414736 -0.675566,0.6014715
           -0.655094,1.0394439 0.78816,0.00932 1.574614,-0.019487
           2.361922,-0.019487 C 26.618981,5.2748719 26.57974,4.9970086
           26.39123,4.7970834 26.060271,4.3802885 25.446973,4.3743586
           24.975271,4.5099014 Z"
        fill="white" />
</svg>
