<?xml version="1.0" encoding="UTF-8" standalone="no"?>
<!-- Created with Inkscape (http://www.inkscape.org/) -->

<svg
   xmlns:dc="http://purl.org/dc/elements/1.1/"
   xmlns:cc="http://creativecommons.org/ns#"
   xmlns:rdf="http://www.w3.org/1999/02/22-rdf-syntax-ns#"
   xmlns:svg="http://www.w3.org/2000/svg"
   xmlns="http://www.w3.org/2000/svg"
   xmlns:sodipodi="http://sodipodi.sourceforge.net/DTD/sodipodi-0.dtd"
   xmlns:inkscape="http://www.inkscape.org/namespaces/inkscape"
   id="svg2"
   version="1.1"
   inkscape:version="0.48.4 r9939"
   width="30"
   height="10"
   sodipodi:docname="bein1.svg">
  <metadata
     id="metadata8">
    <rdf:RDF>
      <cc:Work
         rdf:about="">
        <dc:format>image/svg+xml</dc:format>
        <dc:type
           rdf:resource="http://purl.org/dc/dcmitype/StillImage" />
        <dc:title />
      </cc:Work>
    </rdf:RDF>
  </metadata>
  <defs
     id="defs6" />
  <sodipodi:namedview
     pagecolor="#ffffff"
     bordercolor="#666666"
     borderopacity="1"
     objecttolerance="10"
     gridtolerance="10"
     guidetolerance="10"
     inkscape:pageopacity="0"
     inkscape:pageshadow="2"
     inkscape:window-width="1680"
     inkscape:window-height="994"
     id="namedview4"
     showgrid="false"
     inkscape:zoom="25.035294"
     inkscape:cx="24.229828"
     inkscape:cy="1.9113695"
     inkscape:window-x="-4"
     inkscape:window-y="-4"
     inkscape:window-maximized="1"
     inkscape:current-layer="svg2" />
  <path
     style="fill:#ffffff;stroke:none"
     d="m 13.356723,8.961038 c -0.122622,-0.056149 -0.272178,-0.2359376 -0.29295,-0.3522407 -0.0097,-0.053279 -0.01353,-1.2776992 -0.0084,-2.7208882 l 0.0084,-2.623975 0.07818,-0.1191606 c 0.214322,-0.3265494 0.734511,-0.2929599 0.903157,0.05827 0.06114,0.1272833 0.06163,0.14857 0.06163,2.7633991 0,2.9565264 0.01619,2.7379325 -0.216522,2.9278531 -0.08579,0.069999 -0.141629,0.089713 -0.275995,0.09745 -0.100413,0.00624 -0.204341,-0.00624 -0.257146,-0.03082 z m 1.542849,0.00624 c -0.09377,-0.037683 -0.228411,-0.1661271 -0.281687,-0.2689794 -0.0632,-0.1219055 -0.0603,-4.1015895 0.0036,-4.3729759 0.151718,-0.6489564 0.674141,-1.1805118 1.328201,-1.351429 0.226707,-0.059268 0.677235,-0.060017 0.905126,-0.00125 0.275646,0.070623 0.572437,0.2327684 0.783908,0.4281666 0.172393,0.1593131 0.333004,0.3994682 1.461867,2.1859139 0.866387,1.3711062 1.310245,2.0468518 1.400966,2.1328719 0.310905,0.2948193 0.767848,0.2769639 1.073061,-0.041924 0.224533,-0.2345901 0.212704,-0.1116739 0.229113,-2.3799021 0.01437,-1.9804465 0.01607,-2.031804 0.07516,-2.1329718 0.161989,-0.2780744 0.605411,-0.3230684 0.826863,-0.083849 0.158255,0.1709172 0.155645,0.133073 0.155645,2.2467919 0,1.6700054 -0.0072,1.9907778 -0.04652,2.1844291 C 22.66898,8.2243975 22.158568,8.7630276 21.458423,8.9436149 20.86047,9.0978415 20.221152,8.9307676 19.771132,8.5026631 19.553858,8.2959606 19.584755,8.3425517 17.99959,5.831074 17.469965,4.9919475 17.002823,4.2686249 16.96151,4.2237183 16.754014,3.9980996 16.376688,3.9292236 16.08879,4.0644051 c -0.176223,0.082726 -0.371635,0.295755 -0.419678,0.4574513 -0.02489,0.083849 -0.03492,0.661197 -0.03589,2.0680886 -0.0012,2.0590174 -0.0036,2.0909849 -0.135454,2.2383446 -0.133751,0.1491315 -0.411752,0.2139897 -0.597703,0.1394364 z M 24.774358,8.953802 C 24.200532,8.7981439 23.728882,8.3376231 23.532649,7.7413842 L 23.464379,7.5340076 23.454679,5.47509 c -0.0048,-1.1324233 -0.0012,-2.1161521 0.0084,-2.1860886 0.02718,-0.1868261 0.154799,-0.3199738 0.346537,-0.3616738 0.108268,-0.023583 0.913827,-0.03057 2.767327,-0.023957 2.451494,0.00874 2.620624,0.012602 2.711358,0.062513 0.05316,0.029322 0.12261,0.095952 0.154123,0.1481332 0.05582,0.092209 0.05728,0.1695946 0.0574,2.8440164 0,3.0347979 0.01087,2.8641427 -0.184935,2.9844261 -0.09111,0.056024 -0.161603,0.057771 -2.238584,0.056024 -1.771841,-0.00125 -2.171933,-0.00874 -2.302131,-0.044545 z M 27.114176,6.1786745 27.10574,4.1567777 27.035171,4.0135356 C 26.991184,3.9244459 26.920017,3.8404722 26.846478,3.7913481 26.730961,3.7141122 26.71663,3.7122406 26.19724,3.7038806 l -0.531063,-0.00874 -0.150836,0.4085019 -0.150861,0.4084894 0.496045,0.00749 0.496034,0.00749 0,1.8360439 0,1.836044 0.382873,0 0.38286,0 -0.0084,-2.0218969 z M 3.1339603,8.9392772 C 1.8037534,8.7596881 0.74849088,7.7209585 0.54761748,6.3934489 c -0.063559,-0.4199688 -0.063437,-5.1471693 4.83e-5,-5.2711086 0.070204,-0.13675381 0.2198081,-0.16220801 0.3494019,-0.059393 l 0.077213,0.06114 0.00725,1.5798802 0.00725,1.5798801 L 1.180104,4.0444159 C 1.5526373,3.5782181 2.1080603,3.2113038 2.7220391,3.0258003 2.9657359,2.9521828 3.0266844,2.9459441 3.5005447,2.9461936 3.934518,2.9464307 4.0501918,2.9561757 4.2426915,3.009829 4.7888828,3.1615932 5.2192673,3.4138141 5.616483,3.8149294 6.2344372,4.4389556 6.5274825,5.2014826 6.4878249,6.082359 6.4515749,6.8878461 6.1441867,7.5578522 5.5487921,8.1291735 5.1417889,8.5197078 4.7174098,8.7512034 4.1712306,8.8806204 3.8748625,8.9508688 3.4126384,8.9769469 3.1333198,8.9392648 z M 3.8673467,8.4505073 C 4.2471865,8.4098306 4.7474369,8.1898517 5.093528,7.9114654 5.4702624,7.6084112 5.810916,7.0771802 5.9434703,6.5860146 5.9948245,6.3956949 6.0073912,6.2673259 6.0076329,5.9342756 6.0078625,5.5688711 5.9991745,5.4885159 5.9293328,5.2589293 5.6996284,4.4970511 5.2462252,3.9668434 4.5384193,3.6323456 3.2971699,3.0457768 1.7802876,3.6236114 1.205495,4.901947 0.98876818,5.3839791 0.92965648,6.0577783 1.060362,6.5563929 c 0.2735669,1.0436459 1.1337801,1.7936328 2.1910362,1.9102978 0.2032057,0.02246 0.2730353,0.020587 0.6158881,-0.01622 z M 9.361945,8.9404751 C 8.893328,8.8808325 8.318149,8.6479892 7.951842,8.3697029 6.4796566,7.2513416 6.3207002,5.1212521 7.611769,3.8126959 7.989446,3.4299102 8.458521,3.1582993 8.996751,3.0107648 c 0.211385,-0.05802 0.318734,-0.067877 0.732419,-0.067877 0.413685,0 0.521034,0.00998 0.73242,0.067877 1.178102,0.3229436 2.029047,1.2615285 2.220798,2.4495143 0.06743,0.4179724 0.05969,0.5361597 -0.04253,0.6392116 l -0.08591,0.086594 -1.634152,0 c -1.725404,0 -1.768615,-0.00374 -1.81864,-0.1346326 -0.03745,-0.098448 -0.01692,-0.2117686 0.04978,-0.2749424 0.06791,-0.064384 0.06827,-0.064384 1.571692,-0.064384 l 1.503688,0 0,-0.084099 c 0,-0.1534986 -0.116364,-0.5462664 -0.233668,-0.7881808 C 11.544803,3.9156851 10.591753,3.3490054 9.588582,3.410395 9.212488,3.4334784 8.983388,3.4948678 8.627593,3.6682931 8.119633,3.9158473 7.73461,4.2982212 7.4826842,4.8053207 7.2885773,5.1960297 7.2245961,5.4685515 7.2210797,5.9195394 c -0.00362,0.4556545 0.04978,0.696396 0.2458483,1.1109371 0.159742,0.337642 0.222672,0.4286781 0.478331,0.6920663 1.08761,1.1204575 2.897477,0.9768036 3.832148,-0.3042022 0.156854,-0.2149754 0.168949,-0.2238844 0.304815,-0.2244708 0.131539,-5.741e-4 0.2146,0.083973 0.2146,0.2185439 0,0.2030844 -0.519343,0.7899651 -0.943963,1.0667167 -0.560087,0.3650302 -1.335862,0.544844 -1.990839,0.4614317 z"
     id="path2987"
     inkscape:connector-curvature="0"
     sodipodi:nodetypes="ccccccsccccccccccscscccsccsscccccccccccccsccccccccccccccccccccccccccccccscccsccccccccccccccccccscsccccsccscscccscccscsccc" />
</svg>
