<?xml version="1.0" encoding="UTF-8"?>
<svg xmlns="http://www.w3.org/2000/svg" width="30" height="10">
  <path d="M 7 1 L 7 9 L 23 9 L 23 1 L 7 1 z M 15.208984 1.4023438 L 22.585938
           1.4023438 L 22.585938 8.5957031 L 15.208984 8.5957031 L 15.208984
           1.4023438 z M 11.849609 2.1777344 C 12.071899 2.1867481 12.292845
           2.2165962 12.507812 2.2636719 C 12.857008 2.3499076 13.227285
           2.4509363 13.5 2.6914062 C 13.429372 3.0752077 13.355822 3.4594567
           13.275391 3.8417969 C 13.091349 3.8332279 12.503775 3.4936063
           12.746094 3.6132812 C 12.110971 3.3515078 11.302683 3.3596336
           10.767578 3.8261719 C 10.318802 4.2234176 10.19523 4.9004584
           10.380859 5.4492188 C 10.547034 5.9375697 11.043359 6.2576014
           11.556641 6.296875 C 11.999768 6.3518142 12.437843 6.2198099
           12.839844 6.0507812 C 12.894753 6.1718719 12.833903 6.3584888
           12.832031 6.3359375 L 12.673828 7.2265625 C 12.619968 7.4362363
           11.976927 7.5532502 12.150391 7.4863281 C 11.196821 7.6885358
           10.098587 7.4654558 9.4375 6.7285156 C 8.8026827 6.0192586 8.677604
           4.9731278 8.9511719 4.0917969 C 9.1236719 3.5355378 9.4586865
           3.0142975 9.9609375 2.6894531 C 10.506353 2.3037663 11.182739
           2.1506931 11.849609 2.1777344 z "
        fill="white" />
  <path d="M 20.446802,4.9821787 C 20.31836,4.883079 20.143295,4.7978176
           19.926178,4.7277336 20.161579,4.6040822 20.312418,4.5023042
           20.408406,4.4032045 20.622781,4.1875958 20.726997,3.9291331
           20.726997,3.6117464 20.726997,3.169369 20.556503,2.8104676
           20.221,2.545309 19.890982,2.2788113 19.454006,2.144 18.918298,2.144 c
           -0.277909,0 -0.519252,0.034372 -0.736369,0.1075812
           -0.331389,0.1013316 -0.597871,0.2691761 -0.789391,0.498623
           -0.20569,0.2406069 -0.310363,0.5316564 -0.310363,0.8615422
           0,0.3187259 0.108787,0.5870092 0.33276,0.8191346 0.112901,0.1098131
           0.259626,0.2115912 0.435605,0.2995309 -0.229458,0.081244
           -0.404523,0.1678445 -0.522909,0.2584627 C 17.024582,5.2308206
           16.871,5.5754375 16.871,6.016922 c 0,0.4615723 0.192891,0.8436863
           0.573646,1.1347358 C 17.824029,7.4391361 18.314485,7.586
           18.904129,7.586 c 0.283394,0 0.555362,-0.039729 0.812246,-0.1151699
           0.351043,-0.1071348 0.639923,-0.2830143 0.85704,-0.5236212 C
           20.816129,6.6833895 20.94,6.3726987 20.94,6.0236179 c 0,-0.433003
           -0.162266,-0.7736023 -0.493198,-1.0414392 z m -1.542673,1.4811382 c
           -0.348302,0 -0.628954,-0.2392677 -0.628954,-0.579867 0,-0.3405993
           0.280652,-0.5745102 0.63581,-0.5745102 0.349673,0 0.623468,0.2339109
           0.623468,0.5745102 0,0.3405993 -0.273795,0.579867 -0.630324,0.579867
           z M 18.32317,3.6322805 c 0,-0.3200651 0.259169,-0.5343346
           0.587815,-0.5343346 0.308992,0 0.575474,0.2267686 0.575474,0.5276387
           0,0.3200651 -0.252313,0.5401378 -0.58233,0.5401378 -0.32179,0
           -0.580959,-0.2200727 -0.580959,-0.5334419 z"
        fill="white" />
</svg>
