<?xml version="1.0" encoding="UTF-8"?>
<svg xmlns="http://www.w3.org/2000/svg" width="30" height="10">
  <path d="M 0.5 1 L 0.5 9 L 29.5 9 L 29.5 1 L 0.5 1 z M 7.7011719 1.4667969 L
           29.058594 1.4667969 L 29.058594 8.5429688 L 7.7011719 8.5429688 L
           7.7011719 1.4667969 z M 4.7753906 2.1894531 C 5.0229458 2.1894531
           5.2626364 2.218376 5.4921875 2.2773438 C 5.7217386 2.3363115
           5.9468249 2.4259786 6.171875 2.5488281 L 5.9589844 3.953125 C
           5.7789443 3.7860497 5.5865471 3.6538502 5.375 3.5703125 C 5.1634529
           3.4818609 4.946348 3.4375 4.7167969 3.4375 C 4.3297106 3.4375
           4.011227 3.5840675 3.7636719 3.8789062 C 3.5116157 4.173745 3.3847656
           4.5469062 3.3847656 5.0039062 C 3.3847656 5.4166805 3.4896247
           5.7368476 3.7011719 5.9628906 C 3.912719 6.1889337 4.2092116
           6.3027344 4.5917969 6.3027344 C 4.758334 6.3027344 4.9299296
           6.2825071 5.1054688 6.2382812 C 5.2810079 6.1940554 5.46466 6.1294673
           5.6582031 6.0410156 L 5.4648438 7.359375 C 5.3073087 7.4134288
           5.1310431 7.4568442 4.9375 7.4863281 C 4.7439569 7.515812 4.5369554
           7.53125 4.3164062 7.53125 C 3.6502578 7.53125 3.1193392 7.304594
           2.71875 6.8574219 C 2.3181608 6.4053358 2.1210938 5.811378 2.1210938
           5.0644531 C 2.1210938 4.7057326 2.1699144 4.361432 2.2734375
           4.0371094 C 2.3769606 3.7127867 2.5304715 3.4118393 2.7285156
           3.1464844 C 2.9625678 2.8369037 3.2549853 2.5977082 3.6015625
           2.4355469 C 3.9526407 2.2684716 4.3432944 2.1894531 4.7753906
           2.1894531 z "
        fill="white" />
  <path d="m 9.038,7.4813234 0,-5.1645607 1.242294,0 c 0,0 2.165013,3.1056159
           2.160512,2.997509 -0.0135,-0.1670742 -0.01801,-0.3194067
           -0.01801,-0.4471693 l 0,-2.5503397 1.237794,0 0,5.1645607 -1.237794,0
           c 0,0 -2.205522,-3.3758832 -2.201021,-3.1400136 0.02251,0.9533061
           0.05851,3.1400136 0.05851,3.1400136 l -1.242294,0 z"
        fill="white" />
  <path d="m 14.565309,7.4764094 0,-5.1645607 2.646627,0 0,1.1351223 -1.498855,0
           0,0.8943388 1.413334,0 0,1.1105525 -1.413334,0 0,0.869769 1.498855,0
           0,1.1547781 -2.646627,0 z"
        fill="white" />
  <path d="m 21.654488,2.3118487 0.634651,2.4569747 c 0.02701,0.098279
           0.05851,0.2162137 0.08552,0.3439764 0.009,0.049139 0.0225,0.1130209
           0.03601,0.2014719 0.01801,0.088451 0.02701,0.1572464
           0.03601,0.2112999 0.03151,-0.1523325 0.06302,-0.3046649
           0.08552,-0.4569973 0.0135,-0.073709 0.03601,-0.1719882
           0.07202,-0.3046649 l 0.59414,-2.4569746 1.39083,0 -1.431339,5.1645607
           -1.278303,0 -0.625648,-2.2063633 c -0.04501,-0.1621603
           -0.08102,-0.3144927 -0.112527,-0.4569972 -0.0045,-0.014742
           -0.009,-0.044226 -0.0225,-0.083537 -0.0135,-0.044225
           -0.02251,-0.093365 -0.03601,-0.1523324 -0.0045,0.014742
           -0.02251,0.083537 -0.04951,0.2063859 -0.04051,0.18673
           -0.08102,0.3488904 -0.121529,0.481567 l -0.616646,2.2063632
           -1.282804,0 -1.408833,-5.1547328 1.390829,0 0.580637,2.4668026 c
           0.01801,0.083537 0.04501,0.2112998 0.08102,0.383288 0.03601,0.1818161
           0.06302,0.3144928 0.07202,0.388202 0.03151,-0.1474185
           0.05401,-0.2506114 0.06752,-0.3095788 0.04051,-0.191644
           0.07652,-0.3488904 0.108025,-0.4619112 l 0.634651,-2.4668026
           1.116264,0 z"
        fill="white" />
  <path d="m 25.133812,5.8056667 c 0.193546,0.2407835 0.38259,0.4176857
           0.558132,0.5307065 0.184544,0.1179348 0.369088,0.1769022
           0.544629,0.1769022 0.16654,0 0.306073,-0.04914 0.414099,-0.1523325
           0.108025,-0.1031929 0.166539,-0.2309556 0.166539,-0.383288
           0,-0.1670743 -0.04501,-0.2997509 -0.135032,-0.3980299 C
           26.583159,5.48626 26.371605,5.3928949 26.038526,5.2946159
           25.583918,5.1570254 25.264343,4.9801232 25.075298,4.7639094
           24.886253,4.5427817 24.791731,4.2430308 24.791731,3.8597428 c
           0,-0.491395 0.148535,-0.8943388 0.450106,-1.2039176 C
           25.534407,2.3413324 25.921499,2.189 26.398612,2.189 c 0.270064,0
           0.513122,0.039312 0.729172,0.1179348 0.229554,0.078623
           0.445606,0.191644 0.652655,0.3439764 L 27.379844,3.6631848 C
           27.24031,3.5305082 27.091775,3.4273152 26.934239,3.353606
           26.781203,3.2848107 26.632667,3.250413 26.488633,3.250413 c
           -0.148535,0 -0.270064,0.039312 -0.373589,0.1228488 -0.09452,0.078623
           -0.144034,0.1818161 -0.144034,0.3095788 0,0.1228487 0.04051,0.2260416
           0.12603,0.3095788 0.08552,0.078623 0.25206,0.1523324
           0.490617,0.2211277 0.009,0 0.018,0.00491 0.0225,0.00491 0.0045,0
           0.018,0.00491 0.02701,0.00983 0.517622,0.1523325 0.859703,0.3243207
           1.026243,0.5159647 0.108026,0.1179348 0.193546,0.2702672
           0.256561,0.4569973 0.05401,0.1719882 0.08102,0.3734602
           0.08102,0.5945879 0,0.5454483 -0.162038,0.9877038 -0.486115,1.3218523
           C 27.186298,7.4469257 26.754196,7.614 26.218569,7.614 c -0.328578,0
           -0.625648,-0.058967 -0.88671,-0.1818161 -0.261062,-0.1179348
           -0.517622,-0.3144928 -0.769682,-0.579846 l 0.571635,-1.0466712 z"
        fill="white" />
</svg>
