<?xml version="1.0" encoding="UTF-8" standalone="no"?>
<svg
   xmlns:dc="http://purl.org/dc/elements/1.1/"
   xmlns:cc="http://creativecommons.org/ns#"
   xmlns:rdf="http://www.w3.org/1999/02/22-rdf-syntax-ns#"
   xmlns:svg="http://www.w3.org/2000/svg"
   xmlns="http://www.w3.org/2000/svg"
   xmlns:sodipodi="http://sodipodi.sourceforge.net/DTD/sodipodi-0.dtd"
   xmlns:inkscape="http://www.inkscape.org/namespaces/inkscape"
   width="30"
   height="10"
   viewBox="0 0 24 8"
   version="1.1"
   id="svg2"
   inkscape:version="0.48.4 r9939"
   sodipodi:docname="canalplus-sport.svg">
  <metadata
     id="metadata57">
    <rdf:RDF>
      <cc:Work
         rdf:about="">
        <dc:format>image/svg+xml</dc:format>
        <dc:type
           rdf:resource="http://purl.org/dc/dcmitype/StillImage" />
      </cc:Work>
    </rdf:RDF>
  </metadata>
  <defs
     id="defs55" />
  <sodipodi:namedview
     pagecolor="#ffffff"
     bordercolor="#666666"
     borderopacity="1"
     objecttolerance="10"
     gridtolerance="10"
     guidetolerance="10"
     inkscape:pageopacity="0"
     inkscape:pageshadow="2"
     inkscape:window-width="1600"
     inkscape:window-height="851"
     id="namedview53"
     showgrid="false"
     inkscape:zoom="44.653301"
     inkscape:cx="13.781011"
     inkscape:cy="3.1072383"
     inkscape:window-x="0"
     inkscape:window-y="25"
     inkscape:window-maximized="1"
     inkscape:current-layer="svg2" />
  <g
     id="#ffffffff"
     transform="matrix(0.0252167,0,0,0.02491161,3.8486999,0.25052792)"
     style="fill:#ffffff">
    <path
       d="M 47.49,33.65 C 58.54,25.67 73,23.92 86.16,26.31 c 6.56,1.24 13.15,3.31 18.52,7.42 -1.63,6.74 -2.17,13.74 -4.3,20.35 -7.24,-5.27 -16.26,-8.26 -25.25,-7.43 -7.81,0.84 -15.7,4.99 -19.29,12.24 -3.76,7.73 -4.2,17.58 0.61,24.97 4.19,6.59 12.2,9.77 19.8,9.72 6.42,0.15 12.45,-2.3 18.35,-4.53 -1.38,7.2 -1.95,14.65 -4.08,21.66 C 73.03,118.41 49.78,114.76 37.5,99.4 29.51,89.23 27.28,75.4 29.48,62.87 31.62,51.4 37.46,40.08 47.49,33.65 z"
       id="path5"
       inkscape:connector-curvature="0"
       style="fill:none" />
    <path
       d="m 463.75,27 c 8.19,0 16.39,0 24.58,0 0.01,9.29 -0.01,18.58 0.01,27.87 10.21,0.31 20.42,0 30.63,0.16 0.06,8.13 0.01,16.26 0.03,24.39 -9.91,0.32 -19.85,-0.1 -29.76,0.2 -0.19,0.17 -0.57,0.52 -0.77,0.69 -0.36,10.55 0.01,21.12 -0.18,31.68 -8.11,0.02 -16.23,-0.01 -24.34,0.03 -0.71,-10.81 0.04,-21.67 -0.4,-32.49 -10.3,0.01 -20.6,-0.01 -30.9,0.01 0.06,-8.18 -0.04,-16.36 0.06,-24.53 10.32,-0.02 20.64,0 30.96,-0.02 0.04,-9.33 -0.1,-18.66 0.08,-27.99 z"
       id="path7"
       inkscape:connector-curvature="0"
       style="fill:none" />
    <path
       d="m 138.18,28.69 c 9.34,-0.04 18.67,-0.04 28,0 5.96,27.71 12.01,55.41 17.65,83.18 -7.23,0.25 -14.47,0.12 -21.7,0.08 -1.27,-4.79 -2.37,-9.63 -3.58,-14.43 -9.84,0.15 -19.69,-0.25 -29.51,0.21 -2.25,4.76 -4.42,9.55 -6.8,14.25 -8.35,0.03 -16.69,0.03 -25.04,0 4.14,-10.4 10,-20.04 14.57,-30.26 8.71,-17.73 17.7,-35.31 26.41,-53.03 m -0.88,50.3 c 5.77,-0.15 11.53,0.33 17.3,0.27 -1.99,-8.73 -3.92,-17.47 -5.82,-26.21 -3.93,8.6 -7.65,17.3 -11.48,25.94 z"
       id="path9"
       inkscape:connector-curvature="0"
       style="fill:none" />
    <path
       d="m 203.87,32.85 c 0.43,-1.32 0.04,-3.11 1.21,-4.06 7.96,-0.29 15.94,-0.07 23.91,-0.09 9.09,15.68 17.83,31.56 27.05,47.16 2.56,-15.68 4.47,-31.46 7.04,-47.14 7.67,-0.24 15.33,0.56 23,0.28 -3.75,27.69 -7.85,55.33 -11.77,83 -7.54,0 -15.07,-0.01 -22.61,0.01 -9.68,-17.07 -19.26,-34.2 -28.93,-51.27 -2.48,17.02 -4.82,34.07 -7.3,51.09 -6.87,0.33 -13.76,0.13 -20.64,0.15 -1.82,0.39 -1.88,-1.79 -1.54,-2.95 3.48,-25.4 7.1,-50.79 10.58,-76.18 z"
       id="path11"
       inkscape:connector-curvature="0"
       style="fill:none" />
    <path
       d="m 324.36,31.13 c 0.59,-1.02 1.12,-2.73 2.65,-2.45 8.72,-0.07 17.45,0.05 26.17,-0.04 6.17,27.66 11.46,55.52 17.53,83.21 -7.38,0.97 -14.97,0.46 -22.41,0.26 -0.96,-4.86 -2.08,-9.68 -3.04,-14.54 -2.66,-0.83 -5.47,-0.55 -8.2,-0.58 -6.38,0.06 -12.76,-0.06 -19.13,0.03 -1.36,-0.26 -2.08,1.13 -2.57,2.11 -2.02,4.3 -3.99,8.61 -6.08,12.87 -8.44,-0.08 -16.89,0.16 -25.32,-0.13 13.47,-26.91 27.03,-53.78 40.4,-80.74 m -0.09,48.01 c 5.83,0.22 11.66,0.06 17.49,0.12 -1.84,-8.86 -3.85,-17.68 -5.7,-26.53 -4.03,8.76 -7.78,17.64 -11.79,26.41 z"
       id="path13"
       inkscape:connector-curvature="0"
       style="fill:none" />
    <path
       d="m 379.65,111.95 c 3.78,-27.79 7.9,-55.54 11.88,-83.31 7.86,0.06 15.72,0.01 23.59,0.03 -2.63,21.47 -6.01,42.84 -8.71,64.3 8.38,0.06 16.77,0.02 25.15,0.03 -0.56,6.36 -1.58,12.67 -2.4,19 -16.5,-0.03 -33.01,0.06 -49.51,-0.05 z"
       id="path15"
       inkscape:connector-curvature="0"
       style="fill:none" />
    <path
       d="m 368.22,160.32 c 13.35,-2.25 27.81,0.54 38.7,8.79 8.31,6.21 14.23,15.54 16.18,25.74 3.03,14.55 -1.21,30.75 -12.12,41.08 -16.49,16.26 -44.97,17.37 -63.19,3.34 -10.3,-7.74 -16.78,-20.37 -16.82,-33.28 -0.43,-12.4 4.26,-25.07 13.3,-33.67 6.46,-6.4 15.01,-10.5 23.95,-12 m 4.27,19.33 c -8.44,1.75 -15.75,8.26 -18.35,16.49 -2.46,7.56 -0.59,16.23 4.4,22.34 5.23,6.59 14.05,10.1 22.37,8.83 8.94,-1.19 16.9,-7.75 19.67,-16.35 2.84,-8.23 0.78,-17.95 -5.37,-24.17 -5.64,-6.18 -14.58,-8.81 -22.72,-7.14 z"
       id="path17"
       inkscape:connector-curvature="0"
       style="fill:none" />
    <path
       d="m 190.35,181.9 c 1.63,-9.65 9.09,-18.08 18.66,-20.4 11.59,-2.75 23.8,0.38 34.17,5.76 -2.76,5.75 -5.7,11.42 -8.51,17.15 -4.18,-3.3 -9.19,-6.18 -14.72,-5.68 -3.83,0.21 -8.26,2.99 -7.98,7.28 0.26,3.69 4.09,5.63 7.17,6.73 7.82,2.56 16.78,4.14 22.29,10.86 6.2,6.87 5.5,17.06 3.42,25.43 -1.86,8.28 -9.02,14.31 -16.82,16.92 -14,4.81 -29.94,1.17 -41.67,-7.47 3.02,-5.83 6.15,-11.61 9,-17.53 5.09,4.22 10.92,8.19 17.75,8.52 4.38,0.34 9.92,-1.58 10.81,-6.44 0.94,-3.55 -1.49,-6.85 -4.62,-8.25 -7.8,-3.72 -17.24,-4.2 -23.9,-10.18 -6.07,-5.74 -6.41,-14.99 -5.05,-22.7 z"
       id="path19"
       inkscape:connector-curvature="0"
       style="fill:none" />
    <path
       d="m 261,162.52 c 11.34,-0.02 22.68,0.01 34.02,-0.02 4.92,0 10.01,0.53 14.39,2.94 7.21,3.85 12.06,11.41 12.99,19.49 0.99,8.55 0,18.03 -5.57,24.95 -4.55,5.57 -11.89,8.05 -18.89,8.33 -5.23,0.14 -10.46,-0.01 -15.69,0.04 0.05,9.13 -0.09,18.26 0.08,27.38 -7.11,0.22 -14.22,0.05 -21.32,0.11 -0.02,-27.74 0,-55.48 -0.01,-83.22 m 21.25,17.74 c 0.01,6.83 0,13.67 0,20.5 5.24,-0.22 11.39,0.83 15.75,-2.81 3.49,-4 3.49,-10.92 -0.02,-14.92 -4.23,-4.02 -10.48,-2.52 -15.73,-2.77 z"
       id="path21"
       inkscape:connector-curvature="0"
       style="fill:none" />
    <path
       d="m 442.09,162.5 c 10.3,0.09 20.61,-0.12 30.9,0.09 8.25,0.4 17.47,2.96 22.12,10.37 4.33,7.28 4.39,16.41 2.52,24.46 -2.01,8 -8.9,13.55 -16.41,16.17 6.86,10.68 13.61,21.42 20.38,32.15 -8.31,-0.04 -16.63,0.05 -24.94,-0.05 -6.48,-10.83 -13.01,-21.61 -19.51,-32.43 -1.35,10.82 -2.63,21.65 -3.95,32.48 -7.1,-0.01 -14.19,0 -21.29,-0.01 3.31,-27.76 6.81,-55.49 10.18,-83.23 m 16.56,36.79 c 5.2,0.12 10.96,-0.03 15.16,-3.55 3.69,-2.89 4.6,-9.28 0.85,-12.48 -3.7,-3.03 -8.82,-2.71 -13.31,-2.85 -1.01,6.28 -1.78,12.59 -2.7,18.88 z"
       id="path23"
       inkscape:connector-curvature="0"
       style="fill:none" />
    <path
       d="m 508.75,162.52 c 19.17,-0.01 38.33,-0.01 57.5,0 0,6.16 0,12.32 0,18.48 -6,0.01 -12,-0.01 -18,0.01 0.01,21.57 0,43.15 0,64.72 -7.33,0 -14.66,0 -21.99,0.01 0.01,-21.58 0.01,-43.16 0,-64.74 -5.84,-0.01 -11.67,0 -17.51,0 -0.01,-6.16 -0.01,-12.32 0,-18.48 z"
       id="path25"
       inkscape:connector-curvature="0"
       style="fill:none" />
  </g>
  <path
     style="fill:#ffffff"
     inkscape:connector-curvature="0"
     id="path28"
     d="m 4,0.39999995 c 4.5054675,0 9.010682,0 13.516149,0 -2.52e-4,1.00567825 2.53e-4,2.01136545 0,3.01679165 -5.03e-4,0.1078741 0.002,0.2157391 -0.0015,0.3236041 l -0.0015,0.02295 c -1.392719,0.0018 -2.785687,-0.0054 -4.178155,0.0036 -2.189566,-0.009 -4.3793833,-0.0018 -6.5689492,-0.0036 -0.9219226,0 -1.8440972,0 -2.7660196,0 0,-1.1210223 0,-2.2420445 0,-3.36306675 M 5.0461743,1.0890851 c -0.2529234,0.160182 -0.4001889,0.4421791 -0.4541527,0.7279202 -0.055477,0.312138 7.566e-4,0.6566671 0.202238,0.9100172 0.309661,0.3826441 0.8959492,0.4735711 1.3369892,0.281754 0.053712,-0.174636 0.068086,-0.360225 0.1028841,-0.5395861 -0.1487784,0.05553 -0.3008351,0.116586 -0.4627263,0.112851 -0.1916468,9e-4 -0.3936327,-0.07794 -0.4992907,-0.242145 C 5.1508236,2.1558013 5.161919,1.9104163 5.2567341,1.7178522 c 0.090529,-0.180612 0.2894876,-0.283995 0.4864301,-0.30492 0.226698,-0.0207 0.4541528,0.05382 0.6367216,0.185094 C 6.4335978,1.4333622 6.4472142,1.2589781 6.4883176,1.0910741 6.3529039,0.98869013 6.1867259,0.93712013 6.0213043,0.90623203 5.6894525,0.84674203 5.3248192,0.89030203 5.0461746,1.0890851 M 15.542878,0.92342203 c -0.0045,0.23242507 -10e-4,0.46485017 -0.002,0.69727517 -0.260237,5.04e-4 -0.520474,0 -0.78071,5.04e-4 -0.0025,0.2035261 0,0.4073041 -0.0015,0.6110732 0.259733,-4.95e-4 0.519464,0 0.779196,-2.43e-4 0.0111,0.269541 -0.0078,0.5400811 0.0101,0.8093791 0.204507,-9e-4 0.409267,-2.52e-4 0.613774,-7.47e-4 0.0048,-0.26307 -0.0045,-0.5263831 0.0045,-0.7892011 0.0049,-0.0045 0.01463,-0.01296 0.01941,-0.01719 0.249898,-0.0072 0.500551,0.0027 0.750449,-0.0054 -5.04e-4,-0.2025271 7.57e-4,-0.4050631 -7.56e-4,-0.6075902 -0.257464,-0.0036 -0.514924,0.0036 -0.772387,-0.0036 -5.05e-4,-0.231426 0,-0.4628611 -2.52e-4,-0.69428717 -0.206525,0 -0.413303,0 -0.619827,0 m -8.2098001,0.04212 C 7.1134368,1.4069472 6.8867387,1.8448963 6.6671013,2.2865804 6.5518611,2.5411724 6.4040911,2.7813195 6.2996941,3.0404025 c 0.2105594,7.47e-4 0.4208667,7.47e-4 0.6314261,0 0.060015,-0.117081 0.114736,-0.236412 0.1714734,-0.354987 0.2476284,-0.01143 0.4960128,-0.0018 0.7441445,-0.0054 0.030509,0.119583 0.058255,0.240147 0.090273,0.359478 0.1823163,9e-4 0.3648853,0.0045 0.5472025,-0.0018 C 8.341991,2.3458994 8.1894302,1.6558512 8.0391384,0.96555113 c -0.2352717,-9e-4 -0.4705434,-9e-4 -0.706067,0 M 8.9895562,1.0691861 c -0.087755,0.6325021 -0.179039,1.2650043 -0.2667926,1.8977584 -0.00855,0.02889 -0.00709,0.08316 0.038836,0.07353 0.1734908,-4.95e-4 0.3472335,0.0045 0.5204725,-0.0036 0.062537,-0.4239991 0.1215445,-0.8487362 0.1840818,-1.2727353 0.2438453,0.4252411 0.4854215,0.8519762 0.7295191,1.2772173 0.190135,-4.95e-4 0.380016,-2.52e-4 0.57015,-2.52e-4 0.09885,-0.6893011 0.202237,-1.3778553 0.2968,-2.06766037 -0.193411,0.0072 -0.386572,-0.01296 -0.579984,-0.0072 C 10.41783,1.3568531 10.369669,1.7499642 10.305114,2.1405733 10.072616,1.7519532 9.8522224,1.3563581 9.6230024,0.96574913 c -0.2009771,4.95e-4 -0.4022062,-0.0054 -0.6029315,0.0018 -0.0295,0.02367 -0.019673,0.06822 -0.030509,0.10114197 m 3.0383601,-0.04284 c -0.337148,0.6716161 -0.679085,1.3409913 -1.018754,2.0113564 0.212576,0.0072 0.425657,9e-4 0.638486,0.0036 0.0527,-0.106119 0.102379,-0.213489 0.153318,-0.320607 0.01235,-0.02439 0.0305,-0.05904 0.06481,-0.05256 0.160631,-0.0018 0.321513,7.47e-4 0.482397,-7.47e-4 0.06885,7.47e-4 0.139699,-0.0063 0.206775,0.01449 0.02421,0.121068 0.05246,0.241146 0.07666,0.362214 0.187612,0.0054 0.379007,0.01764 0.565107,-0.0063 -0.153066,-0.6898051 -0.286462,-1.3838403 -0.442049,-2.07288937 -0.219889,0.0018 -0.440032,-7.56e-4 -0.659921,9e-4 -0.03859,-0.0072 -0.05195,0.03564 -0.06683,0.06102 m 1.394231,2.0133544 c 0.416075,0.0027 0.832404,4.95e-4 1.248479,9e-4 0.02069,-0.157689 0.04641,-0.314883 0.06052,-0.4733191 -0.211317,-2.52e-4 -0.422885,7.47e-4 -0.634202,-7.47e-4 0.06808,-0.5346001 0.153319,-1.0669592 0.219638,-1.60181124 -0.198456,-5.04e-4 -0.396658,7.47e-4 -0.594861,-7.47e-4 C 13.621362,1.6557522 13.517471,2.3470424 13.422152,3.0393405 z" />
  <path
     style="fill:#ffffff"
     inkscape:connector-curvature="0"
     id="path30"
     d="m 12.025719,2.2220324 c 0.101118,-0.2184751 0.19568,-0.4396862 0.297304,-0.6579092 0.04666,0.220464 0.09733,0.4401811 0.143736,0.6608972 -0.147015,-0.0018 -0.294028,0.0027 -0.44104,-0.0027 z" />
  <path
     style="fill:#ffffff"
     inkscape:connector-curvature="0"
     id="path32"
     d="m 7.3109526,2.2182974 c 0.09658,-0.2152351 0.1903862,-0.4319642 0.2894872,-0.6462092 0.047909,0.2177281 0.09658,0.4354561 0.1467617,0.6529322 -0.1455008,0.0018 -0.290749,-0.01044 -0.4362489,-0.0063 z" />
  <g
     id="#d3e273ff"
     transform="matrix(0.0252167,0,0,0.02491161,3.8486999,0.25052792)"
     style="fill:#ffffff">
    <path
       d="m 542,127.1 c 28.97,-2.49 57.94,-5.02 86.91,-7.62 3.91,44.58 8.01,89.14 11.59,133.74 -10.61,0.99 -21.24,1.79 -31.85,2.82 l -0.36,0.04 c 0.25,-38.69 0.03,-77.39 0.12,-116.08 -22.16,0.06 -44.32,-0.12 -66.47,0.09 0.14,-4.33 0.04,-8.66 0.06,-12.99 z"
       id="path35"
       inkscape:connector-curvature="0"
       style="fill:#ffffff" />
    <path
       d="m 147.82,274.29 c 51.39,-0.14 102.79,-0.01 154.18,-0.06 33.37,0.12 66.75,-0.23 100.12,0.19 -13.05,0.59 -26.04,2.01 -39.06,3.09 -66,5.77 -132,11.54 -198,17.32 -5.12,0.33 -10.26,0.13 -15.38,0.15 -0.59,-6.9 -1.15,-13.8 -1.86,-20.69 z"
       id="path37"
       inkscape:connector-curvature="0"
       style="fill:#ffffff" />
  </g>
  <g
     id="#4db848ff"
     transform="matrix(0.0252167,0,0,0.02491161,3.8486999,0.25052792)"
     style="fill:#ffffff">
    <path
       d="m 541.94,140.09 c 22.15,-0.21 44.31,-0.03 66.47,-0.09 -0.09,38.69 0.13,77.39 -0.12,116.08 -61.97,5.76 -124.01,10.88 -186,16.43 -4.43,0.33 -8.89,0.54 -13.21,1.62 -2.3,0.41 -4.65,0.31 -6.96,0.29 -33.37,-0.42 -66.75,-0.07 -100.12,-0.19 -51.39,0.05 -102.79,-0.08 -154.18,0.06 -3.53,-37.33 -6.62,-74.72 -9.88,-112.09 74.39,-6.28 148.75,-13.01 223.13,-19.4 5.05,-0.43 10.05,-1.35 15.12,-1.64 55.22,-0.36 110.46,-0.07 165.69,-0.15 l 0.06,-0.92 m -173.72,20.23 c -8.94,1.5 -17.49,5.6 -23.95,12 -9.04,8.6 -13.73,21.27 -13.3,33.67 0.04,12.91 6.52,25.54 16.82,33.28 18.22,14.03 46.7,12.92 63.19,-3.34 10.91,-10.33 15.15,-26.53 12.12,-41.08 -1.95,-10.2 -7.87,-19.53 -16.18,-25.74 -10.89,-8.25 -25.35,-11.04 -38.7,-8.79 M 190.35,181.9 c -1.36,7.71 -1.02,16.96 5.05,22.7 6.66,5.98 16.1,6.46 23.9,10.18 3.13,1.4 5.56,4.7 4.62,8.25 -0.89,4.86 -6.43,6.78 -10.81,6.44 -6.83,-0.33 -12.66,-4.3 -17.75,-8.52 -2.85,5.92 -5.98,11.7 -9,17.53 11.73,8.64 27.67,12.28 41.67,7.47 7.8,-2.61 14.96,-8.64 16.82,-16.92 2.08,-8.37 2.78,-18.56 -3.42,-25.43 -5.51,-6.72 -14.47,-8.3 -22.29,-10.86 -3.08,-1.1 -6.91,-3.04 -7.17,-6.73 -0.28,-4.29 4.15,-7.07 7.98,-7.28 5.53,-0.5 10.54,2.38 14.72,5.68 2.81,-5.73 5.75,-11.4 8.51,-17.15 -10.37,-5.38 -22.58,-8.51 -34.17,-5.76 -9.57,2.32 -17.03,10.75 -18.66,20.4 M 261,162.52 c 0.01,27.74 -0.01,55.48 0.01,83.22 7.1,-0.06 14.21,0.11 21.32,-0.11 -0.17,-9.12 -0.03,-18.25 -0.08,-27.38 5.23,-0.05 10.46,0.1 15.69,-0.04 7,-0.28 14.34,-2.76 18.89,-8.33 5.57,-6.92 6.56,-16.4 5.57,-24.95 -0.93,-8.08 -5.78,-15.64 -12.99,-19.49 -4.38,-2.41 -9.47,-2.94 -14.39,-2.94 -11.34,0.03 -22.68,0 -34.02,0.02 m 181.09,-0.02 c -3.37,27.74 -6.87,55.47 -10.18,83.23 7.1,0.01 14.19,0 21.29,0.01 1.32,-10.83 2.6,-21.66 3.95,-32.48 6.5,10.82 13.03,21.6 19.51,32.43 8.31,0.1 16.63,0.01 24.94,0.05 -6.77,-10.73 -13.52,-21.47 -20.38,-32.15 7.51,-2.62 14.4,-8.17 16.41,-16.17 1.87,-8.05 1.81,-17.18 -2.52,-24.46 -4.65,-7.41 -13.87,-9.97 -22.12,-10.37 -10.29,-0.21 -20.6,0 -30.9,-0.09 m 66.66,0.02 c -0.01,6.16 -0.01,12.32 0,18.48 5.84,0 11.67,-0.01 17.51,0 0.01,21.58 0.01,43.16 0,64.74 7.33,-0.01 14.66,-0.01 21.99,-0.01 0,-21.57 0.01,-43.15 0,-64.72 6,-0.02 12,0 18,-0.01 0,-6.16 0,-12.32 0,-18.48 -19.17,-0.01 -38.33,-0.01 -57.5,0 z"
       id="path40"
       inkscape:connector-curvature="0"
       style="fill:#ffffff" />
    <path
       d="m 372.49,179.65 c 8.14,-1.67 17.08,0.96 22.72,7.14 6.15,6.22 8.21,15.94 5.37,24.17 -2.77,8.6 -10.73,15.16 -19.67,16.35 -8.32,1.27 -17.14,-2.24 -22.37,-8.83 -4.99,-6.11 -6.86,-14.78 -4.4,-22.34 2.6,-8.23 9.91,-14.74 18.35,-16.49 z"
       id="path42"
       inkscape:connector-curvature="0"
       style="fill:#ffffff" />
    <path
       d="m 282.25,180.26 c 5.25,0.25 11.5,-1.25 15.73,2.77 3.51,4 3.51,10.92 0.02,14.92 -4.36,3.64 -10.51,2.59 -15.75,2.81 0,-6.83 0.01,-13.67 0,-20.5 z"
       id="path44"
       inkscape:connector-curvature="0"
       style="fill:#ffffff" />
    <path
       d="m 458.65,199.29 c 0.92,-6.29 1.69,-12.6 2.7,-18.88 4.49,0.14 9.61,-0.18 13.31,2.85 3.75,3.2 2.84,9.59 -0.85,12.48 -4.2,3.52 -9.96,3.67 -15.16,3.55 z"
       id="path46"
       inkscape:connector-curvature="0"
       style="fill:#ffffff" />
  </g>
  <g
     id="#297d2eff"
     transform="matrix(0.0252167,0,0,0.02491161,3.8486999,0.25052792)"
     style="fill:#ffffff">
    <path
       d="m 115.69,141 c 86.83,0.1 173.67,-0.2 260.5,0.16 -5.07,0.29 -10.07,1.21 -15.12,1.64 -74.38,6.39 -148.74,13.12 -223.13,19.4 3.26,37.37 6.35,74.76 9.88,112.09 -10.7,0.05 -21.39,0.03 -32.09,0.02 -0.11,-44.44 -0.03,-88.87 -0.04,-133.31 z"
       id="path49"
       inkscape:connector-curvature="0"
       style="fill:#ffffff" />
    <path
       d="m 422.29,272.51 c 61.99,-5.55 124.03,-10.67 186,-16.43 l 0.36,-0.04 c -0.18,6.09 -0.03,12.18 -0.1,18.28 -58.51,0 -117.02,0 -175.53,0 -7.98,-0.11 -15.97,0.22 -23.94,-0.19 4.32,-1.08 8.78,-1.29 13.21,-1.62 z"
       id="path51"
       inkscape:connector-curvature="0"
       style="fill:#ffffff" />
  </g>
</svg>
