<?xml version="1.0" encoding="UTF-8" standalone="no"?>
<!-- Generator: Adobe Illustrator 16.0.0, SVG Export Plug-In . SVG Version: 6.00 Build 0)  -->

<svg
   xmlns:dc="http://purl.org/dc/elements/1.1/"
   xmlns:cc="http://creativecommons.org/ns#"
   xmlns:rdf="http://www.w3.org/1999/02/22-rdf-syntax-ns#"
   xmlns:svg="http://www.w3.org/2000/svg"
   xmlns="http://www.w3.org/2000/svg"
   xmlns:sodipodi="http://sodipodi.sourceforge.net/DTD/sodipodi-0.dtd"
   xmlns:inkscape="http://www.inkscape.org/namespaces/inkscape"
   version="1.2"
   id="Layer_1"
   x="0px"
   y="0px"
   width="30"
   height="10"
   viewBox="0 0 30 10"
   xml:space="preserve"
   inkscape:version="0.48.4 r9939"
   sodipodi:docname="25.svg"><metadata
     id="metadata33"><rdf:RDF><cc:Work
         rdf:about=""><dc:format>image/svg+xml</dc:format><dc:type
           rdf:resource="http://purl.org/dc/dcmitype/StillImage" /></cc:Work></rdf:RDF></metadata><defs
     id="defs31" /><sodipodi:namedview
     pagecolor="#ffffff"
     bordercolor="#666666"
     borderopacity="1"
     objecttolerance="10"
     gridtolerance="10"
     guidetolerance="10"
     inkscape:pageopacity="0"
     inkscape:pageshadow="2"
     inkscape:window-width="1600"
     inkscape:window-height="841"
     id="namedview29"
     showgrid="false"
     inkscape:zoom="26.255284"
     inkscape:cx="24.155265"
     inkscape:cy="10.226914"
     inkscape:window-x="0"
     inkscape:window-y="27"
     inkscape:window-maximized="1"
     inkscape:current-layer="g19" /><g
     id="g19"
     style="fill:#000000;stroke:none"
     transform="matrix(0.02280991,0,0,0.02249742,11.988595,1.001031)"><g
       id="g21"
       style="fill:#000000;stroke:none" /><g
       id="g3009"
       transform="translate(-219.20298,1.378695e-5)"
       style="fill:#ffffff"><path
         inkscape:connector-curvature="0"
         id="path23"
         d="m 0.500008,-22.270612 0,400.045872 701.449502,0 0,-400.045872 -701.449502,0 z M 198.87374,12.10833 c 7.39039,-1.209389 15.54565,-0.635523 22.21785,3.125358 6.75331,4.523619 10.87725,12.376819 11.10894,20.31483 0.47493,6.54635 -0.92676,12.622047 -3.17398,18.75215 -6.16255,18.002264 -16.55351,33.697664 -28.56583,48.443052 -12.63781,14.95012 -26.70103,29.96349 -44.43571,39.06698 -5.02733,2.17125 -10.68042,4.52592 -15.86989,1.56268 -4.22805,-1.76285 -7.29788,-6.73237 -7.93496,-10.93875 2.54843,-0.67948 1.54063,-3.37629 0,-4.68804 2.68742,-4.91961 6.57969,-9.05219 11.10893,-12.50143 15.99711,-12.34912 32.60876,-24.186677 44.43571,-40.629663 6.68379,-8.842514 12.47588,-18.256343 17.45689,-28.128225 2.01555,-4.09387 4.42504,-9.394227 3.17399,-14.064113 -1.18154,-0.389795 -2.4013,-0.657125 -3.17399,-1.562679 -5.42116,0.112513 -9.61466,3.683472 -14.2829,6.250717 -15.85812,8.243995 -29.08727,20.196015 -41.26174,32.816263 -4.15857,4.591126 -7.04303,9.394227 -11.10893,14.064112 -7.54101,9.793123 -15.11703,21.176978 -22.21786,31.253588 -0.19694,0.53101 -1.39004,1.03056 -1.58698,1.56268 -8.07384,13.79588 -13.69215,29.52043 -15.869903,45.31769 -1.447944,7.45311 -0.602345,14.65163 1.586993,21.87751 2.13139,7.07961 8.28256,12.78612 15.86989,14.06411 5.98877,0.89326 13.30995,0.54107 19.04387,-1.56268 13.91205,-4.60237 26.08703,-12.22835 38.08778,-20.31483 11.58369,-8.06287 23.13311,-16.86243 33.32677,-26.56554 4.80724,-4.55737 7.93501,-9.82628 11.10893,-15.62679 0.34752,0.58726 1.23948,2.53809 1.58699,3.12535 -0.22009,-1.50412 0.24331,-3.47754 1.58699,-4.68803 19.29846,-31.788 33.72087,-66.391966 49.19669,-100.011471 3.32451,-6.36638 6.10481,-13.355481 12.69592,-17.189471 6.79962,-3.008245 13.61114,-2.250008 20.63087,0 2.24722,3.425643 2.86119,7.24088 1.58698,10.938754 -2.421,6.875989 -6.32484,12.20465 -9.52194,18.752151 -17.19021,32.636242 -35.40053,65.711287 -52.37067,98.448787 9.89251,-9.97424 21.05965,-18.93472 31.7398,-28.12822 6.77647,-5.598 12.32536,-12.27991 20.63087,-15.626796 5.67605,-1.617735 12.30214,0.829246 17.45689,3.125356 3.28977,1.49287 5.61815,4.04802 4.76097,7.8134 -2.82641,7.96051 -8.13193,14.8429 -12.69592,21.87751 -3.8458,6.20776 -7.88863,12.1923 -11.10893,18.75215 -1.47116,2.69101 -2.11986,6.49269 -1.58699,9.37607 8.84998,1.22064 17.73499,-4.47776 25.39184,-7.81339 0.94986,-18.252 9.35994,-35.46057 22.21786,-48.44306 12.55672,-11.399605 30.15306,-19.804019 47.6097,-18.752149 4.50608,0.101262 9.09337,2.258109 11.10892,6.250717 1.98082,4.70364 1.81867,10.934402 0,15.626792 -2.90752,7.76924 -9.86955,13.13166 -15.8699,18.75215 -11.5837,10.17787 -24.73175,18.84131 -38.08775,26.56555 -1.45951,3.68552 1.6102,7.61207 4.76096,9.37607 6.12777,3.19952 13.02034,0.61982 19.04389,-1.56268 15.38319,-6.966 29.31889,-18.2936 39.67474,-31.25358 -0.78771,-0.10236 -2.39785,-1.46142 -3.17398,-1.56268 -4.4713,-3.57301 -3.90373,-9.11185 -3.17398,-14.06411 3.7647,-13.41224 13.53015,-23.971452 25.39184,-31.253587 1.52904,0.01125 3.22034,-0.03375 4.76097,0 l 3.17398,1.562679 c 0.37066,2.657255 0,5.133639 0,7.813396 12.40615,-1.854012 23.83979,-7.598521 36.50077,-7.813396 6.30154,5.292007 11.59538,13.678519 7.93494,21.877508 -3.52145,6.29887 -8.46787,11.42271 -12.69592,17.18947 -5.32852,6.81863 -11.60701,14.46156 -11.10892,23.44019 1.20469,1.18689 1.96929,1.92612 3.17398,3.12536 3.4056,0.46235 8.1203,0.24633 11.10892,-1.56268 10.1705,-5.29201 19.50728,-12.60645 23.80486,-23.44019 4.66823,-9.37462 9.23241,-18.93362 14.28289,-28.128224 1.42479,-2.770868 3.82271,-4.475463 6.34797,-6.250717 7.65686,0.995614 14.52627,1.076674 22.21786,1.562679 -0.0115,1.933872 1.08885,3.025297 0,4.688038 -6.44054,11.839504 -12.4875,24.158374 -19.04388,35.941624 -2.46733,5.38201 -6.78815,9.74641 -7.93494,15.62679 -0.81087,3.26812 1.05416,8.85631 4.76096,9.37607 5.79188,1.33311 10.692,-2.56179 15.86991,-4.68803 3.49828,-2.28377 8.81531,-2.5641 11.10891,-6.25072 -1.98081,-17.12136 6.39443,-32.6862 17.4569,-45.3177 3.27819,-4.274987 8.57213,-7.489505 12.69592,-10.938751 11.20145,-8.085377 25.43835,-15.194742 39.67474,-14.064113 4.30915,0.577117 9.45247,3.437144 11.10893,7.813396 2.76852,6.446239 0.60229,13.052897 -3.17398,18.752148 -9.35963,14.09062 -23.28376,23.9412 -36.50077,34.37894 -4.3323,3.17812 -8.08562,6.56021 -12.69592,9.37608 0.0927,1.24314 -0.13899,3.43254 0,4.68804 6.08145,5.85787 15.02435,4.27729 22.21786,1.56268 13.22858,-5.26951 25.28774,-14.825 34.91378,-25.00287 2.27039,-2.40748 5.08531,-4.69264 6.34796,-7.8134 0.46335,1.12048 -0.50968,2.01723 0,3.12536 0.7877,2.67976 2.83804,5.03128 3.17398,7.8134 -9.27854,12.89248 -20.53839,24.70958 -33.32679,34.37894 -9.70714,7.25963 -20.92064,13.52075 -33.32679,14.06411 -10.46006,0.16987 -19.37986,-6.67066 -23.80483,-15.62679 -9.32492,6.99975 -20.34142,13.96745 -31.73981,17.18947 -5.90772,0.91576 -12.6265,0.97976 -17.45688,-3.12536 -2.14298,-1.48162 -3.40571,-4.98167 -6.34797,-4.68803 -1.04253,-2.5549 -1.39005,-5.12239 -1.58699,-7.8134 -0.68344,-4.50002 -2.4558,-7.98907 -3.17398,-12.50143 -8.54876,8.57138 -17.67713,17.62732 -28.56581,23.44018 -5.93088,3.26813 -13.97024,3.14206 -19.04389,-1.56267 -7.65685,-5.79037 -8.25925,-16.31788 -6.34795,-25.00287 2.57159,-11.21849 7.99294,-20.22627 14.2829,-29.69091 0.40542,-0.33864 1.18158,-1.22404 1.587,-1.56268 -7.28613,1.70665 -13.46057,4.19199 -20.63087,6.25072 -3.4867,0.91576 -4.35557,5.2349 -6.34797,7.8134 -11.08561,15.06372 -24.62748,29.17379 -39.67473,40.62966 -11.31731,8.43636 -24.88233,15.68184 -39.67475,14.06411 -10.78443,-1.52773 -17.44536,-10.62407 -20.63087,-20.31483 -9.91567,4.52362 -20.05184,9.93649 -30.15281,14.06411 -6.09302,2.78212 -12.16314,6.72427 -19.04388,4.68804 -4.1122,-2.43113 -8.07393,-7.62683 -7.93494,-12.50143 -1.2279,-12.29286 5.03906,-22.59339 11.10892,-32.81627 1.9345,-2.98574 3.91538,-6.73007 6.34797,-9.37607 0.0695,-0.70088 -0.0811,-2.42448 0,-3.12536 -2.75694,4.56862 -7.61065,6.94615 -11.10893,10.93875 -10.24002,9.69187 -18.77757,21.45151 -26.97884,32.81627 -2.65267,3.44924 -6.06996,6.59395 -9.52193,9.37607 -2.22407,5.38202 -7.61064,5.73991 -12.69592,4.68804 -7.1703,-4.54612 -7.30939,-14.49301 -6.34795,-21.87751 -3.93849,0.19352 -6.89247,5.50603 -9.52195,7.8134 -23.41065,23.55525 -49.47513,45.96377 -82.52347,54.69377 -11.81537,2.50989 -25.310884,1.7155 -36.500762,-3.12536 -12.371411,-5.26835 -20.816227,-16.92329 -23.804847,-29.6909 -3.950056,-16.38563 -1.065644,-32.88208 4.76097,-48.44306 6.811207,-17.8774 17.375938,-34.4796 28.565816,-50.005733 1.447945,0.07876 1.888188,-0.986664 3.17398,-1.56268 -0.845599,-2.080138 0.243305,-3.048899 1.586993,-4.688037 9.37121,-12.089236 20.68891,-23.80618 31.73979,-34.378942 8.89629,-7.304638 17.318,-13.94845 26.97883,-20.31483 12.03548,-8.945975 24.84759,-18.235891 39.67475,-21.877508 z m 350.72475,32.816263 c 2.00834,-0.02685 4.42508,0.884301 6.34796,1.562679 1.59857,2.159997 3.20871,3.389839 3.17398,6.250717 0.39381,10.607616 -6.55664,22.605492 -17.4569,25.002867 -3.41718,-0.25988 -7.17045,-0.320737 -9.52193,-3.125359 -3.68365,-3.822738 -4.0891,-9.33687 -3.17398,-14.064113 3.0002,-5.812866 7.85394,-11.814104 14.28291,-14.064112 1.84761,-0.95571 4.33962,-1.535826 6.34796,-1.562679 z m -149.17705,1.562679 c 1.47984,0.199423 2.58322,1.525625 3.17399,3.125358 1.51747,6.129003 4.13546,12.464529 4.76096,18.75215 -0.7066,0.282383 -2.46738,1.280297 -3.17398,1.56268 -12.26715,0.429749 -24.70854,3.095105 -36.50076,6.250716 -4.43657,1.696495 -8.27093,2.980292 -12.69592,4.688038 -3.93849,1.39161 -8.35204,3.57761 -12.69592,3.125358 -0.38226,-3.336732 -1.0889,-7.625624 -1.58699,-10.938754 7.06605,-4.523619 14.59579,-7.399498 22.21786,-10.938754 1.32053,-0.51976 3.44044,-1.030568 4.76097,-1.56268 9.15111,-4.578725 17.65393,-8.282699 26.97882,-12.501433 1.30896,-0.622121 3.28114,-1.762102 4.76097,-1.562679 z m 6.34797,142.203808 c 28.58862,-0.87075 57.10882,-0.75714 85.69745,0 16.99328,1.26674 33.84828,1.20274 50.78367,3.12536 26.70042,2.57739 53.06605,7.26458 79.34949,12.50143 -0.12742,2.32987 0.0578,3.9096 0,6.25072 -4.10063,0.0337 -7.0662,0.57601 -11.10893,0 -58.69465,-6.77363 -118.747,-9.20271 -177.74287,-6.25072 -88.47637,4.35375 -176.97947,18.68439 -261.85332,43.75502 -12.04705,3.69787 -24.62744,6.72002 -36.50077,10.93875 -23.1095,7.74674 -45.860844,17.02105 -68.240549,26.56555 -5.815036,2.36252 -10.888935,5.75116 -17.456889,4.68804 -1.11206,-10.52776 2.942356,-19.92029 6.34796,-29.69091 1.447943,-2.96324 3.74164,-5.91328 6.347959,-7.8134 30.70843,-12.05438 63.248319,-19.99784 95.219399,-28.12822 73.78821,-17.84475 149.51398,-29.45933 225.35254,-34.37894 8.06226,-0.92811 15.7426,-0.52091 23.80486,-1.56268 z m 209.48264,46.88037 c 0.69503,0.27113 0.89197,-0.27113 1.58701,0 2.46732,5.60815 -0.66029,12.15735 -3.17399,17.18947 -14.9893,-1.87761 -30.04874,-0.11796 -44.43572,4.68804 -2.838,5.6419 -6.57968,10.04005 -9.52194,15.62679 8.91945,-2.74726 19.11351,-4.60927 28.56582,-4.68803 9.2438,0.0225 19.17135,3.42154 22.21786,12.50143 3.45198,9.98549 1.07722,22.51233 -4.76097,31.25358 -13.84251,20.93285 -41.99186,30.01365 -66.65357,25.00287 -6.39423,-1.49287 -12.38325,-3.58341 -17.45689,-7.8134 -2.86115,-2.23875 -6.19743,-0.0788 -9.52194,0 -15.29051,2.23876 -31.46196,4.25284 -46.02271,9.37608 -8.27077,2.46488 -15.4298,7.22733 -23.80484,9.37607 -3.52144,0.72339 -7.72648,-1.97342 -9.52195,-4.68803 -3.42875,-6.1065 -5.72235,-13.99346 -1.58698,-20.31483 9.10481,-10.845 22.03265,-19.64685 33.32679,-28.12823 8.81518,-6.88724 18.54589,-11.4014 26.97883,-18.75215 5.57178,-4.89601 12.6727,-10.44064 11.10892,-18.75215 -4.84197,-5.06698 -13.12458,-4.72844 -19.04387,-1.56268 -11.68797,4.97587 -20.04015,14.06787 -25.39184,25.00287 -7.54102,1.42426 -10.17065,-5.35311 -12.69593,-10.93875 -0.4286,-4.15013 -1.18153,-9.06344 1.587,-12.50144 7.79585,-10.78763 22.06743,-14.91696 34.91377,-17.18947 8.06227,-0.54226 15.98585,-2.46488 23.80485,0 6.08145,2.22751 12.11678,5.53314 15.8699,10.93876 3.10445,4.11527 5.28222,8.99823 4.76096,14.06411 -1.48272,6.129 -5.02747,12.71196 -9.52193,17.18947 -12.7884,13.30988 -30.07196,22.10508 -46.0227,31.25358 -5.6992,2.70336 -10.06645,5.31366 -15.8699,7.8134 20.14406,-4.33015 39.66342,-5.53629 60.30561,-4.68804 1.6912,-6.00414 4.5525,-11.86371 7.93494,-17.18947 0.91513,0.11361 2.24729,-0.11361 3.17398,0 4.40184,6.92099 9.56841,12.53979 17.45689,15.62679 8.62988,3.79914 19.43787,4.69584 28.56582,3.12536 9.47547,-3.0195 17.59594,-9.88603 22.21785,-18.75215 2.89594,-5.39327 3.66045,-11.81871 0,-17.18947 -7.541,-6.55875 -17.34114,-1.3218 -25.39183,1.56268 -6.79962,3.18826 -12.81185,6.82348 -19.04387,10.93875 -6.63748,-3.33563 -11.71133,-8.82956 -14.28291,-15.62679 0.34751,-0.0337 -0.51835,-1.51472 0,-1.56268 2.50206,-5.55189 5.45603,-10.0513 7.93494,-15.62679 3.32451,-6.15151 6.34802,-12.53204 9.52194,-18.75215 13.59926,-1.72915 26.17975,-3.70598 39.67475,-6.25072 6.91546,-1.28925 15.12862,-1.59303 22.21785,-1.56268 z"
         style="fill:#ffffff;stroke:none" /><path
         inkscape:connector-curvature="0"
         style="fill:#ffffff;stroke:none"
         id="path25"
         d="m 591.92949,95.809465 c 2.46733,-1.492875 5.42118,-1.571625 8.23602,-1.33425 0.11584,3.957751 -2.07348,7.328255 -4.48289,10.301625 -5.25901,6.86475 -11.98914,12.5865 -18.60345,18.1845 -3.44035,2.10375 -5.53701,6.0615 -9.60289,7.12463 2.14299,-3.83288 2.86118,-8.23163 4.77249,-12.16688 4.18172,-8.97975 10.39059,-17.631 19.68072,-22.109625 z" /><path
         inkscape:connector-curvature="0"
         style="fill:#ffffff;stroke:none"
         id="path27"
         d="m 344.5362,138.08134 c 3.04652,-15.01875 14.10895,-28.125 27.82407,-35.28337 1.37846,-0.0225 2.7685,-0.045 4.17013,-0.0563 -0.15059,1.91137 0.18534,4.014 -0.9962,5.688 -3.98479,7.48687 -10.379,13.26487 -16.51837,19.044 -4.40181,4.04775 -9.42914,7.3845 -14.47963,10.60762 z" /></g></g></svg>