<?xml version="1.0" encoding="UTF-8"?>
<svg xmlns="http://www.w3.org/2000/svg" width="30" height="10">
  <path d="M 1 1 L 1 9 L 29 9 L 29 1 L 1 1 z M 9.1289062 1.4042969 L 28.589844
           1.4042969 L 28.589844 8.5957031 L 9.1289062 8.5957031 L 9.1289062
           1.4042969 z M 5.7265625 2.1796875 C 6.2591 2.1873647 6.6511374
           2.3083139 6.8359375 2.3691406 C 6.8359375 2.3691406 7.1154188
           2.4586645 7.3242188 2.5996094 C 7.427419 2.6681133 7.4394531
           2.6953125 7.4394531 2.6953125 C 7.4394531 2.6953125 7.4487219
           2.7069574 7.4199219 2.8164062 L 7.2265625 3.8183594 C 7.2185624
           3.8624541 7.1933594 3.8828125 7.1933594 3.8828125 C 7.1933594
           3.8828125 7.1783844 3.8868018 7.0839844 3.8261719 C 6.4559846
           3.3907388 5.7246094 3.4472656 5.7246094 3.4472656 C 5.1710095
           3.4803365 4.5267846 3.765447 4.3339844 4.4882812 C 4.1619845
           5.1260765 4.3381155 5.6674305 4.7285156 5.9863281 C 4.9909156
           6.2123121 5.4017249 6.3290659 5.828125 6.3085938 C 6.300125 6.272373
           6.6811437 6.0897516 6.6523438 6.1015625 C 6.6523438 6.1015625
           6.6733592 6.0937807 6.6933594 6.0898438 C 6.7925592 6.0418125 6.8125
           6.0507812 6.8125 6.0507812 C 6.8125 6.0507812 6.8332065 6.0702295
           6.8164062 6.1308594 L 6.6230469 7.2285156 C 6.6150468 7.2804842
           6.5898438 7.3222656 6.5898438 7.3222656 C 6.5898438 7.3222656
           6.5624717 7.3486988 6.5136719 7.3652344 C 5.8448716 7.6274391
           5.1015625 7.5390625 5.1015625 7.5390625 C 3.9039627 7.4099285
           3.1408375 6.6881427 2.8984375 5.7558594 C 2.5376375 4.3590091
           3.2509343 3.3625799 3.4277344 3.1523438 C 3.8501345 2.6562809
           4.5063903 2.2959461 5.1503906 2.2148438 C 5.3565906 2.185513 5.54905
           2.1771284 5.7265625 2.1796875 z"
        fill="white" />
  <path d="M 13.473671,3.6357102 C 13.169664,3.4018701 12.899258,3.293217
           12.587251,3.293217 c -0.328008,0 -0.574413,0.1936858
           -0.574413,0.4440602 0,0.092119 0.0456,0.1889616 0.123202,0.2535234
           0.148004,0.1212503 0.200805,0.1456579 0.808019,0.3188728
           0.903221,0.2629716 1.27603,0.6739633 1.27603,1.4329593 0,0.5810572
           -0.180004,1.0251171 -0.528812,1.3243063 -0.373609,0.3102122
           -0.903222,0.4802778 -1.501635,0.4802778 -0.620015,0
           -1.248029,-0.1984098 -1.801642,-0.5731839 l 0.578414,-1.0699952 c
           0.418409,0.3590271 0.792018,0.516495 1.194427,0.516495 0.393609,0
           0.652015,-0.1976225 0.652015,-0.4960244 0,-0.2747816
           -0.180004,-0.4039057 -0.808018,-0.5897178 C 11.426424,5.1694489
           11.200819,5.0765428 11.012014,4.9237988 10.740808,4.7017691
           10.601605,4.366362 10.601605,3.9144288 c 0,-1.0251171
           0.713617,-1.7274246 1.768041,-1.7274246 0.545613,0 1.120826,0.1495946
           1.641638,0.4196523 l -0.537613,1.0290537 z"
        fill="white" />
  <path d="m 16.87135,7.4220298 -1.350431,0 0,-3.9839421 -1.095226,0
           0,-1.1258965 3.565683,0 0,1.1258965 -1.120026,0 0,3.9839421 z"
        fill="white" />
  <path d="m 20.260228,3.8900212 -0.570413,1.6345185 1.120826,0
           -0.550413,-1.6345185 z m -0.943222,2.6438885 -0.357608,0.8881201
           -1.427233,0 1.993646,-5.1098386 1.473634,0 1.948845,5.1098386
           -1.436033,0 -0.336808,-0.8881201 -1.858443,0 z"
        fill="white" />
  <path d="m 25.032339,4.604926 c 0.258406,0 0.45121,-0.044878
           0.583213,-0.1377846 0.147203,-0.1047161 0.254406,-0.3188729
           0.254406,-0.4999611 0,-0.1858122 -0.107203,-0.3920953
           -0.254406,-0.4968117 -0.132003,-0.092906 -0.324807,-0.136997
           -0.583213,-0.136997 l -0.245606,0 0,1.2715544 0.245606,0 z m
           2.720862,2.8171038 -1.682439,0 -1.284029,-1.957328 0,1.957328
           -1.346431,0 0,-5.1098386 2.092848,0 c 0.595214,0 0.976822,0.140934
           1.28003,0.4519332 0.279206,0.2905286 0.44321,0.7062442
           0.44321,1.1258968 0,0.4566571 -0.180004,0.884183 -0.476011,1.1345574
           -0.180004,0.1535312 -0.348808,0.2377767 -0.660815,0.3062752 l
           1.633637,2.091176 z"
        fill="white" />
</svg>
