<?xml version="1.0" encoding="UTF-8"?>
<svg xmlns="http://www.w3.org/2000/svg" width="30" height="10">
  <circle cx="29" cy="5" r="0.6" fill="white" />
  <circle cx="29" cy="7" r="0.6" fill="white" />
  <path d="m 18.521319,2.5511051 c -0.05087,-0.02057 -0.10378,-0.034263
           -0.155784,-0.051105 -0.01387,0 -0.02762,0 -0.04149,0 -0.0258,0.00836
           -0.05121,0.019542 -0.07752,0.024621 -0.245243,0.047248
           -0.412792,0.2819434 -0.401766,0.5642725 0.0112,0.2888217
           0.193182,0.493626 0.466216,0.5248674 0.235695,0.02687
           0.462409,-0.164692 0.516004,-0.4359645 0.05269,-0.2671585
           -0.07667,-0.5339955 -0.305658,-0.626691 z"
        fill="white" />
  <path d="M 7.3178561,4.4657619 C 7.1051231,4.2919418 6.8959139,4.189604
           6.6623225,4.1564984 6.424639,4.1228143 6.1946282,4.1536057
           5.9718923,4.2538222 5.752055,4.3526889 5.5691035,4.5087027
           5.4201961,4.7150498 4.9805214,5.3243202 4.9659148,6.2419541
           5.3839922,6.8692236 5.5783675,7.1608737 5.8348066,7.3509573
           6.1448977,7.44121 6.5604175,7.562126 6.9508732,7.498807
           7.3086488,7.1835011 c 0.00494,0.092888 0.00875,0.1641777
           0.012674,0.2370742 0.2424008,0 0.475367,0 0.7131073,0 0,-1.0711407
           0,-2.1341176 0,-3.2005657 -0.2416619,0 -0.4748555,0 -0.7165174,0
           -5.68e-5,0.075339 -5.68e-5,0.1443144 -5.68e-5,0.2457523 z M
           7.1973093,6.4249666 c -0.3161725,0.3581183 -0.84127,0.3730318
           -1.1386301,0.030084 -0.3052034,-0.35214 -0.2884371,-0.966553
           0.036772,-1.3081507 0.3485116,-0.366025 0.9118021,-0.2207464
           1.1724469,0.170156 0.018358,0.027513 0.020176,0.073411
           0.020858,0.1109517 0.00239,0.1327436 9.662e-4,0.2656157
           9.662e-4,0.3984878 0,0.113266 -0.00619,0.2271747 0.00182,0.3397335
           0.00773,0.1083809 -0.029781,0.1857125 -0.094232,0.2587374 z"
        fill="white" />
  <path d="m 26.359646,4.1432562 c -0.85258,-0.0027 -1.525903,0.7421425
           -1.521357,1.6830467 0.0047,0.9414185 0.661615,1.6672332
           1.509251,1.667426 0.863776,3.215e-4 1.526755,-0.7253647
           1.526983,-1.671283 C 27.87475,4.883663 27.209214,4.1459561
           26.359646,4.1432562 Z m -0.0028,2.5586398 c -0.432571,6.43e-5
           -0.755677,-0.374446 -0.756245,-0.8766217 -5.69e-4,-0.5059039
           0.326857,-0.8882567 0.760166,-0.8877424 0.425239,5.142e-4
           0.75221,0.3861454 0.751358,0.8861354 -9.67e-4,0.5031398
           -0.323505,0.8782287 -0.755279,0.8782287 z"
        fill="white" />
  <path d="m 15.614272,4.2882777 c -0.489349,0.2625944 -0.731181,0.73475
           -0.7883,1.3268569 -0.0495,0.5136178 0.04581,0.9923946
           0.373746,1.3755188 0.400459,0.4677843 0.900037,0.5796366
           1.448039,0.4637345 C 16.97183,7.3858628 17.249696,7.2130712
           17.455324,6.9454628 17.309202,6.7785851 17.167569,6.6168501
           17.02588,6.4551151 16.715391,6.7747282 16.361196,6.9222568
           15.946131,6.6990033 15.710038,6.5720452 15.548912,6.2761524
           15.570054,6.0372141 c 0.647975,0 1.296574,0 1.958871,0
           0.0058,-0.091474 0.01722,-0.168999 0.01398,-0.2457524
           -0.0053,-0.1243868 -0.01205,-0.249995 -0.03228,-0.3721319
           -0.16806,-1.0153434 -1.085034,-1.5663737 -1.896352,-1.1310521 z m
           -0.01398,1.1136316 c 0.0089,-0.3008426 0.296849,-0.5633083
           0.611714,-0.5606728 0.282811,0.00232 0.535896,0.2608588
           0.541466,0.5606728 -0.384431,0 -0.768749,0 -1.15318,0 z"
        fill="white" />
  <path d="m 21.98461,4.7950173 c -0.387216,-0.669246 -1.191373,-0.8548298
           -1.7795,-0.4107014 -0.0291,0.021921 -0.05871,0.042877
           -0.104179,0.076047 0,-0.096359 0,-0.1655276 0,-0.2405454 -0.244731,0
           -0.481391,0 -0.724474,0 0,1.0688266 0,2.1329605 0,3.1979302
           0.254109,0 0.500374,0 0.754767,0 0,-0.057405 0,-0.1037515
           0,-0.1502285 0,-0.5587442 0.01364,-1.1181956 -0.0061,-1.6760398
           -0.009,-0.2531449 0.08849,-0.3948879 0.259906,-0.5045541
           0.0744,-0.047634 0.154136,-0.089867 0.236035,-0.1162229
           0.379089,-0.1218798 0.706231,0.073347 0.784379,0.4668844
           0.0179,0.09051 0.02393,0.1857124 0.02433,0.2788579 0.0023,0.5196604
           0.0011,1.0393851 0.0011,1.5590456 0,0.045705 0,0.091474 0,0.1528639
           0.244958,0 0.469285,-0.00115 0.693613,7.714e-4 0.05627,4.501e-4
           0.06985,-0.029506 0.06928,-0.08646 -0.0063,-0.624891
           -0.0051,-1.2499748 -0.01989,-1.8746087 -0.0056,-0.2391313
           -0.07087,-0.4685558 -0.18926,-0.6730387 z"
        fill="white" />
  <path d="M 11.4963,5.4713987 C 11.441227,4.3695953 10.348804,3.7728599
           9.5343029,4.3831588 c -0.029895,0.022434 -0.0607,0.043391
           -0.1017344,0.072575 -0.00415,-0.091474 -0.00733,-0.1632777
           -0.010742,-0.238167 -0.2410368,0 -0.4716727,0 -0.7128231,0
           0,1.0741621 0,2.1374603 0,3.2033942 0.2529152,0 0.4965095,0
           0.7531759,0 0,-0.053419 0,-0.099252 0,-0.1450215 0,-0.5664582
           0.013924,-1.1334948 -0.00642,-1.6989888 -0.00887,-0.2454309
           0.084229,-0.3802958 0.2490505,-0.4861049 0.074397,-0.047826
           0.1536815,-0.090767 0.2354101,-0.1180871 0.3760191,-0.1258653
           0.7125951,0.068975 0.7897201,0.4565992 0.01876,0.094303
           0.02563,0.193362 0.02609,0.2903645 0.0024,0.523453 0.0012,1.0468419
           0.0012,1.5703593 0,0.041655 0,0.083375 0,0.1304293 0.259565,0
           0.505887,0 0.752721,0 0.0041,-0.018514 0.0088,-0.029505
           0.0086,-0.040434 -0.0057,-0.6363333 0.0095,-1.2740166
           -0.02228,-1.9086786 z"
        fill="white" />
  <path d="M 2.0001568,3.896604 C 2.0291426,3.5942187 2.1971465,3.4184057
           2.4663734,3.4112061 2.5585596,3.4086991 2.6508026,3.4108204
           2.7579932,3.4108204 2.7930035,3.1924524 2.8308555,2.9565354
           2.8696737,2.71464 2.5202528,2.5867177 2.066881,2.6400079
           1.7625302,2.8307987 1.2784106,3.1341482 1.2241333,3.6561228
           1.2240764,4.2149956 c -0.24887992,0 -0.48519938,0 -0.7240764,0
           0,0.2465237 0,0.4787123 0,0.724979 0.24257129,0 0.47889075,0
           0.7260088,0 0,0.060168 0,0.1061301 0,0.1521569 0,0.5507732
           0,1.1016107 0,1.6524481 0,0.1952905 -0.00216,0.3907096
           0.00222,0.5858716 6.821e-4,0.032655 0.029043,0.092116
           0.045582,0.092502 0.2335915,0.00618 0.4674102,0.00412
           0.7165175,0.00412 0,-0.8354807 0,-1.6569479 0,-2.4940358 0.3031004,0
           0.5908554,0 0.8749162,0 0,-0.2482593 0,-0.4805766 0,-0.7195792
           -0.2114258,0 -0.4148947,0 -0.6184204,0 -0.018415,0 -0.035465,0
           -0.051492,-1.286e-4 l 0,1.286e-4 -0.2077883,0 0,-0.11918 c
           -0.00171,-0.045962 0.00409,-0.1090878 0.012617,-0.1976688 z"
        fill="white" />
  <path d="M 12.889664,6.4895063 C 12.580084,6.185064 12.546609,5.5982926
           12.819474,5.2408171 13.14457,4.8148807 13.596862,4.8391795
           14.073479,5.3143563 14.247961,5.1407291 14.423297,4.9662662
           14.59778,4.7927032 14.296839,4.2641717 13.550995,4.0095485
           12.937008,4.2185312 12.30273,4.434392 11.845153,5.0898815
           11.874536,5.9192555 11.899256,6.6172358 12.34223,7.2457267
           12.969801,7.4360674 13.634087,7.637593 14.381125,7.3485144
           14.684623,6.7683642 14.49326,6.6063078 14.301556,6.44393
           14.110023,6.2818093 13.72741,6.8459532 13.174009,6.7691999
           12.889664,6.4895063 Z"
        fill="white" />
  <path d="m 3.9642568,4.5152595 c -0.00466,-0.1119798 -0.00841,-0.202683
           -0.01222,-0.2947356 -0.2442763,0 -0.4774699,0 -0.7161196,0
           0,1.0679908 0,2.1289107 0,3.208151 0.2177913,0 0.4248408,-0.00463
           0.6315493,0.00213 0.092186,0.00309 0.1241274,-0.022884
           0.1231612,-0.1350577 -0.00517,-0.5938425 -0.0033,-1.1878779
           -0.00102,-1.7817847 C 3.989835,5.4582935 3.9963177,5.39099
           4.0237087,5.3490134 4.1901755,5.0935457 4.4093308,4.9392032
           4.6979952,4.9384319 4.783077,4.938239 4.8682157,4.9491027
           4.9607997,4.9553381 4.9893876,4.6927437 5.0174641,4.4356777
           5.046393,4.1701906 4.6374092,4.0966513 4.2776444,4.1788045
           3.9642568,4.5152595 Z"
        fill="white" />
  <path d="m 17.959109,4.3443964 c -2.85e-4,0.9841021 -2.28e-4,1.96814
           -2.28e-4,2.9522421 0,0.019542 -0.0061,0.043455 0.0015,0.057597
           0.01506,0.027448 0.03757,0.070068 0.05763,0.070518 0.227397,0.00501
           0.45485,0.00321 0.69009,0.00321 0,-1.0809759 0,-2.1442099
           0,-3.2062868 -0.252006,0 -0.495317,0 -0.744424,0 -0.0018,0.045962
           -0.0046,0.084338 -0.0046,0.1227154 z"
        fill="white" />
  <path d="m 23.043785,4.2149956 c 0.01455,6.428e-4 0.02626,-5.143e-4
           0.03666,-0.0027 l -0.139302,0 c 0.03421,4.5e-4 0.06843,0.00122
           0.102644,0.0027 z"
        fill="white" />
  <path d="m 23.898809,4.2134528 c 3.41e-4,-0.2391955 -0.02478,-0.4668845
           0.126003,-0.6409616 0.177722,-0.2052544 0.406767,-0.1729845
           0.637062,-0.1407789 0.03859,-0.2423453 0.07616,-0.478841
           0.115318,-0.7252362 -0.242401,-0.06544 -0.468831,-0.08601
           -0.695091,-0.036706 -0.43814,0.095395 -0.773181,0.3420477
           -0.889409,0.8578511 -0.03637,0.1612207 -0.04274,0.3318267
           -0.05064,0.50044 l 0,0.1842981 -0.06161,0 c -0.0104,0.00218
           -0.02211,0.00328 -0.03666,0.0027 -0.03421,-0.00148 -0.06843,-0.00225
           -0.102701,-0.0027 l -0.03262,0 0,-6.42e-5 c -0.08616,-3.857e-4
           -0.172323,0.00122 -0.258485,0.00122 -0.08144,0 -0.162889,0
           -0.246493,0 0,0.2496092 0,0.4819908 0,0.724079 0.21063,0
           0.414042,0.00495 0.61717,-0.00225 0.02074,-7.071e-4 0.03797,3.857e-4
           0.05251,0.00347 l 0.06405,0 0,0.1042662 c 2.85e-4,0.00707
           7.96e-4,0.013692 7.39e-4,0.021663 -0.0041,0.738414 -0.0022,1.4768924
           -0.0022,2.2153708 0,0.045447 0,0.090895 0,0.1396861 0.260701,0
           0.50708,0 0.766475,0 0,-0.8304025 0,-1.6520625 0,-2.487929 0.297531,0
           0.58216,0 0.864117,0 0,-0.246588 0,-0.4785838 0,-0.7183578
           -0.150555,0 -0.29179,0 -0.433024,0 -0.143338,-6.44e-5
           -0.286676,-6.44e-5 -0.434503,-6.44e-5 z"
        fill="white" />
  <path d="m 22.941084,4.21236 c -0.01086,-1.285e-4 -0.02177,0 -0.03262,-6.43e-5
           l 0,6.43e-5 0.03262,0 z"
        fill="white" />
</svg>
