<?xml version="1.0" encoding="UTF-8"?>
<svg xmlns="http://www.w3.org/2000/svg" width="10" height="10">
  <path d="M 5 0.5 C 2.5147187 0.5 0.5 2.5147186 0.5 5 C 0.5 7.4852814 2.5147187
           9.5 5 9.5 C 7.4852813 9.5 9.5 7.4852814 9.5 5 C 9.5 2.5147186
           7.4852813 0.5 5 0.5 z M 3.5 2 C 4.0522848 2 4.5 2.4477153 4.5 3 C 4.5
           3.5522847 4.0522848 4 3.5 4 C 2.9477152 4 2.5 3.5522847 2.5 3 C 2.5
           2.4477153 2.9477152 2 3.5 2 z M 6.5 2 C 7.0522848 2 7.5 2.4477153 7.5
           3 C 7.5 3.5522847 7.0522848 4 6.5 4 C 5.9477152 4 5.5 3.5522847 5.5 3
           C 5.5 2.4477153 5.9477152 2 6.5 2 z M 2.0625 5.5 L 7.9375 5.5 C
           7.6942842 6.9126458 6.4820901 8 5 8 C 3.5179099 8 2.3057158 6.9126458
           2.0625 5.5 z"
        fill="white" />
</svg>
