<?xml version="1.0" encoding="UTF-8"?>
<svg xmlns="http://www.w3.org/2000/svg" width="30" height="10">
  <path d="m 2.3953086,2.849 -0.3100802,0.7226885 0.4651378,0 L 1,7.234 l
           2.8115482,0 0.3009798,-0.7134391 -1.3159947,0 L 4.356,2.849 l
           -1.9606914,0"
        fill="white" />
  <path d="m 6.2162596,2.8486501 -1.3587699,0 -0.31465,0.7286638 0.48335,0 C
           4.9258447,3.8265575 4.8027497,4.1405481 4.6294647,4.528323
           5.5961297,4.297508 6.0885446,3.5412015 6.2162596,2.8486501"
        fill="white" />
  <path d="m 8.4502511,3.5875247 1.3587687,0 L 10.11,2.8486401 l -1.2767595,0 L
           8.9882633,2.5 8.131035,2.5 7.9760122,2.8486401 l -1.1399726,0
           -0.3009802,0.7298125 0.4650685,0 L 5.459,7.234 l 2.7997215,0
           0.3100456,-0.7219806 -1.3679391,0 0.5289467,-1.2428854 1.3679392,0
           0.2736088,-0.6579794 -1.3588387,0 0.4377671,-1.0236299"
        fill="white" />
  <path d="m 12.826604,4.0252647 -0.98259,2.3314691 -0.223265,-0.3690985
           -0.54488,0.3061232 0.134015,0.2070707 c -0.473444,0
           -0.392665,-0.3958904 -0.27657,-0.6209288 l 0.857115,-2.0256295 c
           0.10038,-0.2281925 0.308595,-0.328769 0.5138,-0.3375933
           0.32564,-0.014105 0.64477,0.2031727 0.522375,0.5085871 M
           12.304229,2.8486501 c -1.42737,0.010034 -2.03196,1.0238719
           -2.3627445,1.7347453 -0.9468553,2.034383 0.5594045,2.6377695
           0.9021595,2.7005322 0.19649,0.036006 0.58947,0.036006 0.785995,0 L
           11.754694,7.5 l 0.74144,0 -0.25011,-0.3871016 c 0.553805,-0.036042
           1.20589,-0.8011368 1.4917,-1.4133123 0.28581,-0.6121045
           1.122205,-2.8033767 -1.433495,-2.850936 z"
        fill="white" />
  <path d="m 17.943534,2.8486501 -1.40434,3.3079236 c -0.246225,0.4891308
           -1.3405,0.4438395 -1.03054,-0.1811649 l 1.322335,-3.1267587
           -1.88769,0 -0.31003,0.7220367 0.48328,0 -0.89369,2.1329748 c
           -0.36477,0.8061693 0.16408,1.5480164 1.3405,1.5580103
           1.21275,0.010313 1.623265,-0.751841 1.750945,-1.068844 l
           1.404339,-3.3441778 -0.775109,0"
        fill="white" />
  <path d="m 19.210721,2.849 -0.30087,0.7279866 0.410248,0 L 17.779,7.243 l
           1.413485,0 1.869515,-4.394 -1.851279,0"
        fill="white" />
  <path d="m 23.670408,4.4216158 c -0.06384,0.127829 -0.246225,0.5569259
           -0.519785,0.5569259 l -0.583625,0 0.601825,-1.4062956 0.419476,0 c
           0.355739,0 0.145949,0.7215053 0.08211,0.8493697 m 1.37697,0.04561 C
           25.275369,3.8736914 25.120319,2.84865 24.208429,2.84865 l -2.62633,0
           -0.314615,0.7235606 0.497,0 -1.531984,3.6615706 1.413404,0
           0.638365,-1.5248038 1.404375,0 c 0.6657,0 1.136905,-0.6640937
           1.358735,-1.2417515 z"
        fill="white" />
  <path d="M 28.680823,3.60536 29,2.881 l -3.346562,0 -0.314557,0.7290029
           0.510648,0 L 24.313,7.248 l 2.82685,0 0.282604,-0.651279 -1.44067,0
           0.537981,-1.2747007 1.44067,0 0.282745,-0.6698859 -1.440776,0
           0.446813,-1.0467744 1.431606,0"
        fill="white" />
</svg>
