<?xml version="1.0" encoding="UTF-8"?>
<svg xmlns="http://www.w3.org/2000/svg" width="10" height="10">
  <polygon points="2.5,0.5 2.5,4.5 4,5 6,5 7.5,4.5 7.5,0.5" fill="white" />
  <rect x="4.5" y="4" width="1" height="5" fill="white" />
  <polygon points="2,9.5 5,8 8,9.5" fill="white" />
  <path d="M 1.0625,1 C 1.0418868,1.1645321 1,1.3298802 1,1.5 c 0,2.209139
           1.790861,4 4,4 2.209139,0 4,-1.790861 4,-4 C 9,1.3298802
           8.9581132,1.1645321 8.9375,1 L 8.46875,1 C 8.491563,1.1614357
           8.5,1.3322681 8.5,1.5 8.5,3.4329966 6.9329966,5 5,5 3.0670034,5
           1.5,3.4329966 1.5,1.5 1.5,1.3322681 1.508437,1.1614357 1.53125,1 L
           1.0625,1 Z"
        fill="white" />
  <rect x="1.25" y="1" width="7.5" height="0.5" fill="white" />
</svg>
