<?xml version="1.0" encoding="UTF-8"?>
<svg xmlns="http://www.w3.org/2000/svg" width="30" height="10">
  <path d="m 4,1 0,8 22,0 0,-8 z m 2.36,1.16 c 1.49,0 2.98,0 4.47,0 0.4,0
           0.72,0.32 0.72,0.71 0,0.39 -0.32,0.71 -0.72,0.71 l -1.57,0 0,4.32
           -1.47,0 0,-4.32 -1.43,0 c -0.4,0 -0.72,-0.32 -0.72,-0.71 0,-0.39
           0.32,-0.71 0.72,-0.71 z m 6.29,0.04 c 0.19,0 0.38,0.08 0.51,0.23 l
           2.07,2.38 2.08,-2.38 c 0.23,-0.27 0.65,-0.3 0.92,-0.08 l 0.09,0.07 c
           0.2,0.16 0.27,0.4 0.22,0.62 l 0,4.85 -1.47,0 0,-3.05 -1.3,1.49 C
           15.64,6.49 15.44,6.57 15.24,6.55 15.04,6.57 14.84,6.49 14.7,6.33 l
           -1.3,-1.49 0,3.05 -1.47,0 0,-4.85 c -0.05,-0.22 0.02,-0.46 0.22,-0.62
           l 0.09,-0.07 c 0.12,-0.1 0.27,-0.15 0.42,-0.15 z m 9.17,0.01 c
           0.5,-0.04 1.01,0.04 1.5,0.27 0.89,0.41 1.25,1.03 0.87,1.49 C
           23.91,4.34 23.56,4.31 23,3.87 22.28,3.31 21.15,3.55 20.75,4.36 c
           -0.34,0.69 -0.06,1.61 0.59,1.93 0.63,0.31 1.23,0.26 1.71,-0.15 l
           0.26,-0.22 0.28,0.19 c 0.15,0.11 0.4,0.29 0.54,0.41 l 0.26,0.21
           -0.3,0.3 c -0.17,0.17 -0.51,0.4 -0.78,0.53 -0.61,0.29 -1.47,0.35
           -2.12,0.14 -0.82,-0.26 -1.36,-0.74 -1.75,-1.55 -0.2,-0.41 -0.23,-0.56
           -0.23,-1.06 0,-0.74 0.11,-1.08 0.5,-1.66 0.5,-0.72 1.28,-1.14
           2.11,-1.21 z"
        fill="white" />
</svg>
