<?xml version="1.0" encoding="UTF-8" standalone="no"?>
<!-- Created with Inkscape (http://www.inkscape.org/) -->

<svg
   xmlns:dc="http://purl.org/dc/elements/1.1/"
   xmlns:cc="http://creativecommons.org/ns#"
   xmlns:rdf="http://www.w3.org/1999/02/22-rdf-syntax-ns#"
   xmlns:svg="http://www.w3.org/2000/svg"
   xmlns="http://www.w3.org/2000/svg"
   xmlns:sodipodi="http://sodipodi.sourceforge.net/DTD/sodipodi-0.dtd"
   xmlns:inkscape="http://www.inkscape.org/namespaces/inkscape"
   id="svg2"
   version="1.1"
   inkscape:version="0.48.4 r9939"
   width="100"
   height="100"
   xml:space="preserve"
   sodipodi:docname="headshot.svg"><metadata
     id="metadata8"><rdf:RDF><cc:Work
         rdf:about=""><dc:format>image/svg+xml</dc:format><dc:type
           rdf:resource="http://purl.org/dc/dcmitype/StillImage" /><dc:title /></cc:Work></rdf:RDF></metadata><defs
     id="defs6"><clipPath
       clipPathUnits="userSpaceOnUse"
       id="clipPath18"><path
         d="M 0,2494.84 0,0 l 1804.34,0 0,2494.84 -1804.34,0 z"
         id="path20"
         inkscape:connector-curvature="0" /></clipPath></defs><sodipodi:namedview
     pagecolor="#ffffff"
     bordercolor="#666666"
     borderopacity="1"
     objecttolerance="10"
     gridtolerance="10"
     guidetolerance="10"
     inkscape:pageopacity="0"
     inkscape:pageshadow="2"
     inkscape:window-width="1500"
     inkscape:window-height="844"
     id="namedview4"
     showgrid="false"
     inkscape:zoom="2.67"
     inkscape:cx="37.456596"
     inkscape:cy="82.74573"
     inkscape:window-x="98"
     inkscape:window-y="31"
     inkscape:window-maximized="0"
     inkscape:current-layer="g10" /><g
     inkscape:groupmode="layer"
     id="layer1"
     inkscape:label="background"
     style="display:none"
     transform="translate(0,-80)"><path
       inkscape:connector-curvature="0"
       id="path26-6"
       style="fill:#231f20;fill-opacity:1;fill-rule:nonzero;stroke:none;display:inline"
       d="M 21.510285,69.510582 C 3.511457,87.926788 -7.6263961,113.354 -7.6263961,141.48362 l 0,0 c 0,28.12375 11.1378531,53.55425 29.1366811,71.96705 l 0,0 c 18.007502,18.41281 42.824476,29.77463 70.260725,29.77463 l 0,0 c 27.43696,0 52.25569,-11.36182 70.26155,-29.77463 l 0,0 c 17.99766,-18.4128 29.13789,-43.8433 29.13789,-71.96705 l 0,0 c 0,-28.12962 -11.14023,-53.556832 -29.13789,-71.973038 l 0,0 C 144.0267,51.101408 119.20797,39.739596 91.77101,39.737246 l 0,0 c -27.436249,0.0023 -52.253223,11.364162 -70.260725,29.773336 l 0,0 z M 16.954302,217.90489 C -2.174259,198.34219 -14,171.30619 -14,141.48362 l 0,0 c 0,-29.82727 11.825741,-56.860682 30.954303,-76.424675 l 0,0 C 36.078408,45.491433 62.551059,33.362858 91.77101,33.366371 l 0,0 c 29.2202,-0.0038 55.69554,12.125062 74.81636,31.692574 l 0,0 c 19.1302,19.563993 30.95748,46.599755 30.95513,76.424675 l 0,0 c 0.002,29.82257 -11.82493,56.85857 -30.95513,76.42127 l 0,0 c -19.12082,19.56646 -45.59616,31.69351 -74.81636,31.69351 l 0,0 c -29.219951,0 -55.692603,-12.12705 -74.816708,-31.69351 l 0,0" /><path
       inkscape:connector-curvature="0"
       id="path22"
       style="fill:#d33833;fill-opacity:1;fill-rule:evenodd;stroke:none;display:inline"
       d="m 194.35824,141.09204 c 0,57.95078 -45.92914,104.92969 -102.585822,104.92969 -56.655737,0 -102.58493,-46.97891 -102.58493,-104.92969 0,-57.952192 45.929193,-104.9318 102.58493,-104.9318 56.656682,0 102.585822,46.979608 102.585822,104.9318" /><path
       inkscape:connector-curvature="0"
       id="path24"
       style="fill:#ef3d3a;fill-opacity:1;fill-rule:nonzero;stroke:none;display:inline"
       d="m -6.6321341,167.07966 c 0,0 -7.4264859,-109.424481 93.4011831,-112.551302 L 79.735062,42.80427 25.02294,61.172406 9.390504,79.148959 -4.2873155,105.33355 l -7.8166755,30.48264 2.3448186,20.32137" /><path
       inkscape:connector-curvature="0"
       id="path26"
       style="fill:#231f20;fill-opacity:1;fill-rule:nonzero;stroke:none;display:inline"
       d="M 21.510285,69.510582 C 3.511457,87.926788 -7.6263961,113.354 -7.6263961,141.48362 l 0,0 c 0,28.12375 11.1378531,53.55425 29.1366811,71.96705 l 0,0 c 18.007502,18.41281 42.824476,29.77463 70.260725,29.77463 l 0,0 c 27.43696,0 52.25569,-11.36182 70.26155,-29.77463 l 0,0 c 17.99766,-18.4128 29.13789,-43.8433 29.13789,-71.96705 l 0,0 c 0,-28.12962 -11.14023,-53.556832 -29.13789,-71.973038 l 0,0 C 144.0267,51.101408 119.20797,39.739596 91.77101,39.737246 l 0,0 c -27.436249,0.0023 -52.253223,11.364162 -70.260725,29.773336 l 0,0 z M 16.954302,217.90489 C -2.174259,198.34219 -14,171.30619 -14,141.48362 l 0,0 c 0,-29.82727 11.825741,-56.860682 30.954303,-76.424675 l 0,0 C 36.078408,45.491433 62.551059,33.362858 91.77101,33.366371 l 0,0 c 29.2202,-0.0038 55.69554,12.125062 74.81636,31.692574 l 0,0 c 19.1302,19.563993 30.95748,46.599755 30.95513,76.424675 l 0,0 c 0.002,29.82257 -11.82493,56.85857 -30.95513,76.42127 l 0,0 c -19.12082,19.56646 -45.59616,31.69351 -74.81636,31.69351 l 0,0 c -29.219951,0 -55.692603,-12.12705 -74.816708,-31.69351 l 0,0" /></g><g
     id="g10"
     inkscape:groupmode="layer"
     inkscape:label="front"
     transform="matrix(1.25,0,0,-1.25,0,100)"
     style="display:inline"><path
       style="fill:#000000;fill-opacity:0.19607843;stroke:none"
       d="M 44.169412,71.999157 C 42.297818,71.980607 40.522219,71.655421 39.022771,70.909705 35.151092,68.983888 29.921276,65.802999 28.136985,61.765263 29.803811,57.868841 27.647536,54.2936 27.50963,50.337608 c -0.07323,-2.104963 0.987104,-3.943873 1.068828,-6.235374 -0.570369,-0.938776 -2.31387,-1.049495 -3.520163,-0.985142 -0.406049,2.02713 -1.114041,4.302941 -3.206485,4.531656 -2.960814,0.323071 -5.128312,-2.127758 -5.262818,-4.682325 -0.159177,-3.004171 2.316526,-7.971843 5.820467,-7.626163 1.353572,0.133489 1.685231,1.485834 3.160014,1.471919 0.799329,-1.591004 -1.231511,-2.095661 -1.440594,-3.233586 -0.05448,-0.293939 0.172347,-1.443136 0.30206,-1.981876 0.636446,-2.62327 2.053998,-6.023091 3.450457,-8.02022 1.772391,-2.533262 5.245906,-2.904173 8.9921,-3.152457 0.669093,1.437951 3.133956,1.314901 4.740022,0.938783 -1.924768,0.760499 -3.710135,2.59844 -5.193112,4.230319 -1.703438,1.872333 -3.432991,3.880926 -3.520164,6.328093 3.219062,-4.455167 5.880377,-8.3437 11.733877,-10.303434 4.429148,-1.481866 9.608616,0.68721 13.011825,3.071328 1.412196,0.990954 2.249164,2.559268 3.252956,3.99852 3.755826,5.389592 5.508704,13.081035 5.123406,20.537327 -0.158656,3.075047 -0.150704,6.136786 -1.185005,8.205659 -1.080938,2.16323 -4.737595,4.100827 -6.87768,2.144135 -0.396636,2.103662 1.777066,3.411115 4.333403,2.65409 -1.822774,2.346726 -3.729263,5.159454 -6.320029,6.617841 -3.101134,1.7455 -7.686077,3.193271 -11.803583,3.152456 z M 33.434657,70.017282 c -0.02892,-0.0016 -0.06315,-0.0032 -0.09294,-0.01159 -4.345853,-1.228805 -9.913208,-4.380515 -11.699023,-8.275198 1.382816,0.200454 2.341927,0.899048 3.706045,0.985142 0.515538,0.03347 1.196614,-0.216509 1.789126,-0.06954 1.180751,0.2922 2.176302,2.9347 3.067073,3.917391 0.868325,0.959649 1.911352,1.361995 2.625601,2.236853 0.458875,0.220885 1.135705,0.204975 1.161769,0.892423 -0.174023,0.185669 -0.355181,0.335807 -0.557649,0.324518 z m 7.516651,-8.449047 c 0.1493,1.58e-4 0.295603,-0.01284 0.441473,-0.03477 1.004358,-0.150882 2.363431,-1.070922 1.603243,-2.317983 -3.959897,0.920077 -5.932946,-1.654112 -7.133268,-4.323038 -1.071786,0.259151 -0.642481,1.716128 -0.371766,2.457062 0.664499,1.822982 3.220822,4.216361 5.460318,4.218729 z M 26.80095,61.150998 c -2.971884,-0.224803 -5.419837,-1.426844 -7.191356,-3.372665 -1.919669,-2.107139 -1.510349,-6.057348 -1.277948,-8.866284 3.469857,2.177578 8.071243,-0.178825 8.027832,-3.882621 1.656625,0.04392 0.613333,2.071248 0.313677,3.372664 -0.979295,4.2508 1.658413,8.861616 0.127795,12.748906 z m 35.480456,-6.432402 c 0.06233,-0.0028 0.135174,-0.009 0.197501,-0.01159 0.894827,-1.854509 1.659365,-3.810163 2.788248,-5.44726 -0.756225,-1.757107 -5.722913,-3.317312 -5.646202,-0.162259 1.074836,0.468737 2.927515,0.09665 3.880311,0.695395 -0.550931,1.508391 -1.346259,2.792052 -1.219858,4.925714 z m -17.263903,-0.04636 c 0.849059,-1.552742 1.128256,-3.184229 2.335158,-4.357808 0.543519,-0.528306 1.604355,-1.173244 1.080447,-2.6425 -0.122478,-0.346552 -1.017038,-1.123139 -1.533537,-1.274891 -1.886848,-0.5557 -6.287016,-0.109869 -4.79811,2.236854 1.560431,-0.07261 3.654977,-1.014198 4.821345,0.115899 -0.895696,1.428384 -2.493105,4.25752 -1.905303,5.922446 z m 8.94563,-1.529869 c 0.50684,-0.04523 0.582115,-1.174275 0.685444,-1.413969 1.134553,-2.648923 3.992198,-6.031227 6.076057,-8.298379 0.511703,-0.558309 1.346881,-1.102757 1.440595,-1.471919 0.270233,-1.07357 -0.705389,-2.357353 -0.592502,-3.071327 -2.84095,-1.820592 -5.998422,-3.797063 -10.653431,-3.337895 -0.994639,0.862683 -1.372927,2.776945 -0.40662,4.04488 0.502985,-0.862683 0.178273,-2.450145 1.580007,-2.68886 2.64133,-0.450909 5.721292,1.620231 7.621211,2.341163 1.178136,1.981474 -0.100439,2.711603 -1.16177,3.98693 -2.172773,2.612833 -5.089909,5.847067 -4.983993,9.758707 0.109783,0.07941 0.20407,0.122737 0.290443,0.139079 0.03779,0.0072 0.07077,0.01461 0.104559,0.01159 z M 20.864305,45.817542 c 1.794616,-0.02728 3.878568,-2.070626 3.264574,-5.018433 -0.890467,0.507 -1.103858,2.741276 -2.149275,2.804759 -1.494005,0.09044 -1.225829,-2.888859 -1.219858,-4.635965 -1.028374,0.931384 -1.208571,3.800675 -0.453091,5.27341 -0.861001,0.421775 -1.241845,-0.475478 -1.719419,-0.788114 0.230168,1.668078 1.2003,2.380707 2.277069,2.364343 z m 42.520782,-8.785155 c -1.322405,-2.511084 -3.194695,-5.274097 -7.075178,-5.35454 -0.07889,0.810938 -0.132044,2.04989 0.0116,2.538191 2.966477,0.284374 4.792285,1.783218 7.063562,2.816349 z m -18.58832,-1.622588 c 2.475002,-1.298374 7.022241,-1.442698 10.386224,-1.34443 0.180448,-0.735279 0.178909,-1.641592 0.185884,-2.538191 -4.32419,-0.215235 -9.438254,0.854968 -10.572108,3.882621 z m -0.476325,-2.422292 c 1.711501,-4.286889 7.598188,-3.792275 12.558733,-3.674003 -0.218367,-0.556568 -0.689533,-1.210892 -1.277946,-1.448739 -1.589588,-0.645274 -5.97209,-1.134462 -8.178861,0.03475 -1.399556,0.742237 -2.30026,2.412716 -3.067073,3.395845 -0.370309,0.474823 -2.221009,1.689516 -0.03483,1.692127 z m 16.520369,-8.333148 c -0.689102,-1.014869 -2.166591,-1.701314 -2.73016,-2.526601 4.028681,1.948863 4.750763,-7.282905 3.171633,-10.257074 0.244083,-0.887034 1.08639,-1.219185 1.428977,-2.0166448 -0.08039,-0.1436667 -0.162964,-0.2858203 -0.243972,-0.4288268 l 3.729282,0 c 0.53637,1.7069366 0.992293,3.3670236 1.289565,4.8329936 0.161269,0.802241 0.598064,2.554384 0.499561,3.268356 -0.175652,1.278369 -1.903887,2.222875 -2.788248,3.013377 -1.629252,1.460126 -2.657215,2.749087 -4.356638,4.11442 z M 25.395209,22.556584 C 20.559882,20.654248 16.040226,17.357754 12,14.246617 c 0.72227,-1.546121 1.361081,-3.159389 1.928539,-4.8214046 l 23.68849,0 c -0.09602,0.320323 -0.184572,0.6379906 -0.278825,0.9387826 -0.626029,1.99713 -0.984937,3.484129 -1.138534,4.635966 -2.51606,1.196624 -5.211571,2.417682 -7.377241,3.95216 -0.395021,0.280895 -3.06114,3.74839 -3.42722,3.604463 z m 32.994267,-2.225263 c -1.862121,-0.08625 -4.37217,-2.457889 -5.541643,-2.874299 0.150808,-0.43308 0.399059,-0.779313 0.418238,-1.332839 0.819856,0.201323 1.81058,0.07013 2.521041,-0.278158 -0.821604,-0.09175 -1.721933,-0.08472 -2.265452,-0.475187 -0.199188,-0.574396 0.03956,-1.358264 -0.09294,-2.155724 1.950045,-0.548742 4.180085,-0.843423 6.645324,-0.915603 0.479449,0.621791 0.649164,1.804592 0.592502,2.978608 -0.06799,1.415338 -0.447461,4.323386 -1.324417,4.832994 -0.287602,0.167473 -0.607812,0.236182 -0.952652,0.220208 z m -4.217224,-0.115899 c -2.38112,-0.212194 -5.379375,-1.685797 -7.737389,-0.637445 -0.0061,-0.124359 -0.159295,-0.07254 -0.185883,-0.173849 1.618358,-1.261847 2.815997,-1.522674 5.018846,-1.41397 0.99333,0.719194 1.870127,1.551729 2.904426,2.225264 z m -23.223783,-0.03477 c -1.257899,-1.274023 3.518263,-3.012609 5.042082,-3.106096 -0.0085,0.806156 0.466262,1.565824 0.371766,2.144133 -1.809831,0.316985 -4.184237,0.110151 -5.413848,0.961963 z m 8.295038,-0.486776 c -1.974053,-0.0403 -1.769506,-3.480449 -1.672949,-5.586338 0.08085,-1.778412 1.01471,-3.663136 1.417359,-4.8445844 0.596999,-2.3826638 3.323445,-0.8303571 5.076935,0.092719 1.661161,0.9035974 2.945751,2.3395644 4.356638,3.3031254 0.01829,0.468737 0.03934,0.933643 0.05809,1.40238 -0.848189,0.421776 -1.821816,0.722172 -3.067074,0.776524 0.844702,0.42395 2.088224,0.411214 2.857955,0.915603 0.0074,0.187842 0.0051,0.381803 0.0116,0.567906 -1.405222,0.107836 -1.931747,0.73486 -2.857954,1.240121 -1.515625,0.826158 -3.793129,1.725135 -5.750762,2.097774 -0.151658,0.02893 -0.298252,0.03745 -0.429854,0.03475 z m 11.408582,-2.932248 c -0.375756,-0.0026 -0.82492,-0.146801 -1.336036,-0.486777 -0.09632,-1.067481 0.15645,-1.407327 0.371766,-2.63091 2.967816,-0.925635 2.993345,3.131754 0.96427,3.117687 z M 52.01136,12.508129 C 51.1791,12.465423 50.439706,11.504398 49.339288,11.963403 49.07036,11.666857 48.82344,11.348979 48.549284,11.05939 48.974782,10.547839 49.363479,9.9979544 49.722672,9.4252124 l 2.27707,0 c 0.01836,0.4238348 0.372282,0.7533446 0.801621,0.7533446 0.429762,0 0.771627,-0.3295098 0.790004,-0.7533446 l 1.835596,0 c 0.02357,0.545464 0.04768,1.0998806 0.08132,1.6457676 -1.476265,-0.09349 -2.287925,1.327574 -3.322663,1.437149 -0.05641,0.0061 -0.118783,0.003 -0.174264,0 z m 6.122527,-1.216941 c -0.475054,-0.0037 -0.976192,-0.115353 -1.498683,-0.359287 -0.01956,-0.484981 -0.04019,-0.9893371 -0.06971,-1.5066886 l 4.751639,0 C 60.66507,10.419946 59.520695,11.302081 58.133887,11.291188 z M 47.282956,9.9815283 C 47.008569,9.7979514 46.735514,9.6086223 46.458099,9.4252124 l 1.243093,0 C 47.565535,9.6110256 47.42503,9.8016491 47.282956,9.9815283 z"
       id="path3068"
       inkscape:connector-curvature="0"
       sodipodi:nodetypes="sccccccccccccccccccccccccsscccccccssccccscccccccccccccccccccsccccccccccssscccccsccccccccccccccccccccccccccccccccsccccccccscccccccccccccccccccccsccscccccscccccscccscccc" /></g></svg>