<?xml version="1.0" encoding="UTF-8" standalone="no"?>
<!-- Created with Inkscape (http://www.inkscape.org/) -->

<svg
   xmlns:dc="http://purl.org/dc/elements/1.1/"
   xmlns:cc="http://creativecommons.org/ns#"
   xmlns:rdf="http://www.w3.org/1999/02/22-rdf-syntax-ns#"
   xmlns:svg="http://www.w3.org/2000/svg"
   xmlns="http://www.w3.org/2000/svg"
   xmlns:sodipodi="http://sodipodi.sourceforge.net/DTD/sodipodi-0.dtd"
   xmlns:inkscape="http://www.inkscape.org/namespaces/inkscape"
   id="svg2"
   version="1.1"
   inkscape:version="0.48.4 r9939"
   width="30"
   height="10"
   sodipodi:docname="150916_bein2_ok_0.svg">
  <metadata
     id="metadata8">
    <rdf:RDF>
      <cc:Work
         rdf:about="">
        <dc:format>image/svg+xml</dc:format>
        <dc:type
           rdf:resource="http://purl.org/dc/dcmitype/StillImage" />
        <dc:title />
      </cc:Work>
    </rdf:RDF>
  </metadata>
  <defs
     id="defs6" />
  <sodipodi:namedview
     pagecolor="#ffffff"
     bordercolor="#666666"
     borderopacity="1"
     objecttolerance="10"
     gridtolerance="10"
     guidetolerance="10"
     inkscape:pageopacity="0"
     inkscape:pageshadow="2"
     inkscape:window-width="1600"
     inkscape:window-height="851"
     id="namedview4"
     showgrid="false"
     inkscape:zoom="8.8513131"
     inkscape:cx="72.201031"
     inkscape:cy="-19.17462"
     inkscape:window-x="0"
     inkscape:window-y="25"
     inkscape:window-maximized="1"
     inkscape:current-layer="svg2" />
  <path
     style="fill:#ffffff;stroke:none"
     d="M 0.6875 1 C 0.62512425 1.0106059 0.597602 1.0566231 0.5625 1.125 C 0.4990147 1.2489393 0.498941 5.9862812 0.5625 6.40625 C 0.7633734 7.7337596 1.7947931 8.7579109 3.125 8.9375 C 3.4043186 8.9751821 3.8598819 8.9452484 4.15625 8.875 C 4.7024292 8.745583 5.1554968 8.5155343 5.5625 8.125 C 6.1578946 7.5536787 6.46375 6.8992371 6.5 6.09375 C 6.5396576 5.2128736 6.2429542 4.4365262 5.625 3.8125 C 5.2277843 3.4113847 4.7961913 3.1517642 4.25 3 C 4.0575003 2.9463467 3.9339733 2.9377371 3.5 2.9375 C 3.0261397 2.9372505 2.9624468 2.9576325 2.71875 3.03125 C 2.1047712 3.2167535 1.5600333 3.5650522 1.1875 4.03125 L 1 4.28125 L 0.96875 2.71875 L 0.96875 1.125 L 0.90625 1.0625 C 0.8414531 1.0110925 0.74987575 0.9893941 0.6875 1 z M 13.625 2.90625 C 13.447082 2.8947676 13.263411 2.9929753 13.15625 3.15625 L 13.0625 3.25 L 13.0625 5.875 C 13.05737 7.318189 13.0528 8.540471 13.0625 8.59375 C 13.083272 8.7100531 13.221128 8.912601 13.34375 8.96875 C 13.396555 8.99333 13.524587 9.00624 13.625 9 C 13.759366 8.992263 13.78921 8.976249 13.875 8.90625 C 14.107712 8.7163294 14.09375 8.9252764 14.09375 5.96875 C 14.09375 3.3539209 14.09239 3.3147833 14.03125 3.1875 C 13.946927 3.011885 13.802918 2.9177324 13.625 2.90625 z M 26.5625 2.90625 C 24.709 2.899637 23.920768 2.913917 23.8125 2.9375 C 23.620762 2.9792 23.49593 3.0944239 23.46875 3.28125 C 23.45915 3.3511865 23.46395 4.3363267 23.46875 5.46875 L 23.46875 7.53125 L 23.53125 7.75 C 23.727483 8.3462389 24.207424 8.8130919 24.78125 8.96875 C 24.911448 9.004555 25.290659 8.99875 27.0625 9 C 29.139481 9.001747 29.22139 8.993524 29.3125 8.9375 C 29.508305 8.8172166 29.5 9.0035479 29.5 5.96875 C 29.49988 3.2943282 29.49332 3.217209 29.4375 3.125 C 29.405987 3.0728188 29.33441 2.998072 29.28125 2.96875 C 29.190516 2.918839 29.013994 2.91499 26.5625 2.90625 z M 9.71875 2.9375 C 9.305065 2.9375 9.211385 2.94198 9 3 C 8.46177 3.1475345 8.002677 3.4297143 7.625 3.8125 C 6.3339312 5.1210562 6.4653146 7.2566387 7.9375 8.375 C 8.303807 8.6532863 8.906383 8.8778574 9.375 8.9375 C 10.029977 9.0209123 10.783663 8.8337802 11.34375 8.46875 C 11.76837 8.1919984 12.28125 7.6093344 12.28125 7.40625 C 12.28125 7.2716791 12.225289 7.1869259 12.09375 7.1875 C 11.957884 7.1880864 11.938104 7.1912746 11.78125 7.40625 C 10.846579 8.6872558 9.02511 8.8392075 7.9375 7.71875 C 7.681841 7.4553618 7.628492 7.368892 7.46875 7.03125 C 7.2726817 6.6167089 7.21513 6.3619045 7.21875 5.90625 C 7.2222664 5.4552621 7.2746431 5.203209 7.46875 4.8125 C 7.7206758 4.3054005 8.11704 3.9038042 8.625 3.65625 C 8.980795 3.4828247 9.217656 3.4293334 9.59375 3.40625 C 10.596921 3.3448604 11.552155 3.9195892 12 4.84375 C 12.117304 5.0856644 12.21875 5.4715014 12.21875 5.625 L 12.21875 5.71875 L 10.71875 5.71875 C 9.215328 5.71875 9.22416 5.716866 9.15625 5.78125 C 9.08955 5.8444238 9.0563 5.964052 9.09375 6.0625 C 9.143775 6.1933926 9.180846 6.1875 10.90625 6.1875 L 12.5625 6.1875 L 12.625 6.09375 C 12.72722 5.9906981 12.75493 5.8867224 12.6875 5.46875 C 12.495749 4.2807642 11.646852 3.3229436 10.46875 3 C 10.257364 2.942103 10.132435 2.9375 9.71875 2.9375 z M 16.40625 2.9375 C 16.236793 2.9377499 16.050853 2.939116 15.9375 2.96875 C 15.28344 3.1396672 14.776718 3.6635436 14.625 4.3125 C 14.5611 4.5838864 14.5618 8.5655945 14.625 8.6875 C 14.678276 8.7903523 14.81248 8.931067 14.90625 8.96875 C 15.092201 9.0433033 15.366249 8.9928815 15.5 8.84375 C 15.631854 8.6963903 15.6238 8.6527674 15.625 6.59375 C 15.62597 5.1868584 15.63136 4.615099 15.65625 4.53125 C 15.704293 4.3695537 15.917527 4.145226 16.09375 4.0625 C 16.381648 3.9273185 16.761254 3.9931313 16.96875 4.21875 C 17.010063 4.2636566 17.470375 5.0046235 18 5.84375 C 19.585165 8.3552277 19.563976 8.2932975 19.78125 8.5 C 20.23127 8.9281045 20.870797 9.0917266 21.46875 8.9375 C 22.168895 8.7569127 22.666605 8.2122273 22.8125 7.5 C 22.85182 7.3063487 22.875 6.9825054 22.875 5.3125 C 22.875 3.1987811 22.877005 3.2646672 22.71875 3.09375 C 22.497298 2.8545306 22.036989 2.8781756 21.875 3.15625 C 21.81591 3.2574178 21.82687 3.3320535 21.8125 5.3125 C 21.796091 7.5807282 21.787033 7.4529099 21.5625 7.6875 C 21.257287 8.0063879 20.810905 8.0135693 20.5 7.71875 C 20.409279 7.6327299 19.960137 6.9648562 19.09375 5.59375 C 17.964887 3.8073043 17.797393 3.5655631 17.625 3.40625 C 17.413529 3.2108518 17.119396 3.039373 16.84375 2.96875 C 16.729805 2.9393665 16.575707 2.9372501 16.40625 2.9375 z M 3.5625 3.40625 C 3.8882395 3.4145902 4.2209376 3.4783578 4.53125 3.625 C 5.2390559 3.9594978 5.7077956 4.4881218 5.9375 5.25 C 6.0073417 5.4795866 6.0002296 5.5720955 6 5.9375 C 5.9997583 6.2705503 5.9888542 6.4034303 5.9375 6.59375 C 5.8049457 7.0849156 5.4704844 7.6031958 5.09375 7.90625 C 4.7476589 8.1846363 4.2548398 8.3968233 3.875 8.4375 C 3.5321472 8.474307 3.4532057 8.49121 3.25 8.46875 C 2.1927439 8.352085 1.3360669 7.6061459 1.0625 6.5625 C 0.93179448 6.0638854 1.0020232 5.3882821 1.21875 4.90625 C 1.6498444 3.9474983 2.5852814 3.3812293 3.5625 3.40625 z M 26.65625 3.5625 C 26.938226 3.5462677 27.250398 3.5858876 27.5 3.71875 C 28.259937 4.0912876 28.498206 5.2062387 27.96875 5.875 C 27.510993 6.4790211 26.864385 6.8732839 26.28125 7.34375 L 28.25 7.34375 L 28.25 7.71875 L 28.25 8.09375 L 27.34375 8.09375 C 26.713038 8.082458 26.056817 8.1396858 25.4375 8 C 25.123938 7.9448406 25.034894 7.5417504 25.21875 7.3125 C 25.683688 6.8114686 26.272422 6.4223255 26.78125 5.96875 C 27.065545 5.6989232 27.43562 5.4208605 27.46875 5 C 27.443189 4.6796354 27.195554 4.3128837 26.84375 4.3125 C 26.425283 4.2336344 26.0028 4.5747049 26 5 C 25.967843 5.3345119 26.226463 5.5930487 26.4375 5.8125 L 25.90625 6.1875 C 25.813384 6.3145502 25.72876 6.203099 25.65625 6.125 C 25.23799 5.7463876 25.056474 5.1028072 25.25 4.5625 C 25.4453 3.9535345 26.035904 3.598213 26.65625 3.5625 z "
     id="path2987" />
</svg>
