<?xml version="1.0" encoding="UTF-8" standalone="no"?>
<!-- Created with Inkscape (http://www.inkscape.org/) -->

<svg
   xmlns:dc="http://purl.org/dc/elements/1.1/"
   xmlns:cc="http://creativecommons.org/ns#"
   xmlns:rdf="http://www.w3.org/1999/02/22-rdf-syntax-ns#"
   xmlns:svg="http://www.w3.org/2000/svg"
   xmlns="http://www.w3.org/2000/svg"
   xmlns:sodipodi="http://sodipodi.sourceforge.net/DTD/sodipodi-0.dtd"
   xmlns:inkscape="http://www.inkscape.org/namespaces/inkscape"
   width="10"
   height="10"
   id="svg2"
   version="1.1"
   inkscape:version="0.48.4 r9939"
   sodipodi:docname="coupedelaligue.svg">
  <defs
     id="defs4">
    <linearGradient
       id="linearGradient3113"
       spreadMethod="pad"
       gradientTransform="matrix(281.23199,0,0,-281.23199,157.8011,513.9553)"
       gradientUnits="userSpaceOnUse"
       y2="0"
       x2="1"
       y1="0"
       x1="0">
      <stop
         id="stop3115"
         offset="0"
         style="stop-opacity:1;stop-color:#283d81" />
      <stop
         id="stop3117"
         offset="0.5"
         style="stop-opacity:1;stop-color:#ffffff" />
      <stop
         id="stop3119"
         offset="1"
         style="stop-opacity:1;stop-color:#283d81" />
    </linearGradient>
  </defs>
  <sodipodi:namedview
     id="base"
     pagecolor="#ffffff"
     bordercolor="#666666"
     borderopacity="1.0"
     inkscape:pageopacity="0.0"
     inkscape:pageshadow="2"
     inkscape:zoom="45.254834"
     inkscape:cx="8.321308"
     inkscape:cy="6.4151078"
     inkscape:document-units="px"
     inkscape:current-layer="g2993"
     showgrid="false"
     inkscape:window-width="1600"
     inkscape:window-height="851"
     inkscape:window-x="0"
     inkscape:window-y="25"
     inkscape:window-maximized="1"
     fit-margin-bottom="5"
     fit-margin-top="5"
     fit-margin-right="5"
     fit-margin-left="5" />
  <metadata
     id="metadata7">
    <rdf:RDF>
      <cc:Work
         rdf:about="">
        <dc:format>image/svg+xml</dc:format>
        <dc:type
           rdf:resource="http://purl.org/dc/dcmitype/StillImage" />
        <dc:title />
      </cc:Work>
    </rdf:RDF>
  </metadata>
  <g
     inkscape:label="Calque 1"
     inkscape:groupmode="layer"
     id="layer1"
     transform="translate(-73.556424,-789.85309)">
    <g
       transform="matrix(1.25,0,0,-1.25,243.43012,1025.6972)"
       inkscape:label="clubs foot"
       id="g2993">
      <g
         id="g3091"
         transform="matrix(1.0186653,0,0,1.0119945,-0.31641809,-103.72552)"
         style="stroke:none;fill:#ffffff">
        <path
           sodipodi:nodetypes="ccccccccccccccccc"
           inkscape:connector-curvature="0"
           id="path3039"
           d="m -128.77396,288.53818 c -1.01362,0.0134 -2.04632,-0.0453 -3.01298,-0.37488 -0.24192,-0.12551 -0.13204,-0.57722 0.14961,-0.54974 1.22823,0.0686 2.45295,0.37065 3.68662,0.21231 0.23681,-0.0506 0.492,-0.025 0.71394,-0.135 -0.0727,-0.15765 -0.2525,-0.0395 -0.48232,-0.059 -0.65954,0.0478 -1.31794,-0.0495 -1.97714,-0.0535 -0.55742,-0.0526 -1.12271,-0.0888 -1.66359,-0.24165 -0.21553,-0.0815 -0.45784,-0.26692 -0.42791,-0.52332 0.066,-0.25314 0.43859,-0.27697 0.59131,-0.0925 0.54497,0.23096 1.14908,0.17977 1.72558,0.23489 0.75234,0.0312 1.50579,0.0413 2.25693,0.0973 0.2676,-0.005 0.45124,-0.009 0.68602,0.16566 0.12158,0.25157 0.15737,0.578 2.5e-4,0.82121 -0.25151,0.28169 -0.64999,0.32874 -0.99777,0.40908 -0.41298,0.0651 -0.83246,0.062 -1.24855,0.0891 z"
           style="fill:#ffffff;fill-opacity:1;fill-rule:nonzero;stroke:none" />
        <path
           sodipodi:nodetypes="ccccccccccc"
           inkscape:connector-curvature="0"
           id="path3045"
           d="m -129.14763,286.60468 c -0.60777,-2.4e-4 -1.21633,-0.0615 -1.81238,-0.17918 -0.17083,-0.043 -0.36131,-0.1059 -0.46084,-0.26124 -0.098,-0.2242 0.12308,-0.53057 0.37154,-0.46429 0.39159,0.17772 0.83046,0.17828 1.24994,0.23133 0.44858,0.0389 0.89458,0.10434 1.34293,0.14343 0.43597,0.0254 0.87471,0.0173 1.30792,0.0795 0.2195,0.0265 0.45878,0.11362 0.40017,0.33127 -0.16863,0.16093 -0.27926,0.12925 -0.49959,0.13315 -0.63675,0.0296 -1.33677,-0.007 -1.89969,-0.014 z"
           style="fill:#ffffff;fill-opacity:1;fill-rule:nonzero;stroke:none" />
        <path
           sodipodi:nodetypes="cccccccc"
           inkscape:connector-curvature="0"
           id="path3053"
           d="m -127.09896,285.76318 c -1.17977,-0.04 -2.35895,-0.14493 -3.52133,-0.35328 -0.30667,-0.0575 -0.39062,-0.34838 -0.11562,-0.44912 0.27808,-0.0627 0.45362,0.0297 0.73414,0.0775 0.68688,0.0687 1.38105,-0.0248 2.06585,0.0755 0.33109,-0.009 0.74898,-0.0246 0.94376,0.30108 0.0884,0.12129 0.11666,0.37901 -0.1068,0.34837 z"
           style="fill:#ffffff;fill-opacity:1;fill-rule:nonzero;stroke:none" />
        <path
           inkscape:connector-curvature="0"
           id="path3061"
           d="m -127.52396,284.86318 c -0.76339,-0.10429 -1.53683,-0.0827 -2.30221,-0.16433 -0.22255,-0.006 -0.46154,-0.0156 -0.65391,-0.14075 -0.1015,-0.0884 -0.0378,-0.2333 0.0483,-0.30617 0.12873,-0.12671 0.32659,-0.13887 0.49258,-0.092 0.18091,0.0436 0.36084,0.0959 0.5477,0.10616 0.53277,0.06 1.07234,0.0663 1.59931,0.17265 0.14513,0.0653 0.30052,0.19673 0.28238,0.37215 -0.003,0.0178 -0.008,0.0354 -0.0142,0.0523 z"
           style="fill:#ffffff;fill-opacity:1;fill-rule:nonzero;stroke:none" />
        <path
           sodipodi:nodetypes="ccccccccccccc"
           inkscape:connector-curvature="0"
           id="path3065"
           d="m -128.22372,283.95271 c -0.057,0.0865 -0.30807,0.0428 -0.57265,0.017 -0.0918,-0.0199 -0.0483,-0.0101 -0.32651,-0.0444 -0.29915,-0.0398 -0.59266,0.0232 -0.8624,-0.10837 -0.19217,-0.066 -0.0702,-0.25917 0.0326,-0.34786 0.0903,-0.0753 0.21449,-0.25365 0.0429,-0.31701 -0.31018,-0.13021 -0.54214,-0.40339 -0.68812,-0.70055 -0.15361,-0.31756 -0.21994,-0.6746 -0.20565,-1.02627 0.18303,0.55393 0.43096,1.12563 0.90685,1.49041 0.13951,0.1217 0.35173,0.13937 0.46623,0.29131 0.0564,0.13889 -0.13446,0.19427 -0.19391,0.28892 -0.0922,0.0547 -0.16676,0.2076 0.006,0.17005 0.45566,0.074 0.91078,0.15356 1.36996,0.20304"
           style="fill:#ffffff;fill-opacity:1;fill-rule:nonzero;stroke:none" />
      </g>
      <path
         inkscape:connector-curvature="0"
         d="m -130.61624,182.78124 c -0.009,0.005 -0.0162,0.0107 -0.023,0.0148 0.004,-0.002 0.0155,-0.01 0.023,-0.0148 z m 0.0343,-0.0238 c 0.0191,-0.0146 0.0385,-0.0296 0.0601,-0.0439 -0.0233,0.0167 -0.0427,0.0318 -0.0601,0.0439 z m 0,0 -0.0135,0.0107 0.073,-0.0528 -0.0995,0.0816 0.0123,-0.0142 -0.01,0.004 -0.006,0.005 -0.0118,0.009 0.0176,-0.014 -0.006,0.003 0.0176,-0.0128 c 0.001,-0.002 -0.002,4e-5 -0.008,0.003 0.0107,-0.006 0.0215,-0.0149 0.0343,-0.0238 z m -0.0525,0.16436 1.8e-4,0.004 2.7e-4,-8.7e-4 -5.9e-4,-0.003 z m 0.67595,0.49631 -1.7e-4,-5.9e-4 -8.8e-4,-8.8e-4 8.8e-4,0.001 z m -0.19832,-1.07625 -0.005,0.008 c -0.006,0.01 0.0636,0.0783 0.13229,0.2654 0.0148,0.0364 0.0271,0.0734 0.0357,0.11026 0.0394,0.1382 0.0733,0.32261 0.0849,0.56612 8.7e-4,0.01 0.002,0.0193 0.002,0.0301 5.8e-4,0.0163 0.001,0.0328 5.8e-4,0.0493 l 1.8e-4,0.005 c 0.001,0.0491 -0.01,0.0643 -0.0221,0.0653 l -1.4e-4,5e-5 -0.002,0 -0.0111,-0.003 -8.8e-4,-5.9e-4 c -0.006,-0.004 -0.0117,-0.01 -0.0142,-0.0146 -0.005,-0.006 -0.01,-0.0136 -0.0139,-0.0205 l 0.008,0.0107 -0.0149,-0.0236 c -0.0124,-0.023 -0.0236,-0.0465 -0.0339,-0.0705 l -0.009,-0.0225 c -0.0122,-0.0243 -0.0214,-0.0432 -0.0214,-0.0457 0,-0.006 -0.0658,-0.19786 -0.0911,-0.27172 -0.003,-0.008 -0.006,-0.0158 -0.01,-0.0236 5.9e-4,0.0132 1.4e-4,0.0539 -0.016,0.10203 l -0.001,0.003 -0.004,0.0112 c -0.015,0.0397 -0.0391,0.0753 -0.0701,0.10343 l -0.004,0.003 -0.0107,0.009 -0.001,8.8e-4 c -0.0108,0.009 -0.0224,0.0173 -0.0356,0.0251 -0.0612,0.0363 -0.12556,0.0333 -0.18154,0.016 -0.0411,-0.01 -0.0812,-0.0278 -0.11735,-0.0545 -0.0107,-0.006 -0.0207,-0.0164 -0.0304,-0.0284 -0.005,-0.004 -0.008,-0.008 -0.008,-0.008 0,0 -0.002,-0.005 -0.006,-0.0127 -0.0241,-0.0371 -0.0419,-0.0844 -0.043,-0.11556 l 8.7e-4,-0.01 c -2.7e-4,-0.005 9e-5,-0.011 0.001,-0.0152 0.0123,-0.0369 0.032,-0.008 0.032,-0.008 l 8.8e-4,-0.0161 -0.003,-0.004 0.003,-0.008 c -0.002,-0.012 -0.002,-0.025 0.004,-0.0361 l 5.8e-4,0.002 c 0.0118,-0.0376 0.0609,-0.16516 0.18201,-0.17961 l 0.0107,-0.003 0.005,0.001 0.003,-2.3e-4 0.006,-0.003 0.0141,-0.002 0.005,0 9e-5,5e-5 0.001,5.8e-4 0.002,-2.9e-4 -0.002,-5e-5 -5e-5,0 -0.001,-6e-5 -0.002,-2.8e-4 c 0.0108,-0.002 0.0215,-2.7e-4 0.0323,1.7e-4 l 0.006,0.001 0.004,8.8e-4 c 0.005,5.9e-4 0.01,8.8e-4 0.0107,5.9e-4 l 0.004,-5.9e-4 0.001,-2.9e-4 0.005,0.001 -0.001,2.3e-4 6e-5,0 0.002,5e-5 0.0237,0.006 c 0.0142,0.002 0.0269,0.01 0.0401,0.0163 0.0296,0.0112 0.0444,0.0233 0.0493,0.0279 -0.0112,-0.0177 -0.0228,-0.0351 -0.0354,-0.0522 10e-4,-8.7e-4 -0.0175,-0.0241 -0.0411,-0.0463 l -0.001,-10e-4 -0.008,-0.006 -0.001,-8.8e-4 -0.008,-0.005 -8.8e-4,-5.9e-4 -0.009,-0.005 -5.8e-4,-2.9e-4 -0.009,-0.005 -8.6e-4,-5.8e-4 -0.009,-0.004 -8.8e-4,-2.9e-4 -0.009,-0.003 -10e-4,-2.9e-4 -0.009,-0.002 -0.002,-5.8e-4 -0.009,-0.002 -0.002,-2.7e-4 -0.004,-5.9e-4 c -0.0558,0.003 -0.19174,0.0988 -0.28563,0.16998 -0.04,0.0316 -0.0819,0.0651 -0.12367,0.099 -0.0532,0.0452 -0.17574,0.14777 -0.28006,0.22291 -0.0609,0.0457 -0.10929,0.0779 -0.13457,0.085 -0.005,0.001 -0.0112,0.003 -0.0161,0.004 -0.004,8.8e-4 -0.009,0.001 -0.0126,0.002 0.042,-8.8e-4 0.0899,-0.0376 0.12979,-0.0635 -0.003,0.001 0.005,-0.006 0.0247,-0.0203 l 0.0263,-0.0158 c -0.0107,0.008 -0.0209,0.0157 -0.0313,0.0239 l -5e-5,0 c -0.0436,0.0344 -0.0877,0.0707 -0.14328,0.0769 5.9e-4,2.6e-4 -0.0296,0.009 -0.0456,-5.8e-4 -0.0193,-0.0161 -0.0113,-0.0205 -0.0113,-0.024 l 9e-5,6e-5 0,-6e-5 -9e-5,0 0,-1.8e-4 0,-0.002 c -0.006,-0.0184 -0.003,-0.042 -5.8e-4,-0.0543 -0.0109,-6e-4 0.003,-0.0318 0.10494,-0.15532 0.11679,-0.13399 0.30521,-0.40576 0.33892,-0.62851 0.003,-0.043 0.003,-0.0867 -8.8e-4,-0.13093 -0.002,-0.009 -0.004,-0.018 -0.006,-0.0267 -0.0218,-0.14871 -0.0756,-0.29072 -0.14206,-0.42283 -0.0333,-0.0662 -0.0695,-0.13045 -0.1089,-0.19265 -0.0148,-0.027 -0.0528,-0.0632 -0.0434,-0.12046 0.001,-0.0112 0.005,-0.0205 0.01,-0.0284 l 0.005,-0.0108 c 0.0177,-0.0321 0.0522,-0.0324 0.0874,-0.0211 0.009,10e-4 0.0158,0.004 0.0215,0.008 l 0.003,0.002 c 0.0429,0.0195 0.0812,0.0498 0.085,0.0534 l 1e-4,9e-5 c 0.0983,0.0703 0.17426,0.15451 0.26222,0.23416 0.0538,0.0524 0.10676,0.1059 0.15876,0.16178 0.0258,0.0283 0.0517,0.0562 0.0764,0.0871 0.01,0.013 0.0178,0.023 0.0208,0.0264 0.005,5.9e-4 0.0226,-0.013 0.0344,-0.0234 0.17851,-0.19498 0.29679,-0.43585 0.41967,-0.69511 l 0.003,-0.0117 0.002,-0.009 0.002,-0.0107 0.002,-0.008 c 0.001,-0.005 0.003,-0.01 0.004,-0.0142 l 0.002,-0.006 0.002,-0.008 0.002,-0.005 0.004,-0.01 0.002,-0.004 0.002,-0.004 0.002,-0.003 0.003,-0.005 0.002,-0.002 0.002,-0.002 0.002,-0.002 0.003,-0.002 0.002,-0.001 0.002,-5.7e-4 2.9e-4,0 0.008,-0.003 0.004,-0.01 c 0.009,0.0151 0.0166,0.0304 0.024,0.0457 0.0272,0.0485 0.0636,0.14111 0.0672,0.25119 0.0147,0.19635 -0.0496,0.39029 -0.13211,0.55631 -0.0585,0.12032 -0.12253,0.24602 -0.20936,0.34557 z m -0.43287,0.48056 -0.001,0.005 0.001,-0.005 z m 1.08605,-1.20916 c -0.14158,0 -0.25643,-0.11479 -0.25643,-0.25629 0,-0.14163 0.11485,-0.25633 0.25643,-0.25633 0.14164,0 0.25643,0.1147 0.25643,0.25633 0,0.1415 -0.11479,0.25629 -0.25643,0.25629 z m -1.58717,1.54134 0,0 8e-5,0 -8e-5,0 z m 0.35716,-0.28039 0.017,-0.0121 0.0132,-0.0117 -0.006,0.008 0.0109,-0.008 -0.0141,0.0113 -0.032,0.0343 -0.0166,0.008 0.0309,-0.0277 -0.0339,0.027 c 0.01,-0.01 0.0166,-0.0168 0.0313,-0.0278 z m 0.14093,-0.0526 -0.003,0.003 0.002,-0.002 10e-4,-8.8e-4 -1.8e-4,-1.7e-4 0.0165,-0.0196 -0.004,0.006 0.003,-0.003 -0.005,0.005 c -0.003,0.004 -0.006,0.01 -0.006,0.0108 l -5.9e-4,5.8e-4 -1.4e-4,2.6e-4 0,-1.8e-4 -0.003,-5.8e-4 z m -0.013,0.0223 -1.4e-4,5.9e-4 -0.005,0.005 0.003,-0.006 0.002,-0.005 1.8e-4,5.8e-4 0.001,-0.002 -8.8e-4,0.003 5.9e-4,0.002"
         style="fill:#ffffff;fill-opacity:1;fill-rule:nonzero;stroke:none"
         id="path3067" />
    </g>
  </g>
</svg>
