<?xml version="1.0" encoding="UTF-8"?>
<svg xmlns="http://www.w3.org/2000/svg" width="100" height="100">
  <g opacity="0.2">
    <path d="M95,91.502c0,1.346-1.097,2.441-2.442,2.441H32.319c-1.347,0-2.441-1.096-2.441-2.441v-4.555h50.241   c4.346,0,7.884-3.539,7.884-7.885V30.934h4.555c1.346,0,2.442,1.096,2.442,2.441V91.502z"/>
    <path d="M17.438,79.062v-4.555h6.997h2.722h2.721h37.803c4.346,0,7.884-3.537,7.884-7.883V30.934v-2.721v-2.721v-6.998h4.555   c1.346,0,2.442,1.096,2.442,2.443v4.555v2.721v2.721v48.129c0,1.346-1.097,2.443-2.442,2.443H29.878h-2.721h-2.722h-4.555   C18.533,81.506,17.438,80.408,17.438,79.062z"/>
    <path d="M67.681,6.057H7.442C6.095,6.057,5,7.15,5,8.498v58.127c0,1.344,1.095,2.441,2.442,2.441h4.555h2.721h2.721h6.997h2.722   h2.721h37.803c1.345,0,2.441-1.098,2.441-2.441V30.934v-2.721v-2.721v-6.998v-2.721v-2.721V8.498   C70.122,7.15,69.025,6.057,67.681,6.057z"/>
  </g>
</svg>
