<?xml version="1.0" encoding="UTF-8" standalone="no"?>
<!-- Generator: Adobe Illustrator 14.0.0, SVG Export Plug-In . SVG Version: 6.00 Build 43363)  -->

<svg
   xmlns:dc="http://purl.org/dc/elements/1.1/"
   xmlns:cc="http://creativecommons.org/ns#"
   xmlns:rdf="http://www.w3.org/1999/02/22-rdf-syntax-ns#"
   xmlns:svg="http://www.w3.org/2000/svg"
   xmlns="http://www.w3.org/2000/svg"
   xmlns:sodipodi="http://sodipodi.sourceforge.net/DTD/sodipodi-0.dtd"
   xmlns:inkscape="http://www.inkscape.org/namespaces/inkscape"
   version="1.1"
   id="Layer_1"
   x="0px"
   y="0px"
   width="25"
   height="10"
   viewBox="0 0 25 9.9999998"
   enable-background="new 0 0 657.638 481.89"
   xml:space="preserve"
   inkscape:version="0.48.4 r9939"
   sodipodi:docname="OM_TV_logo.svg"><metadata
     id="metadata11"><rdf:RDF><cc:Work
         rdf:about=""><dc:format>image/svg+xml</dc:format><dc:type
           rdf:resource="http://purl.org/dc/dcmitype/StillImage" /></cc:Work></rdf:RDF></metadata><defs
     id="defs9" /><sodipodi:namedview
     pagecolor="#ffffff"
     bordercolor="#666666"
     borderopacity="1"
     objecttolerance="10"
     gridtolerance="10"
     guidetolerance="10"
     inkscape:pageopacity="0"
     inkscape:pageshadow="2"
     inkscape:window-width="1600"
     inkscape:window-height="851"
     id="namedview7"
     showgrid="false"
     inkscape:zoom="28.444444"
     inkscape:cx="15.189554"
     inkscape:cy="9.4509511"
     inkscape:window-x="0"
     inkscape:window-y="25"
     inkscape:window-maximized="1"
     inkscape:current-layer="Layer_1" /><path
     style="fill:#ffffff"
     d="M 4.3886985,1.0000107 C 4.1991402,1.0004305 4.084589,1.0133358 4.084589,1.0133358 1.9938637,1.0133358 0.5,2.5033236 0.5,4.6489489 c 0,2.1456252 0.6568799,4.351051 3.8229451,4.351051 3.1668343,0 3.5856165,-2.5337571 3.5856165,-2.5337571 l 0,2.5040323 1.5236301,0 0,-5.8116509 1.8811653,5.8116509 1.642807,0 2.060959,-5.8711001 0,5.8711001 9.482877,0 0,-7.8974904 -10.348973,0 -2.00137,6.1386204 -1.881164,-6.1386204 -2.3897259,0 0,2.6219054 C 7.4415977,1.2248823 5.2101181,0.9981854 4.3886985,1.0000107 z m 15.6380125,0.9552837 -0.196232,1.2351042 0.561986,0 -0.168493,0.7574621 -0.561986,0 -0.47774,2.2734114 c 0,0 -0.225754,0.7581433 0.448973,0.5616904 -0.08398,0.4210739 -0.140753,0.8138361 -0.140753,0.8138361 l -0.70274,0.027674 c 0,0 -1.097411,0.028955 -0.872261,-1.0659817 0.225151,-1.0949373 0.534247,-2.6393301 0.534247,-2.6393301 l -0.45,0.028699 0.140754,-0.7574621 0.477739,-0.028699 0.141781,-0.6734137 1.264725,-0.532991 z M 4.3763697,2.349913 c 0.3716358,-0.00694 1.8585617,0.1200212 1.8585617,2.5973056 0,2.8304154 -1.5236357,2.7418286 -1.9417808,2.7418286 -0.418145,0 -2.0003424,0.2080639 -2.0003424,-3.0103739 0,-2.5336475 2.0003424,-2.3236354 2.0003424,-2.3236354 0,0 0.030128,-0.00413 0.083219,-0.00512 z m 16.2143833,0.8404856 1.152739,0 0,3.1989706 1.210275,-3.1989706 1.181507,0 -2.082535,4.350026 -1.293493,0 -0.168493,-4.350026 z"
     id="path2659"
     inkscape:connector-curvature="0" /></svg>