<?xml version="1.0" encoding="UTF-8"?>
<svg xmlns="http://www.w3.org/2000/svg" width="100" height="100">
  <path d="m 65.17309,10 -14.8068,3.744493 c 0,0 1.59567,8.321586
           -6.63754,10.330397 -7.75014,1.893392 -10.38918,-5.947137
           -10.38918,-5.947137 L 18,22.092511 35.0933,90 50.36629,86.057269 c
           0,0 -2.03166,-7.675771 5.77176,-9.889868 8.33976,-2.369163
           10.54457,5.682819 10.54457,5.682819 L 82,77.753304 65.17309,10 z m
           -6.21575,12.026432 c 5.44288,-0.04645 7.80976,3.143612
           6.37114,7.312775 0,0 -3.98785,14.651101 -9.59002,12.599119
           -5.3189,-1.948899 -5.43877,-3.942731 -5.43877,-3.942731 0,0
           -6.19887,11.728634 -7.96948,20.814978 0,0 4.5668,-0.452864
           6.92613,1.013216 2.03521,1.263436 3.6371,2.519823 0.57716,10.440528
           0,0 -3.15492,9.287225 -7.76968,8.303965 -4.95661,-1.059912
           -10.0189,-4.960353 -8.67984,-16.365639 1.03625,-8.829956
           4.8172,-17.77533 4.8172,-17.77533 0,0 8.11244,-19.775331
           16.51613,-21.828194 1.5757,-0.384416 2.98398,-0.561974
           4.24003,-0.572687 z"
        fill-opacity="0.2" />
</svg>
