<?xml version="1.0" encoding="UTF-8"?>
<svg xmlns="http://www.w3.org/2000/svg" width="100" height="100">
  <path d="m 78.986176,0 -18.52652,4.67185 c 0,0 1.99832,10.40335 -8.29453,12.91427 -9.68895,2.36666 -12.9951,-7.41817 -12.9951,-7.41817 L 20,15.1134 41.383286,100 60.459656,95.08208 c 0,0 -2.52777,-9.60815 7.22779,-12.37568 10.42605,-2.96135 13.17202,7.12221 13.17202,7.12221 l 19.14053,-5.12613 z m -7.77244,15.0308 c 6.80449,-0.058 9.7548,3.94143 7.9563,9.1527 0,0 -4.97679,18.32013 -11.98041,15.75524 -6.64949,-2.43604 -6.81844,-4.94717 -6.81844,-4.94717 0,0 -7.74266,14.65856 -9.9562,26.0161 0,0 5.71272,-0.54885 8.66225,1.28369 2.54434,1.57924 4.5539,3.13418 0.7285,13.03472 0,0 -3.95286,11.60519 -9.72204,10.37616 -6.19658,-1.32485 -12.51138,-6.17958 -10.83735,-20.4357 1.29549,-11.03706 6.00669,-22.21668 6.00669,-22.21668 0,0 10.14013,-24.73035 20.6461,-27.29634 1.96988,-0.48051 3.74434,-0.70933 5.3146,-0.72272 z"
        opacity="0.2" />
</svg>
