<?xml version="1.0" encoding="UTF-8" standalone="no"?>
<!-- Created with Inkscape (http://www.inkscape.org/) -->

<svg
   xmlns:dc="http://purl.org/dc/elements/1.1/"
   xmlns:cc="http://creativecommons.org/ns#"
   xmlns:rdf="http://www.w3.org/1999/02/22-rdf-syntax-ns#"
   xmlns:svg="http://www.w3.org/2000/svg"
   xmlns="http://www.w3.org/2000/svg"
   xmlns:sodipodi="http://sodipodi.sourceforge.net/DTD/sodipodi-0.dtd"
   xmlns:inkscape="http://www.inkscape.org/namespaces/inkscape"
   version="1.1"
   width="24"
   height="24"
   id="svg2"
   xml:space="preserve"
   inkscape:version="0.48.4 r9939"
   sodipodi:docname="duckduckgo.svg"><sodipodi:namedview
     pagecolor="#ffffff"
     bordercolor="#666666"
     borderopacity="1"
     objecttolerance="10"
     gridtolerance="10"
     guidetolerance="10"
     inkscape:pageopacity="0"
     inkscape:pageshadow="2"
     inkscape:window-width="1600"
     inkscape:window-height="851"
     id="namedview70"
     showgrid="false"
     inkscape:zoom="11.313708"
     inkscape:cx="36.267659"
     inkscape:cy="8.2384206"
     inkscape:window-x="0"
     inkscape:window-y="25"
     inkscape:window-maximized="1"
     inkscape:current-layer="svg2" /><metadata
     id="metadata8"><rdf:RDF><cc:Work
         rdf:about=""><dc:format>image/svg+xml</dc:format><dc:type
           rdf:resource="http://purl.org/dc/dcmitype/StillImage" /><dc:title /></cc:Work></rdf:RDF></metadata><defs
     id="defs6" /><path
     style="fill:#e51400;fill-opacity:1;fill-rule:nonzero;stroke:none"
     d="m 12.005452,1.713361 c -5.6832921,0 -10.2905115,4.605228 -10.2905115,10.286073 0,4.385736 2.7466405,8.131595 6.613798,9.611048 C 7.7265869,18.729527 6.466686,12.83731 6.1420044,11.024399 5.8640685,9.464789 6.1788704,8.11581 6.9781085,7.263554 c 0.024665,-0.02992 0.048888,-0.06758 0.075035,-0.09643 0.017832,-0.01752 0.035333,-0.03648 0.053597,-0.05356 0.040786,-0.04221 0.084415,-0.07812 0.1286304,-0.117856 0.00773,-0.0064 0.013656,-0.01506 0.021432,-0.02147 0.00205,-0.0018 0.00866,0.0018 0.010728,0 C 7.4260821,6.836044 7.6009408,6.705777 7.8034953,6.599223 8.2516473,6.363263 8.8795099,6.200424 9.561458,6.117065 8.6691372,5.848673 7.4418285,5.776486 6.6136548,5.859914 6.6130377,5.772314 6.6719388,5.634345 6.753006,5.517041 c 0.01248,-0.02444 0.023784,-0.04388 0.042876,-0.0643 0.00583,-0.0064 0.015432,-0.0044 0.021432,-0.01086 0.022176,-0.02073 0.047026,-0.03658 0.075035,-0.05356 0.00852,-0.0049 0.01272,-0.01752 0.021432,-0.02147 0.00723,-0.0035 0.01404,-0.0077 0.021432,-0.01086 C 6.967858,5.339701 7.00561,5.326691 7.0424042,5.313121 7.2462722,5.238041 7.484038,5.190624 7.642684,5.109544 7.2963045,4.965796 6.7955243,4.725258 6.6565099,4.713099 c 0.086121,-0.01407 0.1604999,-0.04838 0.2465426,-0.07501 0.017832,-0.0032 0.035741,-0.0077 0.053597,-0.01086 0.05731,-0.01407 0.1214281,-0.03004 0.2036665,-0.03214 0.00698,-8.64e-4 0.014424,8.64e-4 0.021432,0 0.2070241,-0.02508 0.423205,-0.04206 0.6324377,-0.04287 0.93093,-0.0037 1.8650383,0.231838 2.6583823,0.653594 0.561304,0.298047 0.953857,0.627097 1.200561,0.96432 0.639426,0.122324 1.207221,0.338666 1.575733,0.707166 1.11684,1.116805 2.106372,3.658771 1.725805,5.153753 0.778892,-0.188866 2.302796,-0.578935 2.765575,-0.792886 0.497541,-0.229246 2.611005,0.114845 1.125525,0.942891 -0.643036,0.35978 -2.364481,1.023801 -3.601678,1.392903 -1.236672,0.370082 -1.989899,-0.362065 -2.401121,0.24645 -0.326405,0.483164 -0.07254,1.148013 1.404227,1.285758 1.995351,0.184523 3.905519,-0.896558 4.116204,-0.321438 0.211814,0.57512 -1.711029,1.294745 -2.883486,1.317902 -1.091517,0.02073 -3.190746,-0.670252 -3.762469,-0.964318 -0.207298,1.033805 0.134998,2.434248 0.632438,3.707273 0.154891,0.0094 0.267387,0.04147 0.28942,0.09643 0.01212,0.03046 0.02741,0.110205 0.04288,0.171441 0.340045,-0.250673 1.772345,-1.290818 2.133138,-1.210755 0.407611,0.09142 0.491504,2.991461 0.12863,3.128681 -0.232652,0.08648 -1.15453,-0.225569 -1.811559,-0.471446 0.210007,0.411044 0.51433,0.996106 0.793227,1.532196 4.752861,-0.909247 8.350321,-5.077353 8.350321,-10.093208 0,-5.68084 -4.607219,-10.286073 -10.290511,-10.286073 z m 1.221999,6.396651 c -0.570934,0.0388 -0.653877,0.557162 -0.653877,0.557162 0,0 0.183327,-0.29129 0.825386,-0.300012 0.311969,-0.0037 0.718192,0.235737 0.718192,0.235737 0,0 -0.166918,-0.408173 -0.611,-0.48216 -0.102674,-0.01678 -0.197138,-0.01629 -0.278701,-0.01086 z m -4.8987125,0.24645 c -0.1435992,-0.002 -0.3110535,0.0387 -0.5038068,0.117856 -0.771012,0.315041 -0.4823676,0.953604 -0.4823676,0.953604 0,0 -0.018599,-0.343929 0.5252445,-0.685737 0.5437839,-0.341811 1.0933676,-0.08572 1.0933676,-0.08572 0,0 -0.2016409,-0.294246 -0.6324377,-0.300009 z m 5.3917995,1.371474 c -0.352046,0 -0.632438,0.280585 -0.632438,0.632165 0,0.353616 0.280392,0.642882 0.632438,0.642882 0.353099,0 0.643157,-0.289266 0.643157,-0.642882 0,-0.35158 -0.290058,-0.632165 -0.643157,-0.632165 z m 0.28942,0.257154 c 0.09196,0 0.171509,0.08002 0.171509,0.171441 0,0.09152 -0.07955,0.160729 -0.171509,0.160729 -0.09098,0 -0.171506,-0.06921 -0.171506,-0.160729 0,-0.09145 0.08053,-0.171441 0.171506,-0.171441 z M 8.7575095,10.0601 c -0.411221,0 -0.7396305,0.339871 -0.7396305,0.750026 0,0.411207 0.3284095,0.739312 0.7396305,0.739312 0.4101685,0 0.7396305,-0.328105 0.7396305,-0.739312 0,-0.410155 -0.329462,-0.750026 -0.7396305,-0.750026 z m 0.3322975,0.300009 c 0.106397,0 0.192948,0.08594 0.192948,0.192865 0,0.10638 -0.08655,0.192865 -0.192948,0.192865 -0.1063944,0 -0.2036663,-0.08646 -0.2036663,-0.192865 0,-0.106922 0.097272,-0.192865 0.2036663,-0.192865 z"
     id="path20"
     inkscape:connector-curvature="0" /><path
     inkscape:connector-curvature="0"
     style="fill:none;stroke:#e51400;stroke-width:1.16514552000000005;stroke-linecap:butt;stroke-linejoin:miter;stroke-miterlimit:4;stroke-opacity:1;stroke-dasharray:none"
     id="path118"
     d="m 0.58257276,12.000226 c 0,-6.306086 5.11203324,-11.417653 11.41727724,-11.417653 6.305319,0 11.417577,5.111567 11.417577,11.417653 0,6.305637 -5.112258,11.417201 -11.417577,11.417201 -6.305244,0 -11.41727724,-5.111564 -11.41727724,-11.417201 z" /></svg>