<?xml version="1.0" encoding="UTF-8" standalone="no"?>
<!-- Created with Inkscape (http://www.inkscape.org/) -->

<svg
   xmlns:dc="http://purl.org/dc/elements/1.1/"
   xmlns:cc="http://creativecommons.org/ns#"
   xmlns:rdf="http://www.w3.org/1999/02/22-rdf-syntax-ns#"
   xmlns:svg="http://www.w3.org/2000/svg"
   xmlns="http://www.w3.org/2000/svg"
   version="1.1"
   width="100"
   height="100"
   viewBox="0 0 189 189"
   id="Layer_1"
   xml:space="preserve"><metadata
     id="metadata11"><rdf:RDF><cc:Work
         rdf:about=""><dc:format>image/svg+xml</dc:format><dc:type
           rdf:resource="http://purl.org/dc/dcmitype/StillImage" /><dc:title></dc:title></cc:Work></rdf:RDF></metadata><defs
     id="defs9" /><g
     transform="matrix(1.9346152,0,0,1.9346153,-88.322099,-59.848443)"
     id="g3"
     style="fill:#000000;fill-opacity:0.19607843;stroke:none"><path
       d="m 94.555,118.86 c 21.582,-0.03 39.052,-17.551 39.023,-39.131 -0.029,-21.582 -17.553,-39.053 -39.131,-39.024 -21.582,0.028 -39.055,17.549 -39.024,39.13 0.028,21.583 17.549,39.054 39.132,39.025 z m 13.267,-57.906 c 3.523,-0.005 6.387,2.849 6.393,6.375 0.006,3.525 -2.85,6.387 -6.375,6.393 -3.523,0.006 -6.388,-2.849 -6.391,-6.375 -0.004,-3.527 2.848,-6.388 6.373,-6.393 z m 9.127,26.223 c 0.014,9.229 -10.025,16.724 -22.417,16.74 -12.394,0.019 -22.452,-7.45 -22.464,-16.679 l 44.881,-0.061 z M 81.127,60.989 c 3.525,-0.005 6.386,2.85 6.392,6.376 0.003,3.525 -2.85,6.387 -6.375,6.392 -3.527,0.005 -6.387,-2.85 -6.393,-6.375 -0.005,-3.526 2.852,-6.388 6.376,-6.393 z"
       id="path5"
       style="fill:#000000;fill-opacity:0.19607843;stroke:none" /></g></svg>