<?xml version="1.0" encoding="UTF-8"?>
<svg xmlns="http://www.w3.org/2000/svg" width="100" height="100">
  <path d="m 60.34,57 c -0.49,1.49 -0.81,2.99 -0.81,3.73 0,1.41 0.48,2.4
           1.86,2.40 5.17,0 11,-9.85 11,-17.80 0,-11.6 -10.19,-19.72
           -21.67,-19.71 -13.58,0 -24.41,11.84 -24.41,24.77 0,13.5 10.83,24.27
           24.82,24.27 7.84,0 15.84,-3.97 19.64,-8.7 l 6.23,0 c -5.26,8.86
           -15.52,14.16 -26.52,14.16 -16.89,0 -30.4,-12.84 -30.4,-30.14 0,-16.57
           13.9,-29.82 30.55,-29.82 15.2,0 27.97,10.27 27.97,24.76 0,13.83
           -11.56,23.19 -18.43,23.19 -3.63,0 -5.9,-1.74 -6.31,-5.21 l -0.16,0 c
           -2.35,2.57 -4.85,5.21 -9.86,5.21 -6.95,0 -11.56,-5.71 -11.56,-12.59
           0,-10.93 7.6,-22.7 18.92,-22.7 3.8,0 7.68,1.99 9.29,6.46 l 0.16,0
           1.62,-5.05 5.09,0 -7.03,22.77 z M 51.2,38.78 c -7.03,0 -12.45,9.19
           -12.45,16.15 0,4.64 2.67,7.21 6.71,7.21 6.15,0 11.72,-9.86
           11.72,-16.48 0,-3.89 -2.1,-6.87 -5.98,-6.87"
        fill-opacity="0.2" />
  <rect x="12.5" y="12.5" width="75" height="75" rx="8" ry="8" fill="none"
        stroke-width="5" stroke="black" stroke-opacity="0.2" />
</svg>
