<?xml version="1.0" encoding="UTF-8" standalone="no"?>
<!-- Created with Inkscape (http://www.inkscape.org/) -->

<svg
   xmlns:dc="http://purl.org/dc/elements/1.1/"
   xmlns:cc="http://creativecommons.org/ns#"
   xmlns:rdf="http://www.w3.org/1999/02/22-rdf-syntax-ns#"
   xmlns:svg="http://www.w3.org/2000/svg"
   xmlns="http://www.w3.org/2000/svg"
   xmlns:sodipodi="http://sodipodi.sourceforge.net/DTD/sodipodi-0.dtd"
   xmlns:inkscape="http://www.inkscape.org/namespaces/inkscape"
   width="10"
   height="10"
   id="svg2"
   version="1.1"
   inkscape:version="0.48.4 r9939"
   sodipodi:docname="coupedelaligue.svg">
  <defs
     id="defs4">
    <linearGradient
       id="linearGradient3113"
       spreadMethod="pad"
       gradientTransform="matrix(281.23199,0,0,-281.23199,157.8011,513.9553)"
       gradientUnits="userSpaceOnUse"
       y2="0"
       x2="1"
       y1="0"
       x1="0">
      <stop
         id="stop3115"
         offset="0"
         style="stop-opacity:1;stop-color:#283d81" />
      <stop
         id="stop3117"
         offset="0.5"
         style="stop-opacity:1;stop-color:#ffffff" />
      <stop
         id="stop3119"
         offset="1"
         style="stop-opacity:1;stop-color:#283d81" />
    </linearGradient>
  </defs>
  <sodipodi:namedview
     id="base"
     pagecolor="#ffffff"
     bordercolor="#666666"
     borderopacity="1.0"
     inkscape:pageopacity="0.0"
     inkscape:pageshadow="2"
     inkscape:zoom="45.254834"
     inkscape:cx="9.7045195"
     inkscape:cy="4.0438664"
     inkscape:document-units="px"
     inkscape:current-layer="g2993"
     showgrid="false"
     inkscape:window-width="1600"
     inkscape:window-height="841"
     inkscape:window-x="0"
     inkscape:window-y="27"
     inkscape:window-maximized="1"
     fit-margin-bottom="5"
     fit-margin-top="5"
     fit-margin-right="5"
     fit-margin-left="5" />
  <metadata
     id="metadata7">
    <rdf:RDF>
      <cc:Work
         rdf:about="">
        <dc:format>image/svg+xml</dc:format>
        <dc:type
           rdf:resource="http://purl.org/dc/dcmitype/StillImage" />
        <dc:title />
      </cc:Work>
    </rdf:RDF>
  </metadata>
  <g
     inkscape:label="Calque 1"
     inkscape:groupmode="layer"
     id="layer1"
     transform="translate(-73.556424,-789.85309)">
    <g
       transform="matrix(1.25,0,0,-1.25,243.43012,1025.6972)"
       inkscape:label="clubs foot"
       id="g2993">
      <g
         id="g3091"
         transform="matrix(1.0186653,0,0,1.0119945,-0.31641809,-103.72552)"
         style="stroke:none;fill:#ffffff">
        <path
           sodipodi:nodetypes="ccccccccccccccccc"
           inkscape:connector-curvature="0"
           id="path3039"
           d="m -128.77396,288.53818 c -1.01362,0.0134 -2.04632,-0.0453 -3.01298,-0.37488 -0.24192,-0.12551 -0.13204,-0.57722 0.14961,-0.54974 1.22823,0.0686 2.45295,0.37065 3.68662,0.21231 0.23681,-0.0506 0.492,-0.025 0.71394,-0.135 -0.0727,-0.15765 -0.2525,-0.0395 -0.48232,-0.059 -0.65954,0.0478 -1.31794,-0.0495 -1.97714,-0.0535 -0.55742,-0.0526 -1.12271,-0.0888 -1.66359,-0.24165 -0.21553,-0.0815 -0.45784,-0.26692 -0.42791,-0.52332 0.066,-0.25314 0.43859,-0.27697 0.59131,-0.0925 0.54497,0.23096 1.14908,0.17977 1.72558,0.23489 0.75234,0.0312 1.50579,0.0413 2.25693,0.0973 0.2676,-0.005 0.45124,-0.009 0.68602,0.16566 0.12158,0.25157 0.15737,0.578 2.5e-4,0.82121 -0.25151,0.28169 -0.64999,0.32874 -0.99777,0.40908 -0.41298,0.0651 -0.83246,0.062 -1.24855,0.0891 z"
           style="fill:#ffffff;fill-opacity:1;fill-rule:nonzero;stroke:none" />
        <path
           sodipodi:nodetypes="ccccccccccc"
           inkscape:connector-curvature="0"
           id="path3045"
           d="m -129.14763,286.60468 c -0.60777,-2.4e-4 -1.21633,-0.0615 -1.81238,-0.17918 -0.17083,-0.043 -0.36131,-0.1059 -0.46084,-0.26124 -0.098,-0.2242 0.12308,-0.53057 0.37154,-0.46429 0.39159,0.17772 0.83046,0.17828 1.24994,0.23133 0.44858,0.0389 0.89458,0.10434 1.34293,0.14343 0.43597,0.0254 0.87471,0.0173 1.30792,0.0795 0.2195,0.0265 0.45878,0.11362 0.40017,0.33127 -0.16863,0.16093 -0.27926,0.12925 -0.49959,0.13315 -0.63675,0.0296 -1.33677,-0.007 -1.89969,-0.014 z"
           style="fill:#ffffff;fill-opacity:1;fill-rule:nonzero;stroke:none" />
        <path
           sodipodi:nodetypes="cccccccc"
           inkscape:connector-curvature="0"
           id="path3053"
           d="m -127.09896,285.76318 c -1.17977,-0.04 -2.35895,-0.14493 -3.52133,-0.35328 -0.30667,-0.0575 -0.39062,-0.34838 -0.11562,-0.44912 0.27808,-0.0627 0.45362,0.0297 0.73414,0.0775 0.68688,0.0687 1.38105,-0.0248 2.06585,0.0755 0.33109,-0.009 0.74898,-0.0246 0.94376,0.30108 0.0884,0.12129 0.11666,0.37901 -0.1068,0.34837 z"
           style="fill:#ffffff;fill-opacity:1;fill-rule:nonzero;stroke:none" />
        <path
           inkscape:connector-curvature="0"
           id="path3061"
           d="m -127.52396,284.86318 c -0.76339,-0.10429 -1.53683,-0.0827 -2.30221,-0.16433 -0.22255,-0.006 -0.46154,-0.0156 -0.65391,-0.14075 -0.1015,-0.0884 -0.0378,-0.2333 0.0483,-0.30617 0.12873,-0.12671 0.32659,-0.13887 0.49258,-0.092 0.18091,0.0436 0.36084,0.0959 0.5477,0.10616 0.53277,0.06 1.07234,0.0663 1.59931,0.17265 0.14513,0.0653 0.30052,0.19673 0.28238,0.37215 -0.003,0.0178 -0.008,0.0354 -0.0142,0.0523 z"
           style="fill:#ffffff;fill-opacity:1;fill-rule:nonzero;stroke:none" />
        <path
           sodipodi:nodetypes="ccccccccccccc"
           inkscape:connector-curvature="0"
           id="path3065"
           d="m -128.22372,283.95271 c -0.057,0.0865 -0.30807,0.0428 -0.57265,0.017 -0.0918,-0.0199 -0.0483,-0.0101 -0.32651,-0.0444 -0.29915,-0.0398 -0.59266,0.0232 -0.8624,-0.10837 -0.19217,-0.066 -0.0702,-0.25917 0.0326,-0.34786 0.0903,-0.0753 0.21449,-0.25365 0.0429,-0.31701 -0.31018,-0.13021 -0.54214,-0.40339 -0.68812,-0.70055 -0.15361,-0.31756 -0.21994,-0.6746 -0.20565,-1.02627 0.18303,0.55393 0.43096,1.12563 0.90685,1.49041 0.13951,0.1217 0.35173,0.13937 0.46623,0.29131 0.0564,0.13889 -0.13446,0.19427 -0.19391,0.28892 -0.0922,0.0547 -0.16676,0.2076 0.006,0.17005 0.45566,0.074 0.91078,0.15356 1.36996,0.20304"
           style="fill:#ffffff;fill-opacity:1;fill-rule:nonzero;stroke:none" />
      </g>
    </g>
  </g>
</svg>
