<?xml version="1.0" encoding="UTF-8" standalone="no"?>
<!-- Generator: Adobe Illustrator 15.0.2, SVG Export Plug-In . SVG Version: 6.00 Build 0)  -->

<svg
   xmlns:dc="http://purl.org/dc/elements/1.1/"
   xmlns:cc="http://creativecommons.org/ns#"
   xmlns:rdf="http://www.w3.org/1999/02/22-rdf-syntax-ns#"
   xmlns:svg="http://www.w3.org/2000/svg"
   xmlns="http://www.w3.org/2000/svg"
   xmlns:xlink="http://www.w3.org/1999/xlink"
   xmlns:sodipodi="http://sodipodi.sourceforge.net/DTD/sodipodi-0.dtd"
   xmlns:inkscape="http://www.inkscape.org/namespaces/inkscape"
   version="1.1"
   id="Layer_1"
   x="0px"
   y="0px"
   width="10"
   height="10"
   viewBox="0 0 9.9999997 10"
   enable-background="new 0 0 351.273 461.059"
   xml:space="preserve"
   inkscape:version="0.48.4 r9939"
   sodipodi:docname="europaligue.svg"><metadata
     id="metadata135"><rdf:RDF><cc:Work
         rdf:about=""><dc:format>image/svg+xml</dc:format><dc:type
           rdf:resource="http://purl.org/dc/dcmitype/StillImage" /><dc:title></dc:title></cc:Work></rdf:RDF></metadata><defs
     id="defs133"><radialGradient
       inkscape:collect="always"
       xlink:href="#SVGID_1_"
       id="radialGradient3178"
       gradientUnits="userSpaceOnUse"
       cx="178.8726"
       cy="126.2539"
       r="123.1855" /><linearGradient
       inkscape:collect="always"
       xlink:href="#SVGID_2_"
       id="linearGradient3180"
       gradientUnits="userSpaceOnUse"
       x1="178.8726"
       y1="187.4565"
       x2="178.8726"
       y2="63.305302" /><radialGradient
       inkscape:collect="always"
       xlink:href="#SVGID_3_"
       id="radialGradient3182"
       gradientUnits="userSpaceOnUse"
       cx="180.6304"
       cy="122.6836"
       r="126.9583" /><radialGradient
       inkscape:collect="always"
       xlink:href="#SVGID_4_"
       id="radialGradient3184"
       gradientUnits="userSpaceOnUse"
       cx="180.62939"
       cy="122.6836"
       r="126.9596" /><radialGradient
       inkscape:collect="always"
       xlink:href="#SVGID_5_"
       id="radialGradient3186"
       gradientUnits="userSpaceOnUse"
       cx="180.6304"
       cy="122.6821"
       r="126.9589" /><radialGradient
       inkscape:collect="always"
       xlink:href="#SVGID_6_"
       id="radialGradient3188"
       gradientUnits="userSpaceOnUse"
       cx="180.6304"
       cy="122.6807"
       r="126.9604" /><radialGradient
       id="SVGID_1_"
       cx="178.8726"
       cy="126.2539"
       r="123.1855"
       gradientUnits="userSpaceOnUse"><stop
         offset="0.7636"
         style="stop-color:#EAA822"
         id="stop22" /><stop
         offset="1"
         style="stop-color:#CC7A29"
         id="stop24" /></radialGradient><linearGradient
       id="SVGID_2_"
       gradientUnits="userSpaceOnUse"
       x1="178.8726"
       y1="187.4565"
       x2="178.8726"
       y2="63.305302"><stop
         offset="0"
         style="stop-color:#EAA822"
         id="stop29" /><stop
         offset="0.3939"
         style="stop-color:#F1C062"
         id="stop31" /></linearGradient><linearGradient
       inkscape:collect="always"
       xlink:href="#SVGID_2_"
       id="linearGradient3234"
       gradientUnits="userSpaceOnUse"
       x1="178.8726"
       y1="187.4565"
       x2="178.8726"
       y2="63.305302" /><radialGradient
       gradientUnits="userSpaceOnUse"
       r="126.9583"
       cy="122.6836"
       cx="180.6304"
       id="SVGID_3_"><stop
         id="stop40"
         style="stop-color:#A21D2E"
         offset="0" /><stop
         id="stop42"
         style="stop-color:#650B1A"
         offset="1" /></radialGradient><radialGradient
       gradientUnits="userSpaceOnUse"
       r="126.9596"
       cy="122.6836"
       cx="180.62939"
       id="SVGID_4_"><stop
         id="stop47"
         style="stop-color:#A21D2E"
         offset="0" /><stop
         id="stop49"
         style="stop-color:#650B1A"
         offset="1" /></radialGradient><radialGradient
       gradientUnits="userSpaceOnUse"
       r="126.9589"
       cy="122.6821"
       cx="180.6304"
       id="SVGID_5_"><stop
         id="stop54"
         style="stop-color:#A21D2E"
         offset="0" /><stop
         id="stop56"
         style="stop-color:#650B1A"
         offset="1" /></radialGradient><radialGradient
       gradientUnits="userSpaceOnUse"
       r="126.9604"
       cy="122.6807"
       cx="180.6304"
       id="SVGID_6_"><stop
         id="stop61"
         style="stop-color:#A21D2E"
         offset="0" /><stop
         id="stop63"
         style="stop-color:#650B1A"
         offset="1" /></radialGradient></defs><sodipodi:namedview
     pagecolor="#ffffff"
     bordercolor="#666666"
     borderopacity="1"
     objecttolerance="10"
     gridtolerance="10"
     guidetolerance="10"
     inkscape:pageopacity="0"
     inkscape:pageshadow="2"
     inkscape:window-width="1600"
     inkscape:window-height="841"
     id="namedview131"
     showgrid="false"
     inkscape:zoom="46.328739"
     inkscape:cx="6.7199059"
     inkscape:cy="3.9494626"
     inkscape:window-x="0"
     inkscape:window-y="27"
     inkscape:window-maximized="1"
     inkscape:current-layer="Layer_1" /><path
     style="fill:#ffffff;stroke:none"
     d="M 5.0982623,0.49912021 C 4.9691583,1.1195402 4.8790803,1.8572002 4.8790803,2.6900402 c 0,3.46213 1.623313,6.2291 1.623313,6.2291 -0.06192,-0.0595 -0.122081,-0.12115 -0.18151,-0.18267 -0.04359,-0.0451 -0.08673,-0.0908 -0.128998,-0.13701 -0.0038,-0.004 -0.0076,-0.008 -0.01142,-0.0126 -0.04019,-0.0441 -0.07971,-0.0886 -0.118723,-0.13357 -0.0419,-0.0483 -0.08271,-0.0968 -0.12329,-0.14614 -0.08075,-0.0981 -0.159493,-0.19856 -0.235163,-0.30027 -0.03803,-0.0511 -0.07509,-0.1022 -0.111875,-0.15413 -0.03651,-0.0515 -0.07314,-0.10303 -0.108448,-0.15527 -1.78e-4,-2.6e-4 1.78e-4,-8.8e-4 0,-0.001 -0.03548,-0.0525 -0.06958,-0.1055 -0.103883,-0.1587 -0.03433,-0.0533 -0.06843,-0.10592 -0.101599,-0.15983 -0.0026,-0.004 -0.0054,-0.008 -0.008,-0.0126 -0.03023,-0.0493 -0.05976,-0.0998 -0.08904,-0.14956 -0.0041,-0.007 -0.0085,-0.0136 -0.01256,-0.0206 -0.02786,-0.0476 -0.05518,-0.0958 -0.08219,-0.14385 -0.0052,-0.009 -0.01083,-0.0182 -0.01598,-0.0274 -0.01841,-0.033 -0.03563,-0.0662 -0.05365,-0.0993 -0.01099,-0.0202 -0.02226,-0.0402 -0.03311,-0.0605 -0.02585,-0.0483 -0.05143,-0.0964 -0.07648,-0.14499 -0.02867,-0.0556 -0.05682,-0.11185 -0.08448,-0.16783 -0.02442,-0.0495 -0.04827,-0.0987 -0.07192,-0.14842 -0.0071,-0.0149 -0.01466,-0.0296 -0.02169,-0.0445 -0.01197,-0.0254 -0.02362,-0.051 -0.03539,-0.0765 -0.02054,-0.0444 -0.04056,-0.0891 -0.0605,-0.13358 -0.01593,-0.0356 -0.03239,-0.0705 -0.04794,-0.10618 -0.0053,-0.0122 -0.0107,-0.0243 -0.01598,-0.0365 -0.014,-0.0324 -0.02739,-0.0647 -0.0411,-0.097 -0.01065,-0.0251 -0.02149,-0.0502 -0.03197,-0.0753 -0.0156,-0.0375 -0.03045,-0.0755 -0.04566,-0.11303 -0.01434,-0.0353 -0.02823,-0.0708 -0.04224,-0.10618 -0.01135,-0.0287 -0.02311,-0.0569 -0.03425,-0.0856 -0.009,-0.0232 -0.01738,-0.0464 -0.02626,-0.0696 -0.0069,-0.0179 -0.01377,-0.0357 -0.02055,-0.0537 -0.01584,-0.0419 -0.03141,-0.0837 -0.0468,-0.12558 -0.0045,-0.0122 -0.0092,-0.0243 -0.0137,-0.0365 -0.01991,-0.0545 -0.03904,-0.10886 -0.05822,-0.16326 -0.0075,-0.0213 -0.01542,-0.0426 -0.02283,-0.0639 -0.01326,-0.0381 -0.02591,-0.0762 -0.03882,-0.11417 -0.0064,-0.0188 -0.0131,-0.0371 -0.01941,-0.0559 -0.0044,-0.013 -0.0082,-0.0258 -0.01256,-0.0388 -0.02865,-0.0861 -0.05634,-0.1715 -0.08333,-0.25688 -0.07392,-0.23363 -0.141553,-0.46503 -0.204341,-0.69072 -0.03142,-0.11294 -0.06233,-0.22435 -0.09133,-0.33452 -0.04143,-0.15744 -0.0842,-0.3081 -0.127857,-0.45211 -1.06e-4,-3.6e-4 1.07e-4,-7.9e-4 0,-10e-4 -0.0067,-0.0222 -0.01377,-0.0431 -0.02055,-0.0651 -0.297364,-0.96113 -0.626521,-1.61118 -0.801383,-1.92605 -1.364365,0.77307 -2.28542204,2.23806 -2.28542204,3.91831 0,1.93802 1.22522404,3.59051 2.94296704,4.22428 0.153664,-0.34968 0.562689,-1.38356 0.648411,-2.72752 2.3e-5,-3.7e-4 -2.3e-5,-7.6e-4 0,-0.001 0.0033,-0.0513 0.0057,-0.10305 0.008,-0.15527 1.6e-5,-3.7e-4 -1.6e-5,-7.6e-4 0,-0.001 0.0023,-0.0522 0.0045,-0.10562 0.0057,-0.1587 9e-6,-3.8e-4 -8e-6,-7.6e-4 0,-0.001 0.0025,-0.10617 0.0021,-0.21381 0,-0.3231 -1.5e-5,-7.6e-4 1.6e-5,-0.002 0,-0.002 -0.0011,-0.0547 -0.0023,-0.11017 -0.0046,-0.16555 -1.6e-5,-3.7e-4 1.5e-5,-7.6e-4 0,-0.001 -0.0023,-0.0558 -0.0055,-0.11139 -0.0091,-0.16783 0,0 0.0046,0.0105 0.0137,0.0308 0.0084,0.0182 0.01797,0.0405 0.03881,0.0913 0.01452,0.0354 0.03101,0.0755 0.05024,0.12673 0.0035,0.009 0.0054,0.0152 0.0091,0.0251 0.002,0.005 0.0037,0.0117 0.0057,0.0171 0.0095,0.0259 0.01937,0.0528 0.02968,0.0822 0.0019,0.005 0.0038,0.009 0.0057,0.0148 0.01092,0.0314 0.02146,0.0641 0.03311,0.0993 0.199648,0.60259 0.497111,1.76425 0.563935,3.49131 0.0526,0.002 0.105628,0.002 0.158679,0.002 0.07651,0 0.152738,-0.002 0.228314,-0.006 -0.0027,-0.043 -0.0066,-0.0976 -0.01142,-0.15984 -1.29e-4,-0.002 1.3e-4,-0.004 0,-0.006 -0.0049,-0.0631 -0.01208,-0.13585 -0.01941,-0.21464 -0.0076,-0.0818 -0.01676,-0.17148 -0.0274,-0.26602 -0.02129,-0.18908 -0.04859,-0.39954 -0.08448,-0.61537 -1.83e-4,-10e-4 1.85e-4,-0.002 0,-0.003 -0.0088,-0.0527 -0.01877,-0.10565 -0.02854,-0.1587 -2.02e-4,-0.001 2.03e-4,-0.002 0,-0.003 -0.0098,-0.0531 -0.02113,-0.10688 -0.03197,-0.15984 -0.01111,-0.0542 -0.022,-0.10848 -0.03425,-0.16212 -1.67e-4,-7.3e-4 1.66e-4,-0.002 0,-0.002 -0.01205,-0.0527 -0.02561,-0.10479 -0.03882,-0.15641 -1.84e-4,-7.2e-4 1.84e-4,-0.002 0,-0.002 -0.01331,-0.052 -0.02771,-0.10262 -0.04223,-0.15299 -1.02e-4,-3.5e-4 1.02e-4,-7.8e-4 0,-0.001 -0.01464,-0.0507 -0.02974,-0.10097 -0.04566,-0.14956 0,0 0.0093,0.0178 0.0274,0.0502 0.01582,0.0284 0.04048,0.0727 0.06963,0.12216 0.02079,0.0352 0.04227,0.071 0.06963,0.11531 0.0033,0.005 0.0058,0.008 0.0091,0.0137 0.01048,0.0169 0.02173,0.0357 0.03311,0.0537 0.0096,0.0152 0.01831,0.0297 0.02854,0.0457 3.03e-4,4.7e-4 8.38e-4,6.7e-4 0.0011,10e-4 0.02198,0.0342 0.04594,0.07 0.07078,0.10732 0.269516,0.40511 0.706349,0.9826 1.277417,1.47165 1.773276,-0.60384 3.049132,-2.2842 3.049132,-4.26196 0,-1.68685 -0.928205,-3.15682 -2.301404,-3.92744 -0.95247,2.08078 -1.242126,3.74002 -1.324221,4.7095 -0.0013,0.0153 -0.0022,0.0284 -0.0034,0.0434 -0.0039,0.0489 -0.0074,0.0964 -0.01028,0.14157 -0.0013,0.0207 -0.0023,0.0406 -0.0034,0.0605 -0.0024,0.0423 -0.0041,0.0824 -0.0057,0.12102 -0.0025,0.0592 -0.0047,0.11853 -0.0057,0.16897 -0.0012,0.0617 -0.0015,0.11513 -0.0011,0.16326 1.1e-5,0.002 -1.2e-5,0.003 0,0.005 7.5e-5,0.0101 -1.23e-4,0.0179 0,0.0274 4.52e-4,0.0354 0.0014,0.067 0.0023,0.0936 1.39e-4,0.004 -1.45e-4,0.0109 0,0.0148 5.3e-4,0.0144 0.0017,0.0309 0.0023,0.0422 0.002,0.041 0.0034,0.0616 0.0034,0.0616 -0.02717,-0.0553 -0.05256,-0.11889 -0.07762,-0.19066 -0.01248,-0.0357 -0.02459,-0.0725 -0.03654,-0.11189 -0.02398,-0.079 -0.04671,-0.16472 -0.06849,-0.25688 -0.01085,-0.0459 -0.02167,-0.0928 -0.03197,-0.14157 -0.01036,-0.0491 -0.0199,-0.099 -0.02968,-0.1507 -0.0097,-0.051 -0.01946,-0.10316 -0.02854,-0.15642 -6.2e-5,-3.6e-4 6.2e-5,-7.7e-4 0,-10e-4 -0.0013,-0.007 -0.0022,-0.0153 -0.0034,-0.0228 -0.01687,-0.10037 -0.03312,-0.20363 -0.04794,-0.31054 -0.01599,-0.11529 -0.03098,-0.23314 -0.04453,-0.35393 -0.0068,-0.0602 -0.01327,-0.12036 -0.01941,-0.18153 -0.02454,-0.24466 -0.04393,-0.4963 -0.05822,-0.74553 -0.0071,-0.12461 -0.01264,-0.24854 -0.01713,-0.37105 -0.0022,-0.0613 -0.0041,-0.12235 -0.0057,-0.18267 -0.0031,-0.12065 -0.0053,-0.23863 -0.0057,-0.35393 -3.62e-4,-0.11529 9.52e-4,-0.22788 0.0034,-0.33566 0.0025,-0.10819 0.006,-0.21097 0.01142,-0.3094 0.0027,-0.049 0.0057,-0.0965 0.0091,-0.14271 0.01713,-0.23107 0.04368,-0.42507 0.07991,-0.56514 0.01899,-0.0734 0.03766,-0.14457 0.05479,-0.21349 9.2e-5,-3.8e-4 -9.2e-5,-7.8e-4 0,-0.001 0.0033,-0.0134 0.0059,-0.0256 0.0091,-0.0388 0.04712,-0.19087 0.08754,-0.36406 0.121005,-0.51491 2e-4,-9e-4 9.43e-4,-10e-4 0.0011,-0.002 0.02372,-0.10706999 0.04319,-0.20334999 0.0605,-0.28770999 1.94e-4,-9.4e-4 9.49e-4,-0.001 0.0011,-0.002 0.01724,-0.084 0.03098,-0.15542 0.04223,-0.21464 -0.219369,-0.0379 -0.444487,-0.0601 -0.673526,-0.0651 z"
     id="circle26"
     inkscape:connector-curvature="0" /></svg>