<?xml version="1.0" encoding="UTF-8"?>
<svg xmlns="http://www.w3.org/2000/svg" width="100" height="100">
  <path d="m 20.34375,10 c 0,0 11.256148,3.423215 21.34375,9.59375
           -1.20703,0.377715 -2.413119,0.848593 -3.59375,1.46875
           -10.52771,5.52996 -1.93014,22.34215 5,28.65625 3.914682,3.566672
           7.618549,6.66763 11.78125,8.96875 -0.970453,1.722222
           -2.119964,3.47484 -3.53125,5.25 C 45.68384,71.0567 35.06285,79.0471
           15,90 c 0,0 30.82965,-10.6815 44.3125,-24.875 1.084805,-1.141991
           2.025735,-2.314951 2.875,-3.46875 1.264124,0.349865 2.582344,0.662136
           3.96875,0.875 C 75.76047,64.00595 83.70713,62.5466 85,61.625
           76.002069,60.63635 69.968799,58.699015 65.40625,56.25
           70.473732,44.883139 65.76073,33.912956 59.3125,28.0625
           56.894762,25.8689 53.754804,23.64102 50.15625,21.5 54.70987,19.256988
           61,20.5 61,20.5 61,20.5 53.499421,17.517241 45.21875,18.78125
           37.609333,14.883956 28.702465,11.583965 20.34375,10 Z m
           27.125,13.5625 c 2.825676,2.23868 5.300056,4.71395 7.0625,7.4375
           3.20525,4.953182 5.421819,11.943476 3.46875,19.96875
           -1.924574,-1.73846 -3.646803,-3.584734 -5.5,-5.40625
           -7.337114,-7.211726 -8.97778,-17.267059 -5.03125,-22 z"
        fill-opacity="0.2" />
</svg>
