<?xml version="1.0" encoding="UTF-8"?>
<svg xmlns="http://www.w3.org/2000/svg" width="100" height="100">
  <path d="M 49.999998,10 C 72.089107,10 90,27.908204 90,49.999999 90,72.090222 72.089107,90 49.999998,90 27.911151,90 10,72.090222 10,49.999999 10,27.908204 27.911151,10 49.999998,10 Z m 0.02067,3.961683 c -19.910134,0 -36.052147,16.136896 -36.052147,36.038316 0,15.36433 9.62036,28.487992 23.167981,33.670886 C 35.02701,73.578179 30.617424,52.929932 29.479981,46.578859 28.506302,41.115152 29.60855,36.393124 32.408482,33.407458 c 0.08643,-0.104817 0.168401,-0.234203 0.26001,-0.335272 0.06247,-0.06138 0.127588,-0.13175 0.191593,-0.191586 0.142898,-0.147871 0.29669,-0.271333 0.45159,-0.410536 0.02697,-0.02242 0.04119,-0.05281 0.06842,-0.07527 0.0074,-0.0063 0.03398,0.0063 0.04106,0 0.555443,-0.484128 1.165188,-0.940433 1.874785,-1.313719 1.569988,-0.826627 3.769024,-1.398017 6.158059,-1.690045 -3.126024,-0.940244 -7.42371,-1.19545 -10.32501,-0.903182 -0.0021,-0.306884 0.208653,-0.786455 0.492644,-1.197399 0.04372,-0.08562 0.07679,-0.154259 0.143704,-0.225795 0.02032,-0.02242 0.05423,-0.01843 0.07525,-0.04105 0.0777,-0.07262 0.168716,-0.125255 0.266842,-0.18474 0.02977,-0.01716 0.04474,-0.06143 0.07525,-0.07527 0.02522,-0.01226 0.04936,-0.02998 0.07525,-0.04105 0.114381,-0.05707 0.247435,-0.102991 0.376329,-0.150531 0.714201,-0.263024 1.544804,-0.427554 2.100581,-0.711597 -1.213453,-0.503586 -2.968353,-1.346388 -3.455354,-1.388984 0.301699,-0.04929 0.560699,-0.166716 0.862129,-0.260008 0.06247,-0.01121 0.129024,-0.02998 0.191593,-0.04105 0.200771,-0.04929 0.423493,-0.102119 0.711598,-0.109477 0.02452,-0.003 0.05072,0.003 0.07525,0 0.725257,-0.08786 1.483906,-0.147693 2.216899,-0.15053 3.26128,-0.01296 6.53307,0.807806 9.312349,2.285323 1.966389,1.044133 3.343741,2.198712 4.208007,3.380089 2.240069,0.428531 4.223893,1.185959 5.514883,2.476907 3.91257,3.912447 7.3818,12.819494 6.048578,18.05679 2.728654,-0.661645 8.067446,-2.028445 9.688676,-2.777969 1.743011,-0.803106 9.145165,0.403974 3.941157,3.304827 -2.252716,1.260398 -8.282962,3.585491 -12.617172,4.878548 -4.332372,1.29649 -6.968557,-1.269652 -8.40917,0.862126 -1.143479,1.692647 -0.253881,4.01967 4.919603,4.502226 6.990213,0.64643 13.678615,-3.136926 14.416694,-1.122137 0.742041,2.014789 -5.991801,4.53742 -10.099212,4.618545 -3.823857,0.07262 -11.175354,-2.349903 -13.178242,-3.38009 -0.726217,3.621677 0.467404,8.526932 2.21006,12.986657 0.542622,0.03293 0.942311,0.142722 1.019499,0.33526 0.04246,0.10671 0.09634,0.387597 0.150534,0.602121 1.191263,-0.87817 6.207823,-4.522695 7.471778,-4.242214 1.427956,0.320267 1.722828,10.480624 0.45159,10.96134 -0.815039,0.302961 -4.047904,-0.787622 -6.349641,-1.648991 0.735707,1.43999 1.800922,3.486295 2.777965,5.364352 16.650468,-3.18532 29.257614,-17.789135 29.257614,-35.36093 0,-19.901403 -16.142009,-36.031474 -36.052003,-36.031474 z m 4.276428,22.408484 c -2.000121,0.135927 -2.285321,1.956894 -2.285321,1.956894 0,0 0.638152,-1.023156 2.887446,-1.053712 1.092902,-0.01296 2.517961,0.827916 2.517961,0.827916 -4e-6,0 -0.585908,-1.430849 -2.141639,-1.690044 -0.359692,-0.05879 -0.692708,-0.06008 -0.978447,-0.04105 z m -17.160594,0.868971 c -0.503063,-0.0071 -1.090046,0.133232 -1.765309,0.410537 -2.701048,1.103668 -1.690044,3.339035 -1.690044,3.339035 0,0 -0.06463,-1.204203 1.840572,-2.401643 1.905012,-1.197449 3.83168,-0.301058 3.83168,-0.301058 0,0 -0.707709,-1.02668 -2.216899,-1.046869 z m 18.89155,4.803284 c -1.233305,0 -2.216898,0.978385 -2.216898,2.210058 0,1.238805 0.983593,2.257953 2.216898,2.257953 1.236994,0 2.251112,-1.019148 2.251112,-2.257953 0,-1.231673 -1.014118,-2.210058 -2.251112,-2.210058 z m 1.012662,0.896339 c 0.322159,0 0.602122,0.28185 0.602122,0.602122 0,0.320617 -0.27998,0.561066 -0.602122,0.561066 -0.318726,0 -0.602121,-0.240463 -0.602121,-0.561066 0,-0.320373 0.283413,-0.602122 0.602121,-0.602122 z m -18.398909,0.26685 c -1.44061,0 -2.593225,1.190562 -2.593225,2.627437 0,1.440561 1.152615,2.586383 2.593225,2.586383 1.436925,0 2.593229,-1.145822 2.593229,-2.586383 0,-1.436875 -1.156304,-2.627437 -2.593229,-2.627437 z m 1.163191,1.046869 c 0.372736,0 0.677385,0.302785 0.677385,0.677385 0,0.372676 -0.304642,0.677388 -0.677385,0.677388 -0.372727,0 -0.711597,-0.304607 -0.711597,-0.677388 0,-0.374574 0.33887,-0.677385 0.711597,-0.677385 z"
        fill="white" />
</svg>
