<?xml version="1.0" encoding="UTF-8"?>
<svg xmlns="http://www.w3.org/2000/svg" width="100" height="100">
  <path d="m 10,10 0,80 4.6873,0 C 24.095,85.83843 36.4513,83.33333 50,83.33333
           c 13.5487,0 25.905,2.5051 35.3123,6.66667 L 90,90 90,10 85.3123,10 C
           75.905,14.16157 63.5487,16.66667 50,16.66667 36.4513,16.66667
           24.095,14.16157 14.6873,10 L 10,10 Z m 16.6667,10 c 3.2083,0.74317
           4.552,0.6987 7.767,0 4.0543,7.3225 10.2766,17.56577 15.5336,26.4388 C
           55.1513,37.75397 63.2997,24.1914 65.5077,20 c 2.5063,0.66837
           5.0273,0.6469 7.8256,0 -2.9356,4.0418 -13.628,22.93203
           -20.1043,34.51173 L 53.7043,80 c 0,0 -2.0716,-0.3841 -3.7303,-0.3841
           -1.4967,0 -3.7307,0.3841 -3.7307,0.3841 l 0.469,-25.48827 C
           43.241,48.39827 33.0337,29.7772 26.6667,20 Z"
        fill="white" />
</svg>
