<?xml version="1.0" encoding="UTF-8" standalone="no"?>
<!-- Created with Inkscape (http://www.inkscape.org/) -->

<svg
   xmlns:dc="http://purl.org/dc/elements/1.1/"
   xmlns:cc="http://creativecommons.org/ns#"
   xmlns:rdf="http://www.w3.org/1999/02/22-rdf-syntax-ns#"
   xmlns:svg="http://www.w3.org/2000/svg"
   xmlns="http://www.w3.org/2000/svg"
   xmlns:sodipodi="http://sodipodi.sourceforge.net/DTD/sodipodi-0.dtd"
   xmlns:inkscape="http://www.inkscape.org/namespaces/inkscape"
   id="svg2"
   version="1.1"
   inkscape:version="0.48.4 r9939"
   width="30"
   height="10"
   sodipodi:docname="150916_bein2_ok_0.svg">
  <metadata
     id="metadata8">
    <rdf:RDF>
      <cc:Work
         rdf:about="">
        <dc:format>image/svg+xml</dc:format>
        <dc:type
           rdf:resource="http://purl.org/dc/dcmitype/StillImage" />
        <dc:title />
      </cc:Work>
    </rdf:RDF>
  </metadata>
  <defs
     id="defs6" />
  <sodipodi:namedview
     pagecolor="#ffffff"
     bordercolor="#666666"
     borderopacity="1"
     objecttolerance="10"
     gridtolerance="10"
     guidetolerance="10"
     inkscape:pageopacity="0"
     inkscape:pageshadow="2"
     inkscape:window-width="1600"
     inkscape:window-height="851"
     id="namedview4"
     showgrid="false"
     inkscape:zoom="8.8513131"
     inkscape:cx="72.426986"
     inkscape:cy="-19.17462"
     inkscape:window-x="0"
     inkscape:window-y="25"
     inkscape:window-maximized="1"
     inkscape:current-layer="svg2" />
  <path
     style="fill:#ffffff;stroke:none"
     d="m 0.67272981,1.0026212 c -0.0624077,0.010599 -0.0899439,0.056584 -0.12506385,0.1249147 -0.0635177,0.1238548 -0.0635915,4.8579653 0,5.2776476 C 0.74864198,7.7317876 1.7805886,8.7552404 3.111475,8.934707 3.3909363,8.9723633 3.8467323,8.9424517 4.1432518,8.8722496 4.68971,8.7429209 5.1430091,8.5130291 5.5502202,8.1227612 6.145919,7.5518296 6.4519306,6.8978344 6.4881991,6.0928967 6.5278774,5.2126211 6.231022,4.4368033 5.6127521,3.8132028 5.2153335,3.4123611 4.78352,3.1529176 4.2370497,3.001257 4.0444517,2.9476406 3.9208616,2.9390364 3.4866666,2.9387996 3.0125642,2.9385503 2.9488388,2.9589179 2.7050175,3.0324856 2.090725,3.2178626 1.5457088,3.5659237 1.1729852,4.0318035 l -0.18759574,0.2498295 -0.031266,-1.5614342 0,-1.5926629 -0.0625319,-0.062457 C 0.82676156,1.0137066 0.73513743,0.9920226 0.67272981,1.0026213 z M 13.616839,2.9075709 C 13.43883,2.8960967 13.255066,2.9942368 13.14785,3.1574004 l -0.0938,0.093686 0,2.6232095 c -0.0051,1.4422046 -0.0097,2.6636529 0,2.7168955 0.02078,0.1162238 0.158709,0.3186336 0.281394,0.3747443 0.05284,0.024563 0.180929,0.037464 0.281393,0.031229 0.134435,-0.00773 0.164294,-0.023735 0.250128,-0.093686 0.232831,-0.1897911 0.218862,0.019013 0.218862,-2.9354963 0,-2.6130456 -0.0014,-2.6521565 -0.06253,-2.7793529 -0.08436,-0.1754952 -0.228449,-0.2695836 -0.406458,-0.2810582 z m 12.94411,0 c -1.854447,-0.00661 -2.643082,0.00766 -2.751405,0.031229 -0.191836,0.041672 -0.316732,0.1568169 -0.343926,0.3435155 -0.0096,0.069888 -0.0048,1.054357 0,2.1860079 l 0,2.0610932 0.06253,0.2186008 c 0.196333,0.5958322 0.676519,1.0623667 1.250639,1.2179187 0.130264,0.035781 0.509669,0.02998 2.282415,0.031229 2.078042,0.00175 2.159993,-0.00648 2.251149,-0.062457 0.195905,-0.1202014 0.187596,0.066003 0.187596,-2.966725 -1.2e-4,-2.6725976 -0.0067,-2.7496642 -0.06253,-2.8418103 -0.03153,-0.052145 -0.103142,-0.1268414 -0.15633,-0.1561434 -0.09078,-0.049877 -0.267392,-0.053723 -2.720138,-0.062457 z M 9.7085935,2.9387996 c -0.4138964,0 -0.5076242,0.00448 -0.7191172,0.062457 C 8.4509713,3.1486908 7.9916438,3.4306781 7.6137738,3.8132028 6.3220455,5.1208664 6.453496,7.2549922 7.9264335,8.3725907 8.2929276,8.6506871 8.8958114,8.875105 9.3646678,8.934707 10.01998,9.0180621 10.774051,8.8310579 11.334424,8.4662767 c 0.424837,-0.2765628 0.937979,-0.8588294 0.937979,-1.0617753 0,-0.1344791 -0.05599,-0.2191745 -0.187596,-0.2186008 -0.135935,5.86e-4 -0.155725,0.00377 -0.31266,0.2186008 C 10.836999,8.6846335 9.0145991,8.8364815 7.9264335,7.7167883 7.6706439,7.4535797 7.6172676,7.3671689 7.457444,7.0297572 7.2612756,6.6154989 7.2036945,6.3608683 7.2073163,5.9055246 7.2108363,5.4548443 7.2632383,5.2029631 7.457444,4.8125206 7.7094985,4.305767 8.1060652,3.9044447 8.6142847,3.6570593 8.9702615,3.4837523 9.2072435,3.4302975 9.5835296,3.4072299 c 1.0036834,-0.061348 1.9594054,0.512989 2.4074794,1.4365194 0.117364,0.2417494 0.218862,0.6273232 0.218862,0.7807171 l 0,0.093686 -1.500766,0 c -1.5041907,0 -1.4953542,-0.00188 -1.5632989,0.062457 -0.066734,0.063131 -0.1000011,0.1826773 -0.062532,0.2810581 0.05005,0.1308033 0.087141,0.1249148 1.8134259,0.1249148 l 1.657097,0 0.06253,-0.093686 C 12.718599,5.9899151 12.746323,5.8860103 12.678857,5.468323 12.487008,4.2811475 11.637678,3.3239803 10.458974,3.001257 10.24748,2.9433995 10.122487,2.9387996 9.7085904,2.9387996 z m 6.6909165,0 c -0.169543,2.497e-4 -0.355578,0.00162 -0.468989,0.031229 -0.654394,0.1708006 -1.161375,0.6943197 -1.313171,1.3428334 -0.06393,0.2712013 -0.06323,4.2501934 0,4.3720158 0.05331,0.1027821 0.187576,0.2434009 0.281394,0.2810582 0.186046,0.074502 0.460234,0.024115 0.594053,-0.1249148 0.131922,-0.1472592 0.123863,-0.1908523 0.125064,-2.2484653 9.71e-4,-1.4059319 0.0064,-1.9773013 0.03127,-2.0610931 0.04806,-0.161586 0.261411,-0.3857607 0.437724,-0.4684303 0.288045,-0.1350893 0.667845,-0.069322 0.875447,0.1561434 0.04133,0.044876 0.501881,0.7853375 1.031776,1.6238916 1.585975,2.5097646 1.564775,2.4478767 1.78216,2.6544382 0.45025,0.4278125 1.090104,0.591323 1.688362,0.4372016 0.700503,-0.1804642 1.198467,-0.724778 1.344437,-1.4365195 0.03934,-0.1935192 0.06253,-0.5171416 0.06253,-2.1860079 0,-2.1122771 0.002,-2.046436 -0.15633,-2.2172366 -0.221565,-0.2390562 -0.682109,-0.2154273 -0.844181,0.062457 -0.05912,0.1010988 -0.04816,0.1756836 -0.06253,2.1547792 -0.01642,2.266681 -0.02548,2.1389499 -0.250128,2.37338 C 21.253029,8.00423 20.806419,8.0114065 20.495356,7.7167883 20.404586,7.630827 19.955217,6.9634087 19.088387,5.5932378 17.958947,3.8080106 17.791368,3.5664343 17.618887,3.4072299 17.407308,3.2119649 17.113025,3.0406031 16.837238,2.9700283 16.723234,2.9406653 16.569058,2.9385498 16.399514,2.9387996 z M 3.5491985,3.4072299 c 0.3259059,0.00833 0.658774,0.072059 0.9692449,0.2186007 0.7081675,0.3342697 1.1771466,0.8625331 1.4069684,1.6238916 0.069878,0.22943 0.062762,0.3218758 0.062532,0.6870311 C 5.987702,6.2695764 5.9767918,6.4023658 5.9254118,6.5925556 5.7927898,7.0833862 5.4581576,7.6013129 5.0812307,7.9041604 4.7349628,8.1823568 4.241892,8.3943991 3.8618581,8.435048 3.5188302,8.4718299 3.4398484,8.4887214 3.2365389,8.4662767 2.1787427,8.3496913 1.321628,7.604261 1.0479214,6.561327 0.91714909,6.0630525 0.98741367,5.38791 1.2042512,4.9062067 1.6355658,3.948109 2.5714807,3.3822262 3.5491985,3.4072299 z M 26.654746,3.5633733 c 0.282121,-0.016221 0.594452,0.023372 0.844181,0.1561434 0.760326,0.3722835 0.998716,1.4864741 0.46899,2.1547792 -0.457991,0.6036091 -1.104929,0.997603 -1.688362,1.4677482 l 1.969756,0 0,0.3747442 0,0.3747442 -0.906713,0 c -0.631035,-0.011284 -1.287591,0.045905 -1.907224,-0.093686 -0.313722,-0.055121 -0.402812,-0.457937 -0.218862,-0.687031 0.465176,-0.5006897 1.05421,-0.8895673 1.563298,-1.3428334 0.284441,-0.2696428 0.654705,-0.5475158 0.687852,-0.9680892 -0.02557,-0.3201461 -0.273336,-0.6866477 -0.62532,-0.6870311 -0.418681,-0.078812 -0.841379,0.262026 -0.844181,0.6870311 -0.03218,0.3342837 0.226579,0.5926441 0.437724,0.8119457 l -0.531522,0.3747443 c -0.09292,0.1269635 -0.17758,0.015588 -0.250127,-0.062457 -0.418474,-0.3783542 -0.600083,-1.0214956 -0.406458,-1.5614342 0.1954,-0.6085502 0.786306,-0.9636293 1.406968,-0.9993179 z"
     id="path2987"
     inkscape:connector-curvature="0" />
</svg>
