<?xml version="1.0" encoding="UTF-8" standalone="no"?>
<svg
   xmlns:dc="http://purl.org/dc/elements/1.1/"
   xmlns:cc="http://creativecommons.org/ns#"
   xmlns:rdf="http://www.w3.org/1999/02/22-rdf-syntax-ns#"
   xmlns:svg="http://www.w3.org/2000/svg"
   xmlns="http://www.w3.org/2000/svg"
   xmlns:sodipodi="http://sodipodi.sourceforge.net/DTD/sodipodi-0.dtd"
   xmlns:inkscape="http://www.inkscape.org/namespaces/inkscape"
   width="30"
   height="10"
   viewBox="0 0 24 8"
   version="1.1"
   id="svg2"
   inkscape:version="0.48.4 r9939"
   sodipodi:docname="150708_csport_2.svg">
  <metadata
     id="metadata57">
    <rdf:RDF>
      <cc:Work
         rdf:about="">
        <dc:format>image/svg+xml</dc:format>
        <dc:type
           rdf:resource="http://purl.org/dc/dcmitype/StillImage" />
      </cc:Work>
    </rdf:RDF>
  </metadata>
  <defs
     id="defs55" />
  <sodipodi:namedview
     pagecolor="#ffffff"
     bordercolor="#666666"
     borderopacity="1"
     objecttolerance="10"
     gridtolerance="10"
     guidetolerance="10"
     inkscape:pageopacity="0"
     inkscape:pageshadow="2"
     inkscape:window-width="1600"
     inkscape:window-height="851"
     id="namedview53"
     showgrid="false"
     inkscape:zoom="44.653301"
     inkscape:cx="13.736221"
     inkscape:cy="3.1072383"
     inkscape:window-x="0"
     inkscape:window-y="25"
     inkscape:window-maximized="1"
     inkscape:current-layer="svg2" />
  <g
     id="#ffffffff"
     transform="matrix(0.02773826,0,0,0.02767956,3.0336436,-0.16608)"
     style="fill:#ffffff">
    <path
       d="M 47.49,33.65 C 58.54,25.67 73,23.92 86.16,26.31 c 6.56,1.24 13.15,3.31 18.52,7.42 -1.63,6.74 -2.17,13.74 -4.3,20.35 -7.24,-5.27 -16.26,-8.26 -25.25,-7.43 -7.81,0.84 -15.7,4.99 -19.29,12.24 -3.76,7.73 -4.2,17.58 0.61,24.97 4.19,6.59 12.2,9.77 19.8,9.72 6.42,0.15 12.45,-2.3 18.35,-4.53 -1.38,7.2 -1.95,14.65 -4.08,21.66 C 73.03,118.41 49.78,114.76 37.5,99.4 29.51,89.23 27.28,75.4 29.48,62.87 31.62,51.4 37.46,40.08 47.49,33.65 z"
       id="path5"
       inkscape:connector-curvature="0"
       style="fill:none" />
    <path
       d="m 463.75,27 c 8.19,0 16.39,0 24.58,0 0.01,9.29 -0.01,18.58 0.01,27.87 10.21,0.31 20.42,0 30.63,0.16 0.06,8.13 0.01,16.26 0.03,24.39 -9.91,0.32 -19.85,-0.1 -29.76,0.2 -0.19,0.17 -0.57,0.52 -0.77,0.69 -0.36,10.55 0.01,21.12 -0.18,31.68 -8.11,0.02 -16.23,-0.01 -24.34,0.03 -0.71,-10.81 0.04,-21.67 -0.4,-32.49 -10.3,0.01 -20.6,-0.01 -30.9,0.01 0.06,-8.18 -0.04,-16.36 0.06,-24.53 10.32,-0.02 20.64,0 30.96,-0.02 0.04,-9.33 -0.1,-18.66 0.08,-27.99 z"
       id="path7"
       inkscape:connector-curvature="0"
       style="fill:none" />
    <path
       d="m 138.18,28.69 c 9.34,-0.04 18.67,-0.04 28,0 5.96,27.71 12.01,55.41 17.65,83.18 -7.23,0.25 -14.47,0.12 -21.7,0.08 -1.27,-4.79 -2.37,-9.63 -3.58,-14.43 -9.84,0.15 -19.69,-0.25 -29.51,0.21 -2.25,4.76 -4.42,9.55 -6.8,14.25 -8.35,0.03 -16.69,0.03 -25.04,0 4.14,-10.4 10,-20.04 14.57,-30.26 8.71,-17.73 17.7,-35.31 26.41,-53.03 m -0.88,50.3 c 5.77,-0.15 11.53,0.33 17.3,0.27 -1.99,-8.73 -3.92,-17.47 -5.82,-26.21 -3.93,8.6 -7.65,17.3 -11.48,25.94 z"
       id="path9"
       inkscape:connector-curvature="0"
       style="fill:none" />
    <path
       d="m 203.87,32.85 c 0.43,-1.32 0.04,-3.11 1.21,-4.06 7.96,-0.29 15.94,-0.07 23.91,-0.09 9.09,15.68 17.83,31.56 27.05,47.16 2.56,-15.68 4.47,-31.46 7.04,-47.14 7.67,-0.24 15.33,0.56 23,0.28 -3.75,27.69 -7.85,55.33 -11.77,83 -7.54,0 -15.07,-0.01 -22.61,0.01 -9.68,-17.07 -19.26,-34.2 -28.93,-51.27 -2.48,17.02 -4.82,34.07 -7.3,51.09 -6.87,0.33 -13.76,0.13 -20.64,0.15 -1.82,0.39 -1.88,-1.79 -1.54,-2.95 3.48,-25.4 7.1,-50.79 10.58,-76.18 z"
       id="path11"
       inkscape:connector-curvature="0"
       style="fill:none" />
    <path
       d="m 324.36,31.13 c 0.59,-1.02 1.12,-2.73 2.65,-2.45 8.72,-0.07 17.45,0.05 26.17,-0.04 6.17,27.66 11.46,55.52 17.53,83.21 -7.38,0.97 -14.97,0.46 -22.41,0.26 -0.96,-4.86 -2.08,-9.68 -3.04,-14.54 -2.66,-0.83 -5.47,-0.55 -8.2,-0.58 -6.38,0.06 -12.76,-0.06 -19.13,0.03 -1.36,-0.26 -2.08,1.13 -2.57,2.11 -2.02,4.3 -3.99,8.61 -6.08,12.87 -8.44,-0.08 -16.89,0.16 -25.32,-0.13 13.47,-26.91 27.03,-53.78 40.4,-80.74 m -0.09,48.01 c 5.83,0.22 11.66,0.06 17.49,0.12 -1.84,-8.86 -3.85,-17.68 -5.7,-26.53 -4.03,8.76 -7.78,17.64 -11.79,26.41 z"
       id="path13"
       inkscape:connector-curvature="0"
       style="fill:none" />
    <path
       d="m 379.65,111.95 c 3.78,-27.79 7.9,-55.54 11.88,-83.31 7.86,0.06 15.72,0.01 23.59,0.03 -2.63,21.47 -6.01,42.84 -8.71,64.3 8.38,0.06 16.77,0.02 25.15,0.03 -0.56,6.36 -1.58,12.67 -2.4,19 -16.5,-0.03 -33.01,0.06 -49.51,-0.05 z"
       id="path15"
       inkscape:connector-curvature="0"
       style="fill:none" />
    <path
       d="m 368.22,160.32 c 13.35,-2.25 27.81,0.54 38.7,8.79 8.31,6.21 14.23,15.54 16.18,25.74 3.03,14.55 -1.21,30.75 -12.12,41.08 -16.49,16.26 -44.97,17.37 -63.19,3.34 -10.3,-7.74 -16.78,-20.37 -16.82,-33.28 -0.43,-12.4 4.26,-25.07 13.3,-33.67 6.46,-6.4 15.01,-10.5 23.95,-12 m 4.27,19.33 c -8.44,1.75 -15.75,8.26 -18.35,16.49 -2.46,7.56 -0.59,16.23 4.4,22.34 5.23,6.59 14.05,10.1 22.37,8.83 8.94,-1.19 16.9,-7.75 19.67,-16.35 2.84,-8.23 0.78,-17.95 -5.37,-24.17 -5.64,-6.18 -14.58,-8.81 -22.72,-7.14 z"
       id="path17"
       inkscape:connector-curvature="0"
       style="fill:none" />
    <path
       d="m 190.35,181.9 c 1.63,-9.65 9.09,-18.08 18.66,-20.4 11.59,-2.75 23.8,0.38 34.17,5.76 -2.76,5.75 -5.7,11.42 -8.51,17.15 -4.18,-3.3 -9.19,-6.18 -14.72,-5.68 -3.83,0.21 -8.26,2.99 -7.98,7.28 0.26,3.69 4.09,5.63 7.17,6.73 7.82,2.56 16.78,4.14 22.29,10.86 6.2,6.87 5.5,17.06 3.42,25.43 -1.86,8.28 -9.02,14.31 -16.82,16.92 -14,4.81 -29.94,1.17 -41.67,-7.47 3.02,-5.83 6.15,-11.61 9,-17.53 5.09,4.22 10.92,8.19 17.75,8.52 4.38,0.34 9.92,-1.58 10.81,-6.44 0.94,-3.55 -1.49,-6.85 -4.62,-8.25 -7.8,-3.72 -17.24,-4.2 -23.9,-10.18 -6.07,-5.74 -6.41,-14.99 -5.05,-22.7 z"
       id="path19"
       inkscape:connector-curvature="0"
       style="fill:none" />
    <path
       d="m 261,162.52 c 11.34,-0.02 22.68,0.01 34.02,-0.02 4.92,0 10.01,0.53 14.39,2.94 7.21,3.85 12.06,11.41 12.99,19.49 0.99,8.55 0,18.03 -5.57,24.95 -4.55,5.57 -11.89,8.05 -18.89,8.33 -5.23,0.14 -10.46,-0.01 -15.69,0.04 0.05,9.13 -0.09,18.26 0.08,27.38 -7.11,0.22 -14.22,0.05 -21.32,0.11 -0.02,-27.74 0,-55.48 -0.01,-83.22 m 21.25,17.74 c 0.01,6.83 0,13.67 0,20.5 5.24,-0.22 11.39,0.83 15.75,-2.81 3.49,-4 3.49,-10.92 -0.02,-14.92 -4.23,-4.02 -10.48,-2.52 -15.73,-2.77 z"
       id="path21"
       inkscape:connector-curvature="0"
       style="fill:none" />
    <path
       d="m 442.09,162.5 c 10.3,0.09 20.61,-0.12 30.9,0.09 8.25,0.4 17.47,2.96 22.12,10.37 4.33,7.28 4.39,16.41 2.52,24.46 -2.01,8 -8.9,13.55 -16.41,16.17 6.86,10.68 13.61,21.42 20.38,32.15 -8.31,-0.04 -16.63,0.05 -24.94,-0.05 -6.48,-10.83 -13.01,-21.61 -19.51,-32.43 -1.35,10.82 -2.63,21.65 -3.95,32.48 -7.1,-0.01 -14.19,0 -21.29,-0.01 3.31,-27.76 6.81,-55.49 10.18,-83.23 m 16.56,36.79 c 5.2,0.12 10.96,-0.03 15.16,-3.55 3.69,-2.89 4.6,-9.28 0.85,-12.48 -3.7,-3.03 -8.82,-2.71 -13.31,-2.85 -1.01,6.28 -1.78,12.59 -2.7,18.88 z"
       id="path23"
       inkscape:connector-curvature="0"
       style="fill:none" />
    <path
       d="m 508.75,162.52 c 19.17,-0.01 38.33,-0.01 57.5,0 0,6.16 0,12.32 0,18.48 -6,0.01 -12,-0.01 -18,0.01 0.01,21.57 0,43.15 0,64.72 -7.33,0 -14.66,0 -21.99,0.01 0.01,-21.58 0.01,-43.16 0,-64.74 -5.84,-0.01 -11.67,0 -17.51,0 -0.01,-6.16 -0.01,-12.32 0,-18.48 z"
       id="path25"
       inkscape:connector-curvature="0"
       style="fill:none" />
  </g>
  <path
     style="fill:#ffffff"
     inkscape:connector-curvature="0"
     id="path28"
     d="m 3.200073,0 c 4.9559953,0 9.911713,0 14.867707,0 -2.77e-4,1.11742 2.79e-4,2.23485 0,3.35199 -5.54e-4,0.11986 0.0022,0.23971 -0.0017,0.35956 l -0.0017,0.0255 c -1.531985,0.002 -3.064245,-0.006 -4.595954,0.004 -2.408512,-0.01 -4.8173028,-0.002 -7.2258161,-0.004 -1.0141109,0 -2.0284991,0 -3.0426099,0 0,-1.24558 0,-2.49116 0,-3.73674 M 4.3508604,0.76565 C 4.0726457,0.94363 3.9106543,1.25696 3.8512943,1.57445 3.7902703,1.92127 3.8521265,2.30408 4.0737552,2.58558 4.414381,3.01074 5.0592956,3.11177 5.5444378,2.89864 5.6035208,2.7046 5.6193318,2.49839 5.6576099,2.2991 5.4939542,2.3608 5.3266925,2.42864 5.1486129,2.42449 4.9378021,2.42549 4.7156185,2.33789 4.5993952,2.15544 4.4659742,1.95089 4.478179,1.67824 4.5824752,1.46428 4.6820562,1.2636 4.9009104,1.14873 5.1175463,1.12548 5.3669132,1.10248 5.6171124,1.18528 5.8179374,1.33114 5.8770204,1.14818 5.8919984,0.95442 5.9372119,0.76786 5.7882574,0.6541 5.6054623,0.5968 5.4234993,0.56248 5.0584637,0.49638 4.6573685,0.54478 4.3508607,0.76565 M 15.89719,0.58158 c -0.005,0.25825 -0.0011,0.5165 -0.0022,0.77475 -0.286259,5.6e-4 -0.572518,0 -0.858777,5.6e-4 -0.0028,0.22614 0,0.45256 -0.0017,0.67897 0.285705,-5.5e-4 0.571409,0 0.857113,-2.7e-4 0.01221,0.29949 -0.0086,0.60009 0.0111,0.89931 0.224957,-10e-4 0.450191,-2.8e-4 0.675149,-8.3e-4 0.0053,-0.2923 -0.005,-0.58487 0.005,-0.87689 0.0055,-0.005 0.01609,-0.0144 0.02136,-0.0191 0.274886,-0.008 0.550604,0.003 0.82549,-0.006 -5.54e-4,-0.22503 8.33e-4,-0.45007 -8.32e-4,-0.6751 -0.283208,-0.004 -0.566414,0.004 -0.849622,-0.004 -5.55e-4,-0.25714 0,-0.51429 -2.78e-4,-0.77143 -0.227176,0 -0.45463,0 -0.681806,0 M 6.8664412,0.62835 C 6.6248404,1.11883 6.3754735,1.60544 6.1338732,2.0962 6.0071094,2.37908 5.8445632,2.64591 5.7297268,2.93378 c 0.2316145,8.3e-4 0.4629516,8.3e-4 0.6945661,0 C 6.4903099,2.80369 6.550502,2.6711 6.612913,2.53935 c 0.2723901,-0.0127 0.545612,-0.002 0.8185558,-0.006 0.03356,0.13287 0.06408,0.26683 0.0993,0.39942 0.2005471,10e-4 0.4013723,0.005 0.6019204,-0.002 C 7.9762449,2.16211 7.8084286,1.39539 7.6431083,0.62839 c -0.2587979,-0.001 -0.5175958,-0.001 -0.7766707,0 m 1.8221262,0.11515 c -0.09653,0.70278 -0.1969421,1.40556 -0.2934707,2.10862 -0.0094,0.0321 -0.0078,0.0924 0.04272,0.0817 0.1908392,-5.5e-4 0.3819554,0.005 0.5725175,-0.004 0.06879,-0.47111 0.1336985,-0.94304 0.2024892,-1.41415 0.2682288,0.47249 0.5339617,0.94664 0.8024682,1.41913 0.209147,-5.5e-4 0.418016,-2.8e-4 0.627162,-2.8e-4 0.108735,-0.76589 0.222461,-1.53095 0.32648,-2.2974 -0.212752,0.008 -0.425228,-0.0144 -0.637981,-0.008 -0.07129,0.43401 -0.124267,0.8708 -0.195277,1.30481 -0.2557471,-0.4318 -0.498179,-0.87135 -0.75032,-1.30536 -0.221074,5.5e-4 -0.4424251,-0.006 -0.6632221,0.002 -0.03245,0.0263 -0.02164,0.0758 -0.03356,0.11238 m 3.3421831,-0.0476 c -0.37086,0.74624 -0.746991,1.48999 -1.120625,2.23484 0.233833,0.008 0.468221,10e-4 0.702332,0.004 0.05797,-0.11791 0.112617,-0.23721 0.168649,-0.35623 0.01359,-0.0271 0.03356,-0.0656 0.07129,-0.0584 0.176693,-0.002 0.353663,8.3e-4 0.530634,-8.3e-4 0.07573,8.3e-4 0.153669,-0.007 0.227453,0.0161 0.02663,0.13452 0.0577,0.26794 0.08432,0.40246 0.206372,0.006 0.416906,0.0196 0.621615,-0.007 -0.168372,-0.76645 -0.315107,-1.5376 -0.486252,-2.30321 -0.241877,0.002 -0.484033,-8.4e-4 -0.72591,0.001 -0.04244,-0.008 -0.05714,0.0396 -0.07351,0.0678 m 1.533649,2.23706 c 0.457681,0.003 0.91564,5.5e-4 1.373321,10e-4 0.02275,-0.17521 0.05104,-0.34987 0.06657,-0.52591 -0.232447,-2.8e-4 -0.465171,8.3e-4 -0.697618,-8.3e-4 0.07489,-0.594 0.16865,-1.18551 0.2416,-1.77979 -0.2183,-5.6e-4 -0.436322,8.3e-4 -0.654345,-8.3e-4 -0.110398,0.76866 -0.22468,1.53676 -0.32953,2.30598 z" />
  <path
     style="fill:#ffffff"
     inkscape:connector-curvature="0"
     id="path30"
     d="m 12.02833,2.02448 c 0.11123,-0.24275 0.215248,-0.48854 0.327033,-0.73101 0.05132,0.24496 0.10707,0.48909 0.158109,0.73433 -0.161715,-0.002 -0.323429,0.003 -0.485142,-0.003 z" />
  <path
     style="fill:#ffffff"
     inkscape:connector-curvature="0"
     id="path32"
     d="M 6.8421069,2.02033 C 6.9483445,1.78118 7.051531,1.54037 7.1605416,1.30232 7.2132416,1.54424 7.2667791,1.78616 7.3219789,2.0278 7.1619286,2.0298 7.0021562,2.0162 6.8421069,2.0208 z" />
  <g
     id="#d3e273ff"
     transform="matrix(0.02773826,0,0,0.02767956,3.0336436,-0.16608)"
     style="fill:#ffffff">
    <path
       d="m 542,127.1 c 28.97,-2.49 57.94,-5.02 86.91,-7.62 3.91,44.58 8.01,89.14 11.59,133.74 -10.61,0.99 -21.24,1.79 -31.85,2.82 l -0.36,0.04 c 0.25,-38.69 0.03,-77.39 0.12,-116.08 -22.16,0.06 -44.32,-0.12 -66.47,0.09 0.14,-4.33 0.04,-8.66 0.06,-12.99 z"
       id="path35"
       inkscape:connector-curvature="0"
       style="fill:#ffffff" />
    <path
       d="m 147.82,274.29 c 51.39,-0.14 102.79,-0.01 154.18,-0.06 33.37,0.12 66.75,-0.23 100.12,0.19 -13.05,0.59 -26.04,2.01 -39.06,3.09 -66,5.77 -132,11.54 -198,17.32 -5.12,0.33 -10.26,0.13 -15.38,0.15 -0.59,-6.9 -1.15,-13.8 -1.86,-20.69 z"
       id="path37"
       inkscape:connector-curvature="0"
       style="fill:#ffffff" />
  </g>
  <g
     id="#4db848ff"
     transform="matrix(0.02773826,0,0,0.02767956,3.0336436,-0.16608)"
     style="fill:#ffffff">
    <path
       d="m 541.94,140.09 c 22.15,-0.21 44.31,-0.03 66.47,-0.09 -0.09,38.69 0.13,77.39 -0.12,116.08 -61.97,5.76 -124.01,10.88 -186,16.43 -4.43,0.33 -8.89,0.54 -13.21,1.62 -2.3,0.41 -4.65,0.31 -6.96,0.29 -33.37,-0.42 -66.75,-0.07 -100.12,-0.19 -51.39,0.05 -102.79,-0.08 -154.18,0.06 -3.53,-37.33 -6.62,-74.72 -9.88,-112.09 74.39,-6.28 148.75,-13.01 223.13,-19.4 5.05,-0.43 10.05,-1.35 15.12,-1.64 55.22,-0.36 110.46,-0.07 165.69,-0.15 l 0.06,-0.92 m -173.72,20.23 c -8.94,1.5 -17.49,5.6 -23.95,12 -9.04,8.6 -13.73,21.27 -13.3,33.67 0.04,12.91 6.52,25.54 16.82,33.28 18.22,14.03 46.7,12.92 63.19,-3.34 10.91,-10.33 15.15,-26.53 12.12,-41.08 -1.95,-10.2 -7.87,-19.53 -16.18,-25.74 -10.89,-8.25 -25.35,-11.04 -38.7,-8.79 M 190.35,181.9 c -1.36,7.71 -1.02,16.96 5.05,22.7 6.66,5.98 16.1,6.46 23.9,10.18 3.13,1.4 5.56,4.7 4.62,8.25 -0.89,4.86 -6.43,6.78 -10.81,6.44 -6.83,-0.33 -12.66,-4.3 -17.75,-8.52 -2.85,5.92 -5.98,11.7 -9,17.53 11.73,8.64 27.67,12.28 41.67,7.47 7.8,-2.61 14.96,-8.64 16.82,-16.92 2.08,-8.37 2.78,-18.56 -3.42,-25.43 -5.51,-6.72 -14.47,-8.3 -22.29,-10.86 -3.08,-1.1 -6.91,-3.04 -7.17,-6.73 -0.28,-4.29 4.15,-7.07 7.98,-7.28 5.53,-0.5 10.54,2.38 14.72,5.68 2.81,-5.73 5.75,-11.4 8.51,-17.15 -10.37,-5.38 -22.58,-8.51 -34.17,-5.76 -9.57,2.32 -17.03,10.75 -18.66,20.4 M 261,162.52 c 0.01,27.74 -0.01,55.48 0.01,83.22 7.1,-0.06 14.21,0.11 21.32,-0.11 -0.17,-9.12 -0.03,-18.25 -0.08,-27.38 5.23,-0.05 10.46,0.1 15.69,-0.04 7,-0.28 14.34,-2.76 18.89,-8.33 5.57,-6.92 6.56,-16.4 5.57,-24.95 -0.93,-8.08 -5.78,-15.64 -12.99,-19.49 -4.38,-2.41 -9.47,-2.94 -14.39,-2.94 -11.34,0.03 -22.68,0 -34.02,0.02 m 181.09,-0.02 c -3.37,27.74 -6.87,55.47 -10.18,83.23 7.1,0.01 14.19,0 21.29,0.01 1.32,-10.83 2.6,-21.66 3.95,-32.48 6.5,10.82 13.03,21.6 19.51,32.43 8.31,0.1 16.63,0.01 24.94,0.05 -6.77,-10.73 -13.52,-21.47 -20.38,-32.15 7.51,-2.62 14.4,-8.17 16.41,-16.17 1.87,-8.05 1.81,-17.18 -2.52,-24.46 -4.65,-7.41 -13.87,-9.97 -22.12,-10.37 -10.29,-0.21 -20.6,0 -30.9,-0.09 m 66.66,0.02 c -0.01,6.16 -0.01,12.32 0,18.48 5.84,0 11.67,-0.01 17.51,0 0.01,21.58 0.01,43.16 0,64.74 7.33,-0.01 14.66,-0.01 21.99,-0.01 0,-21.57 0.01,-43.15 0,-64.72 6,-0.02 12,0 18,-0.01 0,-6.16 0,-12.32 0,-18.48 -19.17,-0.01 -38.33,-0.01 -57.5,0 z"
       id="path40"
       inkscape:connector-curvature="0"
       style="fill:#ffffff" />
    <path
       d="m 372.49,179.65 c 8.14,-1.67 17.08,0.96 22.72,7.14 6.15,6.22 8.21,15.94 5.37,24.17 -2.77,8.6 -10.73,15.16 -19.67,16.35 -8.32,1.27 -17.14,-2.24 -22.37,-8.83 -4.99,-6.11 -6.86,-14.78 -4.4,-22.34 2.6,-8.23 9.91,-14.74 18.35,-16.49 z"
       id="path42"
       inkscape:connector-curvature="0"
       style="fill:#ffffff" />
    <path
       d="m 282.25,180.26 c 5.25,0.25 11.5,-1.25 15.73,2.77 3.51,4 3.51,10.92 0.02,14.92 -4.36,3.64 -10.51,2.59 -15.75,2.81 0,-6.83 0.01,-13.67 0,-20.5 z"
       id="path44"
       inkscape:connector-curvature="0"
       style="fill:#ffffff" />
    <path
       d="m 458.65,199.29 c 0.92,-6.29 1.69,-12.6 2.7,-18.88 4.49,0.14 9.61,-0.18 13.31,2.85 3.75,3.2 2.84,9.59 -0.85,12.48 -4.2,3.52 -9.96,3.67 -15.16,3.55 z"
       id="path46"
       inkscape:connector-curvature="0"
       style="fill:#ffffff" />
  </g>
  <g
     id="#297d2eff"
     transform="matrix(0.02773826,0,0,0.02767956,3.0336436,-0.16608)"
     style="fill:#ffffff">
    <path
       d="m 115.69,141 c 86.83,0.1 173.67,-0.2 260.5,0.16 -5.07,0.29 -10.07,1.21 -15.12,1.64 -74.38,6.39 -148.74,13.12 -223.13,19.4 3.26,37.37 6.35,74.76 9.88,112.09 -10.7,0.05 -21.39,0.03 -32.09,0.02 -0.11,-44.44 -0.03,-88.87 -0.04,-133.31 z"
       id="path49"
       inkscape:connector-curvature="0"
       style="fill:#ffffff" />
    <path
       d="m 422.29,272.51 c 61.99,-5.55 124.03,-10.67 186,-16.43 l 0.36,-0.04 c -0.18,6.09 -0.03,12.18 -0.1,18.28 -58.51,0 -117.02,0 -175.53,0 -7.98,-0.11 -15.97,0.22 -23.94,-0.19 4.32,-1.08 8.78,-1.29 13.21,-1.62 z"
       id="path51"
       inkscape:connector-curvature="0"
       style="fill:#ffffff" />
  </g>
</svg>
