<?xml version="1.0" encoding="UTF-8" standalone="no"?>
<!-- Created with Inkscape (http://www.inkscape.org/) -->

<svg
   xmlns:dc="http://purl.org/dc/elements/1.1/"
   xmlns:cc="http://creativecommons.org/ns#"
   xmlns:rdf="http://www.w3.org/1999/02/22-rdf-syntax-ns#"
   xmlns:svg="http://www.w3.org/2000/svg"
   xmlns="http://www.w3.org/2000/svg"
   xmlns:sodipodi="http://sodipodi.sourceforge.net/DTD/sodipodi-0.dtd"
   xmlns:inkscape="http://www.inkscape.org/namespaces/inkscape"
   id="svg2985"
   version="1.1"
   inkscape:version="0.91 r13725"
   width="22"
   height="10"
   sodipodi:docname="eurosport_1.svg">
  <metadata
     id="metadata2991">
    <rdf:RDF>
      <cc:Work
         rdf:about="">
        <dc:format>image/svg+xml</dc:format>
        <dc:type
           rdf:resource="http://purl.org/dc/dcmitype/StillImage" />
        <dc:title />
      </cc:Work>
    </rdf:RDF>
  </metadata>
  <defs
     id="defs2989" />
  <sodipodi:namedview
     pagecolor="#ffffff"
     bordercolor="#666666"
     borderopacity="1"
     objecttolerance="10"
     gridtolerance="10"
     guidetolerance="10"
     inkscape:pageopacity="0"
     inkscape:pageshadow="2"
     inkscape:window-width="1366"
     inkscape:window-height="704"
     id="namedview2987"
     showgrid="false"
     inkscape:zoom="7.3697197"
     inkscape:cx="5.6976068"
     inkscape:cy="-11.682086"
     inkscape:window-x="0"
     inkscape:window-y="27"
     inkscape:window-maximized="1"
     inkscape:current-layer="svg2985"
     units="px"
     showborder="true" />
  <path
     style="fill:#ffffff;fill-opacity:1;fill-rule:evenodd;stroke:none"
     d="m 13.5,1 0,8 8,0 0,-8 -8,0 z m 2.708535,1.14062 0.968345,0 1.258041,0 0,1.16407 0,4.43359 -1.258041,0 0,-4.43359 -0.968345,0 0,-1.16407 z"
     id="path3000"
     inkscape:connector-curvature="0" />
  <path
     id="XMLID_193_"
     d="M 7.3947563,8.78186 4.7804946,7.10525 0.75855337,8.78186 3.1429899,6.07134 0.50000001,4.39473 l 4.10812559,0 2.7866307,-3.18557 0,3.18557 3.9644847,0 -3.9644847,1.64866 z"
     style="fill:#ffffff;fill-opacity:1"
     inkscape:connector-curvature="0" />
  <path
     id="XMLID_192_"
     d="m 12.335998,2.774 c 0.143641,0 0.258554,-0.11177 0.258554,-0.25149 l 0,-1.06185 c 0,-0.13972 -0.114913,-0.2515 -0.258554,-0.2515 l -4.2804942,0 0,1.56484 4.2804942,0 z"
     style="fill:#ffffff;fill-opacity:1"
     inkscape:connector-curvature="0" />
  <path
     id="XMLID_191_"
     d="m 12.335998,8.78186 c 0.143641,0 0.258554,-0.11178 0.258554,-0.25149 l 0,-1.06186 c 0,-0.13971 -0.114913,-0.25149 -0.258554,-0.25149 l -4.2804942,0 0,1.56484 4.2804942,0 z"
     style="fill:#ffffff;fill-opacity:1"
     inkscape:connector-curvature="0" />
</svg>
