<?xml version="1.0" encoding="UTF-8"?>
<svg xmlns="http://www.w3.org/2000/svg" height="20" width="20">
  <path d="M 4.2558594 0 L 4.1230469 0.31640625 C 4.2779939 0.44138788
           4.4719894 0.62449738 4.6738281 0.87109375 L 4.671875 0.87304688 C
           4.671875 0.87304688 4.7032759 0.90775033 4.7089844 0.9140625 C
           4.8394662 1.0781797 4.9607119 1.2562485 5.0683594 1.4414062 C
           5.3485341 1.9563012 5.595058 2.6836645 5.7382812 3.3554688 C
           2.5533184 4.7626939 0.35546875 7.69901 0.35546875 11.103516 C
           0.35546875 13.104077 1.120137 14.940026 2.390625 16.404297 C
           2.3377476 16.551831 2.2445596 16.80814 2.2011719 16.931641 C
           1.5161427 18.469713 0.54476127 19.335476 0 19.728516 L 0.12695312 20
           C 2.4564601 19.663348 3.2508661 19.915416 3.7695312 20 L 4.3984375
           18.134766 C 5.9709554 19.142362 7.8901828 19.740234 9.96875 19.740234
           C 12.065674 19.740234 13.99996 19.131296 15.580078 18.107422 L
           16.226562 20 C 16.744412 19.915416 17.541587 19.663349 19.871094 20 L
           20 19.728516 C 19.454831 19.335476 18.483857 18.469713 17.798828
           16.931641 C 17.751416 16.796685 17.648817 16.518987 17.589844
           16.355469 C 18.835151 14.899119 19.583984 13.08207 19.583984
           11.103516 C 19.583984 7.7018462 17.38964 4.7679861 14.208984 3.359375
           C 14.351868 2.6864669 14.598461 1.9573272 14.878906 1.4414062 C
           14.987369 1.2562485 15.109753 1.0781797 15.240234 0.9140625 C
           15.246351 0.90775033 15.277344 0.87304688 15.277344 0.87304688 L
           15.275391 0.87109375 C 15.476822 0.62449738 15.671225 0.44138788
           15.826172 0.31640625 L 15.693359 0 C 15.053183 0.29120285 13.704375
           0.95463967 12.875 1.7285156 C 12.476623 1.3455755 11.730973
           0.95354557 11.179688 0.7734375 L 11.076172 1.0351562 C 11.14549
           1.1092192 11.151446 1.119868 11.191406 1.1914062 L 11.197266
           1.1972656 L 11.201172 1.203125 C 11.543918 1.6759956 11.717173
           2.154899 11.798828 2.6269531 C 11.205894 2.5241856 10.595074
           2.4648437 9.96875 2.4648438 C 9.3464391 2.4648438 8.7397723 2.5235144
           8.1503906 2.625 C 8.2321111 2.1535478 8.4054755 1.6753725 8.7480469
           1.203125 L 8.7519531 1.1972656 L 8.7558594 1.1914062 C 8.7966347
           1.119868 8.804136 1.1092192 8.8730469 1.0351562 L 8.7675781 0.7734375
           C 8.2162926 0.95354557 7.4725957 1.3455755 7.0742188 1.7285156 C
           6.244844 0.95463967 4.8952201 0.29120285 4.2558594 0 z M 9.96875
           3.328125 C 10.614987 3.328125 11.237667 3.4276537 11.833984 3.5976562
           C 11.79946 4.1098431 11.707238 4.6045069 11.607422 5.0507812 C
           11.607422 5.0507812 11.503991 5.5304953 11.501953 5.5410156 C
           11.50073 5.5439612 10.189496 10.985204 9.9746094 11.833984 C
           9.7601302 10.985204 8.4476738 5.5439612 8.4472656 5.5410156 C
           8.4452269 5.5304953 8.3417969 5.0507812 8.3417969 5.0507812 C
           8.2413871 4.6033718 8.1492809 4.1073556 8.1152344 3.59375 C 8.7074367
           3.42625 9.327449 3.328125 9.96875 3.328125 z M 5.8359375 4.71875 C
           5.6567674 6.9937224 4.3072951 11.026395 3.2460938 14.011719 C
           2.9070373 13.112472 2.7148437 12.133024 2.7148438 11.103516 C
           2.7148438 8.4575596 3.9521121 6.1228594 5.8359375 4.71875 z M
           14.113281 4.7285156 C 15.990344 6.1336121 17.220703 8.4632789
           17.220703 11.103516 C 17.220703 12.102964 17.03732 13.053946
           16.716797 13.931641 C 15.647289 10.957961 14.29748 6.9865009
           14.113281 4.7285156 z M 7.2070312 9.8066406 C 7.4239571 10.662996
           7.885582 12.438913 7.8847656 12.435547 L 7.9863281 12.898438 C
           8.0870439 13.350391 8.1679688 13.712178 8.1679688 14.048828 C
           8.1679688 14.548334 7.9904164 14.99367 7.4375 15.59375 L 7.5253906
           15.869141 C 7.8104116 16.052194 8.3361244 16.212374 8.7128906
           16.230469 C 8.8323628 16.822553 9.5040595 17.72402 9.9746094
           18.140625 C 10.445974 17.72402 11.117263 16.822553 11.236328
           16.230469 C 11.613094 16.212374 12.136446 16.052194 12.421875
           15.869141 L 12.511719 15.59375 C 11.958395 14.99367 11.78125
           14.548334 11.78125 14.048828 C 11.78125 13.712178 11.862175 13.350391
           11.962891 12.898438 L 12.0625 12.435547 C 12.061685 12.438913
           12.522901 10.662996 12.740234 9.8066406 L 15.072266 16.623047 C
           13.76159 18.015596 11.959888 18.876953 9.96875 18.876953 C 7.9939226
           18.876953 6.2043151 18.028718 4.8964844 16.65625 L 7.2070312
           9.8066406 z "
        fill="white" />
</svg>
