<?xml version="1.0" encoding="UTF-8" standalone="no"?>
<svg
   xmlns:dc="http://purl.org/dc/elements/1.1/"
   xmlns:cc="http://creativecommons.org/ns#"
   xmlns:rdf="http://www.w3.org/1999/02/22-rdf-syntax-ns#"
   xmlns:svg="http://www.w3.org/2000/svg"
   xmlns="http://www.w3.org/2000/svg"
   xmlns:xlink="http://www.w3.org/1999/xlink"
   xmlns:sodipodi="http://sodipodi.sourceforge.net/DTD/sodipodi-0.dtd"
   xmlns:inkscape="http://www.inkscape.org/namespaces/inkscape"
   version="1.1"
   x="0px"
   y="0px"
   viewBox="0 0 100 100"
   enable-background="new 0 0 100 100"
   xml:space="preserve"
   id="svg2"
   inkscape:version="0.48.4 r9939"
   width="100%"
   height="100%"
   sodipodi:docname="icon.svg"><metadata
     id="metadata18"><rdf:RDF><cc:Work
         rdf:about=""><dc:format>image/svg+xml</dc:format><dc:type
           rdf:resource="http://purl.org/dc/dcmitype/StillImage" /></cc:Work></rdf:RDF></metadata><defs
     id="defs16" /><sodipodi:namedview
     pagecolor="#ffffff"
     bordercolor="#666666"
     borderopacity="1"
     objecttolerance="10"
     gridtolerance="10"
     guidetolerance="10"
     inkscape:pageopacity="0"
     inkscape:pageshadow="2"
     inkscape:window-width="1600"
     inkscape:window-height="851"
     id="namedview14"
     showgrid="false"
     inkscape:zoom="2.36"
     inkscape:cx="50.847458"
     inkscape:cy="50"
     inkscape:window-x="0"
     inkscape:window-y="25"
     inkscape:window-maximized="1"
     inkscape:current-layer="svg2" /><g
     id="g4"
     transform="matrix(0.88888889,0,0,0.8912429,5.1111111,5.2337605)"
     style="fill:#ffffff"><defs
       id="defs6"><rect
         id="b"
         x="5.5"
         y="10.958"
         width="90"
         height="78.542" /></defs><clipPath
       id="a"><use
         xlink:href="#b"
         overflow="visible"
         id="use10"
         style="overflow:visible"
         x="0"
         y="0"
         width="100"
         height="100" /></clipPath><path
       clip-path="url(#a)"
       d="m 95.468,33.598 -3.343,-22.64 -22.33,6.415 c -1.605,0.461 -2.531,2.138 -2.073,3.743 0.463,1.605 2.122,2.543 3.747,2.072 L 82.573,19.999 62.286,51.757 49.532,34.944 33.812,68.347 22.852,58.101 10.542,79.897 V 11.35 H 5.5 V 89.5 H 89.953 V 84.458 H 14.913 L 24.337,67.77 35.746,78.44 50.751,46.564 62.71,62.331 87.798,23.062 89.481,34.478 c 0.222,1.504 1.517,2.585 2.988,2.585 0.148,0 0.295,-0.01 0.448,-0.031 1.649,-0.243 2.793,-1.782 2.551,-3.434"
       id="path12"
       inkscape:connector-curvature="0"
       style="fill:#ffffff" /></g></svg>