<?xml version="1.0" encoding="UTF-8" standalone="no"?>
<!-- Created with Inkscape (http://www.inkscape.org/) -->

<svg
   xmlns:dc="http://purl.org/dc/elements/1.1/"
   xmlns:cc="http://creativecommons.org/ns#"
   xmlns:rdf="http://www.w3.org/1999/02/22-rdf-syntax-ns#"
   xmlns:svg="http://www.w3.org/2000/svg"
   xmlns="http://www.w3.org/2000/svg"
   version="1.0"
   width="100"
   height="100"
   viewBox="0 0 100 100"
   id="svg2"
   xml:space="preserve"><metadata
   id="metadata58"><rdf:RDF><cc:Work
       rdf:about=""><dc:format>image/svg+xml</dc:format><dc:type
         rdf:resource="http://purl.org/dc/dcmitype/StillImage" /><dc:title></dc:title></cc:Work></rdf:RDF></metadata><defs
   id="defs56">
</defs>
<path
   d="m 54.55903,16.839516 -2.23857,0.942842 -0.23271,0.822337 0.23271,1.177228 -0.11635,0.587951 -0.11636,0.942842 h 1.76652 c 0.46543,-0.824986 1.52588,-2.118745 1.52588,-2.118745 h 3.40875 v -0.589276 h 1.75858 v 1.296407 h 3.6494 v 0.587952 h 3.87419 v -0.468772 h 0.5884 v -0.824987 -0.354889 h 0.58839 v 0.47142 h 0.70477 v 1.88171 h 3.17604 v -1.175903 h 0.8211 v 1.293759 h 3.2924 v -1.411614 h 1.29449 v 3.179441 H 81 v 1.999565 h -9.63786 c 0,0 0,1.296406 -0.82112,1.883034 -0.9454,0.47142 -2.11559,0.587951 -2.11559,0.587951 -0.5884,2.002214 2.93671,8.241916 2.93671,8.241916 l -1.99924,0.940193 c -2.11559,-3.413827 -2.82035,-6.356233 -2.9367,-7.29775 -0.11637,-0.942842 -0.58841,0 -0.58841,0 l -0.82112,1.530793 c 0,0 -1.06176,0.234386 -2.47127,0.350917 -1.52588,0.237034 -0.11635,-0.940193 -3.2924,1.885682 0,0.116531 -0.58046,0.350917 -0.70476,0.468772 -1.05383,0.942842 -3.28446,2.002214 -3.28446,2.002214 l -5.05892,-0.353565 c 0,0 -0.11635,1.765179 -0.70475,1.883034 -0.70476,0.117855 -0.46542,2.470985 -0.82111,3.413827 -0.11636,0.47142 -0.47204,0.353565 -0.70476,0.705806 -0.357,0.471421 -0.47204,1.411614 -0.47204,1.411614 v 3.767393 c 1.65016,-1.059373 5.29163,4.355344 5.29163,4.355344 2.11559,2.002213 3.05307,5.532571 3.05307,5.532571 l -1.05384,1.648648 5.05098,6.238379 c 0.82906,2.70802 2.1156,8.240591 2.23857,11.890129 0.11636,0.822337 -1.76652,2.002213 -1.76652,2.824551 0,1.059372 0.35701,1.179876 0.5884,2.591489 0.93747,1.059373 3.05307,2.118745 3.05307,2.118745 3.05968,3.297296 2.82035,5.532571 1.53381,6.00532 -1.29449,0.585303 -3.99716,0.116531 -3.99716,0.116531 -1.53381,0.116523 -3.17603,-1.411621 -4.35415,-2.708024 -0.23272,-0.237031 0,-0.942842 0,-0.942842 0,0 -1.29449,-0.233061 -1.29449,-0.353569 0.35701,-3.061582 0,-5.062471 -0.34907,-6.121843 C 55.26378,78.990237 55.02446,78.636671 55.02446,78.636671 54.9081,78.283106 53.97063,78.283106 53.72998,77.69383 52.4355,74.283976 51.49802,67.571528 51.49802,67.571528 L 41.27176,56.036289 c 0,0 -4.46257,10.593722 -5.87208,14.713356 -1.29449,4.119634 -2.23857,5.29951 -3.2924,6.358882 -0.35701,0.353565 -5.05892,3.767393 -6.58479,2.587517 -0.34907,0.237034 0.70475,2.474958 0.70475,3.767392 0,0.589276 2.1156,0.353566 1.76652,1.532117 -0.357,1.059373 -4.11351,0.585303 -4.11351,0.585303 -2.23856,-0.349592 -3.17603,-2.118744 -3.5251,-4.000454 -0.24065,-1.885683 -0.94541,0 -1.06177,-0.353565 -0.47203,-1.532118 -0.23272,-2.354455 -0.23272,-2.354455 0.70477,-1.411614 1.87495,-2.708021 3.64147,-4.4732 0.11636,-0.11653 -0.23272,-1.532117 0,-1.765179 2.1156,-2.002213 3.99716,-3.53433 3.99716,-3.53433 1.17811,-5.765634 5.29163,-19.892362 5.29163,-19.892362 -0.70476,-2.473635 -0.47205,-6.827654 0.23271,-9.535675 0.70475,-2.70802 1.17812,-10.477191 1.29448,-12.360225 0.11636,-2.942406 2.1156,-5.061151 3.64147,-6.591944 0.70476,-0.705806 1.29448,-0.237034 1.88288,-0.354889 0.47205,-0.234387 1.64223,-0.587952 1.99924,-0.705807 0.23271,0 -0.47204,-0.350917 -0.47204,-0.350917 L 40.4533,14.245379 c 1.05382,-3.885248 4.11351,-4.238813 6.93386,-4.238813 5.29163,-0.2343865 6.22911,5.884812 6.22911,5.884812 l 0.94276,0.948138 z m -1.5338,11.888805 c 0.70475,-0.116531 0.9454,-1.059372 1.65016,-1.177227 0.70476,-0.234387 1.40951,-0.468773 2.82035,-1.059373 1.29448,-0.587951 1.64223,-1.411613 1.64223,-1.411613 0,0 -4.70323,-0.353565 -5.75706,0 -1.17812,0.353566 -2.704,1.296407 -2.704,1.296407 -0.35701,0.822337 -0.5884,2.590165 -0.5884,2.590165 0,0 2.58764,-0.238359 2.93672,-0.238359 z"
   id="path32"
   style="fill:#000000;fill-opacity:0.19607843;fill-rule:evenodd;stroke:none" /></svg>