<?xml version="1.0" encoding="UTF-8" standalone="no"?>
<!-- Created with Inkscape (http://www.inkscape.org/) -->

<svg
   xmlns:dc="http://purl.org/dc/elements/1.1/"
   xmlns:cc="http://creativecommons.org/ns#"
   xmlns:rdf="http://www.w3.org/1999/02/22-rdf-syntax-ns#"
   xmlns:svg="http://www.w3.org/2000/svg"
   xmlns="http://www.w3.org/2000/svg"
   version="1.1"
   width="100"
   height="100"
   viewBox="0 0 2939.7333 4975.3191"
   id="svg644"
   xml:space="preserve"
   style="fill-rule:evenodd"><metadata
     id="metadata8"><rdf:RDF><cc:Work
         rdf:about=""><dc:format>image/svg+xml</dc:format><dc:type
           rdf:resource="http://purl.org/dc/dcmitype/StillImage" /><dc:title></dc:title></cc:Work></rdf:RDF></metadata><defs
     id="defs645"><style
       type="text/css"
       id="style646" /></defs><g
     transform="matrix(1.8444186,0,0,1.8182229,-5537.0796,-7303.4707)"
     id="Layer 1"
     style="fill:#ffffff;fill-opacity:1"><path
       d="m 2720,6288 0,-200 2158,0 0,200 -2158,0 z m 853,-789 0,187 -853,0 0,-201 598,0 c -109,-111 -163,-236 -163,-374 0,-172 64,-319 191,-443 127,-124 278,-186 454,-186 175,0 326,62 453,186 128,124 191,271 191,443 0,138 -54,263 -163,374 l 597,0 0,201 -853,0 0,-187 c 145,-94 218,-220 218,-378 0,-120 -44,-222 -131,-308 -88,-87 -192,-130 -312,-130 -122,0 -226,43 -313,130 -87,86 -131,188 -131,308 0,158 72,284 217,378 z"
       id="path648"
       style="fill:#ffffff;fill-opacity:1" /></g></svg>