<?xml version="1.0" encoding="UTF-8" standalone="no"?>
<!-- Created with Inkscape (http://www.inkscape.org/) -->

<svg
   xmlns:dc="http://purl.org/dc/elements/1.1/"
   xmlns:cc="http://creativecommons.org/ns#"
   xmlns:rdf="http://www.w3.org/1999/02/22-rdf-syntax-ns#"
   xmlns:svg="http://www.w3.org/2000/svg"
   xmlns="http://www.w3.org/2000/svg"
   version="1.1"
   width="100"
   height="100"
   viewBox="0 0 3340.606 4975.3191"
   id="svg602"
   xml:space="preserve"
   style="fill-rule:evenodd"><metadata
     id="metadata8"><rdf:RDF><cc:Work
         rdf:about=""><dc:format>image/svg+xml</dc:format><dc:type
           rdf:resource="http://purl.org/dc/dcmitype/StillImage" /><dc:title></dc:title></cc:Work></rdf:RDF></metadata><defs
     id="defs603"><style
       type="text/css"
       id="style604" /></defs><g
     transform="matrix(1.4505304,0,0,1.4571262,-2530.433,-3561.5999)"
     id="Layer 1"
     style="fill:#ffffff;fill-opacity:1"><path
       d="m 2796,5449 0,-134 c 0,-257 -26,-543 -77,-857 -52,-315 -115,-572 -189,-771 -162,-432 -336,-648 -523,-648 -83,0 -151,36 -204,109 -52,73 -78,167 -78,284 0,154 49,313 149,477 l -203,0 c -98,-177 -147,-343 -147,-497 0,-160 46,-292 138,-398 92,-106 208,-160 347,-160 225,0 415,151 573,454 157,301 256,706 297,1215 l 34,0 c 34,-498 132,-901 292,-1208 160,-307 354,-461 579,-461 139,0 254,53 346,158 92,104 138,236 138,396 0,155 -49,322 -146,501 l -204,0 c 99,-177 149,-339 149,-488 0,-119 -26,-215 -77,-289 -52,-73 -120,-110 -205,-110 -181,0 -350,202 -506,604 -80,205 -146,471 -201,798 -54,326 -81,626 -81,899 l 0,126 -201,0 z"
       id="path606"
       style="fill:#ffffff;fill-opacity:1" /></g></svg>