<?xml version="1.0" encoding="UTF-8" standalone="no"?>
<!-- Created with Inkscape (http://www.inkscape.org/) -->

<svg
   xmlns:dc="http://purl.org/dc/elements/1.1/"
   xmlns:cc="http://creativecommons.org/ns#"
   xmlns:rdf="http://www.w3.org/1999/02/22-rdf-syntax-ns#"
   xmlns:svg="http://www.w3.org/2000/svg"
   xmlns="http://www.w3.org/2000/svg"
   version="1.1"
   width="100"
   height="100"
   viewBox="0 0 3614.4262 4975.3191"
   id="svg620"
   xml:space="preserve"
   style="fill-rule:evenodd"><metadata
     id="metadata8"><rdf:RDF><cc:Work
         rdf:about=""><dc:format>image/svg+xml</dc:format><dc:type
           rdf:resource="http://purl.org/dc/dcmitype/StillImage" /><dc:title></dc:title></cc:Work></rdf:RDF></metadata><defs
     id="defs621"><style
       type="text/css"
       id="style622" /></defs><g
     transform="matrix(1.7567899,0,0,1.7557368,-2810.5092,-4385.1722)"
     id="Layer 1"
     style="fill:#ffffff"><path
       d="m 1524,5048 0,-167 c 186,-49 359,-84 518,-103 l 0,-1730 c -172,-16 -345,-49 -518,-99 l 0,-168 c 300,83 668,125 1104,125 437,0 805,-42 1105,-125 l 0,168 c -174,50 -347,83 -519,99 l 0,1730 c 159,19 332,54 519,103 l 0,167 c -342,-90 -710,-134 -1105,-134 -395,0 -763,44 -1104,134 z m 719,-282 c 115,-13 243,-19 385,-19 142,0 270,6 385,19 l 0,-1704 c -104,7 -232,11 -385,11 -154,0 -282,-4 -385,-11 l 0,1704 z"
       id="path624"
       style="fill:#ffffff" /></g></svg>