<?xml version="1.0" encoding="UTF-8" standalone="no"?>
<!-- Created with Inkscape (http://www.inkscape.org/) -->

<svg
   xmlns:dc="http://purl.org/dc/elements/1.1/"
   xmlns:cc="http://creativecommons.org/ns#"
   xmlns:rdf="http://www.w3.org/1999/02/22-rdf-syntax-ns#"
   xmlns:svg="http://www.w3.org/2000/svg"
   xmlns="http://www.w3.org/2000/svg"
   version="1.1"
   width="100"
   height="100"
   viewBox="0 0 3674.6667 4975.3191"
   id="svg614"
   xml:space="preserve"
   style="fill-rule:evenodd"><metadata
     id="metadata8"><rdf:RDF><cc:Work
         rdf:about=""><dc:format>image/svg+xml</dc:format><dc:type
           rdf:resource="http://purl.org/dc/dcmitype/StillImage" /><dc:title></dc:title></cc:Work></rdf:RDF></metadata><defs
     id="defs615"><style
       type="text/css"
       id="style616" /></defs><g
     transform="matrix(1.5377155,0,0,1.5457302,-2396.7663,-3995.9058)"
     id="Layer 1"
     style="fill:#ffffff"><path
       d="m 2373,3861 c -89,-35 -160,-80 -216,-134 -55,-54 -116,-141 -183,-262 l -80,-144 c -98,-176 -210,-264 -334,-264 l -36,0 0,-150 99,0 c 176,0 336,124 479,371 l 109,192 c 74,126 150,214 230,264 80,51 184,76 313,76 129,0 233,-25 313,-76 80,-50 156,-138 229,-264 l 111,-192 c 142,-247 302,-371 477,-371 l 99,0 0,150 -35,0 c -125,0 -237,88 -335,264 l -80,144 c -67,121 -128,208 -183,262 -56,54 -128,99 -216,134 154,85 272,195 356,328 84,133 125,280 125,438 0,230 -85,430 -256,600 -172,170 -373,255 -605,255 -232,0 -433,-85 -605,-255 -172,-170 -258,-370 -258,-600 0,-158 42,-305 126,-438 84,-133 202,-243 356,-328 z m 381,1420 c 182,0 337,-63 467,-191 129,-126 194,-279 194,-458 0,-182 -65,-337 -193,-464 -128,-128 -284,-191 -468,-191 -183,0 -339,63 -469,191 -128,127 -193,282 -193,464 0,179 65,332 194,458 129,128 285,191 468,191 z"
       id="path618"
       style="fill:#ffffff" /></g></svg>