<?xml version="1.0" encoding="UTF-8" standalone="no"?>
<!-- Created with Inkscape (http://www.inkscape.org/) -->

<svg
   xmlns:dc="http://purl.org/dc/elements/1.1/"
   xmlns:cc="http://creativecommons.org/ns#"
   xmlns:rdf="http://www.w3.org/1999/02/22-rdf-syntax-ns#"
   xmlns:svg="http://www.w3.org/2000/svg"
   xmlns="http://www.w3.org/2000/svg"
   version="1.1"
   width="100"
   height="100"
   viewBox="0 0 2362.2858 4975.3191"
   id="svg668"
   xml:space="preserve"
   style="fill-rule:evenodd"><metadata
     id="metadata8"><rdf:RDF><cc:Work
         rdf:about=""><dc:format>image/svg+xml</dc:format><dc:type
           rdf:resource="http://purl.org/dc/dcmitype/StillImage" /><dc:title></dc:title></cc:Work></rdf:RDF></metadata><defs
     id="defs669"><style
       type="text/css"
       id="style670" /></defs><g
     transform="matrix(1.5984961,0,0,1.6049417,-5156.8941,-6317.0507)"
     id="Layer 1"
     style="fill:#ffffff"><path
       d="m 2720,6184 753,-497 165,385 583,-385 163,385 584,-385 241,567 -156,69 -161,-385 -586,385 -163,-385 -581,385 -164,-385 -586,385 -92,-139 z m 1,-1037 753,-498 165,385 584,-385 163,385 583,-385 241,567 -156,69 -161,-385 -587,385 -163,-385 -581,385 -162,-385 -586,385 -93,-138 z"
       id="path672"
       style="fill:#ffffff" /></g></svg>