<?xml version="1.0" encoding="UTF-8"?>
<svg xmlns="http://www.w3.org/2000/svg" width="100" height="100">
  <path d="m 17,10 34.315704,0 Q 66.62083,10 74.783563,16.805089 83,23.556598
           83,36.095103 83,48.68718 74.783563,55.492339 66.62083,62.243757
           51.315704,62.243757 l -13.640358,0 0,27.756243 L 17,90 17,10 Z m
           20.675346,14.949764 0,22.34426 11.438568,0 q 6.014646,0
           9.290479,-2.893494 3.275835,-2.947084 3.275835,-8.305427 0,-5.358332
           -3.275835,-8.251836 -3.275833,-2.893503 -9.290479,-2.893503 l
           -11.438568,0 z"
        fill-opacity="0.2" />
  <path d="M 60.06648,70.022138 C 49.008546,70.022138 40.04432,78.966531
           40.04432,90 l 40.04432,0 c 0,-11.033469 -8.964227,-19.977862
           -20.02216,-19.977862 z"
        fill-opacity="0.2" />
</svg>
