<?xml version="1.0" encoding="UTF-8" standalone="no"?>
<svg
   xmlns:dc="http://purl.org/dc/elements/1.1/"
   xmlns:cc="http://creativecommons.org/ns#"
   xmlns:rdf="http://www.w3.org/1999/02/22-rdf-syntax-ns#"
   xmlns:svg="http://www.w3.org/2000/svg"
   xmlns="http://www.w3.org/2000/svg"
   xmlns:sodipodi="http://sodipodi.sourceforge.net/DTD/sodipodi-0.dtd"
   xmlns:inkscape="http://www.inkscape.org/namespaces/inkscape"
   version="1.0"
   x="0px"
   y="0px"
   viewBox="0 0 100 100"
   enable-background="new 0 0 32 32"
   xml:space="preserve"
   id="svg2"
   inkscape:version="0.48.3.1 r9886"
   width="100%"
   height="100%"
   sodipodi:docname="icon.svg"><metadata
     id="metadata16"><rdf:RDF><cc:Work
         rdf:about=""><dc:format>image/svg+xml</dc:format><dc:type
           rdf:resource="http://purl.org/dc/dcmitype/StillImage" /></cc:Work></rdf:RDF></metadata><defs
     id="defs14" /><sodipodi:namedview
     pagecolor="#ffffff"
     bordercolor="#666666"
     borderopacity="1"
     objecttolerance="10"
     gridtolerance="10"
     guidetolerance="10"
     inkscape:pageopacity="0"
     inkscape:pageshadow="2"
     inkscape:window-width="1909"
     inkscape:window-height="1024"
     id="namedview12"
     showgrid="false"
     inkscape:zoom="7.375"
     inkscape:cx="-7.9322034"
     inkscape:cy="48.542373"
     inkscape:window-x="0"
     inkscape:window-y="27"
     inkscape:window-maximized="1"
     inkscape:current-layer="svg2" /><g
     id="g4"
     transform="matrix(2.5,0,0,2.5,10,10)"
     style="fill:#000000;fill-opacity:0.19607843"><rect
       x="6"
       width="4"
       height="4"
       id="rect6"
       y="0"
       style="fill:#000000;fill-opacity:0.19607843" /><rect
       x="22"
       width="4"
       height="4"
       id="rect8"
       y="0"
       style="fill:#000000;fill-opacity:0.19607843" /><path
       d="m 30,2 h -2 v 2 c 0,1.105 -0.895,2 -2,2 H 22 C 20.895,6 20,5.105 20,4 V 2 h -8 v 2 c 0,1.105 -0.895,2 -2,2 H 6 C 4.895,6 4,5.105 4,4 V 2 H 1.999 C 0.894,2 0,2.895 0,4 v 26 c 0,1.105 0.894,2 1.999,2 H 30 c 1.105,0 2,-0.895 2,-2 V 4 C 32,2.895 31.105,2 30,2 z M 10,26 H 6 v -4 h 4 v 4 z m 0,-8 H 6 v -4 h 4 v 4 z m 8,8 h -4 v -4 h 4 v 4 z m 0,-8 h -4 v -4 h 4 v 4 z m 8,8 h -4 v -4 h 4 v 4 z m 0,-8 h -4 v -4 h 4 v 4 z"
       id="path10"
       inkscape:connector-curvature="0"
       style="fill:#000000;fill-opacity:0.19607843" /></g></svg>