<?xml version="1.0" encoding="UTF-8" standalone="no"?>
<!-- Generator: Adobe Illustrator 16.0.0, SVG Export Plug-In . SVG Version: 6.00 Build 0)  -->

<svg
   xmlns:dc="http://purl.org/dc/elements/1.1/"
   xmlns:cc="http://creativecommons.org/ns#"
   xmlns:rdf="http://www.w3.org/1999/02/22-rdf-syntax-ns#"
   xmlns:svg="http://www.w3.org/2000/svg"
   xmlns="http://www.w3.org/2000/svg"
   xmlns:sodipodi="http://sodipodi.sourceforge.net/DTD/sodipodi-0.dtd"
   xmlns:inkscape="http://www.inkscape.org/namespaces/inkscape"
   version="1.1"
   id="Calque_1"
   x="0px"
   y="0px"
   width="30"
   height="10"
   viewBox="0 0 30 10"
   enable-background="new 0 0 2065 387"
   xml:space="preserve"
   inkscape:version="0.48.4 r9939"
   sodipodi:docname="21.svg"><metadata
     id="metadata30"><rdf:RDF><cc:Work
         rdf:about=""><dc:format>image/svg+xml</dc:format><dc:type
           rdf:resource="http://purl.org/dc/dcmitype/StillImage" /></cc:Work></rdf:RDF></metadata><defs
     id="defs28" /><sodipodi:namedview
     pagecolor="#ffffff"
     bordercolor="#666666"
     borderopacity="1"
     objecttolerance="10"
     gridtolerance="10"
     guidetolerance="10"
     inkscape:pageopacity="0"
     inkscape:pageshadow="2"
     inkscape:window-width="1600"
     inkscape:window-height="841"
     id="namedview26"
     showgrid="false"
     inkscape:zoom="30.768904"
     inkscape:cx="15.038765"
     inkscape:cy="6.4357665"
     inkscape:window-x="0"
     inkscape:window-y="27"
     inkscape:window-maximized="1"
     inkscape:current-layer="Calque_1" /><path
     style="fill:#ffffff;stroke:none"
     d="m 0.5,0.5 0,9 29,0 0,-9 -29,0 z m 6.03125,2.34375 0.6875,0 -0.125,0.28125 1.09375,0 -0.25,0.65625 -1.09375,0 -0.375,0.90625 1.09375,0 -0.1875,0.53125 -1.125,0 -0.40625,1.09375 1.09375,0 -0.25,0.625 -2.25,0 1.25,-3.15625 -0.375,0 0.25,-0.65625 0.84375,0 0.125,-0.28125 z m -4.5,0.28125 1.5625,0 -1.25,3.1875 1.09375,0 -0.21875,0.625 -2.3125,0 1.25,-3.15625 -0.375,0 0.25,-0.65625 z m 1.96875,0 1.0625,0 C 4.9594199,3.724042 4.5539157,4.394951 3.78125,4.59375 3.9202354,4.258231 4.125,3.78125 4.125,3.78125 l -0.375,0 L 4,3.125 z m 5.8125,0 c 2.043,0.04124 1.35304,1.96811 1.125,2.5 C 10.708971,6.155051 10.192595,6.780961 9.75,6.8125 l 0.21875,0.34375 -0.59375,0 -0.125,-0.1875 c -0.1567541,0.03149 -0.4372055,0.03149 -0.59375,0 C 8.3818296,6.9137 7.1485376,6.388945 7.90625,4.625 8.1698272,4.008293 8.671935,3.133766 9.8125,3.125 z m 2.125,0 1.46875,0 -1.0625,2.71875 C 12.096787,6.385936 12.990941,6.424433 13.1875,6 l 1.125,-2.875 0.625,0 -1.15625,2.90625 C 13.678555,6.304437 13.3753,6.977231 12.40625,6.96875 11.465637,6.96125 11.021063,6.323233 11.3125,5.625 l 0.75,-1.84375 -0.375,0 0.25,-0.65625 z m 3.375,0 1.53125,0 -1.5,3.8125 -1.125,0 1.21875,-3.15625 -0.375,0 0.25,-0.65625 z m 1.9375,0 1.4375,0 0.625,0 c 0.728262,0 0.8704,0.892024 0.6875,1.40625 -0.177006,0.500849 -0.562538,1.093732 -1.09375,1.09375 l -1.15625,0 -0.5,1.3125 -1.125,0 1.21875,-3.15625 -0.34375,0 0.25,-0.65625 z m 3.28125,0 2.625,0 -0.25,0.65625 -1.09375,0 -0.375,0.90625 1.09375,0 -0.21875,0.53125 -1.09375,0 -0.40625,1.09375 1.09375,0 -0.25,0.625 -2.25,0 1.25,-3.15625 -0.375,0 0.25,-0.65625 z m 4.1875,0 0.84375,0 0.65625,0 c 0.474198,0 0.843657,0.579787 0.71875,1.15625 C 26.8244,4.806173 26.488798,5.25 26.03125,5.25 l -0.78125,0 c -0.219208,0 -0.368034,0.33134 -0.4375,0.5 -0.02646,0.06457 -0.21875,0.5625 -0.21875,0.5625 l 1.625,0 -0.28125,0.625 -2.71875,0 L 23.6875,5.75 c 0.190227,-0.504733 0.559634,-1.0625 1.09375,-1.0625 l 0.6875,0 c 0.21884,0 0.343481,-0.257475 0.40625,-0.40625 0.04855,-0.1169 0.129782,-0.5 -0.15625,-0.5 l -1.28125,0 0.28125,-0.65625 z m 2.875,0 1.5,0 -1.5,3.8125 -1.125,0 1.21875,-3.15625 -0.34375,0 0.25,-0.65625 z M 9.8125,3.71875 C 9.6481032,3.72615 9.4867694,3.80175 9.40625,4 L 8.71875,5.75 C 8.625621,5.944151 8.5589497,6.3125 8.9375,6.3125 L 8.8125,6.125 9.25,5.84375 l 0.1875,0.3125 0.78125,-2 C 10.31741,3.891367 10.073402,3.705316 9.8125,3.71875 z M 18.46875,3.78125 18,5 18.46875,5 C 18.686453,5 18.823266,4.61163 18.875,4.5 18.92567,4.3907 19.097464,3.78125 18.8125,3.78125 l -0.34375,0 z"
     id="rect3"
     inkscape:connector-curvature="0" /></svg>