<?xml version="1.0" encoding="UTF-8" standalone="no"?>
<!-- Generator: Adobe Illustrator 14.0.0, SVG Export Plug-In . SVG Version: 6.00 Build 43363)  -->

<svg
   xmlns:dc="http://purl.org/dc/elements/1.1/"
   xmlns:cc="http://creativecommons.org/ns#"
   xmlns:rdf="http://www.w3.org/1999/02/22-rdf-syntax-ns#"
   xmlns:svg="http://www.w3.org/2000/svg"
   xmlns="http://www.w3.org/2000/svg"
   xmlns:sodipodi="http://sodipodi.sourceforge.net/DTD/sodipodi-0.dtd"
   xmlns:inkscape="http://www.inkscape.org/namespaces/inkscape"
   version="1.1"
   id="Layer_1"
   x="0px"
   y="0px"
   width="30"
   height="10"
   viewBox="0 0 30 9.9999998"
   enable-background="new 0 0 657.638 481.89"
   xml:space="preserve"
   inkscape:version="0.48.4 r9939"
   sodipodi:docname="om-tv.svg"><metadata
     id="metadata11"><rdf:RDF><cc:Work
         rdf:about=""><dc:format>image/svg+xml</dc:format><dc:type
           rdf:resource="http://purl.org/dc/dcmitype/StillImage" /></cc:Work></rdf:RDF></metadata><defs
     id="defs9" /><sodipodi:namedview
     pagecolor="#ffffff"
     bordercolor="#666666"
     borderopacity="1"
     objecttolerance="10"
     gridtolerance="10"
     guidetolerance="10"
     inkscape:pageopacity="0"
     inkscape:pageshadow="2"
     inkscape:window-width="1600"
     inkscape:window-height="851"
     id="namedview7"
     showgrid="false"
     inkscape:zoom="28.444444"
     inkscape:cx="15.259867"
     inkscape:cy="9.4509511"
     inkscape:window-x="0"
     inkscape:window-y="25"
     inkscape:window-maximized="1"
     inkscape:current-layer="Layer_1" /><path
     style="fill:#ffffff"
     d="M 5.8747858,0.50001206 C 5.6615327,0.50048434 5.5326626,0.5150028 5.5326626,0.5150028 3.1805967,0.5150028 1.5,2.1912391 1.5,4.6050675 c 0,2.4138284 0.7389899,4.8949324 4.3008132,4.8949324 3.5626886,0 4.0338186,-2.8504767 4.0338186,-2.8504767 l 0,2.8170363 1.7140842,0 0,-6.5381073 2.116311,6.5381073 1.848157,0 2.318579,-6.6049876 0,6.6049876 10.668237,0 0,-8.88467669 -11.642595,0 -2.251541,6.90594799 -2.116309,-6.90594799 -2.688442,0 0,2.94964359 C 9.3092974,0.75299261 6.7988829,0.4979586 5.8747858,0.50001206 z M 23.46755,1.5747062 l -0.220761,1.3894922 0.632234,0 -0.189555,0.8521449 -0.632234,0 -0.537457,2.5575878 c 0,0 -0.253974,0.8529112 0.505094,0.6319017 -0.09448,0.4737082 -0.158347,0.9155656 -0.158347,0.9155656 l -0.790582,0.031133 c 0,0 -1.234588,0.032574 -0.981294,-1.1992294 0.253295,-1.2318045 0.601028,-2.9692464 0.601028,-2.9692464 l -0.50625,0.032286 0.158348,-0.8521449 0.537457,-0.032286 0.159503,-0.7575905 1.422816,-0.5996148 z M 5.8609159,2.0186521 c 0.4180903,-0.00781 2.0908819,0.1350239 2.0908819,2.9219688 0,3.1842174 -1.7140901,3.0845572 -2.1845034,3.0845572 -0.4704131,0 -2.2503852,0.2340719 -2.2503852,-3.3866706 0,-2.8503535 2.2503852,-2.6140898 2.2503852,-2.6140898 0,0 0.033894,-0.00465 0.093621,-0.00576 z m 18.2411811,0.9455463 1.296831,0 0,3.598842 1.36156,-3.598842 1.329195,0 -2.342852,4.8937793 -1.455179,0 -0.189555,-4.8937793 z"
     id="path2659"
     inkscape:connector-curvature="0" /></svg>