<?xml version="1.0" encoding="UTF-8" standalone="no"?>
<!-- Created with Inkscape (http://www.inkscape.org/) -->

<svg
   xmlns:dc="http://purl.org/dc/elements/1.1/"
   xmlns:cc="http://creativecommons.org/ns#"
   xmlns:rdf="http://www.w3.org/1999/02/22-rdf-syntax-ns#"
   xmlns:svg="http://www.w3.org/2000/svg"
   xmlns="http://www.w3.org/2000/svg"
   xmlns:sodipodi="http://sodipodi.sourceforge.net/DTD/sodipodi-0.dtd"
   xmlns:inkscape="http://www.inkscape.org/namespaces/inkscape"
   id="svg2"
   version="1.1"
   inkscape:version="0.48.4 r9939"
   width="30"
   height="10"
   sodipodi:docname="24.svg">
  <metadata
     id="metadata8">
    <rdf:RDF>
      <cc:Work
         rdf:about="">
        <dc:format>image/svg+xml</dc:format>
        <dc:type
           rdf:resource="http://purl.org/dc/dcmitype/StillImage" />
        <dc:title />
      </cc:Work>
    </rdf:RDF>
  </metadata>
  <defs
     id="defs6" />
  <sodipodi:namedview
     pagecolor="#ffffff"
     bordercolor="#666666"
     borderopacity="1"
     objecttolerance="10"
     gridtolerance="10"
     guidetolerance="10"
     inkscape:pageopacity="0"
     inkscape:pageshadow="2"
     inkscape:window-width="1600"
     inkscape:window-height="841"
     id="namedview4"
     showgrid="false"
     inkscape:zoom="19.95"
     inkscape:cx="8.1459882"
     inkscape:cy="-1.977286"
     inkscape:window-x="0"
     inkscape:window-y="27"
     inkscape:window-maximized="1"
     inkscape:current-layer="svg2" />
  <path
     style="fill:#ffffff;fill-opacity:1;stroke:none"
     d="m 0.5,0.5 0,9 29,0 0,-9 -29,0 z m 22.532671,0.20089 c 2.366037,0 4.284091,1.87081 4.284091,4.17857 0,0.62729 -0.15803,1.23394 -0.411932,1.76786 l -7.744318,0 C 18.906609,6.1134 18.74858,5.50675 18.74858,4.87946 c 0,-2.30776 1.918053,-4.17857 4.284091,-4.17857 z m -7.044034,0.64286 c 0.268324,-0.004 0.539714,0.0156 0.741477,0.0804 0.329774,0.10594 0.789208,0.4284 0.90625,0.64285 l 0.08239,0.16072 -0.329546,0.5625 C 16.992447,3.43741 16.938723,3.47598 16.647732,3.15183 16.323084,2.79019 16.064076,2.71288 15.659095,2.91075 c -0.44179,0.21588 -0.654345,0.637 -0.659091,1.28572 -0.0024,0.32905 0.0032,0.45643 0.08239,0.60268 0.175917,0.32468 0.403518,0.48214 0.741478,0.48214 0.134934,0 0.242093,-0.069 0.411931,-0.20089 0.121762,-0.0946 0.253829,-0.20006 0.288353,-0.24107 0.03552,-0.0422 0.120323,-0.0804 0.205966,-0.0804 0.144282,0 0.145596,0.0337 0.370738,0.44196 0.177167,0.32129 0.227558,0.47816 0.205966,0.5625 -0.04377,0.171 -0.336537,0.45576 -0.65909,0.64286 l -0.288353,0.16071 -0.78267,0 C 14.667112,6.56693 14.545308,6.52536 14.134951,6.125 13.669714,5.67112 13.477192,5.03303 13.517054,4.15625 c 0.02673,-0.58779 0.11023,-0.9174 0.329545,-1.36607 0.297945,-0.60955 0.784212,-1.08577 1.400569,-1.32589 0.179602,-0.07 0.473153,-0.11694 0.741477,-0.12054 z m -12.2755688,0.12054 1.4005682,0 c 1.3383627,0.0128 1.3910613,0.0283 1.5653409,0.12053 0.3934925,0.2082 0.6180177,0.55232 0.659091,1.08482 0.061237,0.79394 -0.2262991,1.48007 -0.7826705,1.8884 -0.071683,0.0526 -0.04416,0.13428 0.2059659,1.00446 0.1489018,0.51803 0.2876615,0.94526 0.2883523,0.96429 6.922e-4,0.0185 -0.3629916,0.0466 -0.7826705,0.0402 l -0.7414773,0 L 5.3196024,5.72324 C 5.2121561,5.27255 5.1288864,4.90364 5.1136364,4.87946 c -0.040883,-0.0649 -0.1854405,-0.0729 -0.2471591,0 -0.029535,0.0349 -0.099794,0.32623 -0.1235795,0.64286 -0.023784,0.31661 -0.026729,0.67411 -0.041194,0.80357 l -0.041194,0.24107 -0.7826704,0 c -0.7067831,0 -0.7822863,-0.009 -0.7826705,-0.0804 C 3.0945867,6.3782 3.6437421,1.67265 3.6718734,1.54459 l 0.041194,-0.0803 z m 4.6136365,0 0.6178976,0 c 0.6196254,0 0.6582605,-0.0174 0.7002842,0.0803 0.023846,0.0555 0.1907583,0.61334 0.3707385,1.20536 0.17998,0.59203 0.354476,1.06708 0.370739,1.08482 0.01627,0.0178 0.311679,-0.49988 0.65909,-1.16518 l 0.617899,-1.20535 0.65909,0 c 0.361305,0 0.64956,0.0217 0.659091,0.0402 0.0158,0.0305 -0.351675,4.40872 -0.411932,4.86161 l -0.0412,0.20089 -0.700284,0 -0.659091,0 0,-0.16071 c 0,-0.0981 0.01368,-0.51417 0.0412,-0.88393 0.02757,-0.36973 0.05072,-0.69531 0.04119,-0.72321 -0.0094,-0.0279 -0.217554,0.38815 -0.453124,0.88393 l -0.411932,0.88392 -0.247159,0 C 9.8659042,6.56694 9.9370387,6.677 9.5624971,5.5223 L 9.315338,4.79909 9.1917585,5.68302 c -0.056109,0.48102 -0.079961,0.8775 -0.082386,0.88392 -0.00243,0.006 -0.3217781,0 -0.7002841,0 l -0.7002841,0 0.041194,-0.16071 C 7.7637023,6.32603 7.8999523,5.24123 8.0383506,3.99552 8.1767487,2.7498 8.2718058,1.6649 8.2855097,1.5848 L 8.3267037,1.46427 z M 5.0724432,2.46875 c -0.084366,0.0456 -0.088517,0.22224 -0.1235795,0.76339 -0.015982,0.24669 -0.028881,0.47912 -0.041194,0.52232 -0.019419,0.0683 0.024424,0.0804 0.2471592,0.0804 0.4362189,0 0.6515864,-0.15935 0.7002841,-0.5625 C 5.90896,2.82655 5.6224304,2.46879 5.196022,2.46879 c -0.045884,0 -0.095457,-0.0152 -0.1235795,0 z m 0.4943182,5.14286 c 0.1509449,0 0.2883523,0.017 0.2883523,0.0402 0,0.023 0.083012,0.0325 0.1647727,0.0402 0.1242534,0.0117 0.1235796,0.0268 0.1235796,0.12054 0,0.11044 4.409e-4,0.10742 -0.4119318,0.12054 l -0.4119318,0.0402 -0.041194,0.16072 0,0.20089 0.3707386,0 0.3707387,0 0,0.12054 0,0.12053 -0.3707387,0.0402 c -0.3264636,0.0113 -0.3756949,0.0125 -0.3707386,0.0804 0.00314,0.0432 -0.00314,0.13918 0,0.20089 0.00568,0.11133 0.021632,0.0804 0.4531251,0.0804 0.4330135,0 0.453125,0.009 0.453125,0.12053 l 0,0.12054 -0.6178978,0 -0.5767045,0 0,-0.76339 0,-0.72322 0.1647727,-0.0402 c 0.081763,-0.008 0.1647728,-0.017 0.1647728,-0.0402 0,-0.023 0.096213,-0.0402 0.247159,-0.0402 z m -2.4715909,0.0804 0.3707386,0 c 0.5695513,0.003 0.8249831,0.12342 0.9886364,0.48215 0.1681415,0.36856 -0.022705,0.80483 -0.4119319,0.96428 -0.085008,0.035 -0.311205,0.0804 -0.5355113,0.0804 l -0.4119318,0 0,-0.76339 0,-0.7634 z m 4.2840909,0 c 0.2126918,0 0.5495263,0.1109 0.5767046,0.2009 0.00678,0.0224 -0.046887,0.0745 -0.082386,0.12053 -0.062728,0.0814 -0.048914,0.0941 -0.247159,0 C 7.3063062,7.86151 6.9954824,7.96624 6.8849437,8.29469 6.7261041,8.76663 7.2335898,9.15682 7.6676141,8.89737 c 0.1478572,-0.0881 0.1604847,-0.077 0.2471591,0 0.08932,0.0792 0.075941,0.062 -0.041194,0.16072 C 7.8085532,9.11299 7.679527,9.19321 7.585227,9.2188 7.3680097,9.2779 7.3486415,9.2542 7.1321019,9.1786 6.7616925,9.04912 6.5573509,8.77545 6.5965906,8.37503 6.6359106,7.97378 6.9406032,7.69199 7.379261,7.69199 z m 1.5653409,0 c 0.068314,-0.0139 0.1305782,-0.008 0.2471592,0 0.3028384,0.0215 0.450904,0.12103 0.6178976,0.36161 0.1225963,0.17662 0.1460243,0.56461 0.041194,0.76339 C 9.7581871,8.99272 9.5591062,9.16364 9.3565349,9.2188 9.1410616,9.2776 9.0762889,9.2534 8.8622167,9.1786 8.6342827,9.0989 8.5120588,8.99669 8.4090917,8.77682 8.2337397,8.40239 8.3419987,8.01679 8.697444,7.81253 8.784115,7.76253 8.8762895,7.70591 8.944603,7.69199 z m 1.4829547,0 0.123579,0 0.164773,0 0,0.52233 c 0,0.51379 -0.02439,0.57825 0.08239,0.68303 0.138502,0.13577 0.332487,0.12484 0.494319,0 0.115229,-0.0889 0.152434,-0.11355 0.164772,-0.64286 l 0,-0.52232 0.12358,0 0.164772,0 0,0.52232 c -9.74e-4,0.59939 -0.05884,0.76745 -0.288352,0.88393 -0.355568,0.1803 -0.796993,0.0844 -0.947443,-0.20089 -0.05085,-0.0964 -0.08239,-0.26873 -0.08239,-0.68304 l 0,-0.5625 z m 1.894886,0 c 0.136371,0.0134 0.120839,0.0557 0.288353,0.48215 0.299972,0.76363 0.276206,0.73226 0.535511,0.0804 0.219439,-0.55179 0.200268,-0.5625 0.329545,-0.5625 0.07373,0 0.164773,0.0141 0.164773,0.0402 0,0.0435 -0.09985,0.23246 -0.494318,1.16518 -0.124176,0.29353 -0.13205,0.32143 -0.247159,0.32143 -0.121558,0 -0.123201,-0.0386 -0.411932,-0.72321 -0.166537,-0.39489 -0.329545,-0.7373 -0.329545,-0.7634 0,-0.0269 0.08556,-0.0479 0.164772,-0.0402 z m 1.771308,0 0.576704,0 0.576705,0 0,0.12054 0,0.16071 -0.453126,0 -0.453125,0 0,0.16072 0,0.20089 0.411932,0 0.370739,0 0,0.12054 0,0.12053 -0.370739,0 -0.411932,0 0.0412,0.2009 0,0.20089 0.411931,0 c 0.415592,0.0126 0.453126,0.012 0.453126,0.12053 l 0,0.12054 -0.576705,0 -0.576704,0 0,-0.76339 0,-0.7634 z m 1.647726,0 0.453126,0 c 0.536659,0.0205 0.699164,0.0733 0.78267,0.32143 0.06942,0.20623 -0.02757,0.45167 -0.205966,0.5625 l -0.12358,0.0804 0.164773,0.24107 c 0.101069,0.13841 0.205966,0.26698 0.205966,0.28125 0,0.0144 -0.08167,0.0402 -0.164773,0.0402 -0.132667,0 -0.159599,-0.045 -0.329545,-0.28125 -0.173065,-0.2407 -0.228994,-0.24107 -0.370739,-0.24107 l -0.164772,0 0,0.24107 c 0,0.2691 0.01365,0.28125 -0.12358,0.28125 l -0.12358,0 0,-0.76339 0,-0.7634 z m 1.647727,0 0.617899,0 0.617897,0 0,0.12054 c 0,0.13197 -0.02353,0.16071 -0.247159,0.16071 l -0.205966,0 0,0.60268 0,0.64286 -0.164772,0 -0.164773,0 0,-0.64286 0,-0.60268 -0.24716,0 c -0.223566,0 -0.205966,-0.0292 -0.205966,-0.16071 l 0,-0.12054 z m 1.688921,0 0.576705,0 0.576705,0 0,0.12054 0,0.16071 -0.453126,0 -0.453125,0 0,0.16072 0,0.20089 0.411932,0 0.370739,0 0,0.12054 0,0.12053 -0.370739,0 -0.411932,0 0.0412,0.2009 0,0.20089 0.453124,0 c 0.439914,0.0126 0.453125,0.0115 0.453125,0.12053 l 0,0.12054 -0.617897,0 -0.576704,0 0,-0.76339 0,-0.7634 z m 2.430398,0 c 0,-0.0105 0.105501,0 0.247159,0 l 0.247159,0 -0.0412,0.16072 c -0.01572,0.0802 -0.02522,0.17177 -0.04119,0.24107 -0.02903,0.12613 -0.01525,0.13455 0.205966,0.12054 l 0.205966,0 0.08239,-0.24108 0.08239,-0.24107 0.24716,-0.0402 c 0.14361,-0.007 0.247159,-0.0136 0.247159,0 0,0.022 -0.309575,1.24698 -0.370739,1.44643 -0.01908,0.0622 -0.09135,0.0804 -0.288352,0.0804 -0.279089,0 -0.264994,0.002 -0.164773,-0.32143 l 0.0412,-0.24107 -0.205966,0.0402 -0.247159,0 -0.08239,0.28125 -0.04119,0.24107 -0.288352,0 c -0.242229,0 -0.27053,-0.008 -0.247159,-0.0804 0.03876,-0.11977 0.411932,-1.42508 0.411932,-1.44643 z m 1.688921,0 c 0,-0.051 0.860495,0.019 0.988636,0.0804 0.306323,0.14665 0.397964,0.53002 0.247159,0.88393 -0.09831,0.23072 -0.189644,0.32072 -0.453125,0.44196 -0.195649,0.0901 -0.277007,0.12019 -0.700284,0.12054 -0.456787,3.9e-4 -0.518586,-0.005 -0.494319,-0.0804 0.04447,-0.13738 0.411933,-1.42135 0.411933,-1.44643 z m 1.977272,0 c 0.160949,-0.017 0.342648,0.0122 0.453126,0.12054 0.109634,0.10752 0.123578,0.18969 0.123578,0.36161 0,0.19849 -0.02055,0.2315 -0.288352,0.48214 -0.155574,0.14556 -0.309008,0.24107 -0.329545,0.24107 -0.02054,0 -0.04119,0.0155 -0.04119,0.0402 0,0.026 0.172526,0.0402 0.370738,0.0402 0.335415,0 0.329546,0.011 0.329546,0.12053 l 0,0.12054 -0.576705,0 c -0.569261,0 -0.576704,-0.0159 -0.576704,-0.12054 0,-0.0763 0.104202,-0.18123 0.370738,-0.40178 0.382669,-0.31663 0.453125,-0.41198 0.453125,-0.5625 0,-0.0907 -0.145171,-0.20089 -0.247159,-0.20089 -0.03021,0 -0.129933,0.0176 -0.205966,0.0804 -0.120157,0.099 -0.124264,0.13037 -0.205966,0.0804 -0.108328,-0.0663 -0.116685,-0.10691 -0.04119,-0.20089 0.105443,-0.13117 0.250983,-0.18385 0.411931,-0.2009 z m 1.565341,0 c 0.109411,0 0.12358,0.0145 0.12358,0.48215 l 0,0.44196 0.08239,0 c 0.09656,0 0.12358,0.0471 0.12358,0.16072 0,0.11359 -0.02703,0.12053 -0.12358,0.12053 -0.100198,0 -0.08239,0.0232 -0.08239,0.16072 0,0.13755 -0.02338,0.16071 -0.12358,0.16071 -0.123936,0 -0.13597,-0.0172 -0.12358,-0.20089 l 0,-0.12054 -0.370738,0 -0.411932,0 0,-0.16071 c 0,-0.12171 0.09082,-0.22963 0.411932,-0.60268 0.297662,-0.34572 0.410864,-0.44197 0.494318,-0.44197 z M 9.2329546,7.93309 C 9.0739243,7.89389 8.8481879,7.99739 8.7386365,8.13398 8.5444438,8.37605 8.6644345,8.82646 8.9446023,8.93755 9.3199707,9.08626 9.6997637,8.81644 9.6448865,8.41523 9.6175425,8.21534 9.4104113,7.9768 9.2329546,7.93309 z m -5.8494318,0.0402 0,0.48215 0,0.48214 0.247159,0 c 0.301638,0 0.4012731,-0.0245 0.4943183,-0.20089 C 4.2448019,8.50951 4.2190341,8.26681 4.0426141,8.09383 3.9027764,7.95676 3.8610033,7.97329 3.6306823,7.97329 l -0.247159,0 z m 12.6051142,0 0,0.24108 0,0.24107 0.247158,0 c 0.298404,0 0.453126,-0.10004 0.453126,-0.28125 0,-0.16814 -0.0868,-0.2009 -0.411932,-0.2009 l -0.288352,0 z m 10.62784,0.12054 -0.205966,0.20089 c -0.09805,0.10988 -0.181262,0.19787 -0.205965,0.24107 -0.04017,0.0709 -0.04251,0.0804 0.164773,0.0804 l 0.247158,0 0,-0.28125 0,-0.24107 z m -3.007101,0.0402 c 0,0.006 -0.03383,0.15499 -0.08239,0.32143 l -0.123578,0.32143 0.123578,0 c 0.146413,0 0.375538,-0.10794 0.411932,-0.2009 0.05613,-0.14346 0.01761,-0.29295 -0.08239,-0.3616 -0.08477,-0.0581 -0.247158,-0.11983 -0.247158,-0.0804 z"
     id="path2989"
     inkscape:connector-curvature="0" />
</svg>
