<?xml version="1.0" encoding="UTF-8"?>
<svg xmlns="http://www.w3.org/2000/svg" width="100" height="100">
  <path d="M 50.00001,9.99998 C 37.07422,9.99998 12,17.71548 12,17.71548 L
           17.51054,64.1284 50.00001,90 82.48946,64.1284 88,17.71548 c 0,0
           -25.07421,-7.7155 -37.99999,-7.7155 z m -15.75106,19.34871 12.86235,0
           2.70191,17.33656 c 0.12453,0 0.24905,0 0.37358,0 l 2.70191,-17.33656
           12.86235,0 0,33.81361 -8.43259,5.81 0,-27.13756 -4.20961,23.15316 c
           -2.07256,0 -4.14514,0 -6.2177,0 l -4.20961,-23.15316 0,27.13756
           -8.43259,-5.81 z"
        fill="white" />
</svg>
