<?xml version="1.0" encoding="UTF-8" standalone="no"?>
<!-- Created with Inkscape (http://www.inkscape.org/) -->

<svg
   xmlns:dc="http://purl.org/dc/elements/1.1/"
   xmlns:cc="http://creativecommons.org/ns#"
   xmlns:rdf="http://www.w3.org/1999/02/22-rdf-syntax-ns#"
   xmlns:svg="http://www.w3.org/2000/svg"
   xmlns="http://www.w3.org/2000/svg"
   version="1.1"
   width="100"
   height="100"
   viewBox="0 0 100 100.00001"
   id="Calque_1"
   xml:space="preserve"><metadata
     id="metadata19"><rdf:RDF><cc:Work
         rdf:about=""><dc:format>image/svg+xml</dc:format><dc:type
           rdf:resource="http://purl.org/dc/dcmitype/StillImage" /><dc:title></dc:title></cc:Work></rdf:RDF></metadata><defs
     id="defs17" /><g
     transform="matrix(0.99739874,0,0,1.0043459,-0.07663774,57.393083)"
     id="g3"
     style="fill:#000000;fill-opacity:0.19607843"><g
       id="g5"
       style="fill:#000000;fill-opacity:0.19607843"><g
         id="g7"
         style="fill:#000000;fill-opacity:0.19607843"><g
           id="g9"
           style="fill:#000000;fill-opacity:0.19607843"><path
             d="m 23.13682,-47.188006 51.17184,0 0.47819,16.768261 -3.45244,0 -1.72097,-5.267998 c -1.72359,-5.270625 -5.46505,-6.899632 -10.82764,-6.899632 l -13.32107,0 0,23.765108 13.12664,0 c 2.78245,0 2.97162,-0.478192 4.88702,-8.720441 l 3.64162,0 0,22.9952709 -3.64162,0 c -1.9154,-7.9506049 -2.1072,-9.1014189 -4.88702,-9.1014189 l -13.12664,0 0,19.4534949 c 0,4.1145561 1.24803,6.1324231 6.51603,6.1324231 l 6.32422,0 c 7.18602,0 10.54125,-2.7824493 13.02943,-8.0504474 l 2.30163,-5.0761956 3.64162,1.0509722 -2.87179,16.6736738 -51.26905,0 0,-3.638991 c 9.00684,-1.918025 9.48766,-2.207042 9.48766,-5.7488182 l 0,-45.0394128 c 0,-3.641618 -0.48082,-3.830793 -9.48766,-5.651603 z"
             id="path11"
             style="fill:#000000;fill-opacity:0.19607843;fill-rule:evenodd" /></g></g></g></g><rect
     width="80.000008"
     height="5.0000005"
     x="9.9999962"
     y="85.000008"
     id="rect13"
     style="fill:#000000;fill-opacity:0.19607843" /></svg>