<?xml version="1.0" encoding="UTF-8" standalone="no"?>
<!-- Created with Inkscape (http://www.inkscape.org/) -->

<svg
   xmlns:dc="http://purl.org/dc/elements/1.1/"
   xmlns:cc="http://creativecommons.org/ns#"
   xmlns:rdf="http://www.w3.org/1999/02/22-rdf-syntax-ns#"
   xmlns:svg="http://www.w3.org/2000/svg"
   xmlns="http://www.w3.org/2000/svg"
   xmlns:sodipodi="http://sodipodi.sourceforge.net/DTD/sodipodi-0.dtd"
   xmlns:inkscape="http://www.inkscape.org/namespaces/inkscape"
   id="svg2"
   version="1.1"
   inkscape:version="0.48.4 r9939"
   width="100"
   height="100"
   xml:space="preserve"
   sodipodi:docname="Square_Icon.ai"><metadata
     id="metadata8"><rdf:RDF><cc:Work
         rdf:about=""><dc:format>image/svg+xml</dc:format><dc:type
           rdf:resource="http://purl.org/dc/dcmitype/StillImage" /><dc:title></dc:title></cc:Work></rdf:RDF></metadata><defs
     id="defs6"><clipPath
       clipPathUnits="userSpaceOnUse"
       id="clipPath18"><path
         d="m 0,1024 1024,0 L 1024,0 0,0 0,1024 z"
         id="path20"
         inkscape:connector-curvature="0" /></clipPath></defs><sodipodi:namedview
     pagecolor="#ffffff"
     bordercolor="#666666"
     borderopacity="1"
     objecttolerance="10"
     gridtolerance="10"
     guidetolerance="10"
     inkscape:pageopacity="0"
     inkscape:pageshadow="2"
     inkscape:window-width="1600"
     inkscape:window-height="851"
     id="namedview4"
     showgrid="false"
     inkscape:zoom="2.95"
     inkscape:cx="-6.476961"
     inkscape:cy="48.664502"
     inkscape:window-x="0"
     inkscape:window-y="25"
     inkscape:window-maximized="1"
     inkscape:current-layer="g10" /><g
     id="g10"
     inkscape:groupmode="layer"
     inkscape:label="Square_Icon"
     transform="matrix(1.25,0,0,-1.25,0,100)"><path
       d="M 8,8 72,8 72,72 8,72 8,8 z"
       style="fill:#000000;fill-opacity:0.3137255;fill-rule:nonzero;stroke:none"
       id="path12"
       inkscape:connector-curvature="0" /><g
       id="g14"
       transform="matrix(0.0625,0,0,0.0625,8,8)"><g
         id="g16"
         clip-path="url(#clipPath18)"><g
           id="g22"
           transform="translate(606.6722,276.9322)"><path
             d="m 0,0 c -80.805,0 -138.664,56.861 -138.664,131.681 0,71.825 57.859,132.677 132.679,132.677 73.821,0 130.682,-57.859 130.682,-134.672 C 124.697,55.864 67.836,0 0,0 m 276.328,602.277 -157.617,-32.657 0,-233.435 c -35.912,45.889 -85.792,67.835 -150.635,67.835 -67.835,0 -128.687,-24.939 -178.567,-73.82 -55.863,-53.87 -85.792,-122.703 -85.792,-199.518 0,-83.796 31.921,-155.622 93.771,-210.488 46.887,-41.899 102.753,-62.848 167.596,-62.848 63.844,0 111.73,16.959 158.614,62.848 l 0,-59.856 152.63,0 0,741.939 z"
             style="fill:#ffffff;fill-opacity:1;fill-rule:nonzero;stroke:none"
             id="path24"
             inkscape:connector-curvature="0" /></g></g></g></g></svg>