<?xml version="1.0" encoding="UTF-8"?>
<svg xmlns="http://www.w3.org/2000/svg" width="100" height="100">
  <path d="m 10,10 0,80 80,0 0,-80 -80,0 z m 68.98,11.31 0,57.96 -11.92,0
           0,-4.68 c -3.66,3.59 -7.4,4.91 -12.39,4.91 -5.07,0 -9.43,-1.64
           -13.09,-4.91 C 36.74,70.31 34.25,64.7 34.25,58.15 c 0,-6 2.34,-11.38
           6.7,-15.59 3.9,-3.82 8.65,-5.77 13.95,-5.77 5.07,0 8.96,1.71
           11.77,5.3 l 0,-18.24 L 78.98,21.31 Z M 56.93,47.71 c -5.85,0
           -10.37,4.75 -10.37,10.37 0,5.85 4.52,10.29 10.83,10.29 5.3,0
           9.74,-4.37 9.74,-10.13 0,-6 -4.44,-10.52 -10.21,-10.52 z"
        fill-opacity="0.2" />
</svg>
