<?xml version="1.0" encoding="UTF-8"?>
<svg xmlns="http://www.w3.org/2000/svg" width="100" height="100">
  <path d="m 10,10 0,80 80,0 0,-80 -80,0 z m 68.984375,11.3125 0,57.962891
           -11.923828,0 0,-4.675782 c -3.662813,3.585079 -7.404766,4.910157
           -12.392578,4.910157 -5.06586,0 -9.430704,-1.636797
           -13.09375,-4.910157 C 36.742187,70.313203 34.25,64.700859
           34.25,58.154297 c 0,-6.001171 2.336876,-11.377345 6.701172,-15.585938
           3.896875,-3.818826 8.651562,-5.767578 13.951172,-5.767578 5.065858,0
           8.961953,1.71375 11.767578,5.298828 l 0,-18.236328 L
           78.984375,21.3125 Z M 56.927734,47.710938 c -5.845312,0
           -10.365234,4.753905 -10.365234,10.365234 0,5.845312
           4.521093,10.289062 10.833984,10.289062 5.299688,0 9.742188,-4.365468
           9.742188,-10.132812 0,-6.001014 -4.443671,-10.521484
           -10.210938,-10.521484 z"
        fill-opacity="0.2" />
</svg>
