<?xml version="1.0" encoding="UTF-8"?>
<svg xmlns="http://www.w3.org/2000/svg" height="100" width="100">
  <path d="m 51.248142,10.001382 c -4.673863,-0.037628 -9.353126,0.693184 -13.763672,2.187563 -9.940187,3.33279 -18.410278,10.62209 -23.128026,19.846391 -1.645727,3.182276 -2.830478,6.558237 -3.554598,10.063042 -1.7993268,8.686754 -0.548661,17.953807 3.53274,25.866494 2.655106,5.160447 6.473191,9.761763 11.081224,13.352575 4.366661,3.397295 9.435412,5.93485 14.833394,7.332472 6.802336,1.784655 14.04336,1.741651 20.889582,0.215019 6.187931,-1.397621 12.046973,-4.300709 16.720836,-8.515075 4.937179,-4.450886 8.469919,-10.299227 10.335076,-16.599274 1.533729,-5.155088 2.062891,-10.577495 1.691155,-15.947497 -0.120687,-1.783647 -0.341831,-3.560155 -0.660005,-5.317933 l -38.40028,0 c 0,5.203452 8.5e-5,10.40682 -0.02186,15.610271 l 0.02186,0 0,0.02184 22.22459,0 c -0.859846,4.97402 -3.879111,9.518253 -8.143774,12.331656 l -0.01501,-0.01133 c -2.698991,1.784654 -5.792956,2.924505 -8.996637,3.483553 -3.225623,0.537548 -6.539105,0.623219 -9.742785,-0.02184 -3.247567,-0.645056 -6.363561,-1.977836 -9.084495,-3.848498 -4.00771,-2.756931 -7.11625,-6.686137 -8.918208,-11.143595 -0.143871,-0.36076 -0.28153,-0.723731 -0.407574,-1.091052 -0.0044,-0.0128 -0.008,-0.02584 -0.01243,-0.03864 0.01141,-0.0087 0.02287,-0.01734 0.03429,-0.02604 -1.750231,-4.973629 -1.754414,-10.524136 -0.01457,-15.5225 1.229463,-3.518633 3.24531,-6.758444 5.917329,-9.419665 3.291453,-3.311288 7.570256,-5.676577 12.200232,-6.644161 3.949744,-0.817071 8.118831,-0.666307 11.980802,0.473292 3.291453,0.967585 6.319932,2.752156 8.799493,5.074358 L 74.15117,24.35934 c 1.316581,-1.311614 2.698906,-2.580392 3.971601,-3.935009 -0.0036,-0.0033 -0.0075,-0.0064 -0.01115,-0.0097 0.0037,-0.0039 0.0074,-0.0078 0.01115,-0.01176 -3.818089,-3.461759 -8.272607,-6.213915 -13.143957,-7.977067 -4.388604,-1.580388 -9.056809,-2.386792 -13.730672,-2.42442 z"
        fill="white" />
</svg>
