<?xml version="1.0" encoding="UTF-8"?>
<svg xmlns="http://www.w3.org/2000/svg" height="100" width="100">
  <g transform="translate(1259.5404,-414.3757)">
    <path d="m -1249.5404,424.3757 0,80 4.6873,0 c 9.4077,-4.16157 21.764,-6.66667 35.3127,-6.66667 13.5487,0 25.905,2.5051 35.3123,6.66667 l 4.6877,0 0,-80 -4.6877,0 c -9.4073,4.16157 -21.7636,6.66667 -35.3123,6.66667 -13.5487,0 -25.905,-2.5051 -35.3127,-6.66667 l -4.6873,0 z m 16.6667,10 c 3.2083,0.74317 4.552,0.6987 7.767,0 4.0543,7.3225 10.2766,17.56577 15.5336,26.4388 5.184,-8.68483 13.3324,-22.2474 15.5404,-26.4388 2.5063,0.66837 5.0273,0.6469 7.8256,0 -2.9356,4.0418 -13.628,22.93203 -20.1043,34.51173 l 0.4753,25.48827 c 0,0 -2.0716,-0.3841 -3.7303,-0.3841 -1.4967,0 -3.7307,0.3841 -3.7307,0.3841 l 0.469,-25.48827 c -3.4713,-6.11346 -13.6786,-24.73453 -20.0456,-34.51173 z"
          fill="white" />
  </g>
</svg>
