<?xml version="1.0" encoding="UTF-8" standalone="no"?>
<!-- Created with Inkscape (http://www.inkscape.org/) -->

<svg
   xmlns:dc="http://purl.org/dc/elements/1.1/"
   xmlns:cc="http://creativecommons.org/ns#"
   xmlns:rdf="http://www.w3.org/1999/02/22-rdf-syntax-ns#"
   xmlns:svg="http://www.w3.org/2000/svg"
   xmlns="http://www.w3.org/2000/svg"
   version="1.0"
   width="100"
   height="100"
   id="svg3844"
   xml:space="preserve"><metadata
     id="metadata3849"><rdf:RDF><cc:Work
         rdf:about=""><dc:format>image/svg+xml</dc:format><dc:type
           rdf:resource="http://purl.org/dc/dcmitype/StillImage" /><dc:title></dc:title></cc:Work></rdf:RDF></metadata><defs
     id="defs3847"><clipPath
       id="clipPath3893"><path
         d="m 31.16,46.895 0,-22.088 28.386,0 0,22.088"
         id="path3895" /></clipPath><clipPath
       id="clipPath3909"><path
         d="m 31.16,46.895 0,-22.088 28.386,0 0,22.088"
         id="path3911" /></clipPath><clipPath
       id="clipPath3933"><path
         d="m 31.16,46.895 0,-22.088 28.386,0 0,22.088"
         id="path3935" /></clipPath><clipPath
       id="clipPath3945"><path
         d="m 31.16,46.895 0,-22.088 28.386,0 0,22.088"
         id="path3947" /></clipPath><clipPath
       id="clipPath3967"><path
         d="m 436.742,53.708 130.185,0 0,-33.865 -130.185,0 0,33.865 z"
         id="path3969" /></clipPath><clipPath
       id="clipPath4001"><path
         d="M 65.795,581.423 501.307,611.851 523.036,300.839 87.524,270.411 65.795,581.423"
         id="path4003" /></clipPath><clipPath
       id="clipPath4007"><path
         d="m 53.713,588.996 455.566,31.829 23.22,-332.342 -455.566,-31.83 -23.22,332.343 z"
         id="path4009" /></clipPath><clipPath
       id="clipPath4013"><path
         d="m 0,841.89 595.26,0 0,-841.845 L 0,0.045 0,841.89 z"
         id="path4015" /></clipPath></defs><g
     transform="matrix(1.25,0,0,-1.25,-545.9275,124.80375)"
     id="g3853"><g
       id="g4029"><path
         d="m 473.81049,83.842735 c -5.79616,-0.02267 -12.7566,-1.482869 -18.92973,-6.843366 -6.97102,-6.047352 -10.23589,-14.192217 -10.13656,-24.140707 0.13027,-6.111167 3.5938,-14.373587 13.92251,-16.583616 6.75176,-0.948398 13.65542,-0.48433 19.54036,2.896885 2.65749,1.565157 6.77562,4.132889 11.68351,8.144865 0.13516,-0.295567 0.26705,-0.614644 0.40709,-0.923645 1.93613,-4.127851 4.91929,-9.725136 6.14707,-9.95017 0.70997,-0.130989 1.3548,0.112517 1.54695,0.20992 0.96888,0.520599 7.67936,3.718088 8.71175,4.660206 l -1.18057,2.477046 -1.87262,-1.007612 c 0,0 -1.75212,-0.962269 -2.6868,0.629757 -0.9363,1.593707 -3.40165,5.817281 -4.27445,8.060897 -0.1433,0.372817 -0.43152,1.000895 -0.77347,1.763322 0.76533,0.708686 2.39858,2.230181 3.05318,2.938868 0.87117,0.943797 2.4344,2.372927 3.17531,3.022837 -0.19378,-0.681818 -0.5911,-2.236899 0.73276,-2.561015 1.32386,-0.325794 3.1574,0.745634 4.80367,2.72895 1.64465,1.981637 1.25547,4.848294 -0.32567,5.205996 -1.58114,0.357702 -3.28604,-0.184728 -6.22849,-2.561014 -2.77636,-2.243617 -3.19648,-3.125277 -5.61785,-5.205996 -0.3501,-0.324115 -0.59436,-0.542431 -0.8549,-0.755709 -1.84167,3.887703 -4.29073,8.667144 -4.84438,8.774622 0,0 -5.05607,-1.06471 -10.54365,-4.282351 l 1.05843,-2.18316 c 0,0 1.46228,0.634796 1.91333,0.797693 0.45269,0.162897 1.38737,0.322436 1.70978,-0.293887 0.26543,-0.510523 1.99801,-3.333517 4.60013,-8.732638 -3.33326,-2.957342 -7.37323,-5.793771 -8.79316,-6.717415 -5.1561,-2.950617 -9.23676,-3.968648 -14.37031,-3.274739 -10.89213,1.511419 -10.46224,14.128402 -10.46224,15.785924 0.0977,3.021156 0.63669,13.308876 8.91529,20.278193 2.28623,1.92454 8.82899,5.654384 17.30137,3.022837 l 1.3434,-8.270816 1.91332,0.461822 1.38411,10.537944 c -1.53392,0.471898 -6.17231,1.911943 -11.96847,1.889272 z"
         id="path3981"
         style="fill:#000000;fill-opacity:0.19607843;fill-rule:nonzero;stroke:none" /></g></g></svg>