<?xml version="1.0" encoding="UTF-8"?>
<svg xmlns="http://www.w3.org/2000/svg" width="100" height="100">
  <path d="M 54.375 10 C 53.639899 10.006558 52.925056 10.136171 52.21875
           10.375 C 48.688849 11.571879 46.725856 15.335934 47.75 18.9375 L
           47.84375 19.25 L 50.40625 26.9375 L 35.5 31.96875 L 32.9375 24.28125
           C 31.974751 21.406555 29.30261 19.5072 26.28125 19.53125 C 25.547234
           19.537262 24.828589 19.639996 24.125 19.875 C 20.596186 21.072971
           18.634823 24.837027 19.65625 28.4375 C 19.68776 28.544072 19.7174
           28.646161 19.75 28.75 L 22.3125 36.40625 L 14.75 38.96875 C 11.219013
           40.166722 9.2652549 43.892324 10.28125 47.46875 C 10.31113 47.574228
           10.33914 47.673039 10.375 47.78125 C 11.307324 50.573966 13.827542
           52.3667 16.8125 52.34375 C 17.586177 52.337192 18.371425 52.22616
           19.125 51.96875 C 26.582383 49.407573 21.042866 51.302814 26.65625
           49.375 L 31.65625 64.40625 L 24.15625 66.96875 C 20.61331 68.16836
           18.65738 71.943446 19.6875 75.5625 C 19.71739 75.66854 19.74648
           75.77007 19.78125 75.875 C 20.702708 78.62782 23.24168 80.3968 26.25
           80.375 C 27.055733 80.3679 27.8641 80.20366 28.65625 79.9375 L 36
           77.40625 L 38.625 85.21875 C 39.588293 88.09617 42.291683 90.0235
           45.3125 90 C 46.045428 89.99398 46.766791 89.86054 47.46875 89.625 C
           51.002997 88.42703 52.961101 84.66571 51.9375 81.0625 C 51.9087
           80.95866 51.87906 80.8484 51.84375 80.75 L 49.21875 72.875 L 64.09375
           67.75 L 66.75 75.71875 C 67.71275 78.59235 70.385434 80.5235 73.40625
           80.5 C 74.140809 80.49344 74.863257 80.35946 75.5625 80.125 C
           79.092401 78.92812 81.061633 75.176794 80 71.4375 L 79.9375 71.25 L
           77.25 63.25 L 85.5 60.40625 C 85.5 60.40625 88.064378 59.269019
           88.875 58 C 89.962711 56.293217 90.297116 54.143047 89.75 52.21875 L
           89.65625 51.9375 C 88.72121 49.153527 86.07897 47.28955 83.0625
           47.3125 C 82.302406 47.319604 81.544341 47.441565 80.8125 47.6875 L
           72.9375 50.375 L 67.875 35.21875 C 68.028081 35.166149 75.437205
           32.625215 75.4375 32.625 C 78.591428 31.559286 81.215709 28.225079
           80.15625 24.5 L 80.0625 24.21875 C 79.107357 21.367009 76.533032
           19.53845 73.46875 19.5625 C 72.782004 19.566872 72.063377 19.676614
           71.375 19.875 L 63.625 22.5 L 61.03125 14.78125 C 60.436323 13.009433
           59.195416 11.552194 57.53125 10.71875 C 56.535902 10.22415 55.467058
           9.9918 54.375 10 z M 54.71875 39.75 L 59.75 54.84375 L 44.875
           59.90625 L 39.8125 44.875 C 45.790676 42.822047 52.649714 40.46045
           54.71875 39.75 z"
        fill-opacity="0.2" />
</svg>
