<?xml version="1.0" encoding="UTF-8"?>
<svg xmlns="http://www.w3.org/2000/svg" width="100" height="100">
  <path d="M 89.971287,33.060273 86.999741,10 67.150919,16.534084 c
           -1.426662,0.469557 -2.24977,2.177688 -1.84266,3.812482
           0.411554,1.634794 1.886215,2.590207 3.330655,2.110463 L
           78.509103,19.208831 60.476275,51.556365 49.139424,34.43126
           35.166138,68.45433 l -9.74219,-10.4362 -10.942185,22.200606
           0,-69.819459 -4.481763,0 L 10,90 l 75.069081,0 0,-5.135596
           -66.701998,0 8.376861,-16.997785 10.141299,10.868071
           13.337733,-32.467725 10.630186,16.059688 22.30037,-39.997963
           1.495995,11.627919 c 0.197333,1.531919 1.34844,2.632986
           2.655991,2.632986 0.131555,0 0.262221,-0.01018 0.398221,-0.03158
           1.465773,-0.247511 2.482658,-1.81508 2.267548,-3.497747"
        fill-opacity="0.2" />
</svg>
