<?xml version="1.0" encoding="UTF-8"?>
<svg xmlns="http://www.w3.org/2000/svg" width="100" height="100">
  <path d="M 100,42.180095 H 81.356098 L 100,34.834123 V 1.4218005 H 86.136585 L 84.941463,15.165877 H 84.224391 C 76.57561,5.2132695 66.775609,-4.7412109e-7 49.804878,-4.7412109e-7 25.663415,-4.7412109e-7 2,14.691943 2,50.236967 2,85.781991 25.902439,100 46.697561,100 62.234147,100 71.795122,94.312796 77.292683,88.625592 h 1.195122 l 5.258537,10.189574 H 100 Z M 52.195122,61.137441 H 74.90244 c 0,0 -0.239025,5.92417 -0.239025,10.900474 C 69.643902,78.672986 60.8,80.805687 52.912196,80.805687 39.765853,80.805687 28.292683,72.985782 28.292683,50 c 0,-25.35545 13.385366,-30.805687 24.380488,-30.805687 11.234147,0 22.707317,6.398104 25.814634,22.985782 H 52.195122 Z"
        opacity="0.2" />
</svg>
