<?xml version="1.0" encoding="UTF-8" standalone="no"?>
<!-- Created with Inkscape (http://www.inkscape.org/) -->

<svg
   xmlns:dc="http://purl.org/dc/elements/1.1/"
   xmlns:cc="http://creativecommons.org/ns#"
   xmlns:rdf="http://www.w3.org/1999/02/22-rdf-syntax-ns#"
   xmlns:svg="http://www.w3.org/2000/svg"
   xmlns="http://www.w3.org/2000/svg"
   xmlns:sodipodi="http://sodipodi.sourceforge.net/DTD/sodipodi-0.dtd"
   xmlns:inkscape="http://www.inkscape.org/namespaces/inkscape"
   width="50"
   height="20"
   id="svg2"
   version="1.1"
   inkscape:version="0.48.4 r9939"
   sodipodi:docname="logo.svg">
  <defs
     id="defs4" />
  <sodipodi:namedview
     id="base"
     pagecolor="#ffffff"
     bordercolor="#666666"
     borderopacity="1.0"
     inkscape:pageopacity="0.0"
     inkscape:pageshadow="2"
     inkscape:zoom="7.9195959"
     inkscape:cx="23.589078"
     inkscape:cy="4.6757745"
     inkscape:document-units="px"
     inkscape:current-layer="layer1"
     showgrid="false"
     inkscape:window-width="1680"
     inkscape:window-height="994"
     inkscape:window-x="-4"
     inkscape:window-y="-4"
     inkscape:window-maximized="1" />
  <metadata
     id="metadata7">
    <rdf:RDF>
      <cc:Work
         rdf:about="">
        <dc:format>image/svg+xml</dc:format>
        <dc:type
           rdf:resource="http://purl.org/dc/dcmitype/StillImage" />
        <dc:title />
      </cc:Work>
    </rdf:RDF>
  </metadata>
  <g
     inkscape:label="Calque 1"
     inkscape:groupmode="layer"
     id="layer1"
     transform="translate(0,-1032.3622)">
    <g
       transform="scale(0.98823027,1.0119099)"
       style="font-size:2.54173589000000000px;font-style:normal;font-weight:normal;line-height:125%;letter-spacing:0px;word-spacing:0px;fill:#ffffff;fill-opacity:1;stroke:none;font-family:Sans"
       id="text2996">
      <path
         d="m 17.092666,1026.69 -3.220888,0 c -0.512428,-2.5132 -2.074069,-3.7698 -4.6849275,-3.7699 -3.9285137,10e-5 -5.8927653,2.4645 -5.8927607,7.3934 -4.6e-6,1.9277 0.4270066,3.5137 1.281035,4.7582 0.9760197,1.4396 2.3912569,2.1594 4.2457157,2.1594 3.0256695,0 4.7581145,-1.5372 5.1973415,-4.6117 l 3.184287,0 c -0.341627,2.3425 -1.232251,4.1603 -2.671873,5.4535 -1.439653,1.2689 -3.330703,1.9033 -5.6731545,1.9033 -2.8304845,0 -5.0265422,-0.9028 -6.5881796,-2.7085 C 0.75641858,1035.5353 -1.2861647e-6,1033.2172 3.1471252e-8,1030.3135 -1.2861647e-6,1027.3367 0.74421826,1024.9454 2.2326609,1023.1397 c 1.5860381,-1.952 3.8186968,-2.928 6.6979826,-2.928 2.2692495,0 4.1114975,0.5124 5.5267505,1.5372 1.537225,1.1469 2.415648,2.7939 2.635272,4.9411"
         style="font-size:36.60099791999999800px;font-variant:normal;font-weight:bold;font-stretch:normal;font-family:'C Dans L\'air';-inkscape-font-specification:'C Dans L\'air Bold';fill:#ffffff;stroke:none;fill-opacity:1"
         id="path2988" />
    </g>
    <g
       transform="scale(0.95810576,1.0437261)"
       style="font-size:2.23646688000000000px;font-style:normal;font-weight:normal;line-height:64.99999762000000200%;letter-spacing:0px;word-spacing:0px;fill:#ffffff;fill-opacity:1;stroke:none;font-family:Sans"
       id="text3000">
      <path
         d="m 20.284608,990.44874 0,5.94185 1.465334,0 c 1.094969,0 1.867891,-0.29522 2.318769,-0.88565 0.364985,-0.47234 0.54748,-1.19695 0.547487,-2.17384 -7e-6,-0.94468 -0.182502,-1.63709 -0.547487,-2.07723 -0.440143,-0.53675 -1.213065,-0.80512 -2.318769,-0.80513 l -1.465334,0 m -1.497538,7.16564 0,-8.50215 3.542564,0 c 1.266729,0 2.227515,0.40794 2.882359,1.22379 0.601154,0.74073 0.901735,1.73908 0.901744,2.99508 -9e-6,1.26674 -0.30059,2.27583 -0.901744,3.02728 -0.654844,0.83733 -1.61563,1.256 -2.882359,1.256 l -3.542564,0"
         style="font-size:16.10256386000000000px;font-variant:normal;font-stretch:normal;line-height:64.99999762000000200%;font-family:'C Dans L\'air';-inkscape-font-specification:'C Dans L\'air';fill:#ffffff;fill-opacity:1"
         id="path2991" />
      <path
         d="m 33.189304,994.71592 0,-1.40092 c -0.214707,0.16103 -0.579698,0.28448 -1.094974,0.37035 -0.461612,0.0644 -0.923218,0.12883 -1.384821,0.19324 -1.116447,0.19323 -1.674669,0.69241 -1.674666,1.49753 -3e-6,0.81587 0.536749,1.2238 1.610256,1.2238 0.815859,0 1.465328,-0.22007 1.94841,-0.66021 0.397191,-0.36499 0.595789,-0.77292 0.595795,-1.22379 m 2.222154,1.80349 0,1.06276 c -0.246914,0.1503 -0.574333,0.22544 -0.982257,0.22544 -0.772929,0 -1.15939,-0.4294 -1.159384,-1.2882 -0.729989,0.8588 -1.706877,1.2882 -2.930667,1.2882 -0.815866,0 -1.465335,-0.1825 -1.94841,-0.54749 -0.536753,-0.40793 -0.805129,-1.00372 -0.805128,-1.78738 -1e-6,-0.84807 0.289845,-1.47607 0.869538,-1.884 0.397195,-0.27911 1.046664,-0.50454 1.94841,-0.67631 0.654834,-0.10734 1.309671,-0.22006 1.964513,-0.33815 0.558217,-0.15029 0.837327,-0.4455 0.837334,-0.88564 -7e-6,-0.92321 -0.617271,-1.38482 -1.851795,-1.38482 -1.331149,0 -2.023558,0.52602 -2.077231,1.57805 l -1.368718,0 c 0.04294,-0.96615 0.40793,-1.6854 1.094974,-2.15775 0.60116,-0.40792 1.411655,-0.61189 2.431488,-0.61189 2.082591,0 3.123889,0.75682 3.123897,2.27046 l 0,4.28328 c -8e-6,0.36499 0.01609,0.60116 0.04831,0.70851 0.05367,0.15029 0.182488,0.22544 0.386461,0.22544 0.128813,0 0.268368,-0.0268 0.418667,-0.0805"
         style="font-size:16.10256386000000000px;font-variant:normal;font-stretch:normal;line-height:64.99999762000000200%;font-family:'C Dans L\'air';-inkscape-font-specification:'C Dans L\'air';fill:#ffffff;fill-opacity:1"
         id="path2993" />
      <path
         d="m 36.524297,997.61438 0,-8.32503 1.288205,0 0,1.32041 0.0322,0 c 0.55822,-0.99835 1.459962,-1.49753 2.705231,-1.49753 1.910831,0 2.866248,1.0091 2.866256,3.02728 l 0,5.47487 -1.368718,0 0,-5.6359 c -6e-6,-0.51527 -0.150297,-0.9232 -0.450871,-1.22379 -0.300587,-0.30058 -0.713886,-0.45087 -1.239898,-0.45087 -0.805132,0 -1.417029,0.24154 -1.835692,0.72461 -0.418669,0.47235 -0.628002,1.10035 -0.628,1.884 l 0,4.70195 -1.368718,0"
         style="font-size:16.10256386000000000px;font-variant:normal;font-stretch:normal;line-height:64.99999762000000200%;font-family:'C Dans L\'air';-inkscape-font-specification:'C Dans L\'air';fill:#ffffff;fill-opacity:1"
         id="path2995" />
      <path
         d="m 45.117279,994.98966 1.368718,0 c 0.04294,1.07351 0.789023,1.61026 2.238256,1.61026 1.341875,0 2.012814,-0.4133 2.01282,-1.2399 -6e-6,-0.4616 -0.284484,-0.81586 -0.853435,-1.06277 -0.225441,-0.0966 -0.848073,-0.25764 -1.867898,-0.48308 -0.848071,-0.19322 -1.470703,-0.42403 -1.867897,-0.69241 -0.568958,-0.38645 -0.853437,-0.93931 -0.853436,-1.65856 -10e-7,-0.77292 0.338153,-1.37408 1.014461,-1.80349 0.568955,-0.36498 1.266732,-0.54748 2.093334,-0.54748 2.179207,0 3.317121,0.86417 3.413743,2.59251 l -1.368718,0 c -0.08589,-0.93394 -0.729988,-1.40092 -1.932307,-1.40092 -1.180858,0 -1.771284,0.35426 -1.771282,1.06277 -2e-6,0.4294 0.295211,0.75682 0.885641,0.98225 0.171757,0.0644 0.783654,0.22007 1.835692,0.46698 0.858798,0.20397 1.481429,0.43477 1.867897,0.69241 0.56895,0.3972 0.853429,0.95542 0.853436,1.67466 -7e-6,0.91248 -0.381101,1.59952 -1.143282,2.06113 -0.622638,0.37573 -1.422398,0.56359 -2.399282,0.56359 -1.019832,0 -1.830327,-0.2147 -2.431487,-0.6441 -0.687044,-0.48308 -1.052035,-1.20769 -1.094974,-2.17385"
         style="font-size:16.10256386000000000px;font-variant:normal;font-stretch:normal;line-height:64.99999762000000200%;font-family:'C Dans L\'air';-inkscape-font-specification:'C Dans L\'air';fill:#ffffff;fill-opacity:1"
         id="path2997" />
      <path
         d="m 18.78707,1008.081 0,-8.50211 1.497538,0 0,7.21391 4.347693,0 0,1.2882 -5.845231,0"
         style="font-size:16.10256386000000000px;font-variant:normal;font-stretch:normal;line-height:64.99999762000000200%;font-family:'C Dans L\'air';-inkscape-font-specification:'C Dans L\'air';fill:#ffffff;fill-opacity:1"
         id="path2999" />
      <path
         d="m 26.612664,1001.3502 0,-1.78741 1.787385,0 0,1.78741 c -3e-6,0.687 -0.139558,1.2399 -0.418667,1.6585 -0.311318,0.4724 -0.76219,0.7086 -1.352615,0.7086 l 0,-0.8052 c 0.622631,0 0.933946,-0.5206 0.933949,-1.5619 l -0.950052,0"
         style="font-size:16.10256386000000000px;font-variant:normal;font-stretch:normal;line-height:64.99999762000000200%;font-family:'C Dans L\'air';-inkscape-font-specification:'C Dans L\'air';fill:#ffffff;fill-opacity:1"
         id="path3001" />
      <path
         d="m 35.925481,1005.1826 0,-1.4009 c -0.214706,0.161 -0.579697,0.2844 -1.094974,0.3703 -0.461611,0.064 -0.923218,0.1288 -1.38482,0.1933 -1.116447,0.1932 -1.674669,0.6924 -1.674667,1.4975 -2e-6,0.8159 0.53675,1.2238 1.610256,1.2238 0.815859,0 1.465329,-0.2201 1.948411,-0.6602 0.39719,-0.365 0.595788,-0.7729 0.595794,-1.2238 m 2.222154,1.8035 0,1.0627 c -0.246914,0.1503 -0.574332,0.2255 -0.982256,0.2255 -0.77293,0 -1.159391,-0.4294 -1.159385,-1.2882 -0.729988,0.8588 -1.706876,1.2882 -2.930666,1.2882 -0.815866,0 -1.465336,-0.1825 -1.948411,-0.5475 -0.536753,-0.4079 -0.805128,-1.0037 -0.805128,-1.7874 0,-0.8481 0.289845,-1.4761 0.869539,-1.884 0.397194,-0.2791 1.046664,-0.5045 1.94841,-0.6763 0.654833,-0.1073 1.30967,-0.2201 1.964513,-0.3382 0.558216,-0.1502 0.837327,-0.4455 0.837333,-0.8856 -6e-6,-0.9232 -0.617271,-1.3848 -1.851795,-1.3848 -1.331148,0 -2.023558,0.526 -2.077231,1.578 l -1.368718,0 c 0.04294,-0.9661 0.407931,-1.6854 1.094975,-2.1577 0.60116,-0.40793 1.411655,-0.6119 2.431487,-0.61191 2.082592,10e-6 3.12389,0.75681 3.123897,2.27051 l 0,4.2832 c -7e-6,0.365 0.01609,0.6012 0.04831,0.7085 0.05367,0.1503 0.182488,0.2255 0.386462,0.2255 0.128812,0 0.268367,-0.027 0.418666,-0.081"
         style="font-size:16.10256386000000000px;font-variant:normal;font-stretch:normal;line-height:64.99999762000000200%;font-family:'C Dans L\'air';-inkscape-font-specification:'C Dans L\'air';fill:#ffffff;fill-opacity:1"
         id="path3003" />
      <path
         d="m 39.292678,1008.081 0,-8.50211 1.481435,0 0,8.50211 -1.481435,0"
         style="font-size:16.10256386000000000px;font-variant:normal;font-stretch:normal;line-height:64.99999762000000200%;font-family:'C Dans L\'air';-inkscape-font-specification:'C Dans L\'air';fill:#ffffff;fill-opacity:1"
         id="path3005" />
      <path
         d="m 44.0925,1000.7705 0,2.6569 2.44759,0 c 0.976883,0 1.465327,-0.4509 1.465333,-1.3526 -6e-6,-0.8695 -0.499185,-1.3043 -1.497538,-1.3043 l -2.415385,0 m -1.497538,7.3105 0,-8.50211 4.073948,0 c 1.878626,10e-6 2.817941,0.75681 2.817949,2.27051 -8e-6,1.1057 -0.466982,1.8249 -1.400923,2.1577 l 0,0.016 c 0.837326,0.1181 1.255992,0.7193 1.256,1.8035 -8e-6,1.1701 0.15565,1.9216 0.466974,2.2543 l -1.594153,0 c -0.150297,-0.2469 -0.225443,-0.6655 -0.225436,-1.256 -7e-6,-0.8158 -0.118092,-1.3955 -0.354257,-1.739 -0.236176,-0.3435 -0.687048,-0.5153 -1.352615,-0.5153 l -2.189949,0 0,3.5103 -1.497538,0"
         style="font-size:16.10256386000000000px;font-variant:normal;font-stretch:normal;line-height:64.99999762000000200%;font-family:'C Dans L\'air';-inkscape-font-specification:'C Dans L\'air';fill:#ffffff;fill-opacity:1"
         id="path3007" />
    </g>
  </g>
</svg>
