<?xml version="1.0" encoding="UTF-8" standalone="no"?>
<svg
   xmlns:dc="http://purl.org/dc/elements/1.1/"
   xmlns:cc="http://creativecommons.org/ns#"
   xmlns:rdf="http://www.w3.org/1999/02/22-rdf-syntax-ns#"
   xmlns:svg="http://www.w3.org/2000/svg"
   xmlns="http://www.w3.org/2000/svg"
   xmlns:sodipodi="http://sodipodi.sourceforge.net/DTD/sodipodi-0.dtd"
   xmlns:inkscape="http://www.inkscape.org/namespaces/inkscape"
   enable-background="new 0 0 512 512"
   height="100"
   id="Layer_1"
   version="1.1"
   viewBox="0 0 100 100"
   width="100"
   xml:space="preserve"
   inkscape:version="0.48.4 r9939"
   sodipodi:docname="icon.svg"><metadata
     id="metadata13"><rdf:RDF><cc:Work
         rdf:about=""><dc:format>image/svg+xml</dc:format><dc:type
           rdf:resource="http://purl.org/dc/dcmitype/StillImage" /></cc:Work></rdf:RDF></metadata><defs
     id="defs11" /><sodipodi:namedview
     pagecolor="#ffffff"
     bordercolor="#666666"
     borderopacity="1"
     objecttolerance="10"
     gridtolerance="10"
     guidetolerance="10"
     inkscape:pageopacity="0"
     inkscape:pageshadow="2"
     inkscape:window-width="1600"
     inkscape:window-height="851"
     id="namedview9"
     showgrid="false"
     inkscape:zoom="5.2149125"
     inkscape:cx="58.655754"
     inkscape:cy="39.228645"
     inkscape:window-x="0"
     inkscape:window-y="25"
     inkscape:window-maximized="1"
     inkscape:current-layer="g3" /><g
     id="g3"
     transform="translate(0,-412)"><path
       d="M 50.03418,422 C 27.995742,422 10,439.99574 10,462.03418 10,483.9998 27.995742,502 50.03418,502 71.999805,502 90,483.9998 90,462.03418 90,439.99574 71.999805,422 50.03418,422 z m -4.179688,15.01953 14.101563,0 -4.462891,2.83692 -4.111328,0 c 4.535625,3.26015 5.878633,9.49265 2.973633,13.88671 -0.991094,1.41704 -2.901719,2.90422 -4.53125,4.17969 -1.841719,1.41703 -2.483985,3.54621 -0.712891,5.03418 1.276719,1.06188 2.553828,1.91156 3.759766,2.83203 7.579844,5.73906 5.880859,10.98453 3.330078,14.66797 -2.975781,4.25235 -9.568555,6.44777 -15.874024,6.51856 -5.314218,0.14156 -10.488711,-1.13067 -13.393554,-4.32129 -4.464844,-4.96047 -2.266055,-15.59078 16.723633,-16.01563 -1.841875,-1.98219 -2.906407,-4.46195 -1.347657,-6.94336 -7.36875,0.77985 -13.320273,-2.76301 -13.745117,-9.28222 -0.638281,-9.49485 7.085977,-13.39356 17.290039,-13.39356 z m -5.009765,2.63184 c -0.647214,0.003 -1.32046,0.11418 -2.006836,0.34668 -3.684844,1.27547 -4.603282,5.03086 -3.964844,8.85742 0.849531,5.24359 4.959101,10.55773 10.415039,8.85742 4.82,-1.48797 5.170781,-6.80227 3.398437,-11.33789 -1.494228,-3.64671 -4.346839,-6.74011 -7.841796,-6.72363 z m 26.196289,12.31933 2.62207,0 0,7.51465 7.866211,0 0,2.54883 -7.866211,0 0,7.44141 -2.62207,0 0,-7.44141 -8.149414,0 0,-2.54883 8.149414,0 0,-7.51465 z m -21.044922,16.58203 c -7.369844,0 -13.675469,1.3459 -14.667969,6.51856 -0.353906,1.63078 -0.213516,3.2618 0.849609,4.67773 1.983282,2.48016 6.592422,4.67782 12.119141,4.39453 2.975781,-0.2125 6.093945,-1.06476 7.93457,-3.33007 1.489063,-1.91391 1.699141,-4.32383 0.84961,-6.02539 -1.205782,-2.19454 -4.179961,-4.18004 -7.084961,-6.23536 z"
       id="path5"
       inkscape:connector-curvature="0"
       style="fill:#000000;fill-opacity:0.19607843" /></g></svg>